<svg width="32" height="32" viewBox="0 0 32 32" fill="none" xmlns="http://www.w3.org/2000/svg">
<rect x="0.5" y="0.5" width="31" height="31" rx="15.5" fill="#F7E5D9"/>
<rect x="0.5" y="0.5" width="31" height="31" rx="15.5" stroke="#CB5300"/>
<path fill-rule="evenodd" clip-rule="evenodd" d="M21.0321 7.91816C21.0321 7.5642 20.7502 7.2745 20.3962 7.26513C14.3297 7.07454 13.6997 9.77422 13.6769 12.9603C13.6745 13.2282 13.5083 13.4676 13.2578 13.5634C12.6736 13.5604 11.6302 13.5502 10.9611 13.5421C10.6143 13.5569 10.3409 13.8425 10.3409 14.1895C10.3357 14.7776 10.3357 15.6356 10.3357 16.2228C10.3357 16.396 10.4045 16.5622 10.5272 16.6848C10.6496 16.8075 10.8158 16.8763 10.9892 16.8763H13.0249C13.1981 16.8763 13.3643 16.9451 13.4869 17.0675C13.6096 17.1902 13.6784 17.3564 13.6784 17.5298C13.6784 18.9996 13.6784 22.5523 13.6784 24.0222C13.6784 24.3831 13.9709 24.6756 14.3319 24.6756H16.8131C17.174 24.6756 17.4665 24.3831 17.4665 24.0222V17.5298C17.4665 17.3564 17.5354 17.1902 17.658 17.0675C17.7806 16.9451 17.9468 16.8763 18.12 16.8763C18.8658 16.8763 20.0784 16.8763 20.8242 16.8763C20.9976 16.8763 21.1638 16.8075 21.2865 16.6848C21.4089 16.5622 21.4777 16.396 21.4777 16.2228C21.4777 15.6373 21.4777 14.783 21.4777 14.1953C21.4777 14.0207 21.4078 13.8534 21.2836 13.7305C21.1595 13.6077 20.9913 13.5397 20.8166 13.5419C19.6652 13.5552 17.416 13.5759 17.4495 13.5345C17.4502 13.534 17.4504 13.5332 17.4504 13.5325C17.2202 10.622 19.3008 10.1905 20.3919 10.1619C20.7461 10.1548 21.0297 9.86549 21.0297 9.51109C21.0321 9.02905 21.0321 8.38691 21.0321 7.91816Z" fill="#CB5300"/>
</svg>
