<svg width="36" height="36" viewBox="0 0 36 36" fill="none" xmlns="http://www.w3.org/2000/svg">
<path fill-rule="evenodd" clip-rule="evenodd" d="M1.40111 13.4562C1.48059 11.4263 1.60463 9.84547 1.72582 8.67708C1.92222 6.77264 3.52297 5.31981 5.60812 5.17973C7.936 5.02361 11.7538 4.84717 17.2942 4.83185H17.2964H18.9003H18.9021C24.4425 4.84717 28.2603 5.02361 30.5882 5.17973C32.6733 5.31981 34.2745 6.77264 34.4708 8.67708C34.592 9.84868 34.7164 11.4348 34.7959 13.4733C34.689 13.4768 34.5813 13.5039 34.4801 13.5563C33.7868 13.9163 28.1698 16.755 23.303 18.4256C21.2902 19.1164 19.4139 19.6136 18.0983 19.6136C16.7824 19.6136 14.9008 19.1142 12.8808 18.421C7.9973 16.7446 2.35172 13.8956 1.65845 13.5353C1.57576 13.4922 1.48879 13.4661 1.40111 13.4562ZM34.8451 15.0377C34.8455 15.0569 34.8462 15.0762 34.8465 15.0954C34.8683 16.005 34.8804 16.9884 34.8804 18.0488C34.8804 22.4166 34.6712 25.4848 34.4708 27.421C34.2745 29.3254 32.6719 30.7782 30.5875 30.9187H30.5868C28.1473 31.083 24.0729 31.2673 18.0983 31.2673C12.1238 31.2673 8.04899 31.083 5.60954 30.9187H5.60883C3.52439 30.7782 1.92222 29.3254 1.72582 27.421C1.52515 25.4848 1.31592 22.4166 1.31592 18.0488C1.31592 16.9884 1.32839 16.005 1.34978 15.0954C1.35014 15.0787 1.35085 15.0623 1.35121 15.0455C2.86713 15.8104 7.9442 18.2966 12.3986 19.8257C14.6028 20.5824 16.6626 21.0989 18.0983 21.0989C19.5341 21.0989 21.5886 20.5842 23.7853 19.8303C28.2821 18.2866 33.409 15.7641 34.8451 15.0377Z" fill="#FF9D16"/>
</svg>
