<svg width="36" height="36" viewBox="0 0 36 36" fill="none" xmlns="http://www.w3.org/2000/svg">
<path d="M27.1555 25.5761C24.5698 28.4942 21.6766 30.4915 20.3205 31.3514C18.9003 32.2519 17.0997 32.2519 15.6795 31.3514C14.3233 30.4915 11.4301 28.4942 8.84452 25.5761C8.36895 25.0393 7.89457 24.4609 7.43729 23.8426C7.41705 23.8437 7.39703 23.8449 7.37723 23.846C6.09372 23.9181 4.90384 24.6282 4.29955 25.8283C3.7388 26.942 2.96806 28.6906 2.39998 30.8316C1.87247 32.8196 3.35713 34.6095 5.30643 34.689C7.4759 34.7775 11.3726 34.8753 18.0005 34.8753C24.6285 34.8753 28.5252 34.7775 30.6947 34.689C32.644 34.6095 34.1286 32.8196 33.6011 30.8316C33.0331 28.6906 32.2623 26.942 31.7016 25.8283C31.0972 24.6282 29.9074 23.9181 28.6239 23.846C28.6037 23.8449 28.5833 23.8437 28.5628 23.8425C28.1055 24.4608 27.6311 25.0393 27.1555 25.5761Z" fill="#FF9D16"/>
<path fill-rule="evenodd" clip-rule="evenodd" d="M6 13.5523C6 6.89929 11.3693 1.5 18 1.5C24.6307 1.5 30 6.89929 30 13.5523C30 17.7973 27.8561 21.3923 25.4715 24.0835C23.0816 26.7807 20.3828 28.6474 19.1156 29.4508C18.4309 29.885 17.569 29.885 16.8844 29.4508C15.6172 28.6474 12.9184 26.7807 10.5285 24.0835C8.14387 21.3923 6 17.7973 6 13.5523ZM18 18C20.4853 18 22.5 15.9853 22.5 13.5C22.5 11.0147 20.4853 9 18 9C15.5147 9 13.5 11.0147 13.5 13.5C13.5 15.9853 15.5147 18 18 18Z" fill="#FF9D16"/>
</svg>
