<svg width="36" height="36" viewBox="0 0 36 36" fill="none" xmlns="http://www.w3.org/2000/svg">
<path d="M34.8623 10.917C34.4438 24.2197 23.529 34.875 10.125 34.875C5.00025 34.875 1.125 30.8738 1.125 25.8232C1.12504 25.1487 1.32719 24.4897 1.70538 23.9312C2.08358 23.3726 2.62045 22.9402 3.24675 22.6898L7.8705 20.8403C8.62003 20.5403 9.44109 20.467 10.2319 20.6292C11.0228 20.7915 11.7486 21.1822 12.3195 21.753L14.6265 24.0608C14.7285 24.1628 14.8433 24.1748 14.913 24.1538C17.0922 23.4883 19.0745 22.2976 20.6857 20.6864C22.2968 19.0753 23.4875 17.0929 24.153 14.9137C24.1747 14.8433 24.1628 14.7285 24.0608 14.6265L21.753 12.3195C21.1822 11.7486 20.7915 11.0228 20.6292 10.2319C20.467 9.44109 20.5403 8.62003 20.8403 7.8705L22.6898 3.24675C22.9402 2.62045 23.3726 2.08358 23.9312 1.70538C24.4897 1.32719 25.1487 1.12504 25.8232 1.125C31.347 1.125 34.9478 5.52075 34.8623 10.917Z" fill="#FF9D16"/>
</svg>
