<svg width="36" height="36" viewBox="0 0 36 36" fill="none" xmlns="http://www.w3.org/2000/svg">
<path d="M12.375 18C12.375 19.425 12.4385 20.8062 12.5576 22.125H23.4424C23.5615 20.8062 23.625 19.425 23.625 18C23.625 16.5751 23.5612 15.1938 23.4416 13.875H12.5584C12.4388 15.1938 12.375 16.5751 12.375 18Z" fill="#FF9D16"/>
<path d="M10.2996 13.875C10.1851 15.205 10.125 16.5857 10.125 18C10.125 19.4142 10.1848 20.795 10.2989 22.125H1.63279C1.30114 20.8049 1.125 19.423 1.125 18C1.125 16.577 1.30114 15.1952 1.63279 13.875H10.2996Z" fill="#FF9D16"/>
<path d="M12.8241 11.625H23.1759C22.8426 9.35445 22.3384 7.33024 21.714 5.66764C21.13 4.11264 20.4622 2.93206 19.7788 2.16049C19.0936 1.38701 18.4896 1.125 18 1.125C17.5104 1.125 16.9063 1.38701 16.2212 2.16049C15.5377 2.93206 14.87 4.11264 14.286 5.66764C13.6615 7.33024 13.1574 9.35445 12.8241 11.625Z" fill="#FF9D16"/>
<path d="M25.7004 13.875C25.8149 15.205 25.875 16.5857 25.875 18C25.875 19.4142 25.8152 20.795 25.7012 22.125H34.3672C34.6989 20.8049 34.875 19.423 34.875 18C34.875 16.577 34.6989 15.1952 34.3672 13.875H25.7004Z" fill="#FF9D16"/>
<path d="M33.6294 11.625H25.4487C25.0965 9.08401 24.5383 6.78788 23.8204 4.87652C23.3625 3.65735 22.8285 2.56481 22.2206 1.6571C27.4101 2.99339 31.6332 6.73627 33.6294 11.625Z" fill="#FF9D16"/>
<path d="M10.5513 11.625H2.37073C4.36683 6.73627 8.59 2.99339 13.7795 1.6571C13.1716 2.56481 12.6376 3.65735 12.1797 4.87652C11.4618 6.78788 10.9036 9.08401 10.5513 11.625Z" fill="#FF9D16"/>
<path d="M10.5496 24.375H2.37073C4.36576 29.2612 8.58551 33.0026 13.7712 34.3408C13.1637 33.4332 12.6306 32.3412 12.1737 31.1229C11.457 29.2116 10.9005 26.9157 10.5496 24.375Z" fill="#FF9D16"/>
<path d="M21.7197 30.3329C22.3431 28.6703 22.8457 26.6459 23.1778 24.375H12.8223C13.1544 26.6459 13.6569 28.6703 14.2804 30.3329C14.8635 31.8878 15.5307 33.068 16.2144 33.8392C16.8993 34.6117 17.5053 34.875 18 34.875C18.4947 34.875 19.1007 34.6117 19.7856 33.8392C20.4694 33.068 21.1365 31.8878 21.7197 30.3329Z" fill="#FF9D16"/>
<path d="M23.8263 31.1229C24.543 29.2116 25.0995 26.9157 25.4504 24.375H33.6293C31.6342 29.2612 27.4145 33.0026 22.2288 34.3408C22.8363 33.4332 23.3694 32.3412 23.8263 31.1229Z" fill="#FF9D16"/>
</svg>
