<svg width="98" height="98" viewBox="0 0 98 98" fill="none" xmlns="http://www.w3.org/2000/svg">
<rect width="98" height="98" rx="20" fill="#0076C0"/>
<path fill-rule="evenodd" clip-rule="evenodd" d="M49 17C60.2144 17 67.3901 17.2446 71.7437 17.486C76.5442 17.7523 80.3057 21.409 80.6013 26.2556C80.8105 29.6893 81 34.8339 81 42.2121C81 46.0135 80.9498 49.2221 80.8724 51.9091H17.1277C17.0503 49.2221 17 46.0135 17 42.2121C17 34.8339 17.1894 29.6893 17.3988 26.2556C17.6943 21.409 21.4558 17.7523 26.2562 17.486C30.6099 17.2446 37.7856 17 49 17ZM17.3988 58.1687C17.39 58.0246 17.3812 57.8774 17.3725 57.7273H80.6274C80.6187 57.8774 80.61 58.0246 80.6013 58.1687C80.3057 63.0152 76.5442 66.672 71.7437 66.9382C68.4378 67.1215 63.5047 67.3067 56.4118 67.3853L56.8553 70.9347C57.1586 73.3611 59.2212 75.1818 61.6664 75.1818H64.5152C66.1217 75.1818 67.4242 76.4843 67.4242 78.0909C67.4242 79.6975 66.1217 81 64.5152 81H33.4848C31.8782 81 30.5758 79.6975 30.5758 78.0909C30.5758 76.4843 31.8782 75.1818 33.4848 75.1818H36.3336C38.7788 75.1818 40.8414 73.3611 41.1447 70.9347L41.5882 67.3853C34.4953 67.3067 29.5622 67.1215 26.2562 66.9382C21.4558 66.672 17.6943 63.0152 17.3988 58.1687Z" fill="#FDFDFC"/>
</svg>
