<svg width="32" height="32" viewBox="0 0 32 32" fill="none" xmlns="http://www.w3.org/2000/svg">
<rect x="0.5" y="0.5" width="31" height="31" rx="15.5" fill="#F7E5D9"/>
<rect x="0.5" y="0.5" width="31" height="31" rx="15.5" stroke="#CB5300"/>
<g clip-path="url(#clip0_227_5060)">
<path fill-rule="evenodd" clip-rule="evenodd" d="M19.2264 9.73907C20.0383 9.73907 20.8169 10.0616 21.3909 10.6356C21.9649 11.2098 22.2875 11.9884 22.2875 12.8002V19.1765C22.2875 19.9883 21.9649 20.7669 21.3909 21.3409C20.8169 21.9149 20.0383 22.2375 19.2264 22.2375H12.8502C12.0383 22.2375 11.2598 21.9149 10.6856 21.3409C10.1116 20.7669 9.78906 19.9883 9.78906 19.1765V12.8002C9.78906 11.9884 10.1116 11.2098 10.6856 10.6356C11.2598 10.0616 12.0383 9.73907 12.8502 9.73907H19.2264ZM16.0383 13.5048C14.6676 13.5048 13.5548 14.6176 13.5548 15.9883C13.5548 17.359 14.6676 18.4717 16.0383 18.4717C17.4089 18.4717 18.5217 17.359 18.5217 15.9883C18.5217 14.6176 17.4089 13.5048 16.0383 13.5048ZM19.5037 11.8299C19.2741 11.8299 19.0878 12.0162 19.0878 12.2458C19.0878 12.4752 19.2741 12.6616 19.5037 12.6616C19.7331 12.6616 19.9195 12.4752 19.9195 12.2458C19.9195 12.0162 19.7331 11.8299 19.5037 11.8299Z" fill="#CB5300"/>
</g>
<defs>
<clipPath id="clip0_227_5060">
<rect width="14" height="14" fill="white" transform="translate(9 9)"/>
</clipPath>
</defs>
</svg>
