<svg width="32" height="32" viewBox="0 0 32 32" fill="none" xmlns="http://www.w3.org/2000/svg">
<rect x="0.5" y="0.5" width="31" height="31" rx="15.5" fill="#F7E5D9"/>
<rect x="0.5" y="0.5" width="31" height="31" rx="15.5" stroke="#CB5300"/>
<path d="M11.464 12.5C12.2296 12.5 12.8502 11.8732 12.8502 11.1C12.8502 10.3268 12.2296 9.70001 11.464 9.70001C10.6985 9.70001 10.0779 10.3268 10.0779 11.1C10.0779 11.8732 10.6985 12.5 11.464 12.5Z" fill="#CB5300"/>
<path fill-rule="evenodd" clip-rule="evenodd" d="M11.407 13.9C11.7162 13.9 12.0128 14.024 12.2314 14.245C12.45 14.4657 12.573 14.7652 12.573 15.0775C12.573 16.6777 12.573 19.5223 12.573 21.1225C12.573 21.4348 12.45 21.7343 12.2314 21.955C12.0128 22.176 11.7162 22.3 11.407 22.3C11.3988 22.3 11.3906 22.3 11.3824 22.3C11.0732 22.3 10.7767 22.176 10.558 21.955C10.3394 21.7343 10.2166 21.4348 10.2166 21.1225C10.2166 19.5223 10.2166 16.6777 10.2166 15.0775C10.2166 14.7652 10.3394 14.4657 10.558 14.245C10.7767 14.024 11.0732 13.9 11.3824 13.9C11.3906 13.9 11.3988 13.9 11.407 13.9Z" fill="#CB5300"/>
<path fill-rule="evenodd" clip-rule="evenodd" d="M17.0086 21.88C17.0086 21.9914 16.9648 22.0983 16.8868 22.1769C16.8087 22.2558 16.703 22.3 16.5928 22.3C15.9162 22.3 14.6522 22.3 14.6522 22.3C14.4225 22.3 14.2363 22.112 14.2363 21.88V17.0286C14.2363 16.1988 14.5626 15.403 15.1436 14.8163C15.7245 14.2296 16.5124 13.9 17.3339 13.9H19.1782C19.9998 13.9 20.7876 14.2296 21.3686 14.8163C21.9495 15.403 22.2759 16.1988 22.2759 17.0286V21.88C22.2759 22.112 22.0898 22.3 21.8601 22.3C21.8601 22.3 20.5959 22.3 19.9195 22.3C19.8092 22.3 19.7034 22.2558 19.6254 22.1769C19.5475 22.0983 19.5037 21.9914 19.5037 21.88C19.5037 20.717 19.5037 17.54 19.5037 17.54C19.5037 16.8441 18.945 16.28 18.2561 16.28C17.5671 16.28 17.0086 16.8441 17.0086 17.54V21.88Z" fill="#CB5300"/>
</svg>
