<svg width="32" height="32" viewBox="0 0 32 32" fill="none" xmlns="http://www.w3.org/2000/svg">
<rect x="0.5" y="0.5" width="31" height="31" rx="15.5" fill="#F7E5D9"/>
<rect x="0.5" y="0.5" width="31" height="31" rx="15.5" stroke="#CB5300"/>
<path d="M14.1369 14.1298C14.1369 14.1298 14.2982 13.0909 16.0269 12.9958C19.4593 12.8067 19.6281 18.9907 16.2584 19.0438C14.2115 19.0761 14.1503 17.4974 14.1369 17.3429C14.1235 17.1882 14.048 15.7312 16.0269 15.6418C18.5723 15.5268 20.7511 16.5617 20.752 18.8549C20.7525 20.2122 19.6117 22.2569 16.0269 22.2569C12.0642 22.2569 10.7579 19.3694 10.7773 16.0198C10.7934 13.2584 12.4095 9.90542 16.0269 9.78275C20.5913 9.62806 21.3615 13.7518 21.3615 13.7518" stroke="#CB5300" stroke-miterlimit="1" stroke-linecap="round" stroke-linejoin="round"/>
</svg>
