<svg width="32" height="32" viewBox="0 0 32 32" fill="none" xmlns="http://www.w3.org/2000/svg">
<rect x="0.5" y="0.5" width="31" height="31" rx="15.5" fill="#F7E5D9"/>
<rect x="0.5" y="0.5" width="31" height="31" rx="15.5" stroke="#CB5300"/>
<path fill-rule="evenodd" clip-rule="evenodd" d="M13.9846 17.4309C13.2336 17.4309 12.624 18.0405 12.624 18.7915C12.624 19.5424 13.2336 20.1522 13.9846 20.1522C14.7355 20.1522 15.3453 19.5424 15.3453 18.7915V10.1975C15.3453 10.0872 15.3891 9.98139 15.467 9.90349C15.545 9.82545 15.6508 9.78165 15.7611 9.78165C16.1359 9.78165 16.6834 9.78165 17.0524 9.78165C17.2694 9.78165 17.4498 9.94854 17.4669 10.1648C17.6402 12.1629 19.5223 13.3912 21.1815 13.4819C21.4037 13.4897 21.5798 13.6721 21.5798 13.8945C21.5829 14.1178 21.5829 14.3921 21.5829 14.6123C21.5829 14.8363 21.4055 15.0201 21.1815 15.0279C19.0528 15.1073 18.3417 14.5586 17.45 13.8519V18.7915C17.45 20.7041 15.8972 22.2569 13.9846 22.2569C12.072 22.2569 10.5193 20.7041 10.5193 18.7915C10.5193 16.879 12.072 15.3262 13.9846 15.3262V17.4309Z" fill="#CB5300"/>
</svg>
