<svg width="32" height="32" viewBox="0 0 32 32" fill="none" xmlns="http://www.w3.org/2000/svg">
<rect x="0.5" y="0.5" width="31" height="31" rx="15.5" fill="#F7E5D9"/>
<rect x="0.5" y="0.5" width="31" height="31" rx="15.5" stroke="#CB5300"/>
<g clip-path="url(#clip0_227_5086)">
<path d="M15.9299 10.54C17.2591 10.5394 19.0338 10.581 20.3724 10.619C21.5759 10.6533 22.5445 11.6124 22.5851 12.8167C22.6183 13.8028 22.65 14.9905 22.65 15.93C22.65 16.8805 22.6175 18.0851 22.5839 19.0781C22.5436 20.2664 21.5988 21.219 20.4111 21.2698C19.0685 21.3273 17.2729 21.391 15.9299 21.39C14.592 21.389 12.8469 21.326 11.5438 21.2693C10.3772 21.2185 9.44139 20.2959 9.38161 19.1284C9.33032 18.1266 9.28003 16.8977 9.28003 15.93C9.28003 14.9734 9.32916 13.7615 9.37983 12.7661C9.4401 11.5823 10.4001 10.6536 11.5826 10.6194C12.8817 10.5819 14.6061 10.5407 15.9299 10.54ZM15.2296 13.6794C14.5601 13.3202 13.7529 13.781 13.7222 14.5403C13.7045 14.9774 13.69 15.4592 13.69 15.8647C13.69 16.3156 13.708 16.8853 13.7283 17.3865C13.7581 18.1216 14.5214 18.5897 15.1883 18.2687C15.6528 18.0452 16.1795 17.7803 16.5732 17.5488C16.9408 17.3326 17.3538 17.0508 17.712 16.7946C18.3014 16.3732 18.2644 15.506 17.6623 15.1186C17.2417 14.848 16.756 14.5414 16.3647 14.3113C16.0228 14.1102 15.6089 13.8828 15.2296 13.6794Z" fill="#CB5300"/>
</g>
<defs>
<clipPath id="clip0_227_5086">
<rect width="14" height="14" fill="white" transform="translate(9 9)"/>
</clipPath>
</defs>
</svg>
