<svg width="62" height="73" viewBox="0 0 62 73" fill="none" xmlns="http://www.w3.org/2000/svg">
<g id="associacao">
<path id="backgroundIcon" d="M60.497 30.8399C60.497 51.8978 38.619 66.9084 32.5456 70.6704C32.0827 70.9618 31.5463 71.1165 30.9985 71.1165C30.4508 71.1165 29.9143 70.9618 29.4515 70.6704C23.3797 66.9084 1.5 51.8978 1.5 30.8399C1.5 14.6361 14.7071 1.5 30.9985 1.5C47.2899 1.5 60.497 14.6361 60.497 30.8399Z" fill="#CB5300" stroke="#FDFDFC" stroke-width="3" stroke-linecap="round" stroke-linejoin="round"/>
<g id="associacao_2">
<g id="symbolIcon">
<path id="Rectangle-134" fill-rule="evenodd" clip-rule="evenodd" d="M52.16 31.5588C52.4474 32.8186 51.9269 34.1276 50.6945 34.7182C50.1168 34.9953 49.3626 35.2939 48.4408 35.5276C47.5191 35.7613 46.7129 35.8594 46.072 35.8907C44.7042 35.9594 43.6111 35.0584 43.2524 33.8173C42.8394 32.3911 42.156 29.9737 41.4376 27.1965C40.7188 24.4189 40.1444 21.9735 39.8141 20.5272C39.5266 19.2673 40.0472 17.9579 41.2795 17.3673L41.2819 17.3663C42.0026 17.0233 42.7573 16.7523 43.5337 16.5574C44.4555 16.3238 45.2616 16.227 45.9016 16.1948C47.2699 16.1266 48.363 17.0271 48.7217 18.2682C49.1342 19.694 49.8181 22.1113 50.5364 24.889C51.2548 27.6662 51.8296 30.1116 52.16 31.5588ZM48.2143 30.9775L47.9174 29.8307C47.7914 29.3433 47.2892 29.0489 46.7969 29.1737C46.3047 29.2984 46.0073 29.7957 46.1338 30.2831L46.4302 31.4298C46.5562 31.9172 47.0584 32.2116 47.5507 32.0868C48.043 31.9621 48.3403 31.4649 48.2143 30.9775Z" fill="#FDFDFC"/>
<path id="Subtract" fill-rule="evenodd" clip-rule="evenodd" d="M43.6998 36.08C43.6356 36.2566 43.5611 36.4318 43.4766 36.6048C42.5921 38.416 39.6781 42.2741 36.6844 44.8639C34.7205 46.5634 32.0736 47.1625 29.87 45.8284C30.1536 45.4798 39.0655 34.2365 39.0655 34.2365C39.3279 33.9178 39.2793 33.4481 38.9569 33.1888C38.6351 32.9289 38.1607 32.9771 37.8983 33.2962L31.2751 41.3544L31.3256 41.132C31.6347 39.7754 31.1358 38.3632 30.0399 37.4936L24.0349 32.7275C23.0542 31.949 21.7397 31.721 20.5503 32.1233L20.0472 32.2934C20.8137 31.2976 21.7067 30.1219 22.6506 28.8494C22.8928 28.5232 23.1297 28.2022 23.3605 27.8872C23.6682 28.3723 24.1072 28.7723 24.6381 29.0349L25.6949 29.5583C27.4379 30.4209 29.5 30.3709 31.1981 29.4246C32.0567 28.9471 33.0638 28.4026 33.8001 28.0629C35.7513 29.4167 43.2996 35.773 43.6998 36.08ZM17.7001 35.0799C17.785 35.0351 17.8742 34.9963 17.9672 34.965L21.1582 33.886C21.7388 33.6897 22.3797 33.8009 22.8583 34.1808L28.8633 38.9469C29.398 39.3712 29.6415 40.06 29.4905 40.7222L28.7575 43.9372C28.6915 44.2288 28.5532 44.4933 28.3615 44.7115C27.4431 43.9026 20.0595 37.3165 17.6189 35.1393L17.7001 35.0799Z" fill="#FDFDFC"/>
<path id="Rectangle-1341" fill-rule="evenodd" clip-rule="evenodd" d="M22.9423 26.8713C22.6062 27.3316 22.2551 27.8092 21.8926 28.2984C20.1784 30.6093 18.6327 32.599 17.7118 33.7696C16.9114 34.7884 15.5577 35.2197 14.3141 34.6505C13.7317 34.3846 13.0209 33.9953 12.2539 33.4379C11.4869 32.8804 10.8998 32.3243 10.4679 31.8542C9.54807 30.8504 9.55845 29.4433 10.2999 28.3812C11.1528 27.161 12.6079 25.1049 14.3221 22.7936C16.0359 20.4833 17.5816 18.493 18.5019 17.3229C19.3029 16.3042 20.6565 15.8729 21.9002 16.442C22.4816 16.7084 23.1934 17.0963 23.9599 17.6537C24.6069 18.1215 25.2049 18.6519 25.7439 19.2365L25.7458 19.2388C26.2489 19.787 26.4736 20.4557 26.4533 21.123L23.7182 24.0563C23.0367 24.7876 22.7417 25.7942 22.9225 26.7732C22.9286 26.8059 22.9352 26.8386 22.9423 26.8713ZM15.6639 30.3798L16.3719 29.4256C16.6725 29.02 16.5843 28.4489 16.1746 28.1512C15.7654 27.8536 15.1887 27.941 14.888 28.3466L14.18 29.3008C13.8794 29.7064 13.9677 30.2775 14.3773 30.5752C14.7865 30.8728 15.3633 30.7854 15.6639 30.3798Z" fill="#FDFDFC"/>
<path id="Subtract1" fill-rule="evenodd" clip-rule="evenodd" d="M42.1116 33.2513L41.0341 32.3808C39.5898 31.4232 35.7739 28.2222 33.9049 27.0072C33.8086 27.0437 33.6892 27.0904 33.5816 27.1381C32.8155 27.4769 31.6875 28.0839 30.737 28.6134C29.3106 29.4078 27.579 29.4498 26.1154 28.7255L25.0586 28.2021C24.4238 27.8881 23.9754 27.2965 23.848 26.6054C23.7201 25.9142 23.9282 25.2044 24.4096 24.688L28.4535 20.35C29.1752 19.5762 30.2065 19.1584 31.2689 19.2098C33.001 19.2939 36.5909 19.4453 38.8068 19.5379C38.7761 19.9299 38.8054 20.3327 38.8965 20.7323C39.2283 22.1842 39.805 24.6394 40.5262 27.4273C41.1237 29.7363 41.6972 31.7976 42.1116 33.2513Z" fill="#FDFDFC"/>
<path id="Vector" fill-rule="evenodd" clip-rule="evenodd" d="M29.3971 38.4642C30.1905 39.0941 30.552 40.1166 30.3283 41.0984L29.6147 44.2279C29.4117 45.12 28.7557 45.8439 27.882 46.1397C27.0084 46.4359 26.0418 46.2626 25.3291 45.6812L17.0922 38.9628C16.3479 38.3558 15.9939 37.3978 16.1666 36.4585C16.3389 35.5197 17.0115 34.7463 17.9238 34.4379L21.0294 33.3879C21.8908 33.0968 22.8428 33.2617 23.5526 33.8253L29.3971 38.4642Z" fill="#FDFDFC"/>
</g>
</g>
</g>
</svg>
