<svg width="62" height="73" viewBox="0 0 62 73" fill="none" xmlns="http://www.w3.org/2000/svg">
<g id="centro">
<path id="backgroundIcon" d="M60.497 30.8399C60.497 51.8978 38.619 66.9084 32.5456 70.6704C32.0827 70.9618 31.5463 71.1165 30.9985 71.1165C30.4508 71.1165 29.9143 70.9618 29.4515 70.6704C23.3797 66.9084 1.5 51.8978 1.5 30.8399C1.5 14.6361 14.7071 1.5 30.9985 1.5C47.2899 1.5 60.497 14.6361 60.497 30.8399Z" fill="#CC7E12" stroke="#FDFDFC" stroke-width="3" stroke-linecap="round" stroke-linejoin="round"/>
<g id="centro_2">
<g id="symbolIcon">
<path id="Vector-705" fill-rule="evenodd" clip-rule="evenodd" d="M37.2691 45.3637C39.5608 45.3284 41.4647 45.2772 42.9649 45.226C45.3026 45.1463 47.1614 43.3026 47.2579 40.9653C47.3409 38.9503 47.4169 36.3845 47.4169 33.7276C47.4169 30.2733 47.2885 27.1154 47.1826 25.0971C47.1058 23.6272 46.4834 22.2463 45.3676 21.2867C43.1596 19.3882 38.8883 16.1032 33.2534 13.602C31.8582 12.9829 30.264 12.9829 28.8688 13.602C23.2343 16.1032 18.9631 19.3882 16.755 21.2871C15.6388 22.2463 15.0169 23.6272 14.9396 25.0971C14.8337 27.1154 14.7057 30.2733 14.7057 33.7276C14.7057 36.3845 14.7813 38.9507 14.8647 40.9653C14.9612 43.3026 16.8197 45.1463 19.1577 45.226C20.66 45.2773 22.5676 45.3286 24.8642 45.3639C24.8642 44.8057 24.8726 44.6894 24.8769 44.6313C24.8775 44.6225 24.8781 44.6149 24.8785 44.6074C24.8807 44.5656 24.8785 44.5235 24.8642 44.2477C24.6102 39.2502 24.6196 34.3397 24.8748 29.5278C24.905 28.9673 25.3127 28.4991 25.8635 28.3911C29.5504 27.6821 33.089 27.5766 36.3388 28.3572C36.8487 28.486 37.2188 28.9264 37.258 29.451C37.6064 34.1998 37.5798 39.1593 37.2691 44.2594C37.2473 44.6108 37.2492 44.6403 37.2554 44.7385C37.2607 44.8211 37.2691 44.9522 37.2691 45.3637Z" fill="#FDFDFC" stroke="#FDFDFC" stroke-width="3" stroke-linecap="round" stroke-linejoin="round"/>
</g>
</g>
</g>
</svg>
