<svg width="62" height="73" viewBox="0 0 62 73" fill="none" xmlns="http://www.w3.org/2000/svg">
<g id="coletivo">
<path id="backgroundIcon" d="M60.497 30.8399C60.497 51.8978 38.619 66.9084 32.5456 70.6704C32.0827 70.9618 31.5463 71.1165 30.9985 71.1165C30.4508 71.1165 29.9143 70.9618 29.4515 70.6704C23.3797 66.9084 1.5 51.8978 1.5 30.8399C1.5 14.6361 14.7071 1.5 30.9985 1.5C47.2899 1.5 60.497 14.6361 60.497 30.8399Z" fill="#BF7611" stroke="#FDFDFC" stroke-width="3" stroke-linecap="round" stroke-linejoin="round"/>
<g id="coletivo_2">
<path id="symbolIcon" fill-rule="evenodd" clip-rule="evenodd" d="M14.0515 38.7302C13.2671 36.4305 12.8541 33.9798 12.8541 31.4778C12.8541 27.3642 13.1645 23.8718 13.4114 21.7508C13.6313 19.8456 14.8287 18.3076 16.7011 17.8933C18.8603 17.4156 23.0455 16.8516 30.8374 16.8516C38.6289 16.8516 42.8132 17.4156 44.9737 17.8933C46.8457 18.3076 48.043 19.8456 48.2634 21.7508C48.5099 23.8718 48.8203 27.3642 48.8203 31.4778C48.8203 33.8776 48.4405 36.2303 47.7171 38.448L47.6065 37.4546C47.5993 37.3932 47.5863 37.333 47.5665 37.2746C46.8995 35.2811 45.1377 33.9016 43.0567 33.7914C42.9781 33.7876 42.8999 33.7834 42.8216 33.7792C43.908 32.7475 44.5893 31.2928 44.5893 29.6912C44.5893 26.5933 42.0406 24.0446 38.9431 24.0446C35.8452 24.0446 33.2965 26.5933 33.2965 29.6912C33.2965 30.1358 33.3491 30.5694 33.4483 30.9858C32.7014 30.619 31.8644 30.4125 30.9829 30.4125C30.1014 30.4125 29.2645 30.619 28.5179 30.9858C28.6172 30.5694 28.6698 30.1358 28.6698 29.6912C28.6698 26.5933 26.1207 24.0446 23.0232 24.0446C19.9256 24.0446 17.3765 26.5933 17.3765 29.6912C17.3765 31.2928 18.0579 32.7475 19.1442 33.7792C19.0664 33.7834 18.9878 33.7876 18.9091 33.7914C16.6267 33.9121 14.7261 35.5608 14.2374 37.871L14.0515 38.7302ZM46.3351 41.7465C44.837 44.6329 42.6988 47.1627 40.021 49.0923C39.6997 47.3646 38.9881 44.421 38.8396 43.5861C38.4918 41.6305 36.9256 40.1929 34.9494 40.0621C35.9848 39.0364 36.6295 37.6169 36.6295 36.0591C36.6295 35.8194 36.6144 35.583 36.5845 35.3509C38.8893 35.3702 40.8109 35.4165 42.965 35.5305C44.3012 35.6011 45.4283 36.4801 45.8863 37.7431L46.3254 41.6818C46.3275 41.7036 46.3309 41.7255 46.3351 41.7465ZM38.4809 50.0995C38.1394 50.3014 37.7907 50.494 37.4345 50.677C34.9851 51.9383 32.5803 52.8177 30.8374 52.8177C29.0941 52.8177 26.6893 51.9375 24.2399 50.677C23.8761 50.4898 23.5199 50.2926 23.1708 50.0861L23.3281 50.1059C23.5056 48.6978 24.6655 44.8807 24.8413 43.891C25.0486 42.7244 25.9819 41.8614 27.165 41.7979C28.1365 41.7457 29.399 41.7057 30.9829 41.7057C32.5668 41.7057 33.8298 41.7457 34.8013 41.7979C35.9844 41.8614 36.9181 42.7244 37.1254 43.891C37.2982 44.863 38.2492 48.7306 38.4237 50.1067L38.4809 50.0995ZM21.7312 49.1478C18.9499 47.1635 16.7448 44.5341 15.2283 41.5295L15.9399 38.2352L15.9407 38.2314C16.2624 36.711 17.4989 35.6095 19.0008 35.5305C21.155 35.4165 23.077 35.3702 25.3813 35.3509C25.3519 35.583 25.3363 35.8194 25.3363 36.0591C25.3363 37.6169 25.9815 39.0364 27.0165 40.0621C25.0407 40.1929 23.4749 41.6305 23.127 43.5861C22.974 44.447 22.092 47.4197 21.7312 49.1478ZM30.9829 39.9642C28.8405 39.9642 27.0775 38.2015 27.0775 36.0591C27.0775 33.9167 28.8405 32.1537 30.9829 32.1537C33.1253 32.1537 34.8884 33.9167 34.8884 36.0591C34.8884 38.2015 33.1253 39.9642 30.9829 39.9642ZM35.0377 29.6912C35.0377 27.5488 36.8007 25.7858 38.9431 25.7858C41.0855 25.7858 42.8481 27.5488 42.8481 29.6912C42.8481 31.8336 41.0855 33.5963 38.9431 33.5963C36.8007 33.5963 35.0377 31.8336 35.0377 29.6912ZM26.9286 29.6912C26.9286 31.8336 25.1656 33.5963 23.0232 33.5963C20.8808 33.5963 19.1177 31.8336 19.1177 29.6912C19.1177 27.5488 20.8808 25.7858 23.0232 25.7858C25.1656 25.7858 26.9286 27.5488 26.9286 29.6912Z" fill="#FDFDFC"/>
</g>
</g>
</svg>
