<svg width="62" height="73" viewBox="0 0 62 73" fill="none" xmlns="http://www.w3.org/2000/svg">
<g id="coletivo_cultural">
<path id="backgroundIcon" d="M60.497 30.8399C60.497 51.8978 38.619 66.9084 32.5456 70.6704C32.0827 70.9618 31.5463 71.1165 30.9985 71.1165C30.4508 71.1165 29.9143 70.9618 29.4515 70.6704C23.3797 66.9084 1.5 51.8978 1.5 30.8399C1.5 14.6361 14.7071 1.5 30.9985 1.5C47.2899 1.5 60.497 14.6361 60.497 30.8399Z" fill="#73470A" stroke="#FDFDFC" stroke-width="3" stroke-linecap="round" stroke-linejoin="round"/>
<g id="coletivo_cultural_2">
<g id="symbolIcon">
<path id="symbolIcon_2" d="M44.3387 35.7332C41.0154 35.7341 37.6254 35.4245 36.0856 36.1944C34.464 37.0035 33.3629 39.2773 34.3762 41.7473C36.358 46.5769 36.9399 47.0465 36.512 48.7943C36.0856 50.541 33.8992 51.1436 30.9587 51.1436C20.1046 51.1436 11.3059 42.3469 11.3059 31.4957C11.3059 20.6446 20.1036 11.8479 30.9587 11.8479C40.9197 11.8479 49.0388 19.5539 50.4014 28.8677C50.9485 32.6154 48.1267 35.7322 44.3387 35.7332ZM28.3429 22.2138C28.3429 25.3408 30.916 27.9139 34.043 27.9139C37.17 27.9139 39.7431 25.3408 39.7431 22.2138C39.7431 19.0867 37.17 16.5137 34.043 16.5137C30.916 16.5137 28.3429 19.0867 28.3429 22.2138ZM16.1797 29.2308C16.1797 32.1012 18.5418 34.4633 21.4122 34.4633C24.2826 34.4633 26.6447 32.1012 26.6447 29.2308C26.6447 26.3604 24.2826 23.9983 21.4122 23.9983C18.5418 23.9983 16.1797 26.3604 16.1797 29.2308ZM20.8578 41.3935C20.8578 43.7507 22.7974 45.6903 25.1545 45.6903C27.5117 45.6903 29.4518 43.7507 29.4518 41.3935C29.4518 39.0363 27.5117 37.0967 25.1545 37.0967C22.7974 37.0967 20.8578 39.0363 20.8578 41.3935Z" fill="#FDFDFC"/>
</g>
</g>
</g>
</svg>
