<svg width="62" height="73" viewBox="0 0 62 73" fill="none" xmlns="http://www.w3.org/2000/svg">
<g id="companhia">
<path id="backgroundIcon" d="M60.497 30.8399C60.497 51.8978 38.619 66.9084 32.5456 70.6704C32.0827 70.9618 31.5463 71.1165 30.9985 71.1165C30.4508 71.1165 29.9143 70.9618 29.4515 70.6704C23.3797 66.9084 1.5 51.8978 1.5 30.8399C1.5 14.6361 14.7071 1.5 30.9985 1.5C47.2899 1.5 60.497 14.6361 60.497 30.8399Z" fill="#593708" stroke="#FDFDFC" stroke-width="3" stroke-linecap="round" stroke-linejoin="round"/>
<g id="companhia_2">
<g id="symbolIcon">
<path id="Rectangle-57" fill-rule="evenodd" clip-rule="evenodd" d="M21.9567 48.4027H16.7883C15.5186 48.4086 14.4575 47.3988 14.4066 46.1354C14.2976 43.3924 14.1425 38.295 14.1425 31.5798C14.1425 26.0858 14.3502 21.9007 14.5449 19.1893C14.6837 17.0607 16.3799 15.3339 18.5143 15.1475C20.6584 14.9507 23.5482 14.7568 26.6145 14.7568C29.6973 14.7568 32.601 14.9524 34.7497 15.1509C36.8664 15.3318 38.5508 17.0418 38.6913 19.1522C38.8839 21.8119 39.0866 25.9504 39.0866 31.5798C39.0866 38.4729 38.9344 43.4647 38.8259 46.145C38.7737 47.4042 37.7147 48.4102 36.4488 48.4027H31.2253C31.301 48.295 31.3527 48.1701 31.3742 48.0343L31.3784 48.03L31.383 47.9514L31.3838 47.9333C31.4179 47.0552 31.4461 45.7968 31.4461 44.0266C31.4461 42.2564 31.4179 40.9976 31.3838 40.1199C31.3195 38.5007 30.3623 37.1746 28.7574 36.9526L28.7498 36.9517C28.0403 36.8596 27.3249 36.8163 26.6095 36.8218C25.9008 36.8167 25.1871 36.8601 24.4793 36.9517L24.4717 36.9526C22.8668 37.1746 21.9096 38.5007 21.8453 40.1199C21.8112 40.9976 21.783 42.256 21.783 44.0254C21.7792 45.3552 21.8015 46.6851 21.8499 48.0141C21.8553 48.155 21.8932 48.2866 21.9567 48.4027ZM21.3872 30.5784V32.1606C21.3872 32.6442 21.7801 33.0366 22.2637 33.0366C22.7474 33.0366 23.1398 32.6442 23.1398 32.1606V30.5784C23.1398 30.0947 22.7474 29.7019 22.2637 29.7019C21.7801 29.7019 21.3872 30.0947 21.3872 30.5784ZM30.0893 30.5784V32.1606C30.0893 32.6442 30.4817 33.0366 30.9654 33.0366C31.449 33.0366 31.8419 32.6442 31.8419 32.1606V30.5784C31.8419 30.0947 31.449 29.7019 30.9654 29.7019C30.4817 29.7019 30.0893 30.0947 30.0893 30.5784ZM30.0893 21.8763V23.4585C30.0893 23.9422 30.4817 24.335 30.9654 24.335C31.449 24.335 31.8419 23.9422 31.8419 23.4585V21.8763C31.8419 21.3931 31.449 21.0002 30.9654 21.0002C30.4817 21.0002 30.0893 21.3931 30.0893 21.8763ZM21.3872 21.8763V23.4585C21.3872 23.9422 21.7801 24.335 22.2637 24.335C22.7474 24.335 23.1398 23.9422 23.1398 23.4585V21.8763C23.1398 21.3931 22.7474 21.0002 22.2637 21.0002C21.7801 21.0002 21.3872 21.3931 21.3872 21.8763Z" fill="#FDFDFC"/>
<path id="Subtract" fill-rule="evenodd" clip-rule="evenodd" d="M39.8529 25.0496C39.8449 24.7556 39.836 24.4683 39.8268 24.1882C40.9653 24.2181 42.1029 24.2761 43.2393 24.3619C45.5786 24.5386 47.3929 26.5359 47.5544 29.0795C47.676 30.9796 47.7882 33.4943 47.7882 36.2839C47.7882 39.9189 47.6924 43.2793 47.6162 45.3742V45.3754C47.5527 47.0624 46.2561 48.4103 44.7075 48.4023L39.6893 48.4532C39.6893 48.4532 39.6863 45.8536 39.704 45.3897V45.3889C39.8007 42.7847 39.9361 37.9347 39.9361 31.2366C39.9361 29.2759 39.913 27.5002 39.8752 25.9101C39.8684 25.6169 39.8609 25.3301 39.8529 25.0496Z" fill="#FDFDFC"/>
</g>
</g>
</g>
</svg>
