<svg width="62" height="73" viewBox="0 0 62 73" fill="none" xmlns="http://www.w3.org/2000/svg">
<g id="consultoria">
<path id="backgroundIcon" d="M60.497 30.8399C60.497 51.8978 38.619 66.9084 32.5456 70.6704C32.0827 70.9618 31.5463 71.1165 30.9985 71.1165C30.4508 71.1165 29.9143 70.9618 29.4515 70.6704C23.3797 66.9084 1.5 51.8978 1.5 30.8399C1.5 14.6361 14.7071 1.5 30.9985 1.5C47.2899 1.5 60.497 14.6361 60.497 30.8399Z" fill="#FF9D16" stroke="#FDFDFC" stroke-width="3" stroke-linecap="round" stroke-linejoin="round"/>
<g id="consultoria_2">
<g id="symbolIcon">
<g id="Subtract">
<path id="Vector" fill-rule="evenodd" clip-rule="evenodd" d="M25.0848 12.8664C24.6969 13.6449 24.1824 14.7697 23.8394 15.9067C20.8379 16.0772 18.6645 16.3408 17.1472 16.5908C14.8046 16.9763 13.2321 18.8829 13.0111 21.1344C12.84 22.8718 12.6536 25.3406 12.5695 28.3986C12.9573 28.5243 13.4597 28.6855 14.0503 28.872C15.5065 29.3318 17.4981 29.9445 19.6407 30.5566C21.7856 31.1697 24.0707 31.7786 26.117 32.2333C28.1928 32.6945 29.9256 32.9744 31.0107 32.9744C32.0957 32.9744 33.8285 32.6945 35.9043 32.2333C37.9501 31.7786 40.2352 31.1697 42.3801 30.5566C44.5232 29.9445 46.5144 29.3318 47.9705 28.872C48.5616 28.6855 49.0635 28.5243 49.4518 28.3986C49.3677 25.3406 49.1808 22.8718 49.0102 21.1344C48.7887 18.8829 47.2163 16.9763 44.8741 16.5908C43.3563 16.3408 41.1829 16.0772 38.1814 15.9067C37.8389 14.7697 37.3239 13.6449 36.9361 12.8664C36.336 11.6621 35.193 10.7537 33.7705 10.5593C33.0644 10.4626 32.1308 10.3794 31.0107 10.3794C29.8901 10.3794 28.9569 10.4626 28.2503 10.5593C26.8278 10.7537 25.6848 11.6621 25.0848 12.8664ZM31.0107 13.6659C30.0527 13.6659 29.2685 13.737 28.6956 13.8155C28.4381 13.8505 28.1825 14.0188 28.0265 14.3318C27.8124 14.7613 27.582 15.2566 27.3764 15.7641C28.4998 15.7356 29.7097 15.7202 31.0107 15.7202C32.3112 15.7202 33.521 15.7356 34.6449 15.7641C34.4388 15.2566 34.2084 14.7613 33.9944 14.3318C33.8383 14.0188 33.5832 13.8505 33.3252 13.8155C32.7523 13.737 31.9682 13.6659 31.0107 13.6659Z" fill="#FDFDFC"/>
<path id="Vector_2" d="M49.4949 30.9739C49.2556 31.0505 48.9944 31.1337 48.7131 31.2225C47.2425 31.687 45.2279 32.3066 43.0573 32.9267C40.8885 33.5464 38.552 34.1698 36.4389 34.6394C34.3547 35.1025 32.3902 35.439 31.0107 35.439C29.6307 35.439 27.6662 35.1025 25.5825 34.6394C23.4689 34.1698 21.1323 33.5464 18.9636 32.9267C16.793 32.3066 14.7789 31.687 13.3083 31.2225C13.027 31.1337 12.7653 31.0505 12.526 30.9739C12.5246 31.2267 12.5237 31.4828 12.5237 31.7417C12.5237 36.3666 12.7816 40.0167 13.0111 42.3494C13.2321 44.6009 14.8046 46.507 17.1472 46.893C19.6781 47.3099 24.0334 47.7636 31.0107 47.7636C37.9875 47.7636 42.3432 47.3099 44.8742 46.893C47.2163 46.507 48.7888 44.6009 49.0103 42.3494C49.2397 40.0167 49.4972 36.3666 49.4972 31.7417C49.4972 31.4828 49.4963 31.2267 49.4949 30.9739Z" fill="#FDFDFC"/>
</g>
</g>
</g>
</g>
</svg>
