<svg width="62" height="73" viewBox="0 0 62 73" fill="none" xmlns="http://www.w3.org/2000/svg">
<g id="coopera&#195;&#167;&#195;&#163;o">
<path id="backgroundIcon" d="M60.497 30.8399C60.497 51.8978 38.619 66.9084 32.5456 70.6704C32.0827 70.9618 31.5463 71.1165 30.9985 71.1165C30.4508 71.1165 29.9143 70.9618 29.4515 70.6704C23.3797 66.9084 1.5 51.8978 1.5 30.8399C1.5 14.6361 14.7071 1.5 30.9985 1.5C47.2899 1.5 60.497 14.6361 60.497 30.8399Z" fill="#B74B00" stroke="#FDFDFC" stroke-width="3" stroke-linecap="round" stroke-linejoin="round"/>
<g id="coopera&#195;&#167;&#195;&#163;o_2">
<g id="symbolIcon">
<path id="Union" fill-rule="evenodd" clip-rule="evenodd" d="M46.257 15.4692C46.3046 14.9014 46.6182 14.3673 47.1757 14.2355C47.3738 14.1883 47.5799 14.1551 47.7757 14.1551C48.0079 14.1551 48.2393 14.2023 48.4486 14.2645C48.9416 14.4107 49.2346 14.8762 49.3253 15.3818C49.5141 16.4379 49.7622 18.2529 49.7627 20.4945V20.495C49.7659 22.3371 49.5846 24.5601 49.1201 26.5485C49.0028 27.0499 48.8355 27.5195 48.5173 27.8943C48.1271 28.3527 47.3575 28.9499 46.8205 29.2303C46.3757 29.4621 45.87 29.5289 45.3518 29.5546C44.8079 29.5813 44.1896 29.5981 43.4943 29.5981C41.8082 29.5981 40.6203 29.4995 39.854 29.3999C39.1839 29.3126 38.5058 29.1093 38.0091 28.6504C35.6375 26.4606 34.5678 24.6134 33.7435 23.5292C33.4991 23.2077 33.3449 22.8119 33.4309 22.417C33.5295 21.9647 33.7089 21.56 33.9047 21.2198C34.2552 20.6104 35.0478 20.5632 35.6412 20.9404C36.8436 21.7044 37.117 22.281 37.117 22.281C37.1945 22.4633 37.3899 22.5661 37.5843 22.5264C37.7787 22.4871 37.9179 22.3161 37.9179 22.118C37.9179 21.4016 38.0235 17.143 38.0296 16.8954C38.117 15.8 38.117 14.8808 38.1974 14.1878C38.2665 13.5943 38.6437 13.0588 39.2362 12.984C39.3839 12.9654 39.5376 12.9537 39.6913 12.9537C39.8535 12.9537 40.0096 12.9616 40.1572 12.9747C40.8292 13.0354 41.2208 13.6747 41.2241 14.3495L41.233 16.0533V16.0542C41.2363 17.2435 41.2405 18.2347 41.2409 18.2837V18.2856C41.2419 18.5155 41.4288 18.701 41.6587 18.7006C41.8891 18.7001 42.0751 18.5136 42.0751 18.2837V18.2819C42.0751 17.8379 42.0713 16.9669 42.0671 16.051V16.05C42.0648 15.1958 42.0634 14.2388 42.0643 13.456C42.0657 12.7906 42.4564 12.1686 43.119 12.1046C43.2793 12.0892 43.4489 12.0793 43.6242 12.0793C43.8555 12.0793 44.0868 12.0957 44.306 12.1209C44.985 12.198 45.421 12.8041 45.4247 13.4873C45.4275 14.0729 45.4261 14.757 45.4228 15.4351C45.4186 15.4902 45.4167 15.5453 45.4163 15.6009L45.3924 18.7721V18.7744C45.3906 19.0043 45.5752 19.1922 45.8051 19.1945C46.035 19.1968 46.2233 19.0127 46.2266 18.7828V18.7805C46.2275 18.7108 46.2481 17.1127 46.257 15.4692Z" fill="#FDFDFC"/>
<path id="Union1" fill-rule="evenodd" clip-rule="evenodd" d="M15.8841 46.1023C15.8359 46.6696 15.5224 47.2037 14.9653 47.336C14.7667 47.3827 14.5607 47.4159 14.3649 47.4159C14.1331 47.4159 13.9013 47.3691 13.6919 47.307C13.1994 47.1603 12.9059 46.6953 12.8153 46.1892C12.6265 45.1331 12.3784 43.3181 12.3784 41.0769V41.076C12.3746 39.2339 12.5564 37.0109 13.0209 35.0225C13.1377 34.5211 13.305 34.0515 13.6232 33.6772C14.0134 33.2183 14.7831 32.6215 15.3205 32.3411C15.7649 32.1089 16.2705 32.0421 16.7888 32.0164C17.3327 31.9897 17.9509 31.9729 18.6468 31.9729C20.3328 31.9729 21.5202 32.072 22.2866 32.1715C22.9572 32.2584 23.6348 32.4622 24.1315 32.9206C26.5031 35.1104 27.5732 36.9581 28.397 38.0418C28.6419 38.3637 28.7957 38.7591 28.7097 39.1544C28.6111 39.6063 28.4316 40.011 28.2358 40.3517C27.8853 40.961 27.0928 41.0077 26.4993 40.6306C25.297 39.8666 25.0236 39.2899 25.0236 39.2899C24.946 39.1077 24.7507 39.0049 24.5563 39.0446C24.3623 39.0843 24.2226 39.2549 24.2226 39.4535C24.2226 40.1699 24.1175 44.4279 24.1114 44.6756C24.024 45.771 24.0236 46.6902 23.9432 47.3836C23.8745 47.9766 23.4969 48.5126 22.9044 48.5874C22.7567 48.6061 22.603 48.6178 22.4492 48.6178C22.2875 48.6178 22.1314 48.6098 21.9833 48.5963C21.3113 48.5355 20.9202 47.8963 20.9165 47.2215L20.9076 45.5177V45.5168C20.9048 44.3275 20.9001 43.3368 20.9001 43.2877V43.2858C20.8987 43.0555 20.7118 42.8699 20.4819 42.8704C20.2519 42.8709 20.0655 43.0578 20.0655 43.2877L20.066 43.2896C20.066 43.7335 20.0692 44.6041 20.0734 45.52V45.521C20.0758 46.3757 20.0772 47.3322 20.0762 48.115C20.0753 48.7809 19.6842 49.4029 19.0215 49.4669C18.8617 49.4823 18.6921 49.4916 18.5164 49.4916C18.2851 49.4916 18.0542 49.4753 17.8346 49.4505C17.1561 49.3734 16.7196 48.7673 16.7163 48.0841C16.7131 47.4981 16.7145 46.814 16.7182 46.1364C16.7219 46.0813 16.7243 46.0256 16.7243 45.9705L16.7486 42.7994V42.797C16.7504 42.5671 16.5654 42.3793 16.3359 42.3769C16.106 42.3741 15.9172 42.5583 15.9144 42.7882V42.7905C15.9135 42.8601 15.8925 44.4583 15.8841 46.1023Z" fill="#FDFDFC"/>
<path id="Union2" fill-rule="evenodd" clip-rule="evenodd" d="M15.7678 15.5854C15.2005 15.5377 14.6663 15.2242 14.5341 14.6671C14.4869 14.4685 14.4542 14.2624 14.4542 14.0666C14.4542 13.8344 14.5009 13.6031 14.5631 13.3937C14.7093 12.9012 15.1748 12.6077 15.6809 12.5171C16.737 12.3283 18.552 12.0801 20.7931 12.0801H20.7941C22.6362 12.0764 24.8587 12.2577 26.8475 12.7222C27.3489 12.8395 27.8186 13.0068 28.1929 13.325C28.6518 13.7152 29.2485 14.4849 29.5289 15.0223C29.7607 15.4667 29.828 15.9723 29.8532 16.4905C29.8803 17.0345 29.8972 17.6527 29.8972 18.3481C29.8972 20.0341 29.7981 21.222 29.6985 21.9884C29.6116 22.6585 29.4079 23.3365 28.9495 23.8333C26.7597 26.2048 24.912 27.2745 23.8283 28.0988C23.5063 28.3432 23.1105 28.4974 22.7156 28.4115C22.2638 28.3129 21.8591 28.1334 21.5184 27.9376C20.909 27.5871 20.8623 26.7946 21.2394 26.2011C22.0035 24.9987 22.5797 24.7254 22.5797 24.7254C22.7624 24.6478 22.8647 24.4525 22.8255 24.2581C22.7857 24.0637 22.6147 23.9244 22.4166 23.9244C21.7002 23.9244 17.4421 23.8188 17.1944 23.8127C16.0986 23.7253 15.1799 23.7253 14.4864 23.645C13.8934 23.5763 13.3574 23.1987 13.2826 22.6061C13.264 22.4585 13.2523 22.3047 13.2523 22.151C13.2523 21.9893 13.2602 21.8332 13.2738 21.6851C13.3345 21.0131 13.9738 20.622 14.6481 20.6182L16.3519 20.6094H16.3528C17.5421 20.6061 18.5333 20.6019 18.5823 20.6014H18.5842C18.8141 20.6005 19.0001 20.4136 18.9996 20.1836C18.9987 19.9537 18.8123 19.7673 18.5823 19.7673H18.5805C18.1365 19.7673 17.2659 19.771 16.35 19.7752H16.3491C15.4944 19.7776 14.5378 19.779 13.7546 19.778C13.0892 19.7766 12.4672 19.386 12.4032 18.7233C12.3878 18.563 12.3784 18.3934 12.3784 18.2182C12.3784 17.9868 12.3948 17.7555 12.4195 17.5364C12.4966 16.8574 13.1027 16.4214 13.7859 16.4176C14.3715 16.4148 15.0556 16.4162 15.7337 16.4195C15.7888 16.4237 15.8439 16.4256 15.8995 16.4261L19.0707 16.4499H19.073C19.3029 16.4518 19.4908 16.2672 19.4931 16.0373C19.4954 15.8073 19.3113 15.619 19.0814 15.6158H19.0791C19.0099 15.6148 17.4113 15.5943 15.7678 15.5854Z" fill="#FDFDFC"/>
<path id="Union3" fill-rule="evenodd" clip-rule="evenodd" d="M46.3728 45.9136C46.9406 45.9617 47.4747 46.2753 47.6065 46.8323C47.6537 47.0309 47.6869 47.237 47.6869 47.4328C47.6869 47.6646 47.6401 47.8964 47.5775 48.1057C47.4313 48.5983 46.9658 48.8917 46.4602 48.9824C45.4041 49.1712 43.5891 49.4193 41.3474 49.4193H41.347C39.5049 49.423 37.2819 49.2413 35.2935 48.7772C34.7921 48.6599 34.3225 48.4926 33.9482 48.1744C33.4893 47.7842 32.892 47.0146 32.6117 46.4772C32.3799 46.0328 32.3131 45.5271 32.2874 45.0089C32.2607 44.465 32.2439 43.8467 32.2439 43.1509C32.2439 41.4653 32.3425 40.2775 32.442 39.5111C32.5294 38.841 32.7332 38.1629 33.1916 37.6662C35.3814 35.2946 37.2291 34.2249 38.3128 33.4006C38.6343 33.1562 39.0301 33.002 39.4249 33.088C39.8773 33.1866 40.282 33.366 40.6222 33.5618C41.232 33.9123 41.2787 34.7049 40.9016 35.2983C40.1376 36.5007 39.5609 36.7741 39.5609 36.7741C39.3787 36.8517 39.2759 37.047 39.3156 37.2414C39.3549 37.4358 39.5259 37.575 39.724 37.575C40.4404 37.575 44.6989 37.6806 44.9466 37.6867C46.042 37.7736 46.9611 37.7741 47.6546 37.8545C48.2476 37.9232 48.7832 38.3008 48.8579 38.8933C48.8766 39.041 48.8883 39.1947 48.8883 39.3485C48.8883 39.5101 48.8804 39.6662 48.8673 39.8144C48.8065 40.4863 48.1673 40.8775 47.4925 40.8812L45.7887 40.8901H45.7878C44.5985 40.8934 43.6078 40.8976 43.5582 40.898H43.5564C43.3265 40.899 43.1409 41.0859 43.1414 41.3158C43.1419 41.5457 43.3283 41.7322 43.5582 41.7322H43.5601C44.0041 41.7322 44.8751 41.7284 45.791 41.7242H45.792C46.6462 41.7219 47.6032 41.7205 48.386 41.7214C49.0514 41.7224 49.6734 42.1135 49.7374 42.7761C49.7533 42.9364 49.7626 43.1056 49.7626 43.2813C49.7626 43.5126 49.7463 43.7439 49.7215 43.9631C49.6444 44.6421 49.0378 45.0781 48.3546 45.0813C47.7691 45.0846 47.085 45.0832 46.4069 45.0799C46.3518 45.0757 46.2966 45.0739 46.241 45.0734L43.0704 45.0491H43.068C42.8381 45.0477 42.6498 45.2323 42.6475 45.4622C42.6451 45.6921 42.8293 45.8804 43.0592 45.8832L43.0615 45.8837C43.1311 45.8842 44.7293 45.9052 46.3728 45.9136Z" fill="#FDFDFC"/>
</g>
</g>
</g>
</svg>
