<svg width="62" height="73" viewBox="0 0 62 73" fill="none" xmlns="http://www.w3.org/2000/svg">
<g id="espaco_comunitario">
<path id="backgroundIcon" d="M60.497 30.8399C60.497 51.8978 38.619 66.9084 32.5456 70.6704C32.0827 70.9618 31.5463 71.1165 30.9985 71.1165C30.4508 71.1165 29.9143 70.9618 29.4515 70.6704C23.3797 66.9084 1.5 51.8978 1.5 30.8399C1.5 14.6361 14.7071 1.5 30.9985 1.5C47.2899 1.5 60.497 14.6361 60.497 30.8399Z" fill="#471D00" stroke="#FDFDFC" stroke-width="3" stroke-linecap="round" stroke-linejoin="round"/>
<g id="espa&#195;&#167;o_comunitario">
<g id="symbolIcon">
<path id="Vector-705" fill-rule="evenodd" clip-rule="evenodd" d="M33.541 10.8276C39.7646 13.5902 44.4823 17.2181 46.9213 19.3152C48.3251 20.5223 49.1157 22.2559 49.2125 24.1049C49.3279 26.3072 49.4678 29.754 49.4678 33.5235C49.4678 36.4219 49.3852 39.2214 49.2946 41.4198C49.1699 44.4435 46.7655 46.8283 43.741 46.9317C40.8079 47.0321 36.4555 47.1319 30.7855 47.1319C25.1155 47.1319 20.7636 47.0321 17.8301 46.9317C14.8055 46.8283 12.4016 44.4435 12.2769 41.4198C12.1858 39.2219 12.1033 36.4219 12.1033 33.5235C12.1033 29.754 12.2431 26.3072 12.3585 24.1044C12.4558 22.2559 13.246 20.5223 14.6501 19.3152C17.0887 17.2181 21.8069 13.5902 28.0304 10.8276C29.7836 10.0493 31.7875 10.0493 33.541 10.8276ZM19.9299 43.6177H41.6411C41.7406 43.6661 41.8507 43.6972 41.9674 43.707C42.4762 43.7491 42.9237 43.3709 42.9663 42.8622L43.0862 41.4242C43.2726 41.4069 43.4498 41.3874 43.6171 41.367C45.289 41.1632 46.4459 39.6627 46.3482 37.9096C46.223 35.6553 45.9265 33.5501 45.6477 31.9546C45.2739 29.8184 43.5825 28.2663 41.5217 28.0897C42.3559 27.1791 42.8673 25.969 42.8673 24.6491C42.8673 21.8466 40.561 19.5403 37.7589 19.5403C34.9563 19.5403 32.6501 21.8466 32.6501 24.6491C32.6501 24.9404 32.6749 25.2263 32.7224 25.5046C32.124 25.2564 31.4696 25.1188 30.7855 25.1188C30.1014 25.1188 29.4471 25.2564 28.8486 25.5046C28.8961 25.2263 28.921 24.9404 28.921 24.6491C28.921 21.8466 26.6152 19.5403 23.8126 19.5403C21.01 19.5403 18.7037 21.8466 18.7037 24.6491C18.7037 25.969 19.2152 27.1791 20.0493 28.0897C17.9886 28.2668 16.2972 29.8184 15.9238 31.9546C15.6446 33.5501 15.348 35.6553 15.2228 37.9096C15.1252 39.6627 16.2821 41.1632 17.9539 41.367C18.1213 41.3874 18.2984 41.4069 18.4849 41.4242L18.6047 42.8622C18.6474 43.3709 19.0949 43.7491 19.6036 43.707C19.7204 43.6972 19.8305 43.6661 19.9299 43.6177ZM23.0424 41.953H20.3854L20.2624 40.484C20.2242 40.0241 19.8531 39.6631 19.3923 39.6374C18.9408 39.6125 18.535 39.5748 18.1777 39.5308C17.4643 39.4438 17.0279 38.7602 17.0696 38.0121C17.1904 35.8395 17.4771 33.8107 17.7457 32.2729C17.9757 30.9588 19.0189 29.9942 20.2975 29.9267C22.1252 29.8299 23.7615 29.7886 25.6975 29.7709C25.6838 29.9213 25.6767 30.0736 25.6767 30.2277C25.6767 31.5191 26.1663 32.7053 26.969 33.6087C25.3206 33.8569 24.0421 35.1163 23.7438 36.7931C23.5156 38.0769 23.2475 39.8229 23.0517 41.8304C23.0477 41.8713 23.0446 41.9121 23.0424 41.953ZM30.7855 33.4866C28.9978 33.4866 27.5266 32.0154 27.5266 30.2277C27.5266 28.4399 28.9978 26.9687 30.7855 26.9687C32.5733 26.9687 34.0445 28.4399 34.0445 30.2277C34.0445 32.0154 32.5733 33.4866 30.7855 33.4866ZM36.6735 41.953H24.8985C25.088 40.0272 25.3455 38.3517 25.5648 37.1171C25.7331 36.1702 26.4895 35.4684 27.4498 35.4169C28.2981 35.3716 29.4018 35.3365 30.7855 35.3365C32.1697 35.3365 33.2729 35.3716 34.1217 35.4169C35.082 35.4684 35.8384 36.1702 36.0067 37.1171C36.2264 38.3517 36.4835 40.0272 36.6735 41.953ZM27.0715 24.6491C27.0715 26.4369 25.6003 27.9081 23.8126 27.9081C22.0244 27.9081 20.5536 26.4369 20.5536 24.6491C20.5536 22.8614 22.0244 21.3902 23.8126 21.3902C25.6003 21.3902 27.0715 22.8614 27.0715 24.6491ZM34.4995 24.6491C34.4995 22.8614 35.9707 21.3902 37.7589 21.3902C39.5466 21.3902 41.0179 22.8614 41.0179 24.6491C41.0179 26.4369 39.5466 27.9081 37.7589 27.9081C35.9707 27.9081 34.4995 26.4369 34.4995 24.6491ZM41.1861 41.953H38.5291C38.5269 41.9121 38.5238 41.8713 38.5198 41.83C38.324 39.8234 38.0559 38.0769 37.8277 36.7935C37.5298 35.1163 36.2508 33.8569 34.6025 33.6087C35.4047 32.7048 35.8944 31.5191 35.8944 30.2277C35.8944 30.0736 35.8873 29.9213 35.8739 29.7709C37.8095 29.7886 39.4463 29.8299 41.2736 29.9267C42.5526 29.9942 43.5958 30.9588 43.8253 32.2729C44.0943 33.8111 44.3807 35.8395 44.5014 38.0121C44.5432 38.7602 44.1068 39.4438 43.3934 39.5308C43.036 39.5748 42.6302 39.6125 42.1788 39.6374C41.7184 39.6631 41.3468 40.0241 41.3086 40.484L41.1861 41.953Z" fill="#FDFDFC"/>
</g>
</g>
</g>
</svg>
