<svg width="62" height="73" viewBox="0 0 62 73" fill="none" xmlns="http://www.w3.org/2000/svg">
<g id="frente">
<path id="backgroundIcon" d="M60.497 30.8399C60.497 51.8978 38.619 66.9084 32.5456 70.6704C32.0827 70.9618 31.5463 71.1165 30.9985 71.1165C30.4508 71.1165 29.9143 70.9618 29.4515 70.6704C23.3797 66.9084 1.5 51.8978 1.5 30.8399C1.5 14.6361 14.7071 1.5 30.9985 1.5C47.2899 1.5 60.497 14.6361 60.497 30.8399Z" fill="#A24200" stroke="#FDFDFC" stroke-width="3" stroke-linecap="round" stroke-linejoin="round"/>
<g id="symbolIcon">
<path id="Subtract" fill-rule="evenodd" clip-rule="evenodd" d="M21.0646 15.8191C23.8189 16.1913 26.1729 16.8773 28.4334 17.5397C33.1014 18.9065 37.3529 20.172 44.2062 17.9459C46.0466 17.3479 47.9283 18.3589 48.1659 20.2793C48.3749 21.9658 48.5785 24.6217 48.5785 28.5894C48.5785 33.9622 48.2054 36.9356 47.948 38.3584V38.3597C47.768 39.3464 47.0695 40.132 46.1307 40.4849C37.7205 43.6543 32.9121 42.647 27.4043 41.4791C25.664 41.1102 23.8517 40.7254 21.8195 40.4634C21.8393 38.4291 21.8519 35.9729 21.8519 33.026C21.8519 24.4169 21.7425 19.9992 21.6715 18.0397C21.642 17.2188 21.4313 16.46 21.0646 15.8191Z" fill="#FDFDFC"/>
<path id="Rectangle-58" fill-rule="evenodd" clip-rule="evenodd" d="M15.8578 15.5903C16.1358 15.558 16.463 15.5374 16.8483 15.5369C17.1788 15.5357 17.5094 15.5529 17.8379 15.5891L17.8425 15.5895C19.1231 15.7367 19.8739 16.8134 19.9201 18.1024C19.9908 20.0535 20.0997 24.4527 20.0997 33.026C20.0997 41.5994 19.9908 45.999 19.9201 47.9492C19.8739 49.2387 19.1231 50.3154 17.8425 50.4617C17.5641 50.4941 17.236 50.5147 16.8499 50.5147C16.4651 50.5147 16.1362 50.4941 15.8586 50.4626L15.8578 50.4622C14.5772 50.315 13.8264 49.2387 13.7802 47.9492C13.7095 45.9982 13.6006 41.5994 13.6006 33.026C13.6006 24.4527 13.7095 20.0526 13.7802 18.1024C13.8264 16.8129 14.5772 15.7367 15.8578 15.5903Z" fill="#FDFDFC"/>
</g>
</g>
</svg>
