<svg width="62" height="73" viewBox="0 0 62 73" fill="none" xmlns="http://www.w3.org/2000/svg">
<g id="gastronomia">
<path id="backgroundIcon" d="M60.497 30.8399C60.497 51.8978 38.619 66.9084 32.5456 70.6704C32.0827 70.9618 31.5463 71.1165 30.9985 71.1165C30.4508 71.1165 29.9143 70.9618 29.4515 70.6704C23.3797 66.9084 1.5 51.8978 1.5 30.8399C1.5 14.6361 14.7071 1.5 30.9985 1.5C47.2899 1.5 60.497 14.6361 60.497 30.8399Z" fill="#5B2500" stroke="#FDFDFC" stroke-width="3" stroke-linecap="round" stroke-linejoin="round"/>
<g id="gatronomia">
<g id="symbolIcon">
<path id="Union" fill-rule="evenodd" clip-rule="evenodd" d="M25.799 13.4277H27.1196C28.7317 13.4277 30.1132 14.5532 30.382 16.1421C30.7761 18.4721 31.3274 22.5428 31.2829 26.8894C31.2572 29.4932 29.5186 31.8269 26.7848 32.4397C26.5392 32.4944 26.2856 32.547 26.0257 32.5953L27.4893 45.2781C27.7791 47.7982 26.1771 50.2392 23.665 50.5824C23.3879 50.6228 23.1082 50.6455 22.8285 50.6501H22.8142C22.5762 50.6501 22.2872 50.6261 21.9688 50.5832C19.4538 50.243 17.8489 47.8003 18.1404 45.2781L19.6031 32.5958C19.3491 32.5486 19.0959 32.4969 18.844 32.4401C16.1094 31.8265 14.3716 29.4919 14.3447 26.889C14.3014 22.5428 14.8506 18.4729 15.2451 16.1429C15.5135 14.554 16.8967 13.4277 18.5075 13.4277H19.8298L19.4139 23.5534C19.3945 24.0308 19.7663 24.4345 20.2437 24.4543C20.7214 24.4736 21.1252 24.1019 21.1445 23.6245L21.5634 13.4277H24.0654L24.4839 23.6245C24.5036 24.1019 24.9074 24.4736 25.3847 24.4543C25.8625 24.4345 26.2343 24.0308 26.2145 23.5534L25.799 13.4277ZM38.7173 13.7158C42.0764 16.2106 46.8302 23.0647 47.3025 33.688C47.3656 35.1036 46.6531 36.4314 45.367 37.0286C44.6428 37.3642 43.6637 37.7469 42.4306 38.0725L42.4222 38.0746C42.4196 38.075 42.4175 38.0775 42.4179 38.0804L43.4526 45.3202C43.8054 47.7932 42.7717 49.9717 40.3618 50.635C37.9809 51.2911 35.4684 49.655 35.4684 47.1837V15.5663C35.4684 14.5048 36.1001 13.6897 36.8744 13.4113C37.4375 13.2086 38.0974 13.2557 38.7173 13.7158Z" fill="#FDFDFC"/>
</g>
</g>
</g>
</svg>
