<svg width="62" height="73" viewBox="0 0 62 73" fill="none" xmlns="http://www.w3.org/2000/svg">
<g id="grupo">
<path id="backgroundIcon" d="M60.497 30.8399C60.497 51.8978 38.619 66.9084 32.5456 70.6704C32.0827 70.9618 31.5463 71.1165 30.9985 71.1165C30.4508 71.1165 29.9143 70.9618 29.4515 70.6704C23.3797 66.9084 1.5 51.8978 1.5 30.8399C1.5 14.6361 14.7071 1.5 30.9985 1.5C47.2899 1.5 60.497 14.6361 60.497 30.8399Z" fill="#043D32" stroke="#FDFDFC" stroke-width="3" stroke-linecap="round" stroke-linejoin="round"/>
<g id="grupo_2">
<g id="symbolIcon">
<path id="Ellipse-135" fill-rule="evenodd" clip-rule="evenodd" d="M27.2137 25.9706C26.7736 25.3225 26.5174 24.5526 26.5174 23.7308C26.5174 23.132 26.6532 22.5613 26.8973 22.0448C27.581 20.5962 29.1151 19.5765 30.8789 19.5765C32.6435 19.5765 34.1776 20.5966 34.8614 22.0461C35.105 22.5622 35.2408 23.1325 35.2408 23.7308C35.2408 24.6869 34.8941 25.5723 34.3144 26.2777C33.5135 27.253 32.2674 27.8846 30.8789 27.8846C29.3494 27.8846 27.9932 27.1183 27.2137 25.9706ZM34.4348 16.9576C34.4348 14.1706 36.8426 11.8774 39.7689 11.8774C42.6948 11.8774 45.1031 14.1706 45.1031 16.9576C45.1031 19.7441 42.6948 22.0373 39.7689 22.0373C36.8426 22.0373 34.4348 19.7441 34.4348 16.9576ZM27.3229 16.9576C27.3229 19.7441 24.9151 22.0373 21.9893 22.0373C19.0629 22.0373 16.6551 19.7441 16.6551 16.9576C16.6551 14.1706 19.0629 11.8774 21.9893 11.8774C24.9151 11.8774 27.3229 14.1706 27.3229 16.9576ZM42.8619 22.1822C43.3702 22.2004 43.856 22.2208 44.3125 22.2435C46.4846 22.3528 48.2744 23.8944 48.6646 26.0208C49.0137 27.9233 49.3857 30.4324 49.5425 33.1203C49.6312 34.6382 48.6151 35.9646 47.095 36.1411C46.6167 36.1966 46.0739 36.2451 45.4695 36.2771L44.7507 44.4816C44.621 45.9631 43.5536 47.1934 42.0633 47.3303C41.3871 47.3921 40.5941 47.437 39.7111 47.437C38.801 47.437 37.9861 47.3894 37.2967 47.3245C36.9392 47.2908 36.3535 47.1939 35.7552 47.0454C36.1841 46.5311 36.4548 45.8879 36.5089 45.1888L36.7983 41.4572C36.9798 41.4483 37.1535 41.4394 37.3191 41.4301C39.285 41.3216 40.7248 39.7037 40.5334 37.8373C40.2847 35.4068 39.944 33.2919 39.6537 31.737C39.2654 29.6568 37.5156 28.1277 35.309 27.9886C36.465 26.8974 37.1852 25.3879 37.1852 23.7308C37.1852 23.2574 37.1264 22.7964 37.0158 22.3537C37.8498 22.744 38.7846 22.9636 39.7689 22.9636C40.8895 22.9636 41.9457 22.6787 42.8619 22.1822ZM24.7425 22.3537C24.6314 22.7964 24.5726 23.2574 24.5726 23.7308C24.5726 25.3879 25.2932 26.8978 26.4492 27.9886C24.2426 28.1277 22.4933 29.6568 22.105 31.737C21.8152 33.2914 21.474 35.4063 21.2253 37.8373C21.0339 39.7037 22.4737 41.3216 24.4396 41.4301C24.6052 41.4394 24.7784 41.4483 24.9599 41.4572L25.2493 45.1888C25.303 45.8795 25.5681 46.516 25.9881 47.0267C25.4117 47.1859 24.8335 47.2894 24.461 47.3245C23.7721 47.3894 22.9573 47.437 22.0471 47.437C21.1641 47.437 20.3712 47.3921 19.6949 47.3303C18.2046 47.1934 17.1373 45.9631 17.0075 44.4816L16.2888 36.2771C15.6844 36.2451 15.1416 36.1966 14.6632 36.1411C13.1426 35.9646 12.127 34.6382 12.2157 33.1203C12.3725 30.4324 12.7445 27.9233 13.0936 26.0208C13.4838 23.8944 15.2737 22.3528 17.4458 22.2435C17.9064 22.2204 18.3918 22.1999 18.8949 22.1817C19.8116 22.6787 20.8682 22.9636 21.9893 22.9636C22.9736 22.9636 23.9084 22.744 24.7425 22.3537ZM27.7873 46.1333C27.4434 45.8884 27.2226 45.4906 27.189 45.0523L26.8362 40.5024C26.7998 40.0335 26.4002 39.665 25.9069 39.6455C25.4061 39.6255 24.9548 39.6032 24.552 39.581C23.6984 39.5339 23.0777 38.8276 23.1607 38.0173C23.4034 35.6437 23.7367 33.579 24.02 32.061C24.2515 30.8205 25.2936 29.9021 26.6149 29.8346C26.8371 29.8235 27.0732 29.8124 27.3229 29.8026C28.2928 29.7635 29.4727 29.7368 30.8789 29.7368C32.1806 29.7368 33.2881 29.7599 34.2145 29.7941C34.5473 29.8061 34.8567 29.8199 35.1438 29.8346C36.465 29.9021 37.5072 30.8205 37.7387 32.061C38.0225 33.579 38.3548 35.6441 38.5979 38.0173C38.681 38.8276 38.0603 39.5339 37.2067 39.581C36.8039 39.6032 36.3521 39.6255 35.8513 39.6455C35.358 39.665 34.9589 40.0335 34.9225 40.5024L34.5697 45.0523C34.531 45.5492 34.2528 45.9937 33.8267 46.2231C33.6745 46.3053 33.5032 46.3596 33.317 46.3791C32.6193 46.452 31.7778 46.5111 30.8793 46.5111C29.9804 46.5111 29.1389 46.452 28.4417 46.3791C28.1943 46.3533 27.9726 46.2653 27.7873 46.1333Z" fill="#FDFDFC"/>
</g>
</g>
</g>
</svg>
