<svg width="64" height="75" viewBox="0 0 64 75" fill="none" xmlns="http://www.w3.org/2000/svg">
<g id="grupo_teatral" clip-path="url(#clip0_335_3741)">
<path id="backgroundIcon" d="M61.6296 31.9827C61.6296 53.2286 39.6543 68.3733 33.5539 72.1689C33.089 72.4629 32.5502 72.619 32 72.619C31.4498 72.619 30.911 72.4629 30.4461 72.1689C24.3473 68.3733 2.37036 53.2286 2.37036 31.9827C2.37036 15.6343 15.6362 2.38086 32 2.38086C48.3638 2.38086 61.6296 15.6343 61.6296 31.9827Z" fill="#033128" stroke="#FDFDFC" stroke-width="3" stroke-linecap="round" stroke-linejoin="round"/>
<g id="grupo_teatral_2">
<g id="symbolIcon">
<path id="Rectangle-112_2" fill-rule="evenodd" clip-rule="evenodd" d="M24.1015 24.5241C24.622 23.2116 25.7637 22.3418 27.1748 22.404C28.8653 22.4787 32.0691 22.8917 37.8275 24.4344C43.5855 25.9774 46.5667 27.2221 48.0679 28.0025C49.3213 28.6539 49.8754 29.9782 49.6694 31.3753C49.4311 32.9922 48.969 35.6363 48.1539 38.6786C46.5735 44.577 41.9738 49.254 36.0061 50.5481C33.9655 50.9905 32.0325 51.1678 30.7561 50.8257C29.4793 50.4836 27.894 49.3634 26.348 47.9603C21.8267 43.8558 20.1822 37.5052 21.7626 31.6068C22.5777 28.5649 23.4995 26.0438 24.1015 24.5241ZM34.1013 31.7856C34.1013 31.7856 33.1697 29.4626 30.3106 29.4626C27.4512 29.4626 26.5196 31.7856 26.5196 31.7856C26.3529 32.1858 26.5426 32.6464 26.9428 32.8131C27.3434 32.9802 27.8035 32.7904 27.9706 32.3899C27.9706 32.3899 28.5711 31.0343 30.3106 31.0343C32.0498 31.0343 32.6507 32.3902 32.6507 32.3902C32.8178 32.7904 33.2779 32.9802 33.6785 32.8131C34.0787 32.6464 34.2684 32.1858 34.1013 31.7856ZM38.3325 33.9129C38.3325 33.9129 39.5308 33.039 41.0373 33.9088C42.5434 34.7786 42.3861 36.253 42.3861 36.253C42.3303 36.6833 42.6343 37.0775 43.0643 37.1333C43.4942 37.1891 43.8888 36.8851 43.9446 36.4547C43.9446 36.4547 44.2991 33.9774 41.823 32.5479C39.3468 31.118 37.3786 32.6641 37.3786 32.6641C37.0339 32.9274 36.9679 33.4207 37.2312 33.7654C37.4944 34.1102 37.9878 34.1762 38.3325 33.9129ZM38.4917 40.9319C37.5951 42.0642 36.2094 43.0648 34.8602 43.5819C34.0515 43.892 33.2606 44.038 32.6205 43.8663C31.9804 43.6947 31.3686 43.1731 30.8229 42.5002C29.9131 41.3777 29.2134 39.8184 29.0033 38.3893C28.94 37.9605 28.5405 37.6632 28.1117 37.7262C27.6825 37.7892 27.3852 38.189 27.4482 38.6179C27.6972 40.311 28.5243 42.16 29.6019 43.4899C30.3816 44.4514 31.2992 45.1393 32.2139 45.3845C33.1286 45.6297 34.2669 45.4927 35.423 45.0496C37.0211 44.4366 38.6618 43.2493 39.7239 41.9073C39.9932 41.5674 39.9355 41.0726 39.5957 40.8036C39.2555 40.5343 38.761 40.5917 38.4917 40.9319Z" fill="#FDFDFC"/>
<path id="Rectangle-112_21" fill-rule="evenodd" clip-rule="evenodd" d="M19.8069 38.765C19.8167 38.8273 19.7956 38.8903 19.7507 38.9344C19.7058 38.9785 19.642 38.9981 19.5802 38.9872C19.4365 38.951 19.2988 38.8816 19.1872 38.7741C16.0075 35.7099 14.1982 31.3712 14.1929 26.8095C14.1891 23.6601 14.4241 20.9862 14.6105 19.3625C14.7715 17.9594 15.6485 16.8229 17.0271 16.5163C18.6787 16.1489 21.8799 15.7148 27.8412 15.7076C33.8025 15.7008 37.0048 16.1274 38.6572 16.491C40.0366 16.7943 40.9158 17.9288 41.0802 19.3316C41.2013 20.3631 41.3427 21.8187 41.4306 23.5511C41.4306 23.5514 41.4306 23.5514 41.4306 23.5518C41.4336 23.6152 41.4057 23.6763 41.356 23.7151C41.3058 23.7544 41.2402 23.7668 41.1794 23.7487C40.2859 23.4817 39.3067 23.2041 38.234 22.9167C32.2949 21.3249 28.9874 20.9112 27.2441 20.8342C25.1444 20.7415 23.4146 21.9914 22.6406 23.9456C22.0239 25.5018 21.0795 28.0844 20.2444 31.2003C19.5734 33.7055 19.4357 36.2839 19.8069 38.765Z" fill="#FDFDFC"/>
</g>
</g>
</g>
<defs>
<clipPath id="clip0_335_3741">
<rect width="64" height="75" fill="white"/>
</clipPath>
</defs>
</svg>
