<svg width="62" height="73" viewBox="0 0 62 73" fill="none" xmlns="http://www.w3.org/2000/svg">
<g id="iniciativa">
<path id="backgroundIcon" d="M60.497 30.8399C60.497 51.8978 38.619 66.9084 32.5456 70.6704C32.0827 70.9618 31.5463 71.1165 30.9985 71.1165C30.4508 71.1165 29.9143 70.9618 29.4515 70.6704C23.3797 66.9084 1.5 51.8978 1.5 30.8399C1.5 14.6361 14.7071 1.5 30.9985 1.5C47.2899 1.5 60.497 14.6361 60.497 30.8399Z" fill="#02251E" stroke="#FDFDFC" stroke-width="3" stroke-linecap="round" stroke-linejoin="round"/>
<g id="iniciativa_2">
<g id="lightbulb--lighting-light-incandescent-bulb-lights">
<g id="symbolIcon">
<path id="Union" fill-rule="evenodd" clip-rule="evenodd" d="M23.882 42.4862C21.1013 40.3052 19.3148 36.9137 19.3148 33.1051C19.3148 26.5243 24.6499 21.1887 31.2307 21.1887C37.812 21.1887 43.1471 26.5243 43.1471 33.1051C43.1471 36.9137 41.3606 40.3052 38.5799 42.4862C38.3542 43.3974 38.0996 44.2712 37.8989 44.9253C37.684 45.625 37.1025 46.1333 36.3749 46.2094C35.398 46.3114 33.7513 46.4233 31.2307 46.4233C28.7106 46.4233 27.0639 46.3114 26.087 46.2094C25.3594 46.1333 24.7779 45.625 24.563 44.9253C24.3623 44.2712 24.1077 43.3974 23.882 42.4862ZM39.2919 32.4044C39.2919 27.9521 35.683 24.3432 31.2307 24.3432C30.6507 24.3432 30.1797 24.8143 30.1797 25.3947C30.1797 25.9752 30.6507 26.4462 31.2307 26.4462C34.5216 26.4462 37.1889 29.1135 37.1889 32.4044C37.1889 32.9844 37.6604 33.4559 38.2404 33.4559C38.8209 33.4559 39.2919 32.9844 39.2919 32.4044Z" fill="#FDFDFC"/>
<path id="Subtract" d="M26.141 47.2718C27.1547 47.3714 28.7921 47.4749 31.2307 47.4749C33.7709 47.4749 35.4421 47.3626 36.444 47.2595L36.3361 48.2556C36.2159 49.3689 35.4377 50.2928 34.3273 50.4386C33.5359 50.5426 32.4961 50.6289 31.2307 50.6289C29.9005 50.6289 28.8819 50.5333 28.1483 50.4224C27.2141 50.2811 26.5536 49.5352 26.3795 48.6064C26.3063 48.2163 26.2244 47.7654 26.141 47.2718Z" fill="#FDFDFC"/>
<path id="Vector" fill-rule="evenodd" clip-rule="evenodd" d="M30.2086 11.8661C30.2086 11.3023 30.6669 10.844 31.2307 10.844C31.7949 10.844 32.2532 11.3023 32.2532 11.8661V15.7914C32.2532 16.3557 31.7949 16.814 31.2307 16.814C30.6669 16.814 30.2086 16.3557 30.2086 15.7914V11.8661Z" fill="#FDFDFC"/>
<path id="Vector_2" fill-rule="evenodd" clip-rule="evenodd" d="M44.1627 16.6251C44.5616 16.2262 45.2093 16.2262 45.6082 16.6251C46.0071 17.024 46.0071 17.6717 45.6082 18.0706L42.8325 20.8463C42.4335 21.2452 41.7859 21.2452 41.387 20.8463C40.988 20.4474 40.988 19.7997 41.387 19.4008L44.1627 16.6251Z" fill="#FDFDFC"/>
<path id="Vector_3" fill-rule="evenodd" clip-rule="evenodd" d="M17.2038 18.0706C16.8049 17.6717 16.8049 17.024 17.2038 16.6251C17.6028 16.2262 18.2504 16.2262 18.6494 16.6251L21.4251 19.4008C21.824 19.7997 21.824 20.4474 21.4251 20.8463C21.0262 21.2452 20.3785 21.2452 19.9796 20.8463L17.2038 18.0706Z" fill="#FDFDFC"/>
<path id="Vector_4" fill-rule="evenodd" clip-rule="evenodd" d="M12.0946 32.0246C11.5308 32.0246 11.0725 31.5663 11.0725 31.002C11.0725 30.4383 11.5308 29.98 12.0946 29.98H16.0199C16.5842 29.98 17.0425 30.4383 17.0425 31.002C17.0425 31.5663 16.5842 32.0246 16.0199 32.0246H12.0946Z" fill="#FDFDFC"/>
<path id="Vector_5" fill-rule="evenodd" clip-rule="evenodd" d="M45.9507 32.0246C45.3869 32.0246 44.9286 31.5663 44.9286 31.002C44.9286 30.4383 45.3869 29.98 45.9507 29.98H49.876C50.4403 29.98 50.8986 30.4383 50.8986 31.002C50.8986 31.5663 50.4403 32.0246 49.876 32.0246H45.9507Z" fill="#FDFDFC"/>
</g>
</g>
</g>
</g>
</svg>
