<svg width="62" height="73" viewBox="0 0 62 73" fill="none" xmlns="http://www.w3.org/2000/svg">
<g id="instituto">
<path id="backgroundIcon" d="M60.497 30.8399C60.497 51.8978 38.619 66.9084 32.5456 70.6704C32.0827 70.9618 31.5463 71.1165 30.9985 71.1165C30.4508 71.1165 29.9143 70.9618 29.4515 70.6704C23.3797 66.9084 1.5 51.8978 1.5 30.8399C1.5 14.6361 14.7071 1.5 30.9985 1.5C47.2899 1.5 60.497 14.6361 60.497 30.8399Z" fill="#011512" stroke="#FDFDFC" stroke-width="3" stroke-linecap="round" stroke-linejoin="round"/>
<g id="instituto_2">
<g id="symbolIcon">
<path id="Rectangle-1097" fill-rule="evenodd" clip-rule="evenodd" d="M20.3659 27.0527C24.773 28.871 27.8265 29.9765 29.5243 30.5586C30.7735 30.9882 32.1303 30.9882 33.379 30.5586C35.0768 29.977 38.1293 28.8715 42.5379 27.0527C42.5606 27.8005 42.5712 28.5488 42.5702 29.2971V29.2991C42.5702 32.1358 42.4269 33.9181 42.2847 34.9861C42.2024 35.5961 41.8593 36.1189 41.3159 36.4047C39.7498 37.2285 36.5652 38.4257 31.4516 38.4257C26.3381 38.4257 23.1534 37.2275 21.5879 36.4037C21.0445 36.1179 20.7009 35.5951 20.6191 34.9841C20.4763 33.9171 20.3336 32.1347 20.3336 29.2971V29.295C20.332 28.5477 20.3426 27.7999 20.3659 27.0527ZM19.8184 24.5402C19.7947 24.5296 19.771 24.5195 19.7468 24.5098C16.3502 23.0831 13.9314 21.9777 12.2962 21.1908C12.0631 21.0789 11.9229 20.8884 11.9229 20.6812C11.9229 20.474 12.0631 20.2835 12.2962 20.171C13.9814 19.3604 16.4996 18.2098 20.0611 16.7203C25.0097 14.6501 28.3896 13.4226 30.2044 12.8004H30.2059C31.0132 12.5223 31.8901 12.5223 32.6979 12.8004H32.6989C34.5127 13.4226 37.8946 14.6501 42.8427 16.7203C46.4048 18.2098 48.9214 19.3604 50.6081 20.171C50.8407 20.2829 50.9799 20.474 50.9799 20.6812C50.9799 20.8879 50.8407 21.0789 50.6081 21.1908C48.9214 22.0015 46.4037 23.152 42.8427 24.6416C37.8941 26.7117 34.5137 27.9393 32.6989 28.5614L32.6979 28.5619C31.8901 28.8396 31.0132 28.8396 30.2059 28.5619L30.2049 28.5614C28.3911 27.9393 25.0086 26.7117 20.0611 24.6416C19.9794 24.6076 19.8986 24.5737 19.8184 24.5402Z" fill="#FDFDFC"/>
<path id="Vector" fill-rule="evenodd" clip-rule="evenodd" d="M14.7164 24.6329V40.4532C14.3819 40.3569 14.0292 40.3052 13.6655 40.3052C13.3017 40.3052 12.949 40.3569 12.6145 40.4532V23.6748C13.2346 23.9636 13.9334 24.2833 14.7164 24.6329Z" fill="#FDFDFC"/>
<path id="Ellipse-20" d="M13.6571 41.4495C15.0965 41.4495 16.2806 42.6335 16.2806 44.0729C16.2806 45.5123 15.0965 46.6963 13.6571 46.6963C12.2185 46.6963 11.0337 45.5123 11.0337 44.0729C11.0337 42.6335 12.2185 41.4495 13.6571 41.4495Z" fill="#FDFDFC"/>
</g>
</g>
</g>
</svg>
