<svg width="62" height="73" viewBox="0 0 62 73" fill="none" xmlns="http://www.w3.org/2000/svg">
<g id="liga">
<path id="backgroundIcon" d="M60.497 30.8399C60.497 51.8978 38.619 66.9084 32.5456 70.6704C32.0827 70.9618 31.5463 71.1165 30.9985 71.1165C30.4508 71.1165 29.9143 70.9618 29.4515 70.6704C23.3797 66.9084 1.5 51.8978 1.5 30.8399C1.5 14.6361 14.7071 1.5 30.9985 1.5C47.2899 1.5 60.497 14.6361 60.497 30.8399Z" fill="#0076C0" stroke="#FDFDFC" stroke-width="3" stroke-linecap="round" stroke-linejoin="round"/>
<g id="liga_2">
<path id="symbolIcon" d="M33.5275 47.8696C33.8758 47.8696 34.2158 47.9059 34.5441 47.9751C36.6373 48.4162 38.238 50.1916 38.4171 52.3696L38.0109 52.7759H24.1378L23.7306 52.3696C23.9092 50.1916 25.511 48.4162 27.6036 47.9751C27.9319 47.9059 28.2724 47.8696 28.6212 47.8696H33.5275ZM27.5988 40.1548C28.9004 40.663 30.1103 40.9663 31.0743 40.9663C32.0385 40.9663 33.2488 40.6641 34.5499 40.1558V46.9351C34.2177 46.8772 33.8758 46.8472 33.5275 46.8472H28.6212C28.2725 46.8472 27.9308 46.8772 27.5988 46.9351V40.1548ZM31.0743 12.2134C37.0352 12.2134 40.2362 12.6457 41.8888 13.0112C43.3803 13.3414 44.338 14.5631 44.5138 16.0806C44.7022 17.7022 44.9396 20.3729 44.9396 23.5181C44.9396 29.6951 41.6665 35.4677 36.174 38.2944C34.2811 39.2693 32.4212 39.9438 31.0743 39.9438C29.727 39.9438 27.8667 39.2684 25.9738 38.2944C20.4812 35.4677 17.2082 29.6956 17.2081 23.5181C17.2081 20.3729 17.4455 17.7022 17.6339 16.0806C17.8097 14.5633 18.7677 13.3416 20.2589 13.0112C21.9105 12.6457 25.1132 12.2134 31.0743 12.2134ZM16.2882 19.8608C16.2269 20.9711 16.1866 22.2037 16.1866 23.5181C16.1867 25.9866 16.6807 28.3941 17.6075 30.5962C16.4128 30.6045 15.3939 30.5095 14.5421 30.3667L14.5392 30.3657C12.1627 29.9593 10.4251 27.8997 10.4249 25.4888V22.3677C10.4249 21.7028 10.6892 21.0643 11.1593 20.5942C11.6294 20.1243 12.267 19.8608 12.9318 19.8608H16.2882ZM49.2159 19.8608C49.8808 19.8608 50.5188 20.1242 50.9894 20.5942C51.4594 21.0643 51.7228 21.7028 51.7228 22.3677V25.4888C51.7227 27.8997 49.9851 29.9593 47.6085 30.3657L47.6056 30.3667C46.7538 30.5095 45.7354 30.6045 44.5411 30.5962C45.468 28.3941 45.962 25.9866 45.962 23.5181C45.962 22.2037 45.9208 20.9711 45.8595 19.8608H49.2159Z" fill="#FDFDFC"/>
</g>
</g>
</svg>
