<svg width="62" height="73" viewBox="0 0 62 73" fill="none" xmlns="http://www.w3.org/2000/svg">
<g id="marca">
<path id="backgroundIcon" d="M60.497 30.8399C60.497 51.8978 38.619 66.9084 32.5456 70.6704C32.0827 70.9618 31.5463 71.1165 30.9985 71.1165C30.4508 71.1165 29.9143 70.9618 29.4515 70.6704C23.3797 66.9084 1.5 51.8978 1.5 30.8399C1.5 14.6361 14.7071 1.5 30.9985 1.5C47.2899 1.5 60.497 14.6361 60.497 30.8399Z" fill="#004773" stroke="#FDFDFC" stroke-width="3" stroke-linecap="round" stroke-linejoin="round"/>
<g id="marca_2">
<g id="store">
<path id="symbolIcon" fill-rule="evenodd" clip-rule="evenodd" d="M40.4893 14.291C42.1389 14.3823 43.555 15.4976 44.0305 17.08C46.6236 25.8232 48.4465 34.6896 49.9003 43.6144C50.0799 44.7277 49.7723 45.8641 49.0554 46.7345C48.339 47.6055 47.2821 48.1256 46.1555 48.1624C36.2288 48.4686 26.0784 48.4303 15.7645 48.1418C14.6365 48.1089 13.5776 47.5927 12.8573 46.7247C12.1365 45.8562 11.8249 44.7199 12.0006 43.6055C13.4015 34.8908 15.2699 26.0725 17.9014 17.0874C18.371 15.4991 19.7865 14.3769 21.4396 14.2817C27.9434 13.9255 34.2789 13.9618 40.4893 14.291ZM36.7023 24.6638C36.7023 27.4164 34.0974 29.5768 30.9595 29.5768C27.8222 29.5768 25.2172 27.4164 25.2172 24.6638C25.2172 24.0995 24.759 23.6417 24.1947 23.6417C23.6304 23.6417 23.1726 24.0995 23.1726 24.6638C23.1726 28.4674 26.6245 31.6215 30.9595 31.6215C35.2946 31.6215 38.7469 28.4674 38.7469 24.6638C38.7469 24.0995 38.2887 23.6417 37.7244 23.6417C37.1601 23.6417 36.7023 24.0995 36.7023 24.6638Z" fill="#FDFDFC"/>
</g>
</g>
</g>
</svg>
