<svg width="62" height="73" viewBox="0 0 62 73" fill="none" xmlns="http://www.w3.org/2000/svg">
<g id="movimento">
<path id="backgroundIcon" d="M60.497 30.8399C60.497 51.8978 38.619 66.9084 32.5456 70.6704C32.0827 70.9618 31.5463 71.1165 30.9985 71.1165C30.4508 71.1165 29.9143 70.9618 29.4515 70.6704C23.3797 66.9084 1.5 51.8978 1.5 30.8399C1.5 14.6361 14.7071 1.5 30.9985 1.5C47.2899 1.5 60.497 14.6361 60.497 30.8399Z" fill="#005E9A" stroke="#FDFDFC" stroke-width="3" stroke-linecap="round" stroke-linejoin="round"/>
<g id="movimento_2">
<path id="symbolIcon" fill-rule="evenodd" clip-rule="evenodd" d="M43.6906 22.1504C40.8517 21.8992 37.147 22.1496 32.0128 24.4558C30.6233 25.0729 29.6573 26.3474 29.4158 27.8195L22.7141 27.7871C20.8975 27.7783 19.2993 26.5836 18.7759 24.8438L17.8317 21.7025C17.6994 21.2626 17.2346 21.0131 16.7946 21.1454C16.3547 21.2777 16.1052 21.742 16.2375 22.182L17.1818 25.3233C17.9156 27.764 20.1575 29.4395 22.7061 29.4519L29.3572 29.4843V30.9058C29.3572 32.0929 29.8287 33.2316 30.6682 34.0711C31.4779 34.8808 32.566 35.3483 33.7078 35.3807C33.1316 35.7683 32.59 36.2131 32.0914 36.7112C30.8329 37.9697 29.9152 39.5058 29.3985 41.1759C29.2475 41.6633 29.5206 42.1818 30.0085 42.3328C30.4959 42.4837 31.0144 42.2102 31.1654 41.7228C31.5942 40.3377 32.3556 39.0632 33.3997 38.019C35.088 36.3307 37.3778 35.3825 39.7653 35.3825C40.2763 35.3825 40.6901 34.9683 40.6901 34.4573C40.6901 33.9468 40.2763 33.5326 39.7653 33.5326H33.8334C33.1369 33.5326 32.4688 33.256 31.976 32.7632C31.4837 32.2705 31.2066 31.6023 31.2066 30.9058V28.5454C31.2066 27.507 31.8184 26.5659 32.7675 26.1446L32.7711 26.1428C37.5492 23.9968 41.1331 23.4401 44.4271 23.6385C47.0765 24.2267 49.0179 26.5867 49.0179 29.3662V34.4573C49.0179 39.9248 47.9187 43.1034 43.6906 45.93C41.3844 47.4718 38.6479 48.4214 35.6997 48.5608C35.4489 48.5728 35.1968 48.5785 34.9433 48.5785H26.4214C18.0607 48.5785 12.615 41.4014 12.615 33.0407V29.13C12.615 24.6463 12.5524 19.414 15.7225 16.2439C18.8931 13.0732 23.261 13.0635 27.7448 13.0635H36.7927C38.5045 13.0635 40.5902 13.3041 41.8003 14.5143C43.0105 15.7249 43.6906 17.3666 43.6906 19.078V22.1504Z" fill="#FDFDFC"/>
</g>
</g>
</svg>
