<svg width="62" height="73" viewBox="0 0 62 73" fill="none" xmlns="http://www.w3.org/2000/svg">
<g id="musica">
<path id="backgroundIcon" d="M60.497 30.8399C60.497 51.8978 38.619 66.9084 32.5456 70.6704C32.0827 70.9618 31.5463 71.1165 30.9985 71.1165C30.4508 71.1165 29.9143 70.9618 29.4515 70.6704C23.3797 66.9084 1.5 51.8978 1.5 30.8399C1.5 14.6361 14.7071 1.5 30.9985 1.5C47.2899 1.5 60.497 14.6361 60.497 30.8399Z" fill="#002943" stroke="#FDFDFC" stroke-width="3" stroke-linecap="round" stroke-linejoin="round"/>
<g id="musica_2">
<g id="symbolIcon">
<path id="Union" d="M46.6756 18.1906C46.6756 16.7217 45.4844 15.5204 43.9907 15.6209C40.2374 15.8732 32.4349 16.7817 24.967 20.0625C23.5055 20.7045 22.6282 22.174 22.6282 23.7458V35.7813C22.1053 35.6606 21.5608 35.5969 21.0019 35.5969C17.0221 35.5969 13.7959 38.8232 13.7959 42.803C13.7959 46.7828 17.0221 50.009 21.0019 50.009C24.8072 50.009 27.9235 47.0595 28.1895 43.3218C28.2015 43.2848 28.2079 43.2453 28.2079 43.2044V28.6928C33.2938 26.9133 37.8351 26.0482 41.0959 25.628V31.7666C40.573 31.646 40.0285 31.5822 39.4695 31.5822C35.4898 31.5822 32.2635 34.8085 32.2635 38.7883C32.2635 42.7681 35.4898 45.9943 39.4695 45.9943C43.2749 45.9943 46.3912 43.0448 46.6572 39.3069C46.6691 39.27 46.6756 39.2306 46.6756 39.1897V18.1906Z" fill="#F6F6F4"/>
</g>
</g>
</g>
</svg>
