<svg width="62" height="73" viewBox="0 0 62 73" fill="none" xmlns="http://www.w3.org/2000/svg">
<g id="rede">
<path id="backgroundIcon" d="M60.497 30.8399C60.497 51.8978 38.619 66.9084 32.5456 70.6704C32.0827 70.9618 31.5463 71.1165 30.9985 71.1165C30.4508 71.1165 29.9143 70.9618 29.4515 70.6704C23.3797 66.9084 1.5 51.8978 1.5 30.8399C1.5 14.6361 14.7071 1.5 30.9985 1.5C47.2899 1.5 60.497 14.6361 60.497 30.8399Z" fill="#003556" stroke="#FDFDFC" stroke-width="3" stroke-linecap="round" stroke-linejoin="round"/>
<g id="rede_2">
<g id="symbolIcon">
<path id="Vector" fill-rule="evenodd" clip-rule="evenodd" d="M20.1789 38.2346C19.9527 38.1821 19.7171 38.1541 19.4748 38.1541C18.7996 38.1541 18.174 38.3705 17.6642 38.738C17.4228 38.9122 17.1171 38.972 16.8276 38.9028C16.5381 38.8332 16.2933 38.6408 16.1573 38.3759C14.9881 36.1006 14.3276 33.5217 14.3276 30.7896C14.3276 22.8963 19.8388 16.2801 27.219 14.5809C27.6208 14.4882 28.0394 14.6462 28.2793 14.9818C28.5197 15.3169 28.5349 15.7634 28.3181 16.1142C28.0256 16.5872 27.8573 17.1446 27.8573 17.7413C27.8573 18.9292 28.5261 19.9621 29.5079 20.4836C29.0178 20.2363 28.4152 20.4223 28.1508 20.9076L19.5184 36.7508C19.2486 37.2463 19.4316 37.8675 19.9271 38.1379C20.0081 38.1821 20.093 38.2139 20.1789 38.2346ZM29.5374 20.4988C29.9638 20.7196 30.4476 20.8438 30.9598 20.8438C32.6723 20.8438 34.0628 19.4537 34.0628 17.7413C34.0628 17.1446 33.894 16.5872 33.6021 16.1142C33.3852 15.7634 33.4004 15.3169 33.6404 14.9818C33.8808 14.6462 34.2988 14.4882 34.7007 14.5809C36.5191 14.9994 38.2237 15.7163 39.7605 16.677C40.1343 16.9111 40.3164 17.3581 40.2119 17.7859C40.1545 18.0224 40.124 18.2692 40.124 18.5229C40.124 19.3541 40.4518 20.1097 40.9847 20.6671C40.5818 20.2722 39.9342 20.278 39.5392 20.6809L22.2254 38.3263C21.8903 38.6678 21.8437 39.1855 22.0827 39.576C21.6543 38.9127 20.9791 38.423 20.1882 38.2365C20.6234 38.3366 21.0895 38.1403 21.3138 37.7292L29.9461 21.886C30.216 21.3904 30.033 20.7692 29.5374 20.4988ZM22.5777 41.2571C22.5777 40.6511 22.4036 40.0854 22.1028 39.6074C22.1415 39.6658 22.1867 39.7208 22.2387 39.7718C22.6415 40.1673 23.2892 40.1609 23.6847 39.7586L40.9984 22.1127C41.3821 21.7216 41.3875 21.0999 41.019 20.7025C41.5818 21.2721 42.3635 21.6254 43.2265 21.6254C43.4807 21.6254 43.7275 21.5955 43.9635 21.5376C44.3919 21.4331 44.8389 21.6151 45.0724 21.989C46.4718 24.2274 47.354 26.8221 47.5503 29.6052C47.5783 30.0021 47.3732 30.3794 47.0248 30.5718C46.6764 30.7641 46.2481 30.7371 45.9267 30.5016C45.4139 30.1263 44.781 29.9045 44.0975 29.9045C42.385 29.9045 40.9945 31.2945 40.9945 33.007C40.9945 34.7194 42.385 36.11 44.0975 36.11C44.413 36.11 44.7182 36.0629 45.0052 35.975C45.386 35.8582 45.8001 35.9736 46.0656 36.2704C46.3315 36.5668 46.4007 36.9907 46.2432 37.3567C43.6946 43.2747 37.8076 47.4218 30.9598 47.4218C27.6777 47.4218 24.6165 46.469 22.0375 44.8252C21.7868 44.6653 21.618 44.4042 21.5753 44.1093C21.5326 43.8149 21.6204 43.5166 21.8162 43.2919C22.2902 42.7472 22.5777 42.0353 22.5777 41.2571ZM22.5777 41.2571C22.5777 41.3748 22.5979 41.4946 22.641 41.6113C22.8368 42.1408 23.4251 42.4116 23.9541 42.2158L40.3267 36.1644C40.8561 35.9691 41.127 35.3803 40.9312 34.8514C40.7354 34.322 40.1471 34.0511 39.6182 34.2469L23.2455 40.2983C22.8334 40.4504 22.5777 40.8415 22.5777 41.2571Z" fill="#FDFDFC"/>
<path id="Vector_2" fill-rule="evenodd" clip-rule="evenodd" d="M19.4747 36.1101C22.3157 36.1101 24.6224 38.4162 24.6224 41.2572C24.6224 44.0977 22.3157 46.4043 19.4747 46.4043C16.6343 46.4043 14.3276 44.0977 14.3276 41.2572C14.3276 38.4162 16.6343 36.1101 19.4747 36.1101ZM19.4747 38.1542C17.7623 38.1542 16.3723 39.5448 16.3723 41.2572C16.3723 42.9697 17.7623 44.3597 19.4747 44.3597C21.1872 44.3597 22.5777 42.9697 22.5777 41.2572C22.5777 39.5448 21.1872 38.1542 19.4747 38.1542Z" fill="#FDFDFC"/>
<path id="Vector_3" fill-rule="evenodd" clip-rule="evenodd" d="M43.2265 13.376C46.0674 13.376 48.3736 15.6821 48.3736 18.5231C48.3736 21.3641 46.0674 23.6702 43.2265 23.6702C40.386 23.6702 38.0793 21.3641 38.0793 18.5231C38.0793 15.6821 40.386 13.376 43.2265 13.376ZM43.2265 15.4206C41.514 15.4206 40.124 16.8107 40.124 18.5231C40.124 20.2355 41.514 21.6256 43.2265 21.6256C44.9389 21.6256 46.3294 20.2355 46.3294 18.5231C46.3294 16.8107 44.9389 15.4206 43.2265 15.4206Z" fill="#FDFDFC"/>
<path id="Vector_4" fill-rule="evenodd" clip-rule="evenodd" d="M30.9599 12.5942C33.8008 12.5942 36.107 14.9004 36.107 17.7414C36.107 20.5818 33.8008 22.8885 30.9599 22.8885C28.1194 22.8885 25.8127 20.5818 25.8127 17.7414C25.8127 14.9004 28.1194 12.5942 30.9599 12.5942ZM30.9599 14.6384C29.2474 14.6384 27.8574 16.0289 27.8574 17.7414C27.8574 19.4538 29.2474 20.8438 30.9599 20.8438C32.6723 20.8438 34.0628 19.4538 34.0628 17.7414C34.0628 16.0289 32.6723 14.6384 30.9599 14.6384Z" fill="#FDFDFC"/>
<path id="Vector_5" fill-rule="evenodd" clip-rule="evenodd" d="M44.0082 27.8599C46.8492 27.8599 49.1558 30.1665 49.1558 33.007C49.1558 35.8479 46.8492 38.1541 44.0082 38.1541C41.1677 38.1541 38.8611 35.8479 38.8611 33.007C38.8611 30.1665 41.1677 27.8599 44.0082 27.8599ZM44.0082 29.9045C42.2958 29.9045 40.9057 31.2945 40.9057 33.007C40.9057 34.7194 42.2958 36.11 44.0082 36.11C45.7206 36.11 47.1112 34.7194 47.1112 33.007C47.1112 31.2945 45.7206 29.9045 44.0082 29.9045Z" fill="#FDFDFC"/>
</g>
</g>
</g>
</svg>
