<svg width="62" height="73" viewBox="0 0 62 73" fill="none" xmlns="http://www.w3.org/2000/svg">
<g id="uniao">
<path id="backgroundIcon" d="M60.497 30.8399C60.497 51.8978 38.619 66.9084 32.5456 70.6704C32.0827 70.9618 31.5463 71.1165 30.9985 71.1165C30.4508 71.1165 29.9143 70.9618 29.4515 70.6704C23.3797 66.9084 1.5 51.8978 1.5 30.8399C1.5 14.6361 14.7071 1.5 30.9985 1.5C47.2899 1.5 60.497 14.6361 60.497 30.8399Z" fill="#7A3200" stroke="#FDFDFC" stroke-width="3" stroke-linecap="round" stroke-linejoin="round"/>
<g id="uniao_2" clip-path="url(#clip0_335_3757)">
<g id="symbolIcon">
<path id="Vector" d="M31.134 38.2344C34.5947 38.2344 37.4002 35.4289 37.4002 31.9683C37.4002 28.5076 34.5947 25.7021 31.134 25.7021C27.6734 25.7021 24.8679 28.5076 24.8679 31.9683C24.8679 35.4289 27.6734 38.2344 31.134 38.2344Z" fill="#FDFDFC"/>
<g id="g1">
<path id="Union" fill-rule="evenodd" clip-rule="evenodd" d="M36.3 16.6282C37.3603 17.2013 38.1257 18.2413 38.3517 19.511C38.5813 20.8024 38.8508 22.5603 39.0478 24.5798C39.0514 24.6129 39.054 24.6455 39.0561 24.6786C39.085 25.1208 38.8399 25.5361 38.4386 25.7244C38.0372 25.9131 37.5609 25.8361 37.2392 25.5309C35.6484 24.0208 33.4985 23.094 31.134 23.094C28.7699 23.094 26.62 24.0208 25.0287 25.5309C24.707 25.8361 24.2312 25.9131 23.8299 25.7244C23.428 25.5361 23.1829 25.1208 23.2124 24.6786C23.2144 24.6455 23.217 24.6129 23.2201 24.5798C23.4172 22.5598 23.6871 20.8024 23.9167 19.5105C24.1422 18.2413 24.9077 17.2013 25.9679 16.6282C27.1253 18.2413 29.0156 19.3 31.134 19.3C33.2523 19.3 35.1426 18.2413 36.3 16.6282ZM28.394 16.1183C29.1521 16.0883 30.0618 16.0676 31.134 16.0676C32.2055 16.0676 33.1153 16.0883 33.874 16.1183C33.1359 16.757 32.1766 17.1454 31.134 17.1454C30.0908 17.1454 29.132 16.757 28.394 16.1183Z" fill="#FDFDFC"/>
<path id="Ellipse-137" d="M35.3349 12.9444C35.3349 15.249 33.4384 17.1455 31.1339 17.1455C28.8294 17.1455 26.9329 15.249 26.9329 12.9444C26.9329 10.6394 28.8294 8.74341 31.1339 8.74341C33.4384 8.74341 35.3349 10.6394 35.3349 12.9444Z" fill="#FDFDFC"/>
</g>
<g id="g11">
<path id="Union1" fill-rule="evenodd" clip-rule="evenodd" d="M41.911 44.0996C40.8845 44.7316 39.6008 44.8749 38.3886 44.4353C37.1551 43.9884 35.4981 43.343 33.6502 42.5041C33.6202 42.4902 33.5907 42.4762 33.5612 42.4617C33.1635 42.2657 32.9261 41.8458 32.9639 41.4036C33.0016 40.9619 33.3063 40.588 33.7314 40.4623C35.8342 39.8391 37.7121 38.4407 38.8938 36.3932C40.0761 34.3457 40.3481 32.0204 39.8366 29.8876C39.7332 29.4563 39.9044 29.0058 40.2685 28.7519C40.6321 28.4985 41.1141 28.4938 41.4828 28.7405C41.5102 28.7586 41.5371 28.7772 41.564 28.7964C43.2149 29.9771 44.6019 31.0895 45.6063 31.9346C46.5925 32.7647 47.1102 33.9474 47.0766 35.1519C45.101 35.3479 43.2392 36.4557 42.18 38.2902C41.1208 40.1246 41.0929 42.2911 41.911 44.0996ZM46.3055 37.5082C45.9523 38.18 45.5153 38.978 44.9795 39.9064C44.4431 40.8342 43.971 41.612 43.5655 42.2538C43.3814 41.2955 43.5246 40.2704 44.046 39.3675C44.5673 38.4645 45.3834 37.8278 46.3055 37.5082Z" fill="#FDFDFC"/>
<path id="Ellipse-1371" d="M45.584 45.106C43.5877 43.9537 42.8936 41.3632 44.0459 39.3674C45.1982 37.3716 47.7887 36.6776 49.785 37.8299C51.7808 38.9821 52.4749 41.5727 51.3226 43.5684C50.1703 45.5642 47.5798 46.2583 45.584 45.106Z" fill="#FDFDFC"/>
</g>
<g id="g12">
<path id="Union2" fill-rule="evenodd" clip-rule="evenodd" d="M15.4037 35.2767C15.3696 34.0716 15.8872 32.8889 16.874 32.0588C17.8779 31.2137 19.2649 30.1018 20.9158 28.9211C20.9427 28.9019 20.9701 28.8828 20.997 28.8647C21.3657 28.618 21.8477 28.6227 22.2118 28.8766C22.5759 29.13 22.7471 29.5805 22.6436 30.0118C22.1316 32.1446 22.4037 34.4699 23.5859 36.5174C24.7682 38.5649 26.6456 39.9633 28.7489 40.5865C29.174 40.7127 29.4787 41.0861 29.5164 41.5283C29.5537 41.97 29.3168 42.3899 28.9191 42.5859C28.8896 42.6004 28.8601 42.6144 28.8296 42.6283C26.9817 43.4677 25.3252 44.1126 24.0912 44.5595C22.879 44.9991 21.5958 44.8558 20.5698 44.2243C21.3879 42.4153 21.3595 40.2493 20.3003 38.4149C19.2411 36.5805 17.3793 35.4727 15.4037 35.2767ZM18.9148 42.3785C18.5099 41.7367 18.0372 40.9594 17.5014 40.0311C16.965 39.1027 16.528 38.3047 16.1748 37.6329C17.0969 37.9525 17.913 38.5892 18.4343 39.4922C18.9557 40.3952 19.0989 41.4202 18.9148 42.3785Z" fill="#FDFDFC"/>
<path id="Ellipse-1372" d="M12.6957 37.9546C14.6915 36.8023 17.282 37.4964 18.4343 39.4922C19.5866 41.488 18.8925 44.0785 16.8967 45.2308C14.9004 46.383 12.3099 45.689 11.1576 43.6932C10.0053 41.6974 10.6999 39.1069 12.6957 37.9546Z" fill="#FDFDFC"/>
</g>
</g>
</g>
</g>
<defs>
<clipPath id="clip0_335_3757">
<rect width="42.4779" height="42.4779" fill="white" transform="translate(9.75952 6.21997)"/>
</clipPath>
</defs>
</svg>
