<svg width="84" height="84" viewBox="0 0 84 84" fill="none" xmlns="http://www.w3.org/2000/svg">
<g filter="url(#filter0_dd_240_427)">
<rect x="8" y="6" width="68" height="68" rx="20" fill="#F9F8F6"/>
<path fill-rule="evenodd" clip-rule="evenodd" d="M54.5541 33.3324C54.7247 34.0798 54.4158 34.8563 53.6847 35.2068C53.342 35.3712 52.8946 35.5483 52.3477 35.6869C51.8009 35.8255 51.3227 35.8838 50.9424 35.9023C50.131 35.9431 49.4825 35.4086 49.2697 34.6723C49.0247 33.8262 48.6193 32.3921 48.1931 30.7445C47.7667 29.0967 47.4259 27.6459 47.2299 26.7879C47.0594 26.0405 47.3682 25.2637 48.0993 24.9133L48.1007 24.9127C48.5283 24.7093 48.976 24.5485 49.4366 24.4329C49.9834 24.2942 50.4617 24.2369 50.8413 24.2177C51.6531 24.1773 52.3015 24.7115 52.5143 25.4478C52.7591 26.2936 53.1648 27.7277 53.5909 29.3756C54.0171 31.0231 54.3581 32.4739 54.5541 33.3324ZM52.2133 32.9876L52.0372 32.3072C51.9625 32.0181 51.6645 31.8434 51.3725 31.9175C51.0805 31.9915 50.9041 32.2864 50.9791 32.5756L51.1549 33.2559C51.2297 33.5451 51.5276 33.7197 51.8197 33.6457C52.1117 33.5717 52.2881 33.2767 52.2133 32.9876Z" fill="#CB5300"/>
<path fill-rule="evenodd" clip-rule="evenodd" d="M49.5351 36.0147C49.4971 36.1194 49.4528 36.2234 49.4027 36.326C48.878 37.4005 47.1493 39.6893 45.3732 41.2257C44.2081 42.234 42.6379 42.5894 41.3306 41.7979C41.4989 41.5911 46.7858 34.921 46.7858 34.921C46.9415 34.7319 46.9127 34.4533 46.7214 34.2994C46.5305 34.1453 46.2491 34.1739 46.0934 34.3632L42.1641 39.1437L42.1941 39.0118C42.3775 38.207 42.0815 37.3692 41.4314 36.8533L37.8689 34.0258C37.2871 33.564 36.5073 33.4287 35.8017 33.6674L35.5032 33.7683C35.9579 33.1775 36.4877 32.48 37.0477 31.7251C37.1913 31.5316 37.3319 31.3411 37.4688 31.1543C37.6514 31.4421 37.9118 31.6794 38.2268 31.8352L38.8537 32.1457C39.8877 32.6574 41.1111 32.6278 42.1185 32.0664C42.6278 31.783 43.2253 31.4601 43.6621 31.2585C44.8197 32.0617 49.2977 35.8325 49.5351 36.0147ZM34.1108 35.4214C34.1612 35.3948 34.2141 35.3718 34.2693 35.3532L36.1623 34.7131C36.5067 34.5966 36.887 34.6626 37.1709 34.888L40.7333 37.7154C41.0506 37.9672 41.1951 38.3758 41.1055 38.7686L40.6706 40.676C40.6314 40.849 40.5494 41.0059 40.4357 41.1353C39.8908 40.6554 35.5105 36.7482 34.0626 35.4566L34.1108 35.4214Z" fill="#CB5300"/>
<path fill-rule="evenodd" clip-rule="evenodd" d="M37.2207 30.5516C37.0213 30.8246 36.813 31.108 36.598 31.3982C35.581 32.7691 34.664 33.9495 34.1177 34.644C33.6429 35.2483 32.8398 35.5042 32.102 35.1666C31.7565 35.0088 31.3348 34.7779 30.8798 34.4472C30.4248 34.1164 30.0765 33.7865 29.8203 33.5076C29.2746 32.9122 29.2807 32.0774 29.7206 31.4473C30.2266 30.7234 31.0898 29.5036 32.1068 28.1325C33.1235 26.7619 34.0405 25.5811 34.5865 24.887C35.0616 24.2826 35.8647 24.0267 36.6025 24.3644C36.9474 24.5224 37.3697 24.7525 37.8244 25.0832C38.2083 25.3607 38.563 25.6754 38.8828 26.0222L38.8839 26.0236C39.1824 26.3488 39.3157 26.7455 39.3036 27.1414L37.681 28.8815C37.2767 29.3154 37.1017 29.9125 37.2089 30.4933C37.2126 30.5127 37.2165 30.5321 37.2207 30.5516ZM32.9028 32.633L33.3228 32.0669C33.5012 31.8262 33.4488 31.4875 33.2058 31.3109C32.963 31.1343 32.6209 31.1861 32.4425 31.4268L32.0225 31.9929C31.8441 32.2335 31.8965 32.5723 32.1395 32.7489C32.3823 32.9255 32.7245 32.8736 32.9028 32.633Z" fill="#CB5300"/>
<path fill-rule="evenodd" clip-rule="evenodd" d="M48.5929 34.3366L47.9537 33.8201C47.0969 33.252 44.8331 31.353 43.7242 30.6322C43.6671 30.6539 43.5963 30.6816 43.5324 30.7099C43.078 30.9109 42.4088 31.271 41.8449 31.5851C40.9987 32.0564 39.9714 32.0813 39.1031 31.6516L38.4762 31.3411C38.0996 31.1548 37.8336 30.8038 37.758 30.3938C37.6821 29.9838 37.8056 29.5627 38.0912 29.2564L40.4902 26.6829C40.9184 26.2238 41.5302 25.9759 42.1604 26.0064C43.1881 26.0563 45.3177 26.1461 46.6323 26.201C46.6141 26.4336 46.6315 26.6726 46.6855 26.9096C46.8824 27.771 47.2245 29.2275 47.6524 30.8815C48.0069 32.2513 48.347 33.4741 48.5929 34.3366Z" fill="#CB5300"/>
<path fill-rule="evenodd" clip-rule="evenodd" d="M41.0499 37.429C41.5206 37.8027 41.7351 38.4092 41.6024 38.9917L41.179 40.8483C41.0586 41.3775 40.6694 41.807 40.1511 41.9824C39.6329 42.1582 39.0594 42.0553 38.6366 41.7105L33.7501 37.7248C33.3085 37.3647 33.0985 36.7963 33.201 36.2391C33.3032 35.6822 33.7022 35.2233 34.2434 35.0404L36.0858 34.4174C36.5968 34.2447 37.1616 34.3426 37.5827 34.6769L41.0499 37.429Z" fill="#CB5300"/>
<path d="M26.0155 57.224C25.3169 57.3413 24.7595 57.448 24.3435 57.544C24.2155 57.7467 24.1329 57.8827 24.0955 57.952C23.9835 58.1493 23.8822 58.3147 23.7915 58.448C23.7062 58.576 23.6129 58.6907 23.5115 58.792C23.3995 58.904 23.3062 58.984 23.2315 59.032C23.1622 59.08 23.0795 59.104 22.9835 59.104C22.8235 59.104 22.6822 59.0693 22.5595 59C22.4422 58.9253 22.3835 58.8507 22.3835 58.776C22.3942 58.7653 22.4529 58.648 22.5595 58.424C22.6662 58.1947 22.8635 57.9093 23.1515 57.568C23.1515 57.5253 23.1382 57.472 23.1115 57.408C23.0849 57.344 23.0715 57.3067 23.0715 57.296C23.0715 57.1413 23.3142 56.9547 23.7995 56.736C24.0715 56.3307 24.3569 55.9307 24.6555 55.536C24.9595 55.1413 25.3302 54.6747 25.7675 54.136C25.8742 54.0027 26.0102 53.8933 26.1755 53.808C26.3409 53.7227 26.5062 53.68 26.6715 53.68C26.8422 53.68 26.9702 53.696 27.0555 53.728C27.1409 53.76 27.1942 53.8027 27.2155 53.856C27.2422 53.9093 27.2555 53.984 27.2555 54.08C27.2342 54.24 27.2209 54.36 27.2155 54.44C27.1355 55.0853 27.0742 55.64 27.0315 56.104C26.9942 56.5627 26.9755 57.0213 26.9755 57.48C26.9755 57.9013 26.9942 58.288 27.0315 58.64C27.0155 58.768 26.9595 58.8853 26.8635 58.992C26.7675 59.0933 26.6555 59.144 26.5275 59.144C26.2822 59.144 26.1195 59.0827 26.0395 58.96C25.9649 58.8373 25.9275 58.6293 25.9275 58.336C25.9275 58.1227 25.9569 57.752 26.0155 57.224ZM24.9755 56.624C25.0715 56.6027 25.2182 56.5787 25.4155 56.552L26.0555 56.456C26.1035 55.7147 26.1595 55.1813 26.2235 54.856C26.0155 55.1013 25.5995 55.6907 24.9755 56.624ZM30.5695 55.904C30.5055 55.872 30.4255 55.856 30.3295 55.856C30.0895 55.856 29.8495 55.904 29.6095 56C29.3695 56.096 29.2495 56.2187 29.2495 56.368C29.2495 56.4747 29.2975 56.56 29.3935 56.624C29.4895 56.688 29.6415 56.76 29.8495 56.84C30.0735 56.9307 30.2549 57.016 30.3935 57.096C30.5322 57.176 30.6522 57.2933 30.7535 57.448C30.8602 57.5973 30.9135 57.7893 30.9135 58.024C30.9135 58.408 30.7535 58.704 30.4335 58.912C30.1189 59.1147 29.6949 59.216 29.1615 59.216C28.9002 59.216 28.6575 59.176 28.4335 59.096C28.2095 59.016 28.0309 58.9147 27.8975 58.792C27.7695 58.664 27.7002 58.5387 27.6895 58.416C27.6895 58.288 27.7455 58.184 27.8575 58.104C27.9695 58.0187 28.1269 57.9627 28.3295 57.936C28.3349 58.0427 28.3909 58.144 28.4975 58.24C28.6042 58.3307 28.7295 58.4053 28.8735 58.464C29.0229 58.5173 29.1509 58.544 29.2575 58.544C29.4389 58.544 29.6042 58.496 29.7535 58.4C29.9029 58.2987 29.9775 58.1813 29.9775 58.048C29.9775 57.8027 29.7402 57.608 29.2655 57.464C28.9615 57.3733 28.7269 57.2293 28.5615 57.032C28.4015 56.8347 28.3215 56.6267 28.3215 56.408C28.3215 55.976 28.5162 55.6667 28.9055 55.48C29.3002 55.288 29.8015 55.192 30.4095 55.192C30.7509 55.192 31.0149 55.232 31.2015 55.312C31.3882 55.392 31.4815 55.5307 31.4815 55.728C31.4815 55.8613 31.4309 55.9787 31.3295 56.08C31.2335 56.1813 31.0949 56.232 30.9135 56.232C30.7535 56.232 30.6495 56.2213 30.6015 56.2C30.5589 56.1733 30.5349 56.1307 30.5295 56.072C30.5295 56.0187 30.5429 55.9627 30.5695 55.904ZM32.9292 56.368C32.9292 56.4747 32.9772 56.56 33.0732 56.624C33.1692 56.688 33.3212 56.76 33.5292 56.84C33.7532 56.9307 33.9346 57.016 34.0732 57.096C34.2119 57.176 34.3319 57.2933 34.4332 57.448C34.5399 57.5973 34.5932 57.7893 34.5932 58.024C34.5932 58.408 34.4332 58.704 34.1132 58.912C33.7986 59.1147 33.3746 59.216 32.8412 59.216C32.5799 59.216 32.3346 59.1733 32.1052 59.088C31.8812 59.008 31.7026 58.9067 31.5692 58.784C31.4359 58.6613 31.3692 58.5387 31.3692 58.416C31.3692 58.288 31.4252 58.184 31.5372 58.104C31.6492 58.0187 31.8066 57.9627 32.0092 57.936C32.0146 58.0427 32.0706 58.144 32.1772 58.24C32.2839 58.3307 32.4092 58.4053 32.5532 58.464C32.7026 58.5173 32.8306 58.544 32.9372 58.544C33.1186 58.544 33.2839 58.496 33.4332 58.4C33.5826 58.2987 33.6572 58.1813 33.6572 58.048C33.6572 57.8027 33.4199 57.608 32.9452 57.464C32.6412 57.3733 32.4066 57.2293 32.2412 57.032C32.0812 56.8347 32.0012 56.6267 32.0012 56.408C32.0012 56.024 32.1586 55.728 32.4732 55.52C32.7932 55.312 33.2199 55.208 33.7532 55.208C34.0146 55.208 34.2466 55.248 34.4492 55.328C34.6572 55.408 34.8172 55.512 34.9292 55.64C35.0412 55.7627 35.0972 55.8853 35.0972 56.008C35.0972 56.136 35.0412 56.2427 34.9292 56.328C34.8172 56.408 34.6599 56.4613 34.4572 56.488C34.4519 56.3813 34.4039 56.2827 34.3132 56.192C34.2279 56.096 34.1239 56.0213 34.0012 55.968C33.8786 55.9093 33.7639 55.88 33.6572 55.88C33.4759 55.88 33.3079 55.928 33.1532 56.024C33.0039 56.12 32.9292 56.2347 32.9292 56.368ZM36.8249 59.168C36.3556 59.168 35.9902 59.008 35.7289 58.688C35.4676 58.368 35.3369 57.96 35.3369 57.464C35.3369 57.048 35.4356 56.656 35.6329 56.288C35.8356 55.92 36.1102 55.624 36.4569 55.4C36.8036 55.176 37.1849 55.064 37.6009 55.064C38.0116 55.064 38.3476 55.2 38.6089 55.472C38.8756 55.7387 39.0089 56.1333 39.0089 56.656C39.0089 57.024 38.9076 57.4053 38.7049 57.8C38.5022 58.1947 38.2302 58.5227 37.8889 58.784C37.5529 59.04 37.1982 59.168 36.8249 59.168ZM36.9449 58.528C37.1156 58.528 37.2862 58.4213 37.4569 58.208C37.6329 57.9947 37.7769 57.7253 37.8889 57.4C38.0009 57.0747 38.0569 56.7573 38.0569 56.448C38.0569 55.9733 37.8596 55.736 37.4649 55.736C37.2462 55.736 37.0462 55.84 36.8649 56.048C36.6836 56.256 36.5396 56.5147 36.4329 56.824C36.3262 57.128 36.2729 57.4133 36.2729 57.68C36.2729 57.8347 36.3076 57.9787 36.3769 58.112C36.4462 58.24 36.5316 58.3413 36.6329 58.416C36.7396 58.4907 36.8436 58.528 36.9449 58.528ZM43.0954 57.808C43.0367 57.984 42.8981 58.1787 42.6794 58.392C42.4661 58.6053 42.2047 58.7893 41.8954 58.944C41.5861 59.0933 41.2634 59.168 40.9274 59.168C40.6554 59.168 40.3994 59.1173 40.1594 59.016C39.9247 58.9147 39.7354 58.76 39.5914 58.552C39.4474 58.344 39.3754 58.0907 39.3754 57.792C39.3754 57.2907 39.4741 56.8453 39.6714 56.456C39.8687 56.0667 40.1487 55.7627 40.5114 55.544C40.8794 55.32 41.3034 55.208 41.7834 55.208C42.0927 55.208 42.3594 55.2987 42.5834 55.48C42.8127 55.6613 42.9301 55.9013 42.9354 56.2C42.9354 56.3173 42.8954 56.416 42.8154 56.496C42.7354 56.5707 42.6181 56.608 42.4634 56.608C42.3407 56.608 42.2501 56.5813 42.1914 56.528C42.1381 56.4693 42.0847 56.3813 42.0314 56.264C41.9781 56.1413 41.9194 56.048 41.8554 55.984C41.7914 55.92 41.6901 55.888 41.5514 55.888C41.3914 55.888 41.2154 55.9733 41.0234 56.144C40.8314 56.3093 40.6687 56.544 40.5354 56.848C40.4021 57.1467 40.3354 57.4853 40.3354 57.864C40.3354 58.024 40.3967 58.1653 40.5194 58.288C40.6474 58.4053 40.8207 58.464 41.0394 58.464C41.2207 58.464 41.3914 58.4053 41.5514 58.288C41.7114 58.1653 41.8954 57.992 42.1034 57.768C42.2367 57.6293 42.3407 57.528 42.4154 57.464C42.4954 57.4 42.5647 57.368 42.6234 57.368C42.8901 57.368 43.0474 57.5147 43.0954 57.808ZM44.2636 54.248C44.2636 54.0827 44.3143 53.936 44.4156 53.808C44.5223 53.68 44.6689 53.616 44.8556 53.616C45.0529 53.616 45.2236 53.6773 45.3676 53.8C45.5169 53.9227 45.5916 54.0613 45.5916 54.216C45.5916 54.3707 45.5169 54.504 45.3676 54.616C45.2183 54.728 45.0449 54.784 44.8476 54.784C44.6556 54.784 44.5089 54.736 44.4076 54.64C44.3116 54.5387 44.2636 54.408 44.2636 54.248ZM43.5036 58.464C43.5036 58.368 43.7409 57.408 44.2156 55.584L44.1676 55.288C44.1676 55.2293 44.2023 55.184 44.2716 55.152C44.3409 55.12 44.4743 55.104 44.6716 55.104C44.8263 55.104 44.9383 55.1467 45.0076 55.232C45.0823 55.3173 45.1196 55.4187 45.1196 55.536C45.1196 55.568 45.1143 55.6107 45.1036 55.664L44.3916 58.544L44.4396 58.84C44.4396 58.8987 44.4049 58.944 44.3356 58.976C44.2663 59.008 44.1329 59.024 43.9356 59.024C43.7596 59.024 43.6449 58.9733 43.5916 58.872C43.5383 58.7653 43.5089 58.6293 43.5036 58.464ZM48.7545 58.864C48.7225 58.96 48.6372 59.024 48.4985 59.056C48.3652 59.0933 48.2479 59.112 48.1465 59.112C48.0559 59.112 47.9945 59.088 47.9625 59.04C47.9305 58.9973 47.9039 58.9333 47.8825 58.848C47.8612 58.7573 47.8452 58.6933 47.8345 58.656C47.6105 58.8107 47.3785 58.928 47.1385 59.008C46.9039 59.0933 46.7065 59.136 46.5465 59.136C46.3865 59.136 46.2212 59.0987 46.0505 59.024C45.8852 58.9547 45.7412 58.832 45.6185 58.656C45.4959 58.4747 45.4345 58.2347 45.4345 57.936C45.4345 57.632 45.5279 57.2667 45.7145 56.84C45.9065 56.408 46.1785 56.0347 46.5305 55.72C46.8879 55.4 47.3039 55.24 47.7785 55.24C48.0185 55.24 48.2559 55.2987 48.4905 55.416C48.7252 55.528 48.9172 55.672 49.0665 55.848C49.2159 56.0187 49.2932 56.192 49.2985 56.368L49.1945 56.648C49.0452 57.064 48.9279 57.4187 48.8425 57.712C48.7572 58 48.7145 58.2587 48.7145 58.488C48.7145 58.6427 48.7279 58.768 48.7545 58.864ZM47.8425 57.984C47.8905 57.8507 47.9492 57.6773 48.0185 57.464C48.1359 57.0587 48.2479 56.7173 48.3545 56.44C48.3332 56.3653 48.2852 56.288 48.2105 56.208C48.1359 56.1227 48.0585 56.0533 47.9785 56C47.8985 55.9413 47.8425 55.912 47.8105 55.912C47.6132 55.912 47.4025 56.032 47.1785 56.272C46.9545 56.5067 46.7652 56.7867 46.6105 57.112C46.4612 57.4373 46.3865 57.72 46.3865 57.96C46.3865 58.0667 46.4185 58.168 46.4825 58.264C46.5465 58.3547 46.6159 58.4 46.6905 58.4C46.8132 58.4 47.0079 58.3547 47.2745 58.264C47.5465 58.168 47.7359 58.0747 47.8425 57.984ZM52.8182 56.608C52.6902 56.608 52.6022 56.5787 52.5542 56.52C52.5115 56.4613 52.4902 56.384 52.4902 56.288L52.4982 56.104C52.4982 56.04 52.4635 55.9893 52.3942 55.952C52.3248 55.9093 52.2502 55.888 52.1702 55.888C52.0048 55.888 51.7808 55.9867 51.4982 56.184C51.2208 56.3813 50.9755 56.6427 50.7622 56.968C50.5542 57.288 50.4502 57.632 50.4502 58C50.4502 58.1493 50.5088 58.264 50.6262 58.344C50.7435 58.424 50.9168 58.464 51.1462 58.464C51.2902 58.464 51.4555 58.4347 51.6422 58.376C51.8288 58.3173 51.9462 58.2427 51.9942 58.152C52.1755 57.8213 52.3408 57.656 52.4902 57.656C52.7088 57.656 52.8555 57.6987 52.9302 57.784C53.0102 57.864 53.0528 57.9547 53.0582 58.056C53.0048 58.2053 52.8982 58.3573 52.7382 58.512C52.5835 58.6667 52.3888 58.8027 52.1542 58.92C51.9195 59.032 51.6608 59.1067 51.3782 59.144C51.2768 59.2987 51.1968 59.432 51.1382 59.544C51.2342 59.528 51.3248 59.52 51.4102 59.52C51.6128 59.52 51.7995 59.5787 51.9702 59.696C52.1408 59.8187 52.2262 59.96 52.2262 60.12C52.2262 60.3973 52.1008 60.6133 51.8502 60.768C51.5995 60.9227 51.2608 61 50.8342 61C50.6102 61 50.3968 60.9413 50.1942 60.824C49.9915 60.7067 49.8902 60.568 49.8902 60.408C49.8902 60.3867 49.9222 60.3627 49.9862 60.336C50.0555 60.3147 50.1302 60.304 50.2102 60.304C50.2902 60.304 50.3568 60.312 50.4102 60.328C50.4635 60.3493 50.5248 60.376 50.5942 60.408C50.6582 60.44 50.7088 60.464 50.7462 60.48C50.7888 60.496 50.8395 60.504 50.8982 60.504C51.0742 60.504 51.2102 60.4747 51.3062 60.416C51.4022 60.3573 51.4502 60.2747 51.4502 60.168C51.4502 60.0933 51.4208 60.0373 51.3622 60C51.3035 59.9627 51.2288 59.944 51.1382 59.944C51.1062 59.944 51.0688 59.9493 51.0262 59.96C50.9888 59.9707 50.9622 59.9787 50.9462 59.984C50.8768 60.0107 50.8102 60.024 50.7462 60.024C50.5968 60.024 50.4822 60.0133 50.4022 59.992C50.3222 59.976 50.2822 59.952 50.2822 59.92C50.2822 59.776 50.4128 59.52 50.6742 59.152C50.2688 59.104 49.9702 58.976 49.7782 58.768C49.5862 58.56 49.4902 58.304 49.4902 58C49.4902 57.4987 49.6182 57.0347 49.8742 56.608C50.1302 56.176 50.4742 55.8347 50.9062 55.584C51.3382 55.3333 51.7995 55.208 52.2902 55.208C52.5942 55.208 52.8448 55.2987 53.0422 55.48C53.2448 55.656 53.3462 55.896 53.3462 56.2C53.3462 56.3173 53.2982 56.416 53.2022 56.496C53.1062 56.5707 52.9782 56.608 52.8182 56.608ZM55.4263 54.192C55.2503 54.192 55.0183 54.3493 54.7303 54.664C54.6663 54.6267 54.621 54.5813 54.5943 54.528C54.5677 54.4693 54.5543 54.3707 54.5543 54.232C54.5543 54.1253 54.6103 54.0133 54.7223 53.896C54.8343 53.7787 54.9677 53.6827 55.1223 53.608C55.2823 53.528 55.4263 53.488 55.5543 53.488C55.789 53.488 56.029 53.5813 56.2743 53.768C56.3757 53.848 56.4663 53.904 56.5463 53.936C56.6263 53.968 56.7117 53.984 56.8023 53.984C56.8663 53.984 56.925 53.968 56.9783 53.936C57.0317 53.8987 57.085 53.856 57.1383 53.808C57.1917 53.7547 57.2317 53.7147 57.2583 53.688C57.2797 53.6667 57.3037 53.656 57.3303 53.656C57.3517 53.656 57.373 53.6693 57.3943 53.696C57.4157 53.7227 57.429 53.736 57.4343 53.736C57.445 53.736 57.4503 53.76 57.4503 53.808C57.4503 53.9573 57.3997 54.0987 57.2983 54.232C57.197 54.36 57.0797 54.464 56.9463 54.544C56.813 54.624 56.7063 54.664 56.6263 54.664C56.5037 54.664 56.3917 54.6453 56.2903 54.608C56.1943 54.5653 56.077 54.4987 55.9383 54.408C55.837 54.328 55.7463 54.272 55.6663 54.24C55.5917 54.208 55.5117 54.192 55.4263 54.192ZM56.6183 58.584C56.629 58.7227 56.6477 58.848 56.6743 58.96C56.6637 58.992 56.6157 59.024 56.5303 59.056C56.4503 59.088 56.381 59.104 56.3223 59.104C56.1303 59.104 55.9917 59.0747 55.9063 59.016C55.8263 58.9627 55.7863 58.88 55.7863 58.768C55.7863 58.6613 55.797 58.5547 55.8183 58.448C55.701 58.608 55.5277 58.7413 55.2983 58.848C55.0743 58.9493 54.893 59 54.7543 59C54.397 59 54.0983 58.896 53.8583 58.688C53.6237 58.48 53.5063 58.1467 53.5063 57.688C53.5063 57.256 53.6077 56.8507 53.8103 56.472C54.0183 56.088 54.3037 55.7813 54.6663 55.552C55.029 55.3173 55.4317 55.2 55.8743 55.2C55.9597 55.2 56.0717 55.224 56.2103 55.272C56.349 55.3147 56.4877 55.392 56.6263 55.504C56.7703 55.6107 56.8903 55.7493 56.9863 55.92C57.029 55.92 57.0797 55.9413 57.1383 55.984C57.197 56.0267 57.2263 56.0693 57.2263 56.112C57.2263 56.16 57.2183 56.208 57.2023 56.256L56.6183 58.584ZM56.2583 56.344C56.2263 56.2267 56.1623 56.128 56.0663 56.048C55.9757 55.968 55.893 55.928 55.8183 55.928C55.573 55.928 55.341 56.016 55.1223 56.192C54.909 56.3627 54.7357 56.576 54.6023 56.832C54.469 57.088 54.4023 57.3307 54.4023 57.56C54.4023 57.784 54.429 57.968 54.4823 58.112C54.5357 58.256 54.6397 58.328 54.7943 58.328C54.9277 58.328 55.0797 58.288 55.2503 58.208C55.4263 58.128 55.581 58.0213 55.7143 57.888C55.853 57.7493 55.9437 57.6053 55.9863 57.456L56.2583 56.344ZM59.114 59.168C58.6446 59.168 58.2793 59.008 58.018 58.688C57.7566 58.368 57.626 57.96 57.626 57.464C57.626 57.048 57.7246 56.656 57.922 56.288C58.1246 55.92 58.3993 55.624 58.746 55.4C59.0926 55.176 59.474 55.064 59.89 55.064C60.3006 55.064 60.6366 55.2 60.898 55.472C61.1646 55.7387 61.298 56.1333 61.298 56.656C61.298 57.024 61.1966 57.4053 60.994 57.8C60.7913 58.1947 60.5193 58.5227 60.178 58.784C59.842 59.04 59.4873 59.168 59.114 59.168ZM59.234 58.528C59.4046 58.528 59.5753 58.4213 59.746 58.208C59.922 57.9947 60.066 57.7253 60.178 57.4C60.29 57.0747 60.346 56.7573 60.346 56.448C60.346 55.9733 60.1486 55.736 59.754 55.736C59.5353 55.736 59.3353 55.84 59.154 56.048C58.9726 56.256 58.8286 56.5147 58.722 56.824C58.6153 57.128 58.562 57.4133 58.562 57.68C58.562 57.8347 58.5966 57.9787 58.666 58.112C58.7353 58.24 58.8206 58.3413 58.922 58.416C59.0286 58.4907 59.1326 58.528 59.234 58.528Z" fill="#CB5300"/>
</g>
<defs>
<filter id="filter0_dd_240_427" x="0" y="0" width="84" height="84" filterUnits="userSpaceOnUse" color-interpolation-filters="sRGB">
<feFlood flood-opacity="0" result="BackgroundImageFix"/>
<feColorMatrix in="SourceAlpha" type="matrix" values="0 0 0 0 0 0 0 0 0 0 0 0 0 0 0 0 0 0 127 0" result="hardAlpha"/>
<feMorphology radius="2" operator="dilate" in="SourceAlpha" result="effect1_dropShadow_240_427"/>
<feOffset dy="2"/>
<feGaussianBlur stdDeviation="3"/>
<feColorMatrix type="matrix" values="0 0 0 0 0 0 0 0 0 0 0 0 0 0 0 0 0 0 0.15 0"/>
<feBlend mode="normal" in2="BackgroundImageFix" result="effect1_dropShadow_240_427"/>
<feColorMatrix in="SourceAlpha" type="matrix" values="0 0 0 0 0 0 0 0 0 0 0 0 0 0 0 0 0 0 127 0" result="hardAlpha"/>
<feOffset dy="1"/>
<feGaussianBlur stdDeviation="1"/>
<feColorMatrix type="matrix" values="0 0 0 0 0 0 0 0 0 0 0 0 0 0 0 0 0 0 0.3 0"/>
<feBlend mode="normal" in2="effect1_dropShadow_240_427" result="effect2_dropShadow_240_427"/>
<feBlend mode="normal" in="SourceGraphic" in2="effect2_dropShadow_240_427" result="shape"/>
</filter>
</defs>
</svg>
