<svg width="84" height="84" viewBox="0 0 84 84" fill="none" xmlns="http://www.w3.org/2000/svg">
<g filter="url(#filter0_dd_240_381)">
<rect x="8" y="6" width="68" height="68" rx="20" fill="#F9F8F6"/>
<path fill-rule="evenodd" clip-rule="evenodd" d="M46.2516 43.9397C47.8054 43.9158 49.0963 43.881 50.1134 43.8463C51.6983 43.7923 52.9586 42.5422 53.024 40.9576C53.0803 39.5914 53.1318 37.8518 53.1318 36.0504C53.1318 33.7084 53.0448 31.5673 52.973 30.1989C52.9209 29.2023 52.4989 28.2661 51.7424 27.6155C50.2453 26.3283 47.3494 24.101 43.5289 22.4052C42.583 21.9855 41.5021 21.9855 40.5562 22.4052C36.736 24.101 33.8401 26.3283 32.3431 27.6157C31.5862 28.2661 31.1646 29.2023 31.1122 30.1989C31.0404 31.5673 30.9536 33.7084 30.9536 36.0504C30.9536 37.8518 31.0049 39.5917 31.0615 40.9576C31.1269 42.5422 32.3869 43.7923 33.9721 43.8463C34.9907 43.8811 36.284 43.9159 37.8411 43.9398C37.8411 43.5614 37.8468 43.4825 37.8497 43.4431C37.8501 43.4371 37.8505 43.432 37.8508 43.4269C37.8523 43.3986 37.8508 43.37 37.8411 43.183C37.6689 39.7947 37.6753 36.4654 37.8483 33.203C37.8688 32.8229 38.1452 32.5055 38.5186 32.4323C41.0184 31.9516 43.4175 31.88 45.6209 32.4093C45.9666 32.4966 46.2175 32.7952 46.2441 33.1509C46.4803 36.3706 46.4623 39.7331 46.2516 43.1909C46.2368 43.4292 46.2381 43.4492 46.2423 43.5158C46.2459 43.5718 46.2516 43.6607 46.2516 43.9397Z" fill="#CB5300" stroke="#CB5300" stroke-width="3" stroke-linecap="round" stroke-linejoin="round"/>
<path d="M34.427 57.608C34.347 57.848 34.187 58.0907 33.947 58.336C33.7123 58.576 33.4137 58.776 33.051 58.936C32.6937 59.0907 32.3017 59.168 31.875 59.168C31.2243 59.168 30.747 59.0107 30.443 58.696C30.139 58.376 29.987 57.968 29.987 57.472C29.987 56.768 30.1443 56.1307 30.459 55.56C30.7737 54.984 31.1977 54.5333 31.731 54.208C32.2643 53.8773 32.8403 53.712 33.459 53.712C33.7043 53.712 33.9283 53.768 34.131 53.88C34.3337 53.992 34.4937 54.1547 34.611 54.368C34.7283 54.576 34.787 54.8213 34.787 55.104C34.787 55.264 34.7257 55.4 34.603 55.512C34.4857 55.624 34.3257 55.68 34.123 55.68C33.963 55.68 33.8537 55.6373 33.795 55.552C33.7417 55.4667 33.715 55.3573 33.715 55.224L33.723 54.968C33.723 54.872 33.6697 54.7787 33.563 54.688C33.4563 54.5973 33.3577 54.552 33.267 54.552C32.9683 54.552 32.6403 54.688 32.283 54.96C31.9257 55.2267 31.6243 55.5893 31.379 56.048C31.1337 56.5013 31.011 56.9947 31.011 57.528C31.011 57.7733 31.107 57.9733 31.299 58.128C31.491 58.2827 31.7337 58.36 32.027 58.36C32.123 58.36 32.2483 58.328 32.403 58.264C32.5577 58.2 32.699 58.12 32.827 58.024C32.9603 57.928 33.0483 57.8347 33.091 57.744C33.155 57.6107 33.2457 57.4613 33.363 57.296C33.4803 57.1307 33.5977 57.048 33.715 57.048C33.987 57.048 34.171 57.1067 34.267 57.224C34.3683 57.3413 34.4217 57.4693 34.427 57.608ZM36.4832 59.168C35.9605 59.168 35.5792 59.064 35.3392 58.856C35.0992 58.648 34.9792 58.3707 34.9792 58.024C34.9792 57.5173 35.1045 57.048 35.3552 56.616C35.6112 56.184 35.9499 55.8427 36.3712 55.592C36.7979 55.336 37.2565 55.208 37.7472 55.208C38.0459 55.208 38.2965 55.2933 38.4992 55.464C38.7019 55.6293 38.8032 55.8747 38.8032 56.2C38.8032 56.3867 38.7419 56.5413 38.6192 56.664C38.5019 56.7813 38.3312 56.888 38.1072 56.984C37.8832 57.0747 37.5205 57.2053 37.0192 57.376C36.5659 57.5253 36.1979 57.6507 35.9152 57.752C35.8939 57.832 35.8832 57.9147 35.8832 58C35.8832 58.1493 35.9445 58.264 36.0672 58.344C36.1952 58.424 36.3739 58.464 36.6032 58.464C36.7472 58.464 36.9125 58.4347 37.0992 58.376C37.2859 58.3173 37.4032 58.2427 37.4512 58.152C37.6325 57.8213 37.7979 57.656 37.9472 57.656C38.1659 57.656 38.3125 57.6987 38.3872 57.784C38.4672 57.864 38.5099 57.9547 38.5152 58.056C38.4512 58.2267 38.3259 58.4 38.1392 58.576C37.9525 58.7467 37.7152 58.888 37.4272 59C37.1392 59.112 36.8245 59.168 36.4832 59.168ZM36.1392 57.016C36.6672 56.8453 37.1019 56.688 37.4432 56.544C37.7845 56.3947 37.9552 56.248 37.9552 56.104C37.9552 56.04 37.9205 55.9893 37.8512 55.952C37.7819 55.9093 37.7072 55.888 37.6272 55.888C37.4672 55.888 37.2832 55.9493 37.0752 56.072C36.8725 56.1947 36.6832 56.344 36.5072 56.52C36.3312 56.696 36.2085 56.8613 36.1392 57.016ZM39.6406 55.344C39.6246 55.328 39.6166 55.3093 39.6166 55.288C39.6166 55.2347 39.6752 55.192 39.7926 55.16C39.9099 55.1227 40.0726 55.104 40.2806 55.104C40.4726 55.104 40.6139 55.1547 40.7046 55.256C40.7952 55.352 40.8486 55.4693 40.8646 55.608L40.7206 56.128C40.8326 55.9733 40.9899 55.8267 41.1926 55.688C41.3952 55.544 41.6006 55.4293 41.8086 55.344C42.0166 55.2587 42.1872 55.216 42.3206 55.216C42.6032 55.216 42.8086 55.2693 42.9366 55.376C43.0646 55.4773 43.1286 55.64 43.1286 55.864C42.8139 56.6853 42.6059 57.5707 42.5046 58.52L42.6166 58.912C42.5526 59.0347 42.4619 59.1307 42.3446 59.2C42.2326 59.2747 42.0672 59.312 41.8486 59.312C41.7206 59.312 41.6272 59.2693 41.5686 59.184C41.5099 59.0987 41.4806 58.992 41.4806 58.864C41.4806 58.5067 41.5312 58.1147 41.6326 57.688C41.7392 57.256 41.8619 56.816 42.0006 56.368C42.0539 56.1973 42.0806 56.1093 42.0806 56.104C42.0806 56.0293 42.0379 55.992 41.9526 55.992C41.8352 55.992 41.6566 56.0747 41.4166 56.24C41.1819 56.4053 40.9392 56.6853 40.6886 57.08C40.4379 57.4693 40.2352 57.9813 40.0806 58.616C40.0699 58.648 40.0566 58.7067 40.0406 58.792C40.0246 58.8773 39.9819 58.9387 39.9126 58.976C39.8432 59.008 39.7312 59.024 39.5766 59.024C39.4006 59.024 39.2699 59.0053 39.1846 58.968C39.1046 58.9307 39.0646 58.8507 39.0646 58.728C39.0806 58.6533 39.1046 58.5627 39.1366 58.456C39.4459 57.2133 39.6832 56.256 39.8486 55.584L39.6406 55.344ZM44.6251 58.104C44.6251 58.2267 44.6464 58.312 44.6891 58.36C44.7317 58.408 44.8117 58.432 44.9291 58.432C45.0837 58.432 45.2117 58.4 45.3131 58.336C45.4197 58.2667 45.5477 58.16 45.6971 58.016C45.7397 57.9733 45.7877 57.952 45.8411 57.952C45.9051 57.952 45.9557 58 45.9931 58.096C46.0304 58.1867 46.0491 58.28 46.0491 58.376C46.0491 58.5093 45.9957 58.64 45.8891 58.768C45.7824 58.896 45.6277 59 45.4251 59.08C45.2224 59.16 44.9851 59.2 44.7131 59.2C44.3504 59.2 44.0917 59.1173 43.9371 58.952C43.7877 58.7867 43.7131 58.5333 43.7131 58.192C43.7131 58.144 43.7371 58.0187 43.7851 57.816C43.8331 57.6133 43.8944 57.3707 43.9691 57.088L44.1931 56.176L43.7051 56.216C43.6411 56.216 43.5931 56.192 43.5611 56.144C43.5291 56.096 43.5131 56.0373 43.5131 55.968C43.5131 55.8347 43.5611 55.7013 43.6571 55.568C43.6677 55.552 43.7211 55.536 43.8171 55.52C43.9131 55.504 44.0304 55.488 44.1691 55.472L44.3851 55.448L44.5691 54.624C44.6224 54.4853 44.7024 54.3787 44.8091 54.304C44.9211 54.224 45.0251 54.184 45.1211 54.184C45.2277 54.184 45.3184 54.216 45.3931 54.28C45.4677 54.344 45.5077 54.4187 45.5131 54.504L45.3131 55.36C45.5211 55.3333 45.7131 55.312 45.8891 55.296C46.0704 55.2747 46.2117 55.264 46.3131 55.264C46.5157 55.264 46.6171 55.3813 46.6171 55.616C46.6171 55.7067 46.5771 55.7893 46.4971 55.864C46.4224 55.9333 46.3397 55.976 46.2491 55.992L45.1291 56.104L44.6251 58.104ZM47.9572 58.696C47.9519 58.7333 47.9413 58.7973 47.9253 58.888C47.9146 58.9787 47.8746 59.0427 47.8053 59.08C47.7413 59.1173 47.6319 59.136 47.4773 59.136C47.3013 59.136 47.1706 59.1173 47.0853 59.08C46.9999 59.0427 46.9546 58.9627 46.9493 58.84C46.9919 58.6267 47.0613 58.248 47.1573 57.704C47.1893 57.5227 47.2399 57.2507 47.3092 56.888C47.3786 56.52 47.4319 56.2533 47.4693 56.088C47.5226 55.7093 47.5973 55.4613 47.6933 55.344C47.7893 55.2213 47.9066 55.16 48.0453 55.16C48.2319 55.16 48.3546 55.1867 48.4133 55.24C48.4773 55.2933 48.5119 55.3627 48.5173 55.448L48.4533 55.92C48.6133 55.712 48.8026 55.5413 49.0213 55.408C49.2399 55.2693 49.4373 55.2 49.6133 55.2C49.8479 55.2 50.0319 55.2427 50.1653 55.328C50.2986 55.408 50.3653 55.512 50.3653 55.64C50.3653 55.736 50.3066 55.8107 50.1893 55.864C50.0773 55.9173 49.9279 55.952 49.7413 55.968C49.4479 55.9947 49.1573 56.12 48.8693 56.344C48.5813 56.568 48.3733 56.832 48.2453 57.136L47.9572 58.696ZM51.7585 59.08C51.2892 59.08 50.9238 58.92 50.6625 58.6C50.4012 58.28 50.2705 57.872 50.2705 57.376C50.2705 56.96 50.3585 56.5787 50.5345 56.232C50.7158 55.8853 50.9665 55.6133 51.2865 55.416C51.6118 55.2133 51.9825 55.112 52.3985 55.112C52.8625 55.112 53.1745 55.152 53.3345 55.232C53.3825 55.2533 53.4252 55.288 53.4625 55.336C53.4998 55.3787 53.5185 55.4213 53.5185 55.464C53.5185 55.5173 53.5052 55.5733 53.4785 55.632C53.4572 55.6907 53.4225 55.736 53.3745 55.768C53.4972 55.7787 53.6012 55.84 53.6865 55.952C53.7718 56.0587 53.8358 56.184 53.8785 56.328C53.9212 56.472 53.9425 56.5973 53.9425 56.704C53.9425 57.0827 53.8492 57.456 53.6625 57.824C53.4812 58.192 53.2252 58.4933 52.8945 58.728C52.5638 58.9627 52.1852 59.08 51.7585 59.08ZM51.8785 58.416C52.0492 58.416 52.2225 58.3333 52.3985 58.168C52.5798 57.9973 52.7292 57.7733 52.8465 57.496C52.9638 57.2187 53.0225 56.928 53.0225 56.624C53.0225 56.5653 53.0012 56.512 52.9585 56.464C52.9212 56.416 52.8678 56.3653 52.7985 56.312C52.7612 56.2853 52.7265 56.2587 52.6945 56.232C52.6678 56.2 52.6545 56.1707 52.6545 56.144C52.6545 56.1227 52.6598 56.0933 52.6705 56.056C52.6865 56.0187 52.6945 55.992 52.6945 55.976C52.6945 55.896 52.5958 55.856 52.3985 55.856C52.1798 55.856 51.9772 55.944 51.7905 56.12C51.6092 56.296 51.4652 56.52 51.3585 56.792C51.2572 57.064 51.2065 57.3307 51.2065 57.592C51.2065 57.7467 51.2412 57.888 51.3105 58.016C51.3798 58.1387 51.4652 58.2373 51.5665 58.312C51.6732 58.3813 51.7772 58.416 51.8785 58.416Z" fill="#CB5300"/>
</g>
<defs>
<filter id="filter0_dd_240_381" x="0" y="0" width="84" height="84" filterUnits="userSpaceOnUse" color-interpolation-filters="sRGB">
<feFlood flood-opacity="0" result="BackgroundImageFix"/>
<feColorMatrix in="SourceAlpha" type="matrix" values="0 0 0 0 0 0 0 0 0 0 0 0 0 0 0 0 0 0 127 0" result="hardAlpha"/>
<feMorphology radius="2" operator="dilate" in="SourceAlpha" result="effect1_dropShadow_240_381"/>
<feOffset dy="2"/>
<feGaussianBlur stdDeviation="3"/>
<feColorMatrix type="matrix" values="0 0 0 0 0 0 0 0 0 0 0 0 0 0 0 0 0 0 0.15 0"/>
<feBlend mode="normal" in2="BackgroundImageFix" result="effect1_dropShadow_240_381"/>
<feColorMatrix in="SourceAlpha" type="matrix" values="0 0 0 0 0 0 0 0 0 0 0 0 0 0 0 0 0 0 127 0" result="hardAlpha"/>
<feOffset dy="1"/>
<feGaussianBlur stdDeviation="1"/>
<feColorMatrix type="matrix" values="0 0 0 0 0 0 0 0 0 0 0 0 0 0 0 0 0 0 0.3 0"/>
<feBlend mode="normal" in2="effect1_dropShadow_240_381" result="effect2_dropShadow_240_381"/>
<feBlend mode="normal" in="SourceGraphic" in2="effect2_dropShadow_240_381" result="shape"/>
</filter>
</defs>
</svg>
