<svg width="84" height="84" viewBox="0 0 84 84" fill="none" xmlns="http://www.w3.org/2000/svg">
<g filter="url(#filter0_dd_240_566)">
<rect x="8" y="6" width="68" height="68" rx="20" fill="#F9F8F6"/>
<path d="M49.5373 30.3417C47.6596 30.3423 45.7443 30.1674 44.8743 30.6023C43.9581 31.0595 43.336 32.3441 43.9085 33.7397C45.0282 36.4685 45.357 36.7338 45.1152 37.7213C44.8743 38.7082 43.639 39.0486 41.9776 39.0486C35.845 39.0486 30.8738 34.0785 30.8738 27.9476C30.8738 21.8167 35.8445 16.8466 41.9776 16.8466C47.6056 16.8466 52.1929 21.2004 52.9627 26.4628C53.2718 28.5802 51.6775 30.3412 49.5373 30.3417ZM40.4997 22.7033C40.4997 24.47 41.9535 25.9238 43.7202 25.9238C45.487 25.9238 46.9408 24.47 46.9408 22.7033C46.9408 20.9365 45.487 19.4827 43.7202 19.4827C41.9535 19.4827 40.4997 20.9365 40.4997 22.7033ZM33.6275 26.6679C33.6275 28.2897 34.9621 29.6243 36.5838 29.6243C38.2056 29.6243 39.5402 28.2897 39.5402 26.6679C39.5402 25.0461 38.2056 23.7115 36.5838 23.7115C34.9621 23.7115 33.6275 25.0461 33.6275 26.6679ZM36.2706 33.5398C36.2706 34.8716 37.3665 35.9675 38.6983 35.9675C40.0301 35.9675 41.1262 34.8716 41.1262 33.5398C41.1262 32.208 40.0301 31.1121 38.6983 31.1121C37.3665 31.1121 36.2706 32.208 36.2706 33.5398Z" fill="#CB5300"/>
<path d="M31.0481 52.608C30.9681 52.848 30.8081 53.0907 30.5681 53.336C30.3334 53.576 30.0348 53.776 29.6721 53.936C29.3148 54.0907 28.9228 54.168 28.4961 54.168C27.8454 54.168 27.3681 54.0107 27.0641 53.696C26.7601 53.376 26.6081 52.968 26.6081 52.472C26.6081 51.768 26.7654 51.1307 27.0801 50.56C27.3948 49.984 27.8188 49.5333 28.3521 49.208C28.8854 48.8773 29.4614 48.712 30.0801 48.712C30.3254 48.712 30.5494 48.768 30.7521 48.88C30.9548 48.992 31.1148 49.1547 31.2321 49.368C31.3494 49.576 31.4081 49.8213 31.4081 50.104C31.4081 50.264 31.3468 50.4 31.2241 50.512C31.1068 50.624 30.9468 50.68 30.7441 50.68C30.5841 50.68 30.4748 50.6373 30.4161 50.552C30.3628 50.4667 30.3361 50.3573 30.3361 50.224L30.3441 49.968C30.3441 49.872 30.2908 49.7787 30.1841 49.688C30.0774 49.5973 29.9788 49.552 29.8881 49.552C29.5894 49.552 29.2614 49.688 28.9041 49.96C28.5468 50.2267 28.2454 50.5893 28.0001 51.048C27.7548 51.5013 27.6321 51.9947 27.6321 52.528C27.6321 52.7733 27.7281 52.9733 27.9201 53.128C28.1121 53.2827 28.3548 53.36 28.6481 53.36C28.7441 53.36 28.8694 53.328 29.0241 53.264C29.1788 53.2 29.3201 53.12 29.4481 53.024C29.5814 52.928 29.6694 52.8347 29.7121 52.744C29.7761 52.6107 29.8668 52.4613 29.9841 52.296C30.1014 52.1307 30.2188 52.048 30.3361 52.048C30.6081 52.048 30.7921 52.1067 30.8881 52.224C30.9894 52.3413 31.0428 52.4693 31.0481 52.608ZM33.1843 54.168C32.7149 54.168 32.3496 54.008 32.0883 53.688C31.8269 53.368 31.6963 52.96 31.6963 52.464C31.6963 52.048 31.7949 51.656 31.9923 51.288C32.1949 50.92 32.4696 50.624 32.8163 50.4C33.1629 50.176 33.5443 50.064 33.9603 50.064C34.3709 50.064 34.7069 50.2 34.9683 50.472C35.2349 50.7387 35.3683 51.1333 35.3683 51.656C35.3683 52.024 35.2669 52.4053 35.0643 52.8C34.8616 53.1947 34.5896 53.5227 34.2483 53.784C33.9123 54.04 33.5576 54.168 33.1843 54.168ZM33.3043 53.528C33.4749 53.528 33.6456 53.4213 33.8163 53.208C33.9923 52.9947 34.1363 52.7253 34.2483 52.4C34.3603 52.0747 34.4163 51.7573 34.4163 51.448C34.4163 50.9733 34.2189 50.736 33.8243 50.736C33.6056 50.736 33.4056 50.84 33.2243 51.048C33.0429 51.256 32.8989 51.5147 32.7923 51.824C32.6856 52.128 32.6323 52.4133 32.6323 52.68C32.6323 52.8347 32.6669 52.9787 32.7363 53.112C32.8056 53.24 32.8909 53.3413 32.9923 53.416C33.0989 53.4907 33.2029 53.528 33.3043 53.528ZM37.6388 49.648C37.0361 52.1813 36.6814 53.6293 36.5748 53.992C36.5641 54.024 36.5081 54.064 36.4068 54.112C36.3108 54.1653 36.2441 54.192 36.2068 54.192C36.0574 54.192 35.9134 54.1547 35.7748 54.08C35.6361 54.0053 35.5614 53.8853 35.5508 53.72C35.5561 53.7093 35.5828 53.6533 35.6308 53.552C35.6788 53.4507 35.7268 53.3067 35.7748 53.12C35.8974 52.6613 36.0361 52.1173 36.1908 51.488C36.3508 50.8587 36.4574 50.4373 36.5108 50.224L36.8868 48.696C36.8814 48.6533 36.8788 48.432 36.8788 48.032C36.8948 47.9627 36.9534 47.9067 37.0548 47.864C37.1614 47.8213 37.2574 47.8 37.3428 47.8C37.4761 47.8 37.6121 47.8453 37.7508 47.936C37.8948 48.0267 37.9694 48.136 37.9748 48.264L37.6388 49.648ZM39.448 54.168C38.9254 54.168 38.544 54.064 38.304 53.856C38.064 53.648 37.944 53.3707 37.944 53.024C37.944 52.5173 38.0694 52.048 38.32 51.616C38.576 51.184 38.9147 50.8427 39.336 50.592C39.7627 50.336 40.2214 50.208 40.712 50.208C41.0107 50.208 41.2614 50.2933 41.464 50.464C41.6667 50.6293 41.768 50.8747 41.768 51.2C41.768 51.5627 41.632 51.8507 41.36 52.064C41.0934 52.272 40.7547 52.4267 40.344 52.528C39.9387 52.624 39.4507 52.6987 38.88 52.752C38.8587 52.832 38.848 52.9147 38.848 53C38.848 53.1493 38.9094 53.264 39.032 53.344C39.16 53.424 39.3387 53.464 39.568 53.464C39.7387 53.464 39.9334 53.4293 40.152 53.36C40.376 53.2907 40.5467 53.176 40.664 53.016C40.728 52.9253 40.808 52.8533 40.904 52.8C41.0054 52.7467 41.1014 52.72 41.192 52.72C41.2774 52.72 41.3467 52.7493 41.4 52.808C41.4534 52.8613 41.48 52.944 41.48 53.056C41.416 53.2267 41.2907 53.4 41.104 53.576C40.9174 53.7467 40.68 53.888 40.392 54C40.104 54.112 39.7894 54.168 39.448 54.168ZM39.104 52.016C39.2907 52.0107 39.5254 51.9813 39.808 51.928C40.0907 51.8747 40.3467 51.7813 40.576 51.648C40.8054 51.5093 40.92 51.328 40.92 51.104C40.92 51.04 40.8854 50.9893 40.816 50.952C40.7467 50.9093 40.672 50.888 40.592 50.888C40.432 50.888 40.248 50.9493 40.04 51.072C39.8374 51.1947 39.648 51.344 39.472 51.52C39.296 51.696 39.1734 51.8613 39.104 52.016ZM43.2774 53.104C43.2774 53.2267 43.2987 53.312 43.3414 53.36C43.3841 53.408 43.4641 53.432 43.5814 53.432C43.7361 53.432 43.8641 53.4 43.9654 53.336C44.0721 53.2667 44.2001 53.16 44.3494 53.016C44.3921 52.9733 44.4401 52.952 44.4934 52.952C44.5574 52.952 44.6081 53 44.6454 53.096C44.6827 53.1867 44.7014 53.28 44.7014 53.376C44.7014 53.5093 44.6481 53.64 44.5414 53.768C44.4347 53.896 44.2801 54 44.0774 54.08C43.8747 54.16 43.6374 54.2 43.3654 54.2C43.0027 54.2 42.7441 54.1173 42.5894 53.952C42.4401 53.7867 42.3654 53.5333 42.3654 53.192C42.3654 53.144 42.3894 53.0187 42.4374 52.816C42.4854 52.6133 42.5467 52.3707 42.6214 52.088L42.8454 51.176L42.3574 51.216C42.2934 51.216 42.2454 51.192 42.2134 51.144C42.1814 51.096 42.1654 51.0373 42.1654 50.968C42.1654 50.8347 42.2134 50.7013 42.3094 50.568C42.3201 50.552 42.3734 50.536 42.4694 50.52C42.5654 50.504 42.6827 50.488 42.8214 50.472L43.0374 50.448L43.2214 49.624C43.2747 49.4853 43.3547 49.3787 43.4614 49.304C43.5734 49.224 43.6774 49.184 43.7734 49.184C43.8801 49.184 43.9707 49.216 44.0454 49.28C44.1201 49.344 44.1601 49.4187 44.1654 49.504L43.9654 50.36C44.1734 50.3333 44.3654 50.312 44.5414 50.296C44.7227 50.2747 44.8641 50.264 44.9654 50.264C45.1681 50.264 45.2694 50.3813 45.2694 50.616C45.2694 50.7067 45.2294 50.7893 45.1494 50.864C45.0747 50.9333 44.9921 50.976 44.9014 50.992L43.7814 51.104L43.2774 53.104ZM46.4736 49.248C46.4736 49.0773 46.5376 48.9173 46.6656 48.768C46.7936 48.6187 46.9509 48.544 47.1376 48.544C47.3296 48.544 47.4789 48.6027 47.5856 48.72C47.6976 48.8373 47.7563 48.9787 47.7616 49.144C47.7616 49.304 47.6923 49.4507 47.5536 49.584C47.4149 49.7173 47.2496 49.784 47.0576 49.784C46.8656 49.784 46.7189 49.736 46.6176 49.64C46.5216 49.5387 46.4736 49.408 46.4736 49.248ZM45.7856 53.464C45.7856 53.3307 46.0069 52.3707 46.4496 50.584C46.4549 50.392 46.4896 50.264 46.5536 50.2C46.6229 50.136 46.7376 50.104 46.8976 50.104C47.0309 50.104 47.1376 50.1467 47.2176 50.232C47.3029 50.312 47.3456 50.416 47.3456 50.544C47.3456 50.5707 47.3403 50.6107 47.3296 50.664L46.6736 53.544L46.6416 53.76C46.6363 53.8453 46.6229 53.904 46.6016 53.936C46.5803 53.968 46.5269 53.9893 46.4416 54C46.3616 54.016 46.2176 54.024 46.0096 54.024C45.9083 54.024 45.8389 54.0053 45.8016 53.968C45.7643 53.9307 45.7456 53.8773 45.7456 53.808C45.7456 53.744 45.7536 53.6853 45.7696 53.632C45.7803 53.5467 45.7856 53.4907 45.7856 53.464ZM48.8205 54.168C48.6339 54.136 48.5112 54.096 48.4525 54.048C48.3992 54.0053 48.3565 53.9493 48.3245 53.88C48.2979 53.8053 48.2739 53.7467 48.2525 53.704C48.1619 53.5173 48.0765 53.1653 47.9965 52.648C47.9219 52.1307 47.8845 51.656 47.8845 51.224C47.8845 50.8933 47.9112 50.6507 47.9645 50.496C48.0339 50.2987 48.1912 50.2 48.4365 50.2C48.7192 50.2 48.8605 50.3307 48.8605 50.592C48.8605 50.6133 48.8499 50.7253 48.8285 50.928C48.7752 51.4347 48.7485 51.824 48.7485 52.096C48.7485 52.6613 48.8312 53.0773 48.9965 53.344C49.2899 52.6987 49.6392 52.0133 50.0445 51.288C50.4499 50.5573 50.7192 50.192 50.8525 50.192C51.0445 50.192 51.2045 50.2187 51.3325 50.272C51.4605 50.32 51.5245 50.4267 51.5245 50.592C51.5245 50.6613 51.4712 50.7787 51.3645 50.944L50.6765 52.064C50.3085 52.6773 50.0312 53.128 49.8445 53.416C49.6632 53.6987 49.5245 53.8853 49.4285 53.976C49.3699 54.0293 49.2845 54.0747 49.1725 54.112C49.0659 54.1493 48.9485 54.168 48.8205 54.168ZM53.0593 54.168C52.5899 54.168 52.2246 54.008 51.9633 53.688C51.7019 53.368 51.5713 52.96 51.5713 52.464C51.5713 52.048 51.6699 51.656 51.8673 51.288C52.0699 50.92 52.3446 50.624 52.6913 50.4C53.0379 50.176 53.4193 50.064 53.8353 50.064C54.2459 50.064 54.5819 50.2 54.8433 50.472C55.1099 50.7387 55.2433 51.1333 55.2433 51.656C55.2433 52.024 55.1419 52.4053 54.9393 52.8C54.7366 53.1947 54.4646 53.5227 54.1233 53.784C53.7873 54.04 53.4326 54.168 53.0593 54.168ZM53.1793 53.528C53.3499 53.528 53.5206 53.4213 53.6913 53.208C53.8673 52.9947 54.0113 52.7253 54.1233 52.4C54.2353 52.0747 54.2913 51.7573 54.2913 51.448C54.2913 50.9733 54.0939 50.736 53.6993 50.736C53.4806 50.736 53.2806 50.84 53.0993 51.048C52.9179 51.256 52.7739 51.5147 52.6673 51.824C52.5606 52.128 52.5073 52.4133 52.5073 52.68C52.5073 52.8347 52.5419 52.9787 52.6113 53.112C52.6806 53.24 52.7659 53.3413 52.8673 53.416C52.9739 53.4907 53.0779 53.528 53.1793 53.528ZM32.0911 62.608C32.0111 62.848 31.8511 63.0907 31.6111 63.336C31.3764 63.576 31.0777 63.776 30.7151 63.936C30.3577 64.0907 29.9657 64.168 29.5391 64.168C28.8884 64.168 28.4111 64.0107 28.1071 63.696C27.8031 63.376 27.6511 62.968 27.6511 62.472C27.6511 61.768 27.8084 61.1307 28.1231 60.56C28.4377 59.984 28.8617 59.5333 29.3951 59.208C29.9284 58.8773 30.5044 58.712 31.1231 58.712C31.3684 58.712 31.5924 58.768 31.7951 58.88C31.9977 58.992 32.1577 59.1547 32.2751 59.368C32.3924 59.576 32.4511 59.8213 32.4511 60.104C32.4511 60.264 32.3897 60.4 32.2671 60.512C32.1497 60.624 31.9897 60.68 31.7871 60.68C31.6271 60.68 31.5177 60.6373 31.4591 60.552C31.4057 60.4667 31.3791 60.3573 31.3791 60.224L31.3871 59.968C31.3871 59.872 31.3337 59.7787 31.2271 59.688C31.1204 59.5973 31.0217 59.552 30.9311 59.552C30.6324 59.552 30.3044 59.688 29.9471 59.96C29.5897 60.2267 29.2884 60.5893 29.0431 61.048C28.7977 61.5013 28.6751 61.9947 28.6751 62.528C28.6751 62.7733 28.7711 62.9733 28.9631 63.128C29.1551 63.2827 29.3977 63.36 29.6911 63.36C29.7871 63.36 29.9124 63.328 30.0671 63.264C30.2217 63.2 30.3631 63.12 30.4911 63.024C30.6244 62.928 30.7124 62.8347 30.7551 62.744C30.8191 62.6107 30.9097 62.4613 31.0271 62.296C31.1444 62.1307 31.2617 62.048 31.3791 62.048C31.6511 62.048 31.8351 62.1067 31.9311 62.224C32.0324 62.3413 32.0857 62.4693 32.0911 62.608ZM35.8833 63.976C35.8619 64.0667 35.8139 64.128 35.7393 64.16C35.6646 64.1973 35.5659 64.216 35.4433 64.216C35.0753 64.216 34.8913 64.1333 34.8913 63.968L34.9393 63.664C34.7899 63.776 34.6139 63.888 34.4113 64C34.2086 64.112 34.0406 64.168 33.9073 64.168C33.1179 64.168 32.7233 63.9093 32.7233 63.392C32.7233 62.512 32.9873 61.5573 33.5153 60.528C33.5793 60.4053 33.6459 60.3173 33.7153 60.264C33.7899 60.2107 33.9153 60.184 34.0913 60.184C34.2779 60.184 34.4166 60.2107 34.5073 60.264C34.6033 60.312 34.6513 60.3707 34.6513 60.44C34.6513 60.456 34.6219 60.504 34.5633 60.584C34.5046 60.6533 34.4539 60.7227 34.4113 60.792C33.9099 61.6293 33.6593 62.4453 33.6593 63.24C33.6593 63.3093 33.6859 63.3707 33.7393 63.424C33.7926 63.4773 33.8406 63.504 33.8833 63.504C34.0006 63.504 34.1979 63.448 34.4753 63.336C34.7579 63.224 34.9739 63.1093 35.1233 62.992L35.2833 62.344C35.4753 61.5707 35.5953 61.096 35.6433 60.92C35.7019 60.7067 35.7766 60.5333 35.8673 60.4C35.9633 60.2613 36.1126 60.192 36.3153 60.192C36.5979 60.192 36.7393 60.2773 36.7393 60.448C36.7393 60.4747 36.7313 60.5093 36.7153 60.552C36.7046 60.5893 36.6966 60.6213 36.6913 60.648L36.3713 61.944C36.1153 62.9733 35.9526 63.6507 35.8833 63.976ZM38.9083 59.648C38.3056 62.1813 37.951 63.6293 37.8443 63.992C37.8336 64.024 37.7776 64.064 37.6763 64.112C37.5803 64.1653 37.5136 64.192 37.4763 64.192C37.327 64.192 37.183 64.1547 37.0443 64.08C36.9056 64.0053 36.831 63.8853 36.8203 63.72C36.8256 63.7093 36.8523 63.6533 36.9003 63.552C36.9483 63.4507 36.9963 63.3067 37.0443 63.12C37.167 62.6613 37.3056 62.1173 37.4603 61.488C37.6203 60.8587 37.727 60.4373 37.7803 60.224L38.1563 58.696C38.151 58.6533 38.1483 58.432 38.1483 58.032C38.1643 57.9627 38.223 57.9067 38.3243 57.864C38.431 57.8213 38.527 57.8 38.6123 57.8C38.7456 57.8 38.8816 57.8453 39.0203 57.936C39.1643 58.0267 39.239 58.136 39.2443 58.264L38.9083 59.648ZM40.4376 63.104C40.4376 63.2267 40.4589 63.312 40.5016 63.36C40.5442 63.408 40.6242 63.432 40.7416 63.432C40.8962 63.432 41.0242 63.4 41.1256 63.336C41.2322 63.2667 41.3602 63.16 41.5096 63.016C41.5522 62.9733 41.6002 62.952 41.6536 62.952C41.7176 62.952 41.7682 63 41.8056 63.096C41.8429 63.1867 41.8616 63.28 41.8616 63.376C41.8616 63.5093 41.8082 63.64 41.7016 63.768C41.5949 63.896 41.4402 64 41.2376 64.08C41.0349 64.16 40.7976 64.2 40.5256 64.2C40.1629 64.2 39.9042 64.1173 39.7496 63.952C39.6002 63.7867 39.5256 63.5333 39.5256 63.192C39.5256 63.144 39.5496 63.0187 39.5976 62.816C39.6456 62.6133 39.7069 62.3707 39.7816 62.088L40.0056 61.176L39.5176 61.216C39.4536 61.216 39.4056 61.192 39.3736 61.144C39.3416 61.096 39.3256 61.0373 39.3256 60.968C39.3256 60.8347 39.3736 60.7013 39.4696 60.568C39.4802 60.552 39.5336 60.536 39.6296 60.52C39.7256 60.504 39.8429 60.488 39.9816 60.472L40.1976 60.448L40.3816 59.624C40.4349 59.4853 40.5149 59.3787 40.6216 59.304C40.7336 59.224 40.8376 59.184 40.9336 59.184C41.0402 59.184 41.1309 59.216 41.2056 59.28C41.2802 59.344 41.3202 59.4187 41.3256 59.504L41.1256 60.36C41.3336 60.3333 41.5256 60.312 41.7016 60.296C41.8829 60.2747 42.0242 60.264 42.1256 60.264C42.3282 60.264 42.4296 60.3813 42.4296 60.616C42.4296 60.7067 42.3896 60.7893 42.3096 60.864C42.2349 60.9333 42.1522 60.976 42.0616 60.992L40.9416 61.104L40.4376 63.104ZM45.9458 63.976C45.9244 64.0667 45.8764 64.128 45.8018 64.16C45.7271 64.1973 45.6284 64.216 45.5058 64.216C45.1378 64.216 44.9538 64.1333 44.9538 63.968L45.0018 63.664C44.8204 63.8347 44.6418 63.96 44.4658 64.04C44.2951 64.1253 44.1004 64.168 43.8818 64.168C43.5724 64.168 43.3111 64.0853 43.0978 63.92C42.8898 63.7493 42.7858 63.448 42.7858 63.016C42.7858 62.9093 42.8018 62.792 42.8338 62.664L43.3698 60.528C43.4018 60.4107 43.4578 60.3253 43.5378 60.272C43.6231 60.2133 43.7591 60.184 43.9458 60.184C44.2231 60.184 44.3618 60.2613 44.3618 60.416C44.3618 60.48 44.3431 60.5813 44.3058 60.72L43.7697 62.864C43.7538 62.928 43.7458 62.992 43.7458 63.056C43.7458 63.168 43.7751 63.2587 43.8338 63.328C43.8924 63.3973 43.9858 63.432 44.1138 63.432C44.2844 63.432 44.4764 63.384 44.6898 63.288C44.9031 63.1867 45.0738 63.0693 45.2018 62.936L45.4098 62.128C45.6284 61.264 45.7564 60.7627 45.7938 60.624C45.8258 60.5067 45.8551 60.4213 45.8818 60.368C45.9138 60.3093 45.9671 60.2667 46.0418 60.24C46.1164 60.208 46.2284 60.192 46.3778 60.192C46.6604 60.192 46.8018 60.2773 46.8018 60.448C46.8018 60.4747 46.7938 60.5093 46.7778 60.552C46.7671 60.5893 46.7591 60.6213 46.7538 60.648L46.4338 61.944C46.1778 62.9733 46.0151 63.6507 45.9458 63.976ZM48.0588 63.696C48.0535 63.7333 48.0428 63.7973 48.0268 63.888C48.0161 63.9787 47.9761 64.0427 47.9068 64.08C47.8428 64.1173 47.7335 64.136 47.5788 64.136C47.4028 64.136 47.2721 64.1173 47.1868 64.08C47.1015 64.0427 47.0561 63.9627 47.0508 63.84C47.0935 63.6267 47.1628 63.248 47.2588 62.704C47.2908 62.5227 47.3415 62.2507 47.4108 61.888C47.4801 61.52 47.5335 61.2533 47.5708 61.088C47.6241 60.7093 47.6988 60.4613 47.7948 60.344C47.8908 60.2213 48.0081 60.16 48.1468 60.16C48.3335 60.16 48.4561 60.1867 48.5148 60.24C48.5788 60.2933 48.6135 60.3627 48.6188 60.448L48.5548 60.92C48.7148 60.712 48.9041 60.5413 49.1228 60.408C49.3415 60.2693 49.5388 60.2 49.7148 60.2C49.9495 60.2 50.1335 60.2427 50.2668 60.328C50.4001 60.408 50.4668 60.512 50.4668 60.64C50.4668 60.736 50.4081 60.8107 50.2908 60.864C50.1788 60.9173 50.0295 60.952 49.8428 60.968C49.5495 60.9947 49.2588 61.12 48.9708 61.344C48.6828 61.568 48.4748 61.832 48.3468 62.136L48.0588 63.696ZM53.5241 63.864C53.4921 63.96 53.4067 64.024 53.2681 64.056C53.1347 64.0933 53.0174 64.112 52.9161 64.112C52.8254 64.112 52.7641 64.088 52.7321 64.04C52.7001 63.9973 52.6734 63.9333 52.6521 63.848C52.6307 63.7573 52.6147 63.6933 52.6041 63.656C52.3801 63.8107 52.1481 63.928 51.9081 64.008C51.6734 64.0933 51.4761 64.136 51.3161 64.136C51.1561 64.136 50.9907 64.0987 50.8201 64.024C50.6547 63.9547 50.5107 63.832 50.3881 63.656C50.2654 63.4747 50.2041 63.2347 50.2041 62.936C50.2041 62.632 50.2974 62.2667 50.4841 61.84C50.6761 61.408 50.9481 61.0347 51.3001 60.72C51.6574 60.4 52.0734 60.24 52.5481 60.24C52.7881 60.24 53.0254 60.2987 53.2601 60.416C53.4947 60.528 53.6867 60.672 53.8361 60.848C53.9854 61.0187 54.0627 61.192 54.0681 61.368L53.9641 61.648C53.8147 62.064 53.6974 62.4187 53.6121 62.712C53.5267 63 53.4841 63.2587 53.4841 63.488C53.4841 63.6427 53.4974 63.768 53.5241 63.864ZM52.6121 62.984C52.6601 62.8507 52.7187 62.6773 52.7881 62.464C52.9054 62.0587 53.0174 61.7173 53.1241 61.44C53.1027 61.3653 53.0547 61.288 52.9801 61.208C52.9054 61.1227 52.8281 61.0533 52.7481 61C52.6681 60.9413 52.6121 60.912 52.5801 60.912C52.3827 60.912 52.1721 61.032 51.9481 61.272C51.7241 61.5067 51.5347 61.7867 51.3801 62.112C51.2307 62.4373 51.1561 62.72 51.1561 62.96C51.1561 63.0667 51.1881 63.168 51.2521 63.264C51.3161 63.3547 51.3854 63.4 51.4601 63.4C51.5827 63.4 51.7774 63.3547 52.0441 63.264C52.3161 63.168 52.5054 63.0747 52.6121 62.984ZM56.2677 59.648C55.665 62.1813 55.3104 63.6293 55.2037 63.992C55.193 64.024 55.137 64.064 55.0357 64.112C54.9397 64.1653 54.873 64.192 54.8357 64.192C54.6864 64.192 54.5424 64.1547 54.4037 64.08C54.265 64.0053 54.1904 63.8853 54.1797 63.72C54.185 63.7093 54.2117 63.6533 54.2597 63.552C54.3077 63.4507 54.3557 63.3067 54.4037 63.12C54.5264 62.6613 54.665 62.1173 54.8197 61.488C54.9797 60.8587 55.0864 60.4373 55.1397 60.224L55.5157 58.696C55.5104 58.6533 55.5077 58.432 55.5077 58.032C55.5237 57.9627 55.5824 57.9067 55.6837 57.864C55.7904 57.8213 55.8864 57.8 55.9717 57.8C56.105 57.8 56.241 57.8453 56.3797 57.936C56.5237 58.0267 56.5984 58.136 56.6037 58.264L56.2677 59.648Z" fill="#CB5300"/>
</g>
<defs>
<filter id="filter0_dd_240_566" x="0" y="0" width="84" height="84" filterUnits="userSpaceOnUse" color-interpolation-filters="sRGB">
<feFlood flood-opacity="0" result="BackgroundImageFix"/>
<feColorMatrix in="SourceAlpha" type="matrix" values="0 0 0 0 0 0 0 0 0 0 0 0 0 0 0 0 0 0 127 0" result="hardAlpha"/>
<feMorphology radius="2" operator="dilate" in="SourceAlpha" result="effect1_dropShadow_240_566"/>
<feOffset dy="2"/>
<feGaussianBlur stdDeviation="3"/>
<feColorMatrix type="matrix" values="0 0 0 0 0 0 0 0 0 0 0 0 0 0 0 0 0 0 0.15 0"/>
<feBlend mode="normal" in2="BackgroundImageFix" result="effect1_dropShadow_240_566"/>
<feColorMatrix in="SourceAlpha" type="matrix" values="0 0 0 0 0 0 0 0 0 0 0 0 0 0 0 0 0 0 127 0" result="hardAlpha"/>
<feOffset dy="1"/>
<feGaussianBlur stdDeviation="1"/>
<feColorMatrix type="matrix" values="0 0 0 0 0 0 0 0 0 0 0 0 0 0 0 0 0 0 0.3 0"/>
<feBlend mode="normal" in2="effect1_dropShadow_240_566" result="effect2_dropShadow_240_566"/>
<feBlend mode="normal" in="SourceGraphic" in2="effect2_dropShadow_240_566" result="shape"/>
</filter>
</defs>
</svg>
