<svg width="84" height="84" viewBox="0 0 84 84" fill="none" xmlns="http://www.w3.org/2000/svg">
<g filter="url(#filter0_dd_240_276)">
<rect x="8" y="6" width="68" height="68" rx="20" fill="#F9F8F6"/>
<path fill-rule="evenodd" clip-rule="evenodd" d="M30.8291 35.3742C30.312 33.8583 30.0398 32.2429 30.0398 30.5937C30.0398 27.8821 30.2444 25.58 30.4071 24.1819C30.5521 22.9261 31.3414 21.9123 32.5756 21.6392C33.9989 21.3243 36.7576 20.9525 41.8938 20.9525C47.0297 20.9525 49.7878 21.3243 51.212 21.6392C52.4459 21.9123 53.2352 22.9261 53.3804 24.1819C53.5429 25.58 53.7475 27.8821 53.7475 30.5937C53.7475 32.1755 53.4971 33.7263 53.0203 35.1882L52.9474 34.5333C52.9427 34.4929 52.9341 34.4532 52.9211 34.4147C52.4814 33.1006 51.3201 32.1913 49.9483 32.1187C49.8965 32.1162 49.8449 32.1134 49.7934 32.1107C50.5095 31.4306 50.9586 30.4717 50.9586 29.416C50.9586 27.3739 49.2786 25.6939 47.2368 25.6939C45.1947 25.6939 43.5147 27.3739 43.5147 29.416C43.5147 29.709 43.5494 29.9949 43.6148 30.2693C43.1224 30.0276 42.5708 29.8914 41.9897 29.8914C41.4086 29.8914 40.8569 30.0276 40.3649 30.2693C40.4303 29.9949 40.4649 29.709 40.4649 29.416C40.4649 27.3739 38.7847 25.6939 36.7429 25.6939C34.7011 25.6939 33.0208 27.3739 33.0208 29.416C33.0208 30.4717 33.4699 31.4306 34.186 32.1107C34.1347 32.1134 34.0829 32.1162 34.031 32.1187C32.5265 32.1983 31.2737 33.285 30.9516 34.8078L30.8291 35.3742ZM52.1093 37.3625C51.1219 39.2651 49.7124 40.9326 47.9473 42.2045C47.7355 41.0657 47.2664 39.1253 47.1686 38.5751C46.9393 37.2859 45.9069 36.3384 44.6042 36.2522C45.2868 35.576 45.7118 34.6404 45.7118 33.6135C45.7118 33.4555 45.7018 33.2997 45.6821 33.1467C47.2013 33.1594 48.468 33.1899 49.8879 33.265C50.7687 33.3116 51.5116 33.891 51.8135 34.7235L52.103 37.3198C52.1043 37.3342 52.1066 37.3486 52.1093 37.3625ZM46.9321 42.8685C46.707 43.0015 46.4772 43.1285 46.2424 43.2491C44.6278 44.0805 43.0426 44.6602 41.8938 44.6602C40.7447 44.6602 39.1595 44.08 37.5449 43.2491C37.3051 43.1257 37.0703 42.9957 36.8402 42.8596L36.9439 42.8726C37.0609 41.9445 37.8255 39.4284 37.9413 38.776C38.078 38.007 38.6932 37.4381 39.473 37.3963C40.1134 37.3619 40.9457 37.3356 41.9897 37.3356C43.0337 37.3356 43.8663 37.3619 44.5066 37.3963C45.2865 37.4381 45.9019 38.007 46.0386 38.776C46.1525 39.4167 46.7794 41.9661 46.8944 42.8732L46.9321 42.8685ZM35.8912 42.2411C34.0579 40.9331 32.6044 39.1999 31.6047 37.2194L32.0738 35.0479L32.0744 35.0454C32.2864 34.0432 33.1015 33.3171 34.0915 33.265C35.5114 33.1899 36.7784 33.1594 38.2973 33.1467C38.2779 33.2997 38.2676 33.4555 38.2676 33.6135C38.2676 34.6404 38.6929 35.576 39.3752 36.2522C38.0727 36.3384 37.0406 37.2859 36.8114 38.5751C36.7104 39.1425 36.1291 41.102 35.8912 42.2411ZM41.9897 36.1876C40.5775 36.1876 39.4154 35.0257 39.4154 33.6135C39.4154 32.2013 40.5775 31.0392 41.9897 31.0392C43.4019 31.0392 44.564 32.2013 44.564 33.6135C44.564 35.0257 43.4019 36.1876 41.9897 36.1876ZM44.6624 29.416C44.6624 28.0038 45.8246 26.8417 47.2368 26.8417C48.649 26.8417 49.8108 28.0038 49.8108 29.416C49.8108 30.8282 48.649 31.9901 47.2368 31.9901C45.8246 31.9901 44.6624 30.8282 44.6624 29.416ZM39.3172 29.416C39.3172 30.8282 38.1551 31.9901 36.7429 31.9901C35.3307 31.9901 34.1685 30.8282 34.1685 29.416C34.1685 28.0038 35.3307 26.8417 36.7429 26.8417C38.1551 26.8417 39.3172 28.0038 39.3172 29.416Z" fill="#CB5300"/>
<path d="M32.0872 57.608C32.0072 57.848 31.8472 58.0907 31.6072 58.336C31.3725 58.576 31.0738 58.776 30.7112 58.936C30.3538 59.0907 29.9618 59.168 29.5352 59.168C28.8845 59.168 28.4072 59.0107 28.1032 58.696C27.7992 58.376 27.6472 57.968 27.6472 57.472C27.6472 56.768 27.8045 56.1307 28.1192 55.56C28.4338 54.984 28.8578 54.5333 29.3912 54.208C29.9245 53.8773 30.5005 53.712 31.1192 53.712C31.3645 53.712 31.5885 53.768 31.7912 53.88C31.9938 53.992 32.1538 54.1547 32.2712 54.368C32.3885 54.576 32.4472 54.8213 32.4472 55.104C32.4472 55.264 32.3858 55.4 32.2632 55.512C32.1458 55.624 31.9858 55.68 31.7832 55.68C31.6232 55.68 31.5138 55.6373 31.4552 55.552C31.4018 55.4667 31.3752 55.3573 31.3752 55.224L31.3832 54.968C31.3832 54.872 31.3298 54.7787 31.2232 54.688C31.1165 54.5973 31.0178 54.552 30.9272 54.552C30.6285 54.552 30.3005 54.688 29.9432 54.96C29.5858 55.2267 29.2845 55.5893 29.0392 56.048C28.7938 56.5013 28.6712 56.9947 28.6712 57.528C28.6712 57.7733 28.7672 57.9733 28.9592 58.128C29.1512 58.2827 29.3938 58.36 29.6872 58.36C29.7832 58.36 29.9085 58.328 30.0632 58.264C30.2178 58.2 30.3592 58.12 30.4872 58.024C30.6205 57.928 30.7085 57.8347 30.7512 57.744C30.8152 57.6107 30.9058 57.4613 31.0232 57.296C31.1405 57.1307 31.2578 57.048 31.3752 57.048C31.6472 57.048 31.8312 57.1067 31.9272 57.224C32.0285 57.3413 32.0818 57.4693 32.0872 57.608ZM34.2233 59.168C33.754 59.168 33.3887 59.008 33.1273 58.688C32.866 58.368 32.7353 57.96 32.7353 57.464C32.7353 57.048 32.834 56.656 33.0313 56.288C33.234 55.92 33.5087 55.624 33.8553 55.4C34.202 55.176 34.5833 55.064 34.9993 55.064C35.41 55.064 35.746 55.2 36.0073 55.472C36.274 55.7387 36.4073 56.1333 36.4073 56.656C36.4073 57.024 36.306 57.4053 36.1033 57.8C35.9007 58.1947 35.6287 58.5227 35.2873 58.784C34.9513 59.04 34.5967 59.168 34.2233 59.168ZM34.3433 58.528C34.514 58.528 34.6847 58.4213 34.8553 58.208C35.0313 57.9947 35.1753 57.7253 35.2873 57.4C35.3993 57.0747 35.4553 56.7573 35.4553 56.448C35.4553 55.9733 35.258 55.736 34.8633 55.736C34.6447 55.736 34.4447 55.84 34.2633 56.048C34.082 56.256 33.938 56.5147 33.8313 56.824C33.7247 57.128 33.6713 57.4133 33.6713 57.68C33.6713 57.8347 33.706 57.9787 33.7753 58.112C33.8447 58.24 33.93 58.3413 34.0313 58.416C34.138 58.4907 34.242 58.528 34.3433 58.528ZM38.6778 54.648C38.0752 57.1813 37.7205 58.6293 37.6138 58.992C37.6032 59.024 37.5472 59.064 37.4458 59.112C37.3498 59.1653 37.2832 59.192 37.2458 59.192C37.0965 59.192 36.9525 59.1547 36.8138 59.08C36.6752 59.0053 36.6005 58.8853 36.5898 58.72C36.5952 58.7093 36.6218 58.6533 36.6698 58.552C36.7178 58.4507 36.7658 58.3067 36.8138 58.12C36.9365 57.6613 37.0752 57.1173 37.2298 56.488C37.3898 55.8587 37.4965 55.4373 37.5498 55.224L37.9258 53.696C37.9205 53.6533 37.9178 53.432 37.9178 53.032C37.9338 52.9627 37.9925 52.9067 38.0938 52.864C38.2005 52.8213 38.2965 52.8 38.3818 52.8C38.5152 52.8 38.6512 52.8453 38.7898 52.936C38.9338 53.0267 39.0085 53.136 39.0138 53.264L38.6778 54.648ZM40.4871 59.168C39.9644 59.168 39.5831 59.064 39.3431 58.856C39.1031 58.648 38.9831 58.3707 38.9831 58.024C38.9831 57.5173 39.1084 57.048 39.3591 56.616C39.6151 56.184 39.9538 55.8427 40.3751 55.592C40.8018 55.336 41.2604 55.208 41.7511 55.208C42.0498 55.208 42.3004 55.2933 42.5031 55.464C42.7058 55.6293 42.8071 55.8747 42.8071 56.2C42.8071 56.5627 42.6711 56.8507 42.3991 57.064C42.1324 57.272 41.7938 57.4267 41.3831 57.528C40.9778 57.624 40.4898 57.6987 39.9191 57.752C39.8978 57.832 39.8871 57.9147 39.8871 58C39.8871 58.1493 39.9484 58.264 40.0711 58.344C40.1991 58.424 40.3778 58.464 40.6071 58.464C40.7778 58.464 40.9724 58.4293 41.1911 58.36C41.4151 58.2907 41.5858 58.176 41.7031 58.016C41.7671 57.9253 41.8471 57.8533 41.9431 57.8C42.0444 57.7467 42.1404 57.72 42.2311 57.72C42.3164 57.72 42.3858 57.7493 42.4391 57.808C42.4924 57.8613 42.5191 57.944 42.5191 58.056C42.4551 58.2267 42.3298 58.4 42.1431 58.576C41.9564 58.7467 41.7191 58.888 41.4311 59C41.1431 59.112 40.8284 59.168 40.4871 59.168ZM40.1431 57.016C40.3298 57.0107 40.5644 56.9813 40.8471 56.928C41.1298 56.8747 41.3858 56.7813 41.6151 56.648C41.8444 56.5093 41.9591 56.328 41.9591 56.104C41.9591 56.04 41.9244 55.9893 41.8551 55.952C41.7858 55.9093 41.7111 55.888 41.6311 55.888C41.4711 55.888 41.2871 55.9493 41.0791 56.072C40.8764 56.1947 40.6871 56.344 40.5111 56.52C40.3351 56.696 40.2124 56.8613 40.1431 57.016ZM44.3165 58.104C44.3165 58.2267 44.3378 58.312 44.3805 58.36C44.4231 58.408 44.5031 58.432 44.6205 58.432C44.7751 58.432 44.9031 58.4 45.0045 58.336C45.1111 58.2667 45.2391 58.16 45.3885 58.016C45.4311 57.9733 45.4791 57.952 45.5325 57.952C45.5965 57.952 45.6471 58 45.6845 58.096C45.7218 58.1867 45.7405 58.28 45.7405 58.376C45.7405 58.5093 45.6871 58.64 45.5805 58.768C45.4738 58.896 45.3191 59 45.1165 59.08C44.9138 59.16 44.6765 59.2 44.4045 59.2C44.0418 59.2 43.7831 59.1173 43.6285 58.952C43.4791 58.7867 43.4045 58.5333 43.4045 58.192C43.4045 58.144 43.4285 58.0187 43.4765 57.816C43.5245 57.6133 43.5858 57.3707 43.6605 57.088L43.8845 56.176L43.3965 56.216C43.3325 56.216 43.2845 56.192 43.2525 56.144C43.2205 56.096 43.2045 56.0373 43.2045 55.968C43.2045 55.8347 43.2525 55.7013 43.3485 55.568C43.3591 55.552 43.4125 55.536 43.5085 55.52C43.6045 55.504 43.7218 55.488 43.8605 55.472L44.0765 55.448L44.2605 54.624C44.3138 54.4853 44.3938 54.3787 44.5005 54.304C44.6125 54.224 44.7165 54.184 44.8125 54.184C44.9191 54.184 45.0098 54.216 45.0845 54.28C45.1591 54.344 45.1991 54.4187 45.2045 54.504L45.0045 55.36C45.2125 55.3333 45.4045 55.312 45.5805 55.296C45.7618 55.2747 45.9031 55.264 46.0045 55.264C46.2071 55.264 46.3085 55.3813 46.3085 55.616C46.3085 55.7067 46.2685 55.7893 46.1885 55.864C46.1138 55.9333 46.0311 55.976 45.9405 55.992L44.8205 56.104L44.3165 58.104ZM47.5127 54.248C47.5127 54.0773 47.5767 53.9173 47.7047 53.768C47.8327 53.6187 47.99 53.544 48.1767 53.544C48.3687 53.544 48.518 53.6027 48.6247 53.72C48.7367 53.8373 48.7953 53.9787 48.8007 54.144C48.8007 54.304 48.7313 54.4507 48.5927 54.584C48.454 54.7173 48.2887 54.784 48.0967 54.784C47.9047 54.784 47.758 54.736 47.6567 54.64C47.5607 54.5387 47.5127 54.408 47.5127 54.248ZM46.8247 58.464C46.8247 58.3307 47.046 57.3707 47.4887 55.584C47.494 55.392 47.5287 55.264 47.5927 55.2C47.662 55.136 47.7767 55.104 47.9367 55.104C48.07 55.104 48.1767 55.1467 48.2567 55.232C48.342 55.312 48.3847 55.416 48.3847 55.544C48.3847 55.5707 48.3793 55.6107 48.3687 55.664L47.7127 58.544L47.6807 58.76C47.6753 58.8453 47.662 58.904 47.6407 58.936C47.6193 58.968 47.566 58.9893 47.4807 59C47.4007 59.016 47.2567 59.024 47.0487 59.024C46.9473 59.024 46.878 59.0053 46.8407 58.968C46.8033 58.9307 46.7847 58.8773 46.7847 58.808C46.7847 58.744 46.7927 58.6853 46.8087 58.632C46.8193 58.5467 46.8247 58.4907 46.8247 58.464ZM49.8596 59.168C49.6729 59.136 49.5503 59.096 49.4916 59.048C49.4383 59.0053 49.3956 58.9493 49.3636 58.88C49.3369 58.8053 49.3129 58.7467 49.2916 58.704C49.2009 58.5173 49.1156 58.1653 49.0356 57.648C48.9609 57.1307 48.9236 56.656 48.9236 56.224C48.9236 55.8933 48.9503 55.6507 49.0036 55.496C49.0729 55.2987 49.2303 55.2 49.4756 55.2C49.7583 55.2 49.8996 55.3307 49.8996 55.592C49.8996 55.6133 49.8889 55.7253 49.8676 55.928C49.8143 56.4347 49.7876 56.824 49.7876 57.096C49.7876 57.6613 49.8703 58.0773 50.0356 58.344C50.3289 57.6987 50.6783 57.0133 51.0836 56.288C51.4889 55.5573 51.7583 55.192 51.8916 55.192C52.0836 55.192 52.2436 55.2187 52.3716 55.272C52.4996 55.32 52.5636 55.4267 52.5636 55.592C52.5636 55.6613 52.5103 55.7787 52.4036 55.944L51.7156 57.064C51.3476 57.6773 51.0703 58.128 50.8836 58.416C50.7023 58.6987 50.5636 58.8853 50.4676 58.976C50.4089 59.0293 50.3236 59.0747 50.2116 59.112C50.1049 59.1493 49.9876 59.168 49.8596 59.168ZM54.0983 59.168C53.629 59.168 53.2637 59.008 53.0023 58.688C52.741 58.368 52.6103 57.96 52.6103 57.464C52.6103 57.048 52.709 56.656 52.9063 56.288C53.109 55.92 53.3837 55.624 53.7303 55.4C54.077 55.176 54.4583 55.064 54.8743 55.064C55.285 55.064 55.621 55.2 55.8823 55.472C56.149 55.7387 56.2823 56.1333 56.2823 56.656C56.2823 57.024 56.181 57.4053 55.9783 57.8C55.7757 58.1947 55.5037 58.5227 55.1623 58.784C54.8263 59.04 54.4717 59.168 54.0983 59.168ZM54.2183 58.528C54.389 58.528 54.5597 58.4213 54.7303 58.208C54.9063 57.9947 55.0503 57.7253 55.1623 57.4C55.2743 57.0747 55.3303 56.7573 55.3303 56.448C55.3303 55.9733 55.133 55.736 54.7383 55.736C54.5197 55.736 54.3197 55.84 54.1383 56.048C53.957 56.256 53.813 56.5147 53.7063 56.824C53.5997 57.128 53.5463 57.4133 53.5463 57.68C53.5463 57.8347 53.581 57.9787 53.6503 58.112C53.7197 58.24 53.805 58.3413 53.9063 58.416C54.013 58.4907 54.117 58.528 54.2183 58.528Z" fill="#CB5300"/>
</g>
<defs>
<filter id="filter0_dd_240_276" x="0" y="0" width="84" height="84" filterUnits="userSpaceOnUse" color-interpolation-filters="sRGB">
<feFlood flood-opacity="0" result="BackgroundImageFix"/>
<feColorMatrix in="SourceAlpha" type="matrix" values="0 0 0 0 0 0 0 0 0 0 0 0 0 0 0 0 0 0 127 0" result="hardAlpha"/>
<feMorphology radius="2" operator="dilate" in="SourceAlpha" result="effect1_dropShadow_240_276"/>
<feOffset dy="2"/>
<feGaussianBlur stdDeviation="3"/>
<feColorMatrix type="matrix" values="0 0 0 0 0 0 0 0 0 0 0 0 0 0 0 0 0 0 0.15 0"/>
<feBlend mode="normal" in2="BackgroundImageFix" result="effect1_dropShadow_240_276"/>
<feColorMatrix in="SourceAlpha" type="matrix" values="0 0 0 0 0 0 0 0 0 0 0 0 0 0 0 0 0 0 127 0" result="hardAlpha"/>
<feOffset dy="1"/>
<feGaussianBlur stdDeviation="1"/>
<feColorMatrix type="matrix" values="0 0 0 0 0 0 0 0 0 0 0 0 0 0 0 0 0 0 0.3 0"/>
<feBlend mode="normal" in2="effect1_dropShadow_240_276" result="effect2_dropShadow_240_276"/>
<feBlend mode="normal" in="SourceGraphic" in2="effect2_dropShadow_240_276" result="shape"/>
</filter>
</defs>
</svg>
