<svg width="84" height="84" viewBox="0 0 84 84" fill="none" xmlns="http://www.w3.org/2000/svg">
<g filter="url(#filter0_dd_240_529)">
<rect x="8" y="6" width="68" height="68" rx="20" fill="#F9F8F6"/>
<path fill-rule="evenodd" clip-rule="evenodd" d="M51.052 23.7871C51.0803 23.4503 51.2663 23.1334 51.5971 23.0553C51.7146 23.0273 51.8369 23.0076 51.953 23.0076C52.0908 23.0076 52.228 23.0356 52.3522 23.0724C52.6447 23.1592 52.8185 23.4353 52.8723 23.7353C52.9843 24.3618 53.1315 25.4386 53.1318 26.7684V26.7687C53.1337 27.8615 53.0262 29.1803 52.7506 30.3599C52.681 30.6574 52.5818 30.936 52.393 31.1583C52.1615 31.4303 51.7049 31.7846 51.3864 31.9509C51.1225 32.0884 50.8225 32.1281 50.515 32.1433C50.1923 32.1591 49.8256 32.1691 49.4131 32.1691C48.4128 32.1691 47.7081 32.1106 47.2535 32.0516C46.8559 31.9997 46.4537 31.8791 46.159 31.6069C44.752 30.3078 44.1175 29.2119 43.6284 28.5688C43.4834 28.378 43.392 28.1432 43.443 27.909C43.5015 27.6406 43.6079 27.4005 43.7241 27.1987C43.932 26.8372 44.4022 26.8092 44.7543 27.0329C45.4676 27.4862 45.6297 27.8283 45.6297 27.8283C45.6758 27.9364 45.7916 27.9974 45.907 27.9738C46.0223 27.9505 46.1049 27.8491 46.1049 27.7315C46.1049 27.3065 46.1676 24.7802 46.1712 24.6332C46.223 23.9834 46.223 23.4381 46.2707 23.027C46.3117 22.6749 46.5354 22.3572 46.887 22.3128C46.9746 22.3017 47.0658 22.2948 47.157 22.2948C47.2532 22.2948 47.3458 22.2995 47.4334 22.3073C47.832 22.3433 48.0644 22.7226 48.0663 23.1229L48.0716 24.1337V24.1342C48.0735 24.8398 48.076 25.4278 48.0763 25.4569V25.458C48.0768 25.5944 48.1877 25.7044 48.3241 25.7042C48.4608 25.7039 48.5711 25.5933 48.5711 25.4569V25.4558C48.5711 25.1924 48.5689 24.6756 48.5664 24.1323V24.1317C48.565 23.625 48.5642 23.0572 48.5647 22.5928C48.5656 22.1981 48.7973 21.8291 49.1904 21.7911C49.2855 21.7819 49.3862 21.7761 49.4901 21.7761C49.6274 21.7761 49.7646 21.7858 49.8946 21.8008C50.2974 21.8465 50.5561 22.2061 50.5583 22.6114C50.56 22.9588 50.5591 23.3646 50.5572 23.7669C50.5547 23.7996 50.5536 23.8323 50.5533 23.8653L50.5392 25.7466V25.748C50.5381 25.8844 50.6476 25.9958 50.784 25.9972C50.9204 25.9986 51.0321 25.8894 51.034 25.753V25.7516C51.0346 25.7103 51.0468 24.7621 51.052 23.7871Z" fill="#CB5300"/>
<path fill-rule="evenodd" clip-rule="evenodd" d="M33.0334 41.9603C33.0049 42.2968 32.8188 42.6137 32.4884 42.6921C32.3706 42.7199 32.2483 42.7395 32.1321 42.7395C31.9946 42.7395 31.8571 42.7118 31.7329 42.675C31.4407 42.5879 31.2666 42.3121 31.2129 42.0118C31.1009 41.3853 30.9536 40.3085 30.9536 38.979V38.9784C30.9514 37.8856 31.0593 36.5668 31.3348 35.3872C31.4041 35.0897 31.5034 34.8111 31.6922 34.5891C31.9237 34.3168 32.3803 33.9628 32.6991 33.7965C32.9627 33.6587 33.2627 33.619 33.5701 33.6038C33.8928 33.588 34.2596 33.578 34.6724 33.578C35.6726 33.578 36.3771 33.6368 36.8317 33.6958C37.2295 33.7474 37.6315 33.8683 37.9262 34.1402C39.3331 35.4393 39.968 36.5355 40.4567 37.1784C40.602 37.3694 40.6932 37.6039 40.6422 37.8384C40.5837 38.1065 40.4773 38.3466 40.3611 38.5487C40.1532 38.9102 39.683 38.9379 39.3309 38.7142C38.6176 38.2609 38.4554 37.9188 38.4554 37.9188C38.4094 37.8107 38.2935 37.7497 38.1782 37.7733C38.0632 37.7969 37.9803 37.898 37.9803 38.0159C37.9803 38.4409 37.9179 40.967 37.9143 41.1139C37.8624 41.7637 37.8622 42.309 37.8145 42.7204C37.7737 43.0722 37.5497 43.3902 37.1982 43.4346C37.1106 43.4456 37.0194 43.4526 36.9282 43.4526C36.8323 43.4526 36.7397 43.4479 36.6518 43.4398C36.2531 43.4038 36.0211 43.0245 36.0189 42.6242L36.0136 41.6134V41.6129C36.0119 40.9073 36.0092 40.3196 36.0092 40.2905V40.2894C36.0083 40.1527 35.8974 40.0427 35.7611 40.043C35.6247 40.0432 35.514 40.1541 35.514 40.2905L35.5143 40.2916C35.5143 40.555 35.5163 41.0715 35.5188 41.6148V41.6154C35.5201 42.1224 35.521 42.6899 35.5204 43.1543C35.5199 43.5493 35.2878 43.9183 34.8947 43.9563C34.7999 43.9654 34.6993 43.971 34.595 43.971C34.4578 43.971 34.3209 43.9613 34.1906 43.9466C33.788 43.9009 33.5291 43.5413 33.5272 43.136C33.5252 42.7883 33.526 42.3825 33.5283 41.9805C33.5305 41.9478 33.5319 41.9148 33.5319 41.8821L33.5463 40.0008V39.9994C33.5474 39.863 33.4376 39.7516 33.3015 39.7502C33.1651 39.7485 33.0531 39.8578 33.0514 39.9942V39.9955C33.0509 40.0369 33.0384 40.985 33.0334 41.9603Z" fill="#CB5300"/>
<path fill-rule="evenodd" clip-rule="evenodd" d="M32.9643 23.8559C32.6278 23.8276 32.3109 23.6416 32.2325 23.3111C32.2045 23.1933 32.1851 23.0711 32.1851 22.9549C32.1851 22.8171 32.2128 22.6799 32.2497 22.5557C32.3364 22.2635 32.6125 22.0894 32.9128 22.0356C33.5393 21.9236 34.6161 21.7764 35.9457 21.7764H35.9462C37.039 21.7742 38.3575 21.8817 39.5374 22.1573C39.8349 22.2269 40.1135 22.3261 40.3356 22.5149C40.6078 22.7464 40.9618 23.203 41.1281 23.5218C41.2657 23.7855 41.3056 24.0854 41.3205 24.3929C41.3366 24.7156 41.3466 25.0823 41.3466 25.4949C41.3466 26.4951 41.2878 27.1998 41.2288 27.6545C41.1772 28.052 41.0563 28.4543 40.7844 28.749C39.4853 30.1559 38.3891 30.7905 37.7462 31.2795C37.5552 31.4245 37.3204 31.516 37.0862 31.465C36.8181 31.4065 36.578 31.3 36.3759 31.1838C36.0144 30.9759 35.9867 30.5057 36.2104 30.1537C36.6637 29.4404 37.0055 29.2782 37.0055 29.2782C37.1139 29.2322 37.1746 29.1163 37.1513 29.001C37.1278 28.8856 37.0263 28.803 36.9087 28.803C36.4838 28.803 33.9577 28.7404 33.8107 28.7368C33.1606 28.6849 32.6156 28.6849 32.2042 28.6372C31.8524 28.5965 31.5344 28.3725 31.49 28.021C31.479 27.9334 31.472 27.8421 31.472 27.7509C31.472 27.655 31.4767 27.5624 31.4848 27.4745C31.5208 27.0759 31.9001 26.8438 32.3001 26.8416L33.3109 26.8364H33.3114C34.017 26.8344 34.605 26.8319 34.6341 26.8316H34.6352C34.7716 26.8311 34.8819 26.7202 34.8817 26.5838C34.8811 26.4474 34.7705 26.3368 34.6341 26.3368H34.633C34.3696 26.3368 33.8531 26.339 33.3098 26.3415H33.3092C32.8022 26.3429 32.2347 26.3437 31.77 26.3432C31.3753 26.3423 31.0063 26.1106 30.9683 25.7175C30.9592 25.6224 30.9536 25.5217 30.9536 25.4178C30.9536 25.2806 30.9633 25.1433 30.978 25.0133C31.0238 24.6105 31.3833 24.3518 31.7886 24.3496C32.136 24.348 32.5419 24.3488 32.9441 24.3507C32.9768 24.3532 33.0095 24.3543 33.0425 24.3546L34.9238 24.3688H34.9252C35.0616 24.3699 35.173 24.2604 35.1744 24.124C35.1758 23.9876 35.0666 23.8758 34.9302 23.8739H34.9288C34.8878 23.8734 33.9394 23.8612 32.9643 23.8559Z" fill="#CB5300"/>
<path fill-rule="evenodd" clip-rule="evenodd" d="M51.1207 41.8483C51.4576 41.8768 51.7745 42.0628 51.8526 42.3933C51.8806 42.5111 51.9003 42.6334 51.9003 42.7495C51.9003 42.887 51.8726 43.0245 51.8354 43.1487C51.7487 43.4409 51.4726 43.615 51.1726 43.6688C50.5461 43.7808 49.4693 43.928 48.1394 43.928H48.1392C47.0463 43.9302 45.7276 43.8224 44.548 43.5471C44.2505 43.4775 43.9719 43.3783 43.7498 43.1895C43.4776 42.958 43.1233 42.5014 42.9569 42.1826C42.8194 41.919 42.7798 41.619 42.7646 41.3116C42.7487 40.9889 42.7388 40.6221 42.7388 40.2093C42.7388 39.2093 42.7973 38.5046 42.8563 38.05C42.9082 37.6524 43.029 37.2502 43.301 36.9555C44.6001 35.5485 45.6962 34.914 46.3391 34.4249C46.5299 34.2799 46.7647 34.1885 46.9989 34.2395C47.2673 34.298 47.5074 34.4044 47.7092 34.5206C48.071 34.7285 48.0987 35.1987 47.875 35.5508C47.4217 36.2641 47.0796 36.4262 47.0796 36.4262C46.9715 36.4723 46.9105 36.5881 46.9341 36.7035C46.9573 36.8188 47.0588 36.9014 47.1764 36.9014C47.6013 36.9014 50.1277 36.9641 50.2746 36.9677C50.9245 37.0192 51.4698 37.0195 51.8812 37.0672C52.233 37.1079 52.5507 37.3319 52.595 37.6835C52.6061 37.7711 52.6131 37.8623 52.6131 37.9535C52.6131 38.0494 52.6084 38.142 52.6006 38.2299C52.5646 38.6285 52.1853 38.8606 51.785 38.8628L50.7742 38.8681H50.7737C50.0681 38.87 49.4804 38.8725 49.451 38.8728H49.4499C49.3135 38.8733 49.2034 38.9842 49.2037 39.1206C49.204 39.257 49.3146 39.3676 49.451 39.3676H49.4521C49.7155 39.3676 50.2322 39.3654 50.7756 39.3629H50.7762C51.2829 39.3615 51.8507 39.3607 52.315 39.3613C52.7098 39.3618 53.0788 39.5939 53.1168 39.987C53.1262 40.082 53.1318 40.1824 53.1318 40.2866C53.1318 40.4239 53.1221 40.5611 53.1074 40.6911C53.0616 41.0939 52.7018 41.3526 52.2965 41.3545C51.9491 41.3565 51.5432 41.3556 51.141 41.3537C51.1083 41.3512 51.0756 41.3501 51.0426 41.3498L49.1616 41.3354H49.1602C49.0238 41.3346 48.9121 41.4441 48.9107 41.5805C48.9093 41.7169 49.0185 41.8286 49.1549 41.8302L49.1563 41.8305C49.1976 41.8308 50.1457 41.8433 51.1207 41.8483Z" fill="#CB5300"/>
<path d="M26.2668 57.608C26.1868 57.848 26.0268 58.0907 25.7868 58.336C25.5522 58.576 25.2535 58.776 24.8908 58.936C24.5335 59.0907 24.1415 59.168 23.7148 59.168C23.0642 59.168 22.5868 59.0107 22.2828 58.696C21.9788 58.376 21.8268 57.968 21.8268 57.472C21.8268 56.768 21.9842 56.1307 22.2988 55.56C22.6135 54.984 23.0375 54.5333 23.5708 54.208C24.1042 53.8773 24.6802 53.712 25.2988 53.712C25.5442 53.712 25.7682 53.768 25.9708 53.88C26.1735 53.992 26.3335 54.1547 26.4508 54.368C26.5682 54.576 26.6268 54.8213 26.6268 55.104C26.6268 55.264 26.5655 55.4 26.4428 55.512C26.3255 55.624 26.1655 55.68 25.9628 55.68C25.8028 55.68 25.6935 55.6373 25.6348 55.552C25.5815 55.4667 25.5548 55.3573 25.5548 55.224L25.5628 54.968C25.5628 54.872 25.5095 54.7787 25.4028 54.688C25.2962 54.5973 25.1975 54.552 25.1068 54.552C24.8082 54.552 24.4802 54.688 24.1228 54.96C23.7655 55.2267 23.4642 55.5893 23.2188 56.048C22.9735 56.5013 22.8508 56.9947 22.8508 57.528C22.8508 57.7733 22.9468 57.9733 23.1388 58.128C23.3308 58.2827 23.5735 58.36 23.8668 58.36C23.9628 58.36 24.0882 58.328 24.2428 58.264C24.3975 58.2 24.5388 58.12 24.6668 58.024C24.8002 57.928 24.8882 57.8347 24.9308 57.744C24.9948 57.6107 25.0855 57.4613 25.2028 57.296C25.3202 57.1307 25.4375 57.048 25.5548 57.048C25.8268 57.048 26.0108 57.1067 26.1068 57.224C26.2082 57.3413 26.2615 57.4693 26.2668 57.608ZM28.403 59.168C27.9337 59.168 27.5684 59.008 27.307 58.688C27.0457 58.368 26.915 57.96 26.915 57.464C26.915 57.048 27.0137 56.656 27.211 56.288C27.4137 55.92 27.6884 55.624 28.035 55.4C28.3817 55.176 28.763 55.064 29.179 55.064C29.5897 55.064 29.9257 55.2 30.187 55.472C30.4537 55.7387 30.587 56.1333 30.587 56.656C30.587 57.024 30.4857 57.4053 30.283 57.8C30.0804 58.1947 29.8084 58.5227 29.467 58.784C29.131 59.04 28.7764 59.168 28.403 59.168ZM28.523 58.528C28.6937 58.528 28.8644 58.4213 29.035 58.208C29.211 57.9947 29.355 57.7253 29.467 57.4C29.579 57.0747 29.635 56.7573 29.635 56.448C29.635 55.9733 29.4377 55.736 29.043 55.736C28.8244 55.736 28.6244 55.84 28.443 56.048C28.2617 56.256 28.1177 56.5147 28.011 56.824C27.9044 57.128 27.851 57.4133 27.851 57.68C27.851 57.8347 27.8857 57.9787 27.955 58.112C28.0244 58.24 28.1097 58.3413 28.211 58.416C28.3177 58.4907 28.4217 58.528 28.523 58.528ZM32.4655 59.08C31.9962 59.08 31.6309 58.92 31.3695 58.6C31.1082 58.28 30.9775 57.872 30.9775 57.376C30.9775 56.96 31.0655 56.5787 31.2415 56.232C31.4229 55.8853 31.6735 55.6133 31.9935 55.416C32.3189 55.2133 32.6895 55.112 33.1055 55.112C33.5695 55.112 33.8815 55.152 34.0415 55.232C34.0895 55.2533 34.1322 55.288 34.1695 55.336C34.2069 55.3787 34.2255 55.4213 34.2255 55.464C34.2255 55.5173 34.2122 55.5733 34.1855 55.632C34.1642 55.6907 34.1295 55.736 34.0815 55.768C34.2042 55.7787 34.3082 55.84 34.3935 55.952C34.4789 56.0587 34.5429 56.184 34.5855 56.328C34.6282 56.472 34.6495 56.5973 34.6495 56.704C34.6495 57.0827 34.5562 57.456 34.3695 57.824C34.1882 58.192 33.9322 58.4933 33.6015 58.728C33.2709 58.9627 32.8922 59.08 32.4655 59.08ZM32.5855 58.416C32.7562 58.416 32.9295 58.3333 33.1055 58.168C33.2869 57.9973 33.4362 57.7733 33.5535 57.496C33.6709 57.2187 33.7295 56.928 33.7295 56.624C33.7295 56.5653 33.7082 56.512 33.6655 56.464C33.6282 56.416 33.5749 56.3653 33.5055 56.312C33.4682 56.2853 33.4335 56.2587 33.4015 56.232C33.3749 56.2 33.3615 56.1707 33.3615 56.144C33.3615 56.1227 33.3669 56.0933 33.3775 56.056C33.3935 56.0187 33.4015 55.992 33.4015 55.976C33.4015 55.896 33.3029 55.856 33.1055 55.856C32.8869 55.856 32.6842 55.944 32.4975 56.12C32.3162 56.296 32.1722 56.52 32.0655 56.792C31.9642 57.064 31.9135 57.3307 31.9135 57.592C31.9135 57.7467 31.9482 57.888 32.0175 58.016C32.0869 58.1387 32.1722 58.2373 32.2735 58.312C32.3802 58.3813 32.4842 58.416 32.5855 58.416ZM35.88 58.648C35.8747 58.68 35.8027 58.9707 35.664 59.52C35.5307 60.0747 35.4374 60.424 35.384 60.568C35.3627 60.6267 35.2987 60.6693 35.192 60.696C35.0854 60.728 35.008 60.744 34.96 60.744C34.8427 60.744 34.7467 60.7067 34.672 60.632C34.592 60.5573 34.5494 60.4453 34.544 60.296L35.104 58C35.3174 57.1627 35.4934 56.448 35.632 55.856C35.632 55.824 35.6134 55.7387 35.576 55.6C35.56 55.5147 35.544 55.4347 35.528 55.36C35.512 55.2853 35.5014 55.2293 35.496 55.192C35.5067 55.1227 35.56 55.0667 35.656 55.024C35.7574 54.9813 35.8507 54.96 35.936 54.96C36.064 54.96 36.1894 55.0053 36.312 55.096C36.44 55.1867 36.512 55.296 36.528 55.424L36.504 55.632C36.744 55.3333 37.0507 55.184 37.424 55.184C37.728 55.184 37.9894 55.2587 38.208 55.408C38.432 55.552 38.6027 55.7493 38.72 56C38.8374 56.2453 38.896 56.5173 38.896 56.816C38.896 57.216 38.8187 57.592 38.664 57.944C38.5094 58.296 38.2774 58.5813 37.968 58.8C37.6587 59.0133 37.2854 59.12 36.848 59.12C36.7094 59.12 36.5307 59.0747 36.312 58.984C36.0934 58.888 35.9494 58.776 35.88 58.648ZM36.128 57.632C36.1174 57.696 36.112 57.7413 36.112 57.768C36.1174 57.9013 36.16 58.0187 36.24 58.12C36.3254 58.2213 36.424 58.3013 36.536 58.36C36.648 58.4133 36.7414 58.44 36.816 58.44C37.0507 58.44 37.256 58.352 37.432 58.176C37.6134 57.9947 37.752 57.7733 37.848 57.512C37.944 57.2453 37.992 56.992 37.992 56.752C37.992 56.528 37.9307 56.3307 37.808 56.16C37.6907 55.984 37.5414 55.896 37.36 55.896C37.1574 55.896 36.9894 55.9413 36.856 56.032C36.728 56.1173 36.5814 56.2507 36.416 56.432L36.128 57.632ZM40.6986 59.168C40.1706 59.168 39.7839 59.064 39.5386 58.856C39.2986 58.648 39.1786 58.3707 39.1786 58.024C39.1786 57.5067 39.2853 57.0373 39.4986 56.616C39.7119 56.1893 40.0079 55.856 40.3866 55.616C40.7653 55.3707 41.1973 55.248 41.6826 55.248C41.9866 55.248 42.2399 55.3333 42.4426 55.504C42.6506 55.6747 42.7546 55.928 42.7546 56.264C42.7546 56.6213 42.6373 56.9013 42.4026 57.104C42.1733 57.3067 41.8719 57.4533 41.4986 57.544C41.1306 57.6293 40.6666 57.6987 40.1066 57.752C40.0906 57.8213 40.0826 57.904 40.0826 58C40.0826 58.1493 40.1466 58.264 40.2746 58.344C40.4026 58.424 40.5813 58.464 40.8106 58.464C40.9759 58.464 41.1679 58.4293 41.3866 58.36C41.6106 58.2907 41.7813 58.176 41.8986 58.016C41.9679 57.9253 42.0479 57.8533 42.1386 57.8C42.2346 57.7467 42.3279 57.72 42.4186 57.72C42.5039 57.72 42.5733 57.7493 42.6266 57.808C42.6853 57.8613 42.7146 57.944 42.7146 58.056C42.6559 58.2267 42.5333 58.4 42.3466 58.576C42.1599 58.7467 41.9226 58.888 41.6346 59C41.3519 59.112 41.0399 59.168 40.6986 59.168ZM40.3146 57.016C40.6559 57.0107 41.0053 56.9467 41.3626 56.824C41.7199 56.696 41.8986 56.4747 41.8986 56.16C41.8986 56.0853 41.8639 56.0293 41.7946 55.992C41.7253 55.9493 41.6506 55.928 41.5706 55.928C41.4159 55.928 41.2533 55.9867 41.0826 56.104C40.9173 56.216 40.7653 56.3573 40.6266 56.528C40.4879 56.6933 40.3839 56.856 40.3146 57.016ZM44.006 58.696C44.0006 58.728 43.9873 58.792 43.966 58.888C43.95 58.9787 43.9046 59.0427 43.83 59.08C43.7606 59.1173 43.6486 59.136 43.494 59.136C43.318 59.136 43.19 59.1173 43.11 59.08C43.03 59.0427 42.99 58.9627 42.99 58.84C43.006 58.776 43.1206 58.32 43.334 57.472C43.4886 56.816 43.6033 56.3547 43.678 56.088C43.758 55.7093 43.8513 55.4613 43.958 55.344C44.0646 55.2213 44.1873 55.16 44.326 55.16C44.5126 55.16 44.6326 55.1867 44.686 55.24C44.7446 55.2933 44.774 55.3627 44.774 55.448L44.678 55.92C44.8486 55.712 45.046 55.5413 45.27 55.408C45.4993 55.2693 45.702 55.2 45.878 55.2C46.1073 55.2 46.286 55.24 46.414 55.32C46.542 55.4 46.606 55.504 46.606 55.632C46.606 55.728 46.5446 55.8053 46.422 55.864C46.3046 55.9173 46.15 55.952 45.958 55.968C45.67 55.9947 45.374 56.12 45.07 56.344C44.7713 56.568 44.5473 56.832 44.398 57.136L44.006 58.696ZM49.4152 58.584C49.4259 58.7227 49.4446 58.848 49.4712 58.96C49.4606 58.992 49.4126 59.024 49.3272 59.056C49.2472 59.088 49.1779 59.104 49.1192 59.104C48.9272 59.104 48.7886 59.0747 48.7032 59.016C48.6232 58.9627 48.5832 58.88 48.5832 58.768C48.5832 58.6613 48.5939 58.5547 48.6152 58.448C48.4979 58.608 48.3246 58.7413 48.0952 58.848C47.8712 58.9493 47.6899 59 47.5512 59C47.1939 59 46.8952 58.896 46.6552 58.688C46.4206 58.48 46.3032 58.1467 46.3032 57.688C46.3032 57.256 46.4046 56.8507 46.6072 56.472C46.8152 56.088 47.1006 55.7813 47.4632 55.552C47.8259 55.3173 48.2286 55.2 48.6712 55.2C48.7566 55.2 48.8686 55.224 49.0072 55.272C49.1459 55.3147 49.2846 55.392 49.4232 55.504C49.5672 55.6107 49.6872 55.7493 49.7832 55.92C49.8259 55.92 49.8766 55.9413 49.9352 55.984C49.9939 56.0267 50.0232 56.0693 50.0232 56.112C50.0232 56.16 50.0152 56.208 49.9992 56.256L49.4152 58.584ZM49.0552 56.344C49.0232 56.2267 48.9592 56.128 48.8632 56.048C48.7726 55.968 48.6899 55.928 48.6152 55.928C48.3699 55.928 48.1379 56.016 47.9192 56.192C47.7059 56.3627 47.5326 56.576 47.3992 56.832C47.2659 57.088 47.1992 57.3307 47.1992 57.56C47.1992 57.784 47.2259 57.968 47.2792 58.112C47.3326 58.256 47.4366 58.328 47.5912 58.328C47.7246 58.328 47.8766 58.288 48.0472 58.208C48.2232 58.128 48.3779 58.0213 48.5112 57.888C48.6499 57.7493 48.7406 57.6053 48.7832 57.456L49.0552 56.344ZM53.6228 56.608C53.4948 56.608 53.4068 56.5787 53.3588 56.52C53.3162 56.4613 53.2948 56.384 53.2948 56.288L53.3028 56.104C53.3028 56.04 53.2682 55.9893 53.1988 55.952C53.1295 55.9093 53.0548 55.888 52.9748 55.888C52.8095 55.888 52.5855 55.9867 52.3028 56.184C52.0255 56.3813 51.7802 56.6427 51.5668 56.968C51.3588 57.288 51.2548 57.632 51.2548 58C51.2548 58.1493 51.3135 58.264 51.4308 58.344C51.5482 58.424 51.7215 58.464 51.9508 58.464C52.0948 58.464 52.2602 58.4347 52.4468 58.376C52.6335 58.3173 52.7508 58.2427 52.7988 58.152C52.9802 57.8213 53.1455 57.656 53.2948 57.656C53.5135 57.656 53.6602 57.6987 53.7348 57.784C53.8148 57.864 53.8575 57.9547 53.8628 58.056C53.8095 58.2053 53.7028 58.3573 53.5428 58.512C53.3882 58.6667 53.1935 58.8027 52.9588 58.92C52.7242 59.032 52.4655 59.1067 52.1828 59.144C52.0815 59.2987 52.0015 59.432 51.9428 59.544C52.0388 59.528 52.1295 59.52 52.2148 59.52C52.4175 59.52 52.6042 59.5787 52.7748 59.696C52.9455 59.8187 53.0308 59.96 53.0308 60.12C53.0308 60.3973 52.9055 60.6133 52.6548 60.768C52.4042 60.9227 52.0655 61 51.6388 61C51.4148 61 51.2015 60.9413 50.9988 60.824C50.7962 60.7067 50.6948 60.568 50.6948 60.408C50.6948 60.3867 50.7268 60.3627 50.7908 60.336C50.8602 60.3147 50.9348 60.304 51.0148 60.304C51.0948 60.304 51.1615 60.312 51.2148 60.328C51.2682 60.3493 51.3295 60.376 51.3988 60.408C51.4628 60.44 51.5135 60.464 51.5508 60.48C51.5935 60.496 51.6442 60.504 51.7028 60.504C51.8788 60.504 52.0148 60.4747 52.1108 60.416C52.2068 60.3573 52.2548 60.2747 52.2548 60.168C52.2548 60.0933 52.2255 60.0373 52.1668 60C52.1082 59.9627 52.0335 59.944 51.9428 59.944C51.9108 59.944 51.8735 59.9493 51.8308 59.96C51.7935 59.9707 51.7668 59.9787 51.7508 59.984C51.6815 60.0107 51.6148 60.024 51.5508 60.024C51.4015 60.024 51.2868 60.0133 51.2068 59.992C51.1268 59.976 51.0868 59.952 51.0868 59.92C51.0868 59.776 51.2175 59.52 51.4788 59.152C51.0735 59.104 50.7748 58.976 50.5828 58.768C50.3908 58.56 50.2948 58.304 50.2948 58C50.2948 57.4987 50.4228 57.0347 50.6788 56.608C50.9348 56.176 51.2788 55.8347 51.7108 55.584C52.1428 55.3333 52.6042 55.208 53.0948 55.208C53.3988 55.208 53.6495 55.2987 53.8468 55.48C54.0495 55.656 54.1508 55.896 54.1508 56.2C54.1508 56.3173 54.1028 56.416 54.0068 56.496C53.9108 56.5707 53.7828 56.608 53.6228 56.608ZM56.231 54.192C56.055 54.192 55.823 54.3493 55.535 54.664C55.471 54.6267 55.4257 54.5813 55.399 54.528C55.3724 54.4693 55.359 54.3707 55.359 54.232C55.359 54.1253 55.415 54.0133 55.527 53.896C55.639 53.7787 55.7724 53.6827 55.927 53.608C56.087 53.528 56.231 53.488 56.359 53.488C56.5937 53.488 56.8337 53.5813 57.079 53.768C57.1804 53.848 57.271 53.904 57.351 53.936C57.431 53.968 57.5164 53.984 57.607 53.984C57.671 53.984 57.7297 53.968 57.783 53.936C57.8364 53.8987 57.8897 53.856 57.943 53.808C57.9964 53.7547 58.0364 53.7147 58.063 53.688C58.0844 53.6667 58.1084 53.656 58.135 53.656C58.1564 53.656 58.1777 53.6693 58.199 53.696C58.2204 53.7227 58.2337 53.736 58.239 53.736C58.2497 53.736 58.255 53.76 58.255 53.808C58.255 53.9573 58.2044 54.0987 58.103 54.232C58.0017 54.36 57.8844 54.464 57.751 54.544C57.6177 54.624 57.511 54.664 57.431 54.664C57.3084 54.664 57.1964 54.6453 57.095 54.608C56.999 54.5653 56.8817 54.4987 56.743 54.408C56.6417 54.328 56.551 54.272 56.471 54.24C56.3964 54.208 56.3164 54.192 56.231 54.192ZM57.423 58.584C57.4337 58.7227 57.4524 58.848 57.479 58.96C57.4684 58.992 57.4204 59.024 57.335 59.056C57.255 59.088 57.1857 59.104 57.127 59.104C56.935 59.104 56.7964 59.0747 56.711 59.016C56.631 58.9627 56.591 58.88 56.591 58.768C56.591 58.6613 56.6017 58.5547 56.623 58.448C56.5057 58.608 56.3324 58.7413 56.103 58.848C55.879 58.9493 55.6977 59 55.559 59C55.2017 59 54.903 58.896 54.663 58.688C54.4284 58.48 54.311 58.1467 54.311 57.688C54.311 57.256 54.4124 56.8507 54.615 56.472C54.823 56.088 55.1084 55.7813 55.471 55.552C55.8337 55.3173 56.2364 55.2 56.679 55.2C56.7644 55.2 56.8764 55.224 57.015 55.272C57.1537 55.3147 57.2924 55.392 57.431 55.504C57.575 55.6107 57.695 55.7493 57.791 55.92C57.8337 55.92 57.8844 55.9413 57.943 55.984C58.0017 56.0267 58.031 56.0693 58.031 56.112C58.031 56.16 58.023 56.208 58.007 56.256L57.423 58.584ZM57.063 56.344C57.031 56.2267 56.967 56.128 56.871 56.048C56.7804 55.968 56.6977 55.928 56.623 55.928C56.3777 55.928 56.1457 56.016 55.927 56.192C55.7137 56.3627 55.5404 56.576 55.407 56.832C55.2737 57.088 55.207 57.3307 55.207 57.56C55.207 57.784 55.2337 57.968 55.287 58.112C55.3404 58.256 55.4444 58.328 55.599 58.328C55.7324 58.328 55.8844 58.288 56.055 58.208C56.231 58.128 56.3857 58.0213 56.519 57.888C56.6577 57.7493 56.7484 57.6053 56.791 57.456L57.063 56.344ZM59.9187 59.08C59.4493 59.08 59.084 58.92 58.8227 58.6C58.5613 58.28 58.4307 57.872 58.4307 57.376C58.4307 56.96 58.5187 56.5787 58.6947 56.232C58.876 55.8853 59.1267 55.6133 59.4467 55.416C59.772 55.2133 60.1427 55.112 60.5587 55.112C61.0227 55.112 61.3347 55.152 61.4947 55.232C61.5427 55.2533 61.5853 55.288 61.6227 55.336C61.66 55.3787 61.6787 55.4213 61.6787 55.464C61.6787 55.5173 61.6653 55.5733 61.6387 55.632C61.6173 55.6907 61.5827 55.736 61.5347 55.768C61.6573 55.7787 61.7613 55.84 61.8467 55.952C61.932 56.0587 61.996 56.184 62.0387 56.328C62.0813 56.472 62.1027 56.5973 62.1027 56.704C62.1027 57.0827 62.0093 57.456 61.8227 57.824C61.6413 58.192 61.3853 58.4933 61.0547 58.728C60.724 58.9627 60.3453 59.08 59.9187 59.08ZM60.0387 58.416C60.2093 58.416 60.3827 58.3333 60.5587 58.168C60.74 57.9973 60.8893 57.7733 61.0067 57.496C61.124 57.2187 61.1827 56.928 61.1827 56.624C61.1827 56.5653 61.1613 56.512 61.1187 56.464C61.0813 56.416 61.028 56.3653 60.9587 56.312C60.9213 56.2853 60.8867 56.2587 60.8547 56.232C60.828 56.2 60.8147 56.1707 60.8147 56.144C60.8147 56.1227 60.82 56.0933 60.8307 56.056C60.8467 56.0187 60.8547 55.992 60.8547 55.976C60.8547 55.896 60.756 55.856 60.5587 55.856C60.34 55.856 60.1373 55.944 59.9507 56.12C59.7693 56.296 59.6253 56.52 59.5187 56.792C59.4173 57.064 59.3667 57.3307 59.3667 57.592C59.3667 57.7467 59.4013 57.888 59.4707 58.016C59.54 58.1387 59.6253 58.2373 59.7267 58.312C59.8333 58.3813 59.9373 58.416 60.0387 58.416Z" fill="#CB5300"/>
</g>
<defs>
<filter id="filter0_dd_240_529" x="0" y="0" width="84" height="84" filterUnits="userSpaceOnUse" color-interpolation-filters="sRGB">
<feFlood flood-opacity="0" result="BackgroundImageFix"/>
<feColorMatrix in="SourceAlpha" type="matrix" values="0 0 0 0 0 0 0 0 0 0 0 0 0 0 0 0 0 0 127 0" result="hardAlpha"/>
<feMorphology radius="2" operator="dilate" in="SourceAlpha" result="effect1_dropShadow_240_529"/>
<feOffset dy="2"/>
<feGaussianBlur stdDeviation="3"/>
<feColorMatrix type="matrix" values="0 0 0 0 0 0 0 0 0 0 0 0 0 0 0 0 0 0 0.15 0"/>
<feBlend mode="normal" in2="BackgroundImageFix" result="effect1_dropShadow_240_529"/>
<feColorMatrix in="SourceAlpha" type="matrix" values="0 0 0 0 0 0 0 0 0 0 0 0 0 0 0 0 0 0 127 0" result="hardAlpha"/>
<feOffset dy="1"/>
<feGaussianBlur stdDeviation="1"/>
<feColorMatrix type="matrix" values="0 0 0 0 0 0 0 0 0 0 0 0 0 0 0 0 0 0 0.3 0"/>
<feBlend mode="normal" in2="effect1_dropShadow_240_529" result="effect2_dropShadow_240_529"/>
<feBlend mode="normal" in="SourceGraphic" in2="effect2_dropShadow_240_529" result="shape"/>
</filter>
</defs>
</svg>
