<svg width="92" height="92" viewBox="0 0 92 92" fill="none" xmlns="http://www.w3.org/2000/svg">
<g filter="url(#filter0_dd_159_1216)">
<rect x="8" y="6" width="76" height="76" rx="20" fill="#F9F8F6"/>
<path fill-rule="evenodd" clip-rule="evenodd" d="M48.0413 17.6995C53.0381 19.9176 56.826 22.8303 58.7842 24.5142C59.9113 25.4833 60.5461 26.8752 60.6238 28.3597C60.7165 30.128 60.8287 32.8954 60.8287 35.9219C60.8287 38.249 60.7624 40.4967 60.6897 42.2618C60.5896 44.6895 58.6591 46.6043 56.2307 46.6873C53.8758 46.7679 50.3813 46.8481 45.8289 46.8481C41.2765 46.8481 37.7823 46.7679 35.427 46.6873C32.9986 46.6043 31.0685 44.6895 30.9683 42.2618C30.8953 40.4971 30.829 38.249 30.829 35.9219C30.829 32.8954 30.9413 30.128 31.0339 28.3594C31.112 26.8752 31.7464 25.4833 32.8739 24.5142C34.8318 22.8303 38.6199 19.9176 43.6168 17.6995C45.0244 17.0746 46.6333 17.0746 48.0413 17.6995ZM37.1129 44.0265H54.5448C54.6246 44.0654 54.713 44.0903 54.8068 44.0982C55.2152 44.132 55.5745 43.8283 55.6087 43.4199L55.705 42.2654C55.8547 42.2515 55.9969 42.2358 56.1313 42.2194C57.4736 42.0558 58.4025 40.851 58.3241 39.4435C58.2236 37.6335 57.9855 35.9433 57.7616 34.6622C57.4615 32.9471 56.1035 31.701 54.4489 31.5591C55.1186 30.8281 55.5293 29.8564 55.5293 28.7967C55.5293 26.5465 53.6776 24.6949 51.4278 24.6949C49.1776 24.6949 47.3259 26.5465 47.3259 28.7967C47.3259 29.0305 47.3459 29.2601 47.384 29.4836C46.9035 29.2843 46.3781 29.1738 45.8289 29.1738C45.2796 29.1738 44.7542 29.2843 44.2737 29.4836C44.3119 29.2601 44.3318 29.0305 44.3318 28.7967C44.3318 26.5465 42.4805 24.6949 40.2303 24.6949C37.9801 24.6949 36.1285 26.5465 36.1285 28.7967C36.1285 29.8564 36.5391 30.8281 37.2088 31.5591C35.5542 31.7013 34.1962 32.9471 33.8965 34.6622C33.6723 35.9433 33.4342 37.6335 33.3337 39.4435C33.2552 40.851 34.1841 42.0558 35.5264 42.2194C35.6608 42.2358 35.803 42.2515 35.9527 42.2654L36.049 43.4199C36.0832 43.8283 36.4425 44.132 36.851 44.0982C36.9447 44.0903 37.0331 44.0654 37.1129 44.0265ZM39.6119 42.6899H37.4786L37.3799 41.5104C37.3493 41.1412 37.0513 40.8514 36.6813 40.8307C36.3188 40.8107 35.993 40.7805 35.7061 40.7452C35.1333 40.6753 34.7829 40.1264 34.8164 39.5258C34.9134 37.7814 35.1436 36.1525 35.3593 34.9178C35.5439 33.8627 36.3815 33.0882 37.4081 33.034C38.8755 32.9563 40.1893 32.9232 41.7438 32.9089C41.7327 33.0298 41.727 33.152 41.727 33.2757C41.727 34.3126 42.1201 35.265 42.7646 35.9903C41.4411 36.1896 40.4146 37.2008 40.1751 38.547C39.9919 39.5778 39.7766 40.9797 39.6194 42.5915C39.6162 42.6243 39.6137 42.6571 39.6119 42.6899ZM45.8289 35.8923C44.3935 35.8923 43.2123 34.7111 43.2123 33.2757C43.2123 31.8403 44.3935 30.6591 45.8289 30.6591C47.2642 30.6591 48.4455 31.8403 48.4455 33.2757C48.4455 34.7111 47.2642 35.8923 45.8289 35.8923ZM50.5563 42.6899H41.1022C41.2544 41.1437 41.4611 39.7985 41.6372 38.8072C41.7723 38.0469 42.3796 37.4834 43.1506 37.4421C43.8318 37.4057 44.7179 37.3776 45.8289 37.3776C46.9402 37.3776 47.826 37.4057 48.5075 37.4421C49.2784 37.4834 49.8858 38.0469 50.0209 38.8072C50.1973 39.7985 50.4037 41.1437 50.5563 42.6899ZM42.8469 28.7967C42.8469 30.2321 41.6657 31.4133 40.2303 31.4133C38.7946 31.4133 37.6137 30.2321 37.6137 28.7967C37.6137 27.3614 38.7946 26.1801 40.2303 26.1801C41.6657 26.1801 42.8469 27.3614 42.8469 28.7967ZM48.8108 28.7967C48.8108 27.3614 49.992 26.1801 51.4278 26.1801C52.8631 26.1801 54.0443 27.3614 54.0443 28.7967C54.0443 30.2321 52.8631 31.4133 51.4278 31.4133C49.992 31.4133 48.8108 30.2321 48.8108 28.7967ZM54.1794 42.6899H52.0462C52.0444 42.6571 52.0419 42.6243 52.0387 42.5911C51.8815 40.9801 51.6662 39.5778 51.483 38.5474C51.2438 37.2008 50.2169 36.1896 48.8935 35.9903C49.5376 35.2646 49.9307 34.3126 49.9307 33.2757C49.9307 33.152 49.925 33.0298 49.9143 32.9089C51.4684 32.9232 52.7826 32.9563 54.2497 33.034C55.2765 33.0882 56.1142 33.8627 56.2984 34.9178C56.5144 36.1528 56.7443 37.7814 56.8413 39.5258C56.8748 40.1264 56.5244 40.6753 55.9516 40.7452C55.6647 40.7805 55.3389 40.8107 54.9764 40.8307C54.6068 40.8514 54.3085 41.1412 54.2778 41.5104L54.1794 42.6899Z" fill="#CB5300"/>
<path d="M36.4312 55.24C36.6712 55.3667 36.7912 55.5267 36.7912 55.72C36.7912 55.84 36.7245 55.9533 36.5912 56.06C36.4645 56.16 36.3212 56.23 36.1612 56.27L35.7212 56.3C35.5212 56.3133 35.2512 56.3333 34.9112 56.36C34.5712 56.38 34.1712 56.41 33.7112 56.45L33.2612 58.24C33.6812 58.1733 34.0279 58.12 34.3012 58.08C34.5812 58.04 34.8912 58.0067 35.2312 57.98C35.4912 58.0933 35.6212 58.2467 35.6212 58.44C35.6212 58.56 35.5612 58.6767 35.4412 58.79C35.3212 58.9033 35.1845 58.9833 35.0312 59.03L34.4612 59.09C33.8545 59.1567 33.3679 59.2233 33.0012 59.29C32.9212 59.6567 32.8079 60.12 32.6612 60.68L32.5812 60.99C33.4679 60.8233 34.3245 60.7067 35.1512 60.64C35.4112 60.7533 35.5412 60.9067 35.5412 61.1C35.5412 61.22 35.4812 61.3367 35.3612 61.45C35.2412 61.5633 35.1045 61.6433 34.9512 61.69C33.6845 61.8367 32.7912 61.96 32.2712 62.06C32.2112 62.1 32.0812 62.12 31.8812 62.12C31.6945 62.12 31.5279 62.0333 31.3812 61.86C31.2412 61.6867 31.1712 61.5067 31.1712 61.32C31.1712 61.2467 31.1812 61.1767 31.2012 61.11L32.3412 56.6H32.3112C32.3045 56.5267 32.2579 56.4367 32.1712 56.33C32.1645 56.3167 32.1379 56.2767 32.0912 56.21C32.0445 56.1367 32.0212 56.0667 32.0212 56C32.0345 55.8067 32.1612 55.6533 32.4012 55.54C32.9012 55.4733 33.6012 55.41 34.5012 55.35C35.4012 55.2833 36.0445 55.2467 36.4312 55.24ZM39.7881 58.13C39.7081 58.09 39.6081 58.07 39.4881 58.07C39.1881 58.07 38.8881 58.13 38.5881 58.25C38.2881 58.37 38.1381 58.5233 38.1381 58.71C38.1381 58.8433 38.1981 58.95 38.3181 59.03C38.4381 59.11 38.6281 59.2 38.8881 59.3C39.1681 59.4133 39.3948 59.52 39.5681 59.62C39.7414 59.72 39.8914 59.8667 40.0181 60.06C40.1514 60.2467 40.2181 60.4867 40.2181 60.78C40.2181 61.26 40.0181 61.63 39.6181 61.89C39.2248 62.1433 38.6948 62.27 38.0281 62.27C37.7014 62.27 37.3981 62.22 37.1181 62.12C36.8381 62.02 36.6148 61.8933 36.4481 61.74C36.2881 61.58 36.2014 61.4233 36.1881 61.27C36.1881 61.11 36.2581 60.98 36.3981 60.88C36.5381 60.7733 36.7348 60.7033 36.9881 60.67C36.9948 60.8033 37.0648 60.93 37.1981 61.05C37.3314 61.1633 37.4881 61.2567 37.6681 61.33C37.8548 61.3967 38.0148 61.43 38.1481 61.43C38.3748 61.43 38.5814 61.37 38.7681 61.25C38.9548 61.1233 39.0481 60.9767 39.0481 60.81C39.0481 60.5033 38.7514 60.26 38.1581 60.08C37.7781 59.9667 37.4848 59.7867 37.2781 59.54C37.0781 59.2933 36.9781 59.0333 36.9781 58.76C36.9781 58.22 37.2214 57.8333 37.7081 57.6C38.2014 57.36 38.8281 57.24 39.5881 57.24C40.0148 57.24 40.3448 57.29 40.5781 57.39C40.8114 57.49 40.9281 57.6633 40.9281 57.91C40.9281 58.0767 40.8648 58.2233 40.7381 58.35C40.6181 58.4767 40.4448 58.54 40.2181 58.54C40.0181 58.54 39.8881 58.5267 39.8281 58.5C39.7748 58.4667 39.7448 58.4133 39.7381 58.34C39.7381 58.2733 39.7548 58.2033 39.7881 58.13ZM42.1977 61.56C42.191 61.6 42.101 61.9633 41.9277 62.65C41.761 63.3433 41.6444 63.78 41.5777 63.96C41.551 64.0333 41.471 64.0867 41.3377 64.12C41.2044 64.16 41.1077 64.18 41.0477 64.18C40.7477 64.18 40.5877 63.9967 40.5677 63.63C40.6944 62.87 40.9077 61.8467 41.2077 60.56C41.5077 59.2667 41.7677 58.21 41.9877 57.39C42.001 57.29 42.061 57.1933 42.1677 57.1C42.281 57 42.381 56.95 42.4677 56.95C42.621 56.95 42.7477 56.9967 42.8477 57.09C42.9544 57.1767 43.0177 57.3033 43.0377 57.47C43.3044 57.29 43.611 57.2 43.9577 57.2C44.331 57.2 44.671 57.2833 44.9777 57.45C45.2844 57.61 45.5244 57.8433 45.6977 58.15C45.8777 58.4567 45.9677 58.8133 45.9677 59.22C45.9677 59.72 45.871 60.1933 45.6777 60.64C45.4844 61.0867 45.1944 61.45 44.8077 61.73C44.421 62.01 43.9544 62.15 43.4077 62.15C43.2344 62.15 43.011 62.0933 42.7377 61.98C42.4644 61.86 42.2844 61.72 42.1977 61.56ZM42.5077 60.29C42.4944 60.37 42.4877 60.4267 42.4877 60.46C42.4944 60.6267 42.5477 60.7733 42.6477 60.9C42.7544 61.0267 42.8777 61.1267 43.0177 61.2C43.1577 61.2667 43.2744 61.3 43.3677 61.3C43.661 61.3 43.9177 61.1967 44.1377 60.99C44.3644 60.7833 44.5377 60.5233 44.6577 60.21C44.7777 59.8967 44.8377 59.59 44.8377 59.29C44.8377 58.8967 44.7377 58.6 44.5377 58.4C44.3377 58.1933 44.091 58.09 43.7977 58.09C43.6444 58.09 43.491 58.12 43.3377 58.18C43.191 58.24 43.061 58.33 42.9477 58.45L42.5077 60.29ZM50.1909 61.48C50.2042 61.6533 50.2276 61.81 50.2609 61.95C50.2476 61.99 50.1876 62.03 50.0809 62.07C49.9809 62.11 49.8942 62.13 49.8209 62.13C49.5809 62.13 49.4076 62.0933 49.3009 62.02C49.2009 61.9533 49.1509 61.85 49.1509 61.71C49.1509 61.5767 49.1642 61.4433 49.1909 61.31C49.0442 61.51 48.8276 61.6767 48.5409 61.81C48.2609 61.9367 48.0342 62 47.8609 62C47.4142 62 47.0409 61.87 46.7409 61.61C46.4476 61.35 46.3009 60.9333 46.3009 60.36C46.3009 59.82 46.4276 59.3133 46.6809 58.84C46.9409 58.36 47.2976 57.9767 47.7509 57.69C48.2042 57.3967 48.7076 57.25 49.2609 57.25C49.3676 57.25 49.5076 57.28 49.6809 57.34C49.8542 57.3933 50.0276 57.49 50.2009 57.63C50.3809 57.7633 50.5309 57.9367 50.6509 58.15C50.7042 58.15 50.7676 58.1767 50.8409 58.23C50.9142 58.2833 50.9509 58.3367 50.9509 58.39C50.9509 58.45 50.9409 58.51 50.9209 58.57L50.1909 61.48ZM49.7409 58.68C49.7009 58.5333 49.6209 58.41 49.5009 58.31C49.3876 58.21 49.2842 58.16 49.1909 58.16C48.8842 58.16 48.5942 58.27 48.3209 58.49C48.0542 58.7033 47.8376 58.97 47.6709 59.29C47.5042 59.61 47.4209 59.9133 47.4209 60.2C47.4209 60.48 47.4542 60.71 47.5209 60.89C47.5876 61.07 47.7176 61.16 47.9109 61.16C48.0776 61.16 48.2676 61.11 48.4809 61.01C48.7009 60.91 48.8942 60.7767 49.0609 60.61C49.2342 60.4367 49.3476 60.2567 49.4009 60.07L49.7409 58.68ZM55.4504 59.01C55.2904 59.01 55.1804 58.9733 55.1204 58.9C55.0671 58.8267 55.0404 58.73 55.0404 58.61L55.0504 58.38C55.0504 58.3 55.0071 58.2367 54.9204 58.19C54.8338 58.1367 54.7404 58.11 54.6404 58.11C54.4338 58.11 54.1538 58.2333 53.8004 58.48C53.4538 58.7267 53.1471 59.0533 52.8804 59.46C52.6204 59.86 52.4904 60.29 52.4904 60.75C52.4904 60.9367 52.5638 61.08 52.7104 61.18C52.8571 61.28 53.0738 61.33 53.3604 61.33C53.5404 61.33 53.7471 61.2933 53.9804 61.22C54.2138 61.1467 54.3604 61.0533 54.4204 60.94C54.6471 60.5267 54.8538 60.32 55.0404 60.32C55.3138 60.32 55.4971 60.3733 55.5904 60.48C55.6904 60.58 55.7438 60.6933 55.7504 60.82C55.6838 61.0067 55.5504 61.1967 55.3504 61.39C55.1571 61.5833 54.9138 61.7533 54.6204 61.9C54.3271 62.04 54.0038 62.1333 53.6504 62.18C53.5238 62.3733 53.4238 62.54 53.3504 62.68C53.4704 62.66 53.5838 62.65 53.6904 62.65C53.9438 62.65 54.1771 62.7233 54.3904 62.87C54.6038 63.0233 54.7104 63.2 54.7104 63.4C54.7104 63.7467 54.5538 64.0167 54.2404 64.21C53.9271 64.4033 53.5038 64.5 52.9704 64.5C52.6904 64.5 52.4238 64.4267 52.1704 64.28C51.9171 64.1333 51.7904 63.96 51.7904 63.76C51.7904 63.7333 51.8304 63.7033 51.9104 63.67C51.9971 63.6433 52.0904 63.63 52.1904 63.63C52.2904 63.63 52.3738 63.64 52.4404 63.66C52.5071 63.6867 52.5838 63.72 52.6704 63.76C52.7504 63.8 52.8138 63.83 52.8604 63.85C52.9138 63.87 52.9771 63.88 53.0504 63.88C53.2704 63.88 53.4404 63.8433 53.5604 63.77C53.6804 63.6967 53.7404 63.5933 53.7404 63.46C53.7404 63.3667 53.7038 63.2967 53.6304 63.25C53.5571 63.2033 53.4638 63.18 53.3504 63.18C53.3104 63.18 53.2638 63.1867 53.2104 63.2C53.1638 63.2133 53.1304 63.2233 53.1104 63.23C53.0238 63.2633 52.9404 63.28 52.8604 63.28C52.6738 63.28 52.5304 63.2667 52.4304 63.24C52.3304 63.22 52.2804 63.19 52.2804 63.15C52.2804 62.97 52.4438 62.65 52.7704 62.19C52.2638 62.13 51.8904 61.97 51.6504 61.71C51.4104 61.45 51.2904 61.13 51.2904 60.75C51.2904 60.1233 51.4504 59.5433 51.7704 59.01C52.0904 58.47 52.5204 58.0433 53.0604 57.73C53.6004 57.4167 54.1771 57.26 54.7904 57.26C55.1704 57.26 55.4838 57.3733 55.7304 57.6C55.9838 57.82 56.1104 58.12 56.1104 58.5C56.1104 58.6467 56.0504 58.77 55.9304 58.87C55.8104 58.9633 55.6504 59.01 55.4504 59.01ZM58.3007 62.1C57.714 62.1 57.2573 61.9 56.9307 61.5C56.604 61.1 56.4407 60.59 56.4407 59.97C56.4407 59.45 56.5507 58.9733 56.7707 58.54C56.9973 58.1067 57.3107 57.7667 57.7107 57.52C58.1173 57.2667 58.5807 57.14 59.1007 57.14C59.6807 57.14 60.0707 57.19 60.2707 57.29C60.3307 57.3167 60.384 57.36 60.4307 57.42C60.4773 57.4733 60.5007 57.5267 60.5007 57.58C60.5007 57.6467 60.484 57.7167 60.4507 57.79C60.424 57.8633 60.3807 57.92 60.3207 57.96C60.474 57.9733 60.604 58.05 60.7107 58.19C60.8173 58.3233 60.8973 58.48 60.9507 58.66C61.004 58.84 61.0307 58.9967 61.0307 59.13C61.0307 59.6033 60.914 60.07 60.6807 60.53C60.454 60.99 60.134 61.3667 59.7207 61.66C59.3073 61.9533 58.834 62.1 58.3007 62.1ZM58.4507 61.27C58.664 61.27 58.8807 61.1667 59.1007 60.96C59.3273 60.7467 59.514 60.4667 59.6607 60.12C59.8073 59.7733 59.8807 59.41 59.8807 59.03C59.8807 58.9567 59.854 58.89 59.8007 58.83C59.754 58.77 59.6873 58.7067 59.6007 58.64C59.554 58.6067 59.5107 58.5733 59.4707 58.54C59.4373 58.5 59.4207 58.4633 59.4207 58.43C59.4207 58.4033 59.4273 58.3667 59.4407 58.32C59.4607 58.2733 59.4707 58.24 59.4707 58.22C59.4707 58.12 59.3473 58.07 59.1007 58.07C58.8273 58.07 58.574 58.18 58.3407 58.4C58.114 58.62 57.934 58.9 57.8007 59.24C57.674 59.58 57.6107 59.9133 57.6107 60.24C57.6107 60.4333 57.654 60.61 57.7407 60.77C57.8273 60.9233 57.934 61.0467 58.0607 61.14C58.194 61.2267 58.324 61.27 58.4507 61.27ZM24.9371 70.26C24.8371 70.56 24.6371 70.8633 24.3371 71.17C24.0437 71.47 23.6704 71.72 23.2171 71.92C22.7704 72.1133 22.2804 72.21 21.7471 72.21C20.9337 72.21 20.3371 72.0133 19.9571 71.62C19.5771 71.22 19.3871 70.71 19.3871 70.09C19.3871 69.21 19.5837 68.4133 19.9771 67.7C20.3704 66.98 20.9004 66.4167 21.5671 66.01C22.2337 65.5967 22.9537 65.39 23.7271 65.39C24.0337 65.39 24.3137 65.46 24.5671 65.6C24.8204 65.74 25.0204 65.9433 25.1671 66.21C25.3137 66.47 25.3871 66.7767 25.3871 67.13C25.3871 67.33 25.3104 67.5 25.1571 67.64C25.0104 67.78 24.8104 67.85 24.5571 67.85C24.3571 67.85 24.2204 67.7967 24.1471 67.69C24.0804 67.5833 24.0471 67.4467 24.0471 67.28L24.0571 66.96C24.0571 66.84 23.9904 66.7233 23.8571 66.61C23.7237 66.4967 23.6004 66.44 23.4871 66.44C23.1137 66.44 22.7037 66.61 22.2571 66.95C21.8104 67.2833 21.4337 67.7367 21.1271 68.31C20.8204 68.8767 20.6671 69.4933 20.6671 70.16C20.6671 70.4667 20.7871 70.7167 21.0271 70.91C21.2671 71.1033 21.5704 71.2 21.9371 71.2C22.0571 71.2 22.2137 71.16 22.4071 71.08C22.6004 71 22.7771 70.9 22.9371 70.78C23.1037 70.66 23.2137 70.5433 23.2671 70.43C23.3471 70.2633 23.4604 70.0767 23.6071 69.87C23.7537 69.6633 23.9004 69.56 24.0471 69.56C24.3871 69.56 24.6171 69.6333 24.7371 69.78C24.8637 69.9267 24.9304 70.0867 24.9371 70.26ZM27.6073 72.21C27.0206 72.21 26.564 72.01 26.2373 71.61C25.9106 71.21 25.7473 70.7 25.7473 70.08C25.7473 69.56 25.8706 69.07 26.1173 68.61C26.3706 68.15 26.714 67.78 27.1473 67.5C27.5806 67.22 28.0573 67.08 28.5773 67.08C29.0906 67.08 29.5106 67.25 29.8373 67.59C30.1706 67.9233 30.3373 68.4167 30.3373 69.07C30.3373 69.53 30.2106 70.0067 29.9573 70.5C29.704 70.9933 29.364 71.4033 28.9373 71.73C28.5173 72.05 28.074 72.21 27.6073 72.21ZM27.7573 71.41C27.9706 71.41 28.184 71.2767 28.3973 71.01C28.6173 70.7433 28.7973 70.4067 28.9373 70C29.0773 69.5933 29.1473 69.1967 29.1473 68.81C29.1473 68.2167 28.9006 67.92 28.4073 67.92C28.134 67.92 27.884 68.05 27.6573 68.31C27.4306 68.57 27.2506 68.8933 27.1173 69.28C26.984 69.66 26.9173 70.0167 26.9173 70.35C26.9173 70.5433 26.9606 70.7233 27.0473 70.89C27.134 71.05 27.2406 71.1767 27.3673 71.27C27.5006 71.3633 27.6306 71.41 27.7573 71.41ZM31.3254 67.43C31.3054 67.41 31.2954 67.3867 31.2954 67.36C31.2954 67.2933 31.3688 67.24 31.5154 67.2C31.6621 67.1533 31.8654 67.13 32.1254 67.13C32.3588 67.13 32.5154 67.1967 32.5954 67.33C32.6754 67.4567 32.7254 67.6233 32.7454 67.83C32.7321 67.8833 32.7188 67.9567 32.7054 68.05L32.6554 68.29C32.8488 68.0633 33.1354 67.8433 33.5154 67.63C33.8954 67.41 34.1921 67.3 34.4054 67.3C34.7388 67.3 34.9688 67.36 35.0954 67.48C35.2288 67.5933 35.3054 67.8133 35.3254 68.14C35.5721 67.9067 35.8554 67.71 36.1754 67.55C36.4954 67.3833 36.7754 67.3 37.0154 67.3C37.2688 67.3 37.5021 67.3533 37.7154 67.46C37.9288 67.56 38.0354 67.7233 38.0354 67.95C38.0354 68.01 38.0321 68.0567 38.0254 68.09C38.0054 68.1967 37.9654 68.3467 37.9054 68.54C37.8521 68.7267 37.8121 68.8633 37.7854 68.95C37.6188 69.49 37.4888 69.9467 37.3954 70.32C37.3088 70.6867 37.2554 71.0467 37.2354 71.4L37.3754 71.89C37.2954 72.0433 37.1821 72.1633 37.0354 72.25C36.8954 72.3433 36.6888 72.39 36.4154 72.39C36.2554 72.39 36.1388 72.3367 36.0654 72.23C35.9921 72.1233 35.9554 71.99 35.9554 71.83C35.9554 71.7967 35.9588 71.76 35.9654 71.72C35.9721 71.68 35.9754 71.6433 35.9754 71.61C35.9888 71.2367 36.0421 70.86 36.1354 70.48C36.2354 70.0933 36.3621 69.66 36.5154 69.18C36.6554 68.76 36.7254 68.5033 36.7254 68.41C36.7254 68.37 36.7188 68.33 36.7054 68.29C36.6988 68.2433 36.6888 68.22 36.6754 68.22C36.5221 68.22 36.2688 68.2933 35.9154 68.44C35.5688 68.5867 35.3354 68.7333 35.2154 68.88C35.0888 69.2867 34.8788 70.1333 34.5854 71.42L34.5254 71.7C34.4921 71.8733 34.4588 71.9933 34.4254 72.06C34.3988 72.1267 34.3421 72.1767 34.2554 72.21C34.1688 72.2433 34.0288 72.26 33.8354 72.26C33.3754 72.26 33.1454 72.1667 33.1454 71.98C33.1988 71.8333 33.3454 71.27 33.5854 70.29C33.7321 69.6833 33.8988 69.0133 34.0854 68.28C34.0454 68.3 33.9721 68.33 33.8654 68.37C33.5454 68.4967 33.2654 68.6267 33.0254 68.76C32.7921 68.8933 32.6021 69.05 32.4554 69.23L32.1954 70.29C32.1554 70.45 32.1188 70.6 32.0854 70.74C32.0521 70.8733 32.0221 70.9867 31.9954 71.08C31.9621 71.1933 31.9388 71.3467 31.9254 71.54C31.9121 71.6733 31.8921 71.77 31.8654 71.83C31.8454 71.89 31.7888 71.94 31.6954 71.98C31.6088 72.0133 31.4688 72.03 31.2754 72.03C31.0554 72.03 30.8888 72.0067 30.7754 71.96C30.6621 71.9133 30.6054 71.8133 30.6054 71.66C30.6054 71.5867 30.6888 71.1967 30.8554 70.49C31.0288 69.7833 31.2621 68.8633 31.5554 67.73L31.3254 67.43ZM42.4312 71.97C42.4045 72.0833 42.3445 72.16 42.2512 72.2C42.1579 72.2467 42.0345 72.27 41.8812 72.27C41.4212 72.27 41.1912 72.1667 41.1912 71.96L41.2512 71.58C41.0245 71.7933 40.8012 71.95 40.5812 72.05C40.3679 72.1567 40.1245 72.21 39.8512 72.21C39.4645 72.21 39.1379 72.1067 38.8712 71.9C38.6112 71.6867 38.4812 71.31 38.4812 70.77C38.4812 70.6367 38.5012 70.49 38.5412 70.33L39.2112 67.66C39.2512 67.5133 39.3212 67.4067 39.4212 67.34C39.5279 67.2667 39.6979 67.23 39.9312 67.23C40.2779 67.23 40.4512 67.3267 40.4512 67.52C40.4512 67.6 40.4279 67.7267 40.3812 67.9L39.7112 70.58C39.6912 70.66 39.6812 70.74 39.6812 70.82C39.6812 70.96 39.7179 71.0733 39.7912 71.16C39.8645 71.2467 39.9812 71.29 40.1412 71.29C40.3545 71.29 40.5945 71.23 40.8612 71.11C41.1279 70.9833 41.3412 70.8367 41.5012 70.67L41.7612 69.66C42.0345 68.58 42.1945 67.9533 42.2412 67.78C42.2812 67.6333 42.3179 67.5267 42.3512 67.46C42.3912 67.3867 42.4579 67.3333 42.5512 67.3C42.6445 67.26 42.7845 67.24 42.9712 67.24C43.3245 67.24 43.5012 67.3467 43.5012 67.56C43.5012 67.5933 43.4912 67.6367 43.4712 67.69C43.4579 67.7367 43.4479 67.7767 43.4412 67.81L43.0412 69.43C42.7212 70.7167 42.5179 71.5633 42.4312 71.97ZM44.8425 67.15C45.1692 66.9833 45.4292 66.9 45.6225 66.9C45.8492 66.9 45.9759 67.0167 46.0025 67.25L45.6725 68.48C45.8125 68.2867 46.0192 68.0967 46.2925 67.91C46.5659 67.7233 46.8392 67.57 47.1125 67.45C47.3925 67.33 47.6159 67.27 47.7825 67.27C48.1359 67.27 48.3925 67.3367 48.5525 67.47C48.7125 67.5967 48.7925 67.8 48.7925 68.08C48.7259 68.4533 48.6259 68.9033 48.4925 69.43C48.3592 69.95 48.2759 70.28 48.2425 70.42C48.0959 70.9667 47.9925 71.3767 47.9325 71.65C47.8925 71.8167 47.8525 71.9333 47.8125 72C47.7792 72.06 47.7159 72.1033 47.6225 72.13C47.5359 72.1567 47.3825 72.17 47.1625 72.17C47.0425 72.17 46.9292 72.15 46.8225 72.11C46.7225 72.07 46.6725 72.0033 46.6725 71.91C46.6925 71.69 46.7592 71.3533 46.8725 70.9C46.9925 70.44 47.1525 69.8467 47.3525 69.12C47.4859 68.6667 47.5525 68.42 47.5525 68.38C47.5525 68.2867 47.4992 68.24 47.3925 68.24C47.2392 68.24 47.0092 68.3467 46.7025 68.56C46.3959 68.7667 46.0792 69.1167 45.7525 69.61C45.4259 70.0967 45.1692 70.7333 44.9825 71.52C44.9692 71.56 44.9525 71.6333 44.9325 71.74C44.9125 71.8467 44.8592 71.9233 44.7725 71.97C44.6859 72.01 44.5459 72.03 44.3525 72.03C44.1325 72.03 43.9692 72.0067 43.8625 71.96C43.7625 71.9133 43.7125 71.8133 43.7125 71.66L43.8225 71.23C44.2159 69.69 44.5559 68.33 44.8425 67.15ZM50.2932 66.06C50.2932 65.8467 50.3732 65.6467 50.5332 65.46C50.6932 65.2733 50.8898 65.18 51.1232 65.18C51.3632 65.18 51.5498 65.2533 51.6832 65.4C51.8232 65.5467 51.8965 65.7233 51.9032 65.93C51.9032 66.13 51.8165 66.3133 51.6432 66.48C51.4698 66.6467 51.2632 66.73 51.0232 66.73C50.7832 66.73 50.5998 66.67 50.4732 66.55C50.3532 66.4233 50.2932 66.26 50.2932 66.06ZM49.4332 71.33C49.4332 71.1633 49.7098 69.9633 50.2632 67.73C50.2698 67.49 50.3132 67.33 50.3932 67.25C50.4798 67.17 50.6232 67.13 50.8232 67.13C50.9898 67.13 51.1232 67.1833 51.2232 67.29C51.3298 67.39 51.3832 67.52 51.3832 67.68C51.3832 67.7133 51.3765 67.7633 51.3632 67.83L50.5432 71.43L50.5032 71.7C50.4965 71.8067 50.4798 71.88 50.4532 71.92C50.4265 71.96 50.3598 71.9867 50.2532 72C50.1532 72.02 49.9732 72.03 49.7132 72.03C49.5865 72.03 49.4998 72.0067 49.4532 71.96C49.4065 71.9133 49.3832 71.8467 49.3832 71.76C49.3832 71.68 49.3932 71.6067 49.4132 71.54C49.4265 71.4333 49.4332 71.3633 49.4332 71.33ZM52.4968 68.52C52.4168 68.52 52.3568 68.49 52.3168 68.43C52.2768 68.3633 52.2568 68.28 52.2568 68.18C52.2568 68.04 52.3102 67.8833 52.4168 67.71C52.4768 67.65 52.8002 67.5867 53.3868 67.52L53.8168 65.58C53.8635 65.3667 53.9402 65.21 54.0468 65.11C54.1602 65.0033 54.2835 64.95 54.4168 64.95C54.5768 64.95 54.7202 65.0067 54.8468 65.12C54.9802 65.2333 55.0502 65.3667 55.0568 65.52C55.0568 65.56 55.0502 65.6133 55.0368 65.68L54.6068 67.4C55.0468 67.3667 55.3302 67.35 55.4568 67.35C55.5702 67.35 55.6768 67.3767 55.7768 67.43C55.8835 67.4767 55.9668 67.5333 56.0268 67.6C56.0868 67.6667 56.1168 67.7233 56.1168 67.77C56.1168 67.8833 56.0702 67.9867 55.9768 68.08C55.8902 68.1667 55.7902 68.22 55.6768 68.24L54.3668 68.36L53.5068 71.8C53.4068 72.08 53.2702 72.22 53.0968 72.22C52.9568 72.22 52.8302 72.1333 52.7168 71.96C52.6102 71.7867 52.5568 71.59 52.5568 71.37C52.5568 71.2833 52.5668 71.1967 52.5868 71.11L53.1768 68.46L52.4968 68.52ZM57.86 66.15C57.9534 66.01 58.13 65.8133 58.39 65.56C58.6567 65.3067 58.9167 65.0833 59.17 64.89C59.43 64.69 59.5967 64.59 59.67 64.59C59.81 64.59 59.97 64.6533 60.15 64.78C60.33 64.9067 60.42 65.0233 60.42 65.13C60.42 65.2167 60.3734 65.3033 60.28 65.39C60.1867 65.4767 59.9967 65.62 59.71 65.82C59.3034 66.1067 58.9934 66.3067 58.78 66.42C58.5667 66.5267 58.3734 66.58 58.2 66.58C58.0734 66.58 57.98 66.5567 57.92 66.51C57.86 66.4633 57.83 66.3833 57.83 66.27C57.83 66.2167 57.84 66.1767 57.86 66.15ZM59.81 71.48C59.8234 71.6533 59.8467 71.81 59.88 71.95C59.8667 71.99 59.8067 72.03 59.7 72.07C59.6 72.11 59.5134 72.13 59.44 72.13C59.2 72.13 59.0267 72.0933 58.92 72.02C58.82 71.9533 58.77 71.85 58.77 71.71C58.77 71.5767 58.7834 71.4433 58.81 71.31C58.6634 71.51 58.4467 71.6767 58.16 71.81C57.88 71.9367 57.6534 72 57.48 72C57.0334 72 56.66 71.87 56.36 71.61C56.0667 71.35 55.92 70.9333 55.92 70.36C55.92 69.82 56.0467 69.3133 56.3 68.84C56.56 68.36 56.9167 67.9767 57.37 67.69C57.8234 67.3967 58.3267 67.25 58.88 67.25C58.9867 67.25 59.1267 67.28 59.3 67.34C59.4734 67.3933 59.6467 67.49 59.82 67.63C60 67.7633 60.15 67.9367 60.27 68.15C60.3234 68.15 60.3867 68.1767 60.46 68.23C60.5334 68.2833 60.57 68.3367 60.57 68.39C60.57 68.45 60.56 68.51 60.54 68.57L59.81 71.48ZM59.36 68.68C59.32 68.5333 59.24 68.41 59.12 68.31C59.0067 68.21 58.9034 68.16 58.81 68.16C58.5034 68.16 58.2134 68.27 57.94 68.49C57.6734 68.7033 57.4567 68.97 57.29 69.29C57.1234 69.61 57.04 69.9133 57.04 70.2C57.04 70.48 57.0734 70.71 57.14 70.89C57.2067 71.07 57.3367 71.16 57.53 71.16C57.6967 71.16 57.8867 71.11 58.1 71.01C58.32 70.91 58.5134 70.7767 58.68 70.61C58.8534 70.4367 58.9667 70.2567 59.02 70.07L59.36 68.68ZM62.1696 71.62C62.1629 71.66 62.1462 71.74 62.1196 71.86C62.0996 71.9733 62.0429 72.0533 61.9496 72.1C61.8629 72.1467 61.7229 72.17 61.5296 72.17C61.3096 72.17 61.1496 72.1467 61.0496 72.1C60.9496 72.0533 60.8996 71.9533 60.8996 71.8L61.3796 69.89C61.6462 68.79 61.8229 68.09 61.9096 67.79L61.6596 67.49C61.6396 67.47 61.6296 67.4467 61.6296 67.42C61.6296 67.3533 61.7029 67.3 61.8496 67.26C61.9962 67.2133 62.1996 67.19 62.4596 67.19C62.6929 67.19 62.8496 67.2567 62.9296 67.39C63.0096 67.5167 63.0596 67.6833 63.0796 67.89L63.0096 68.15C63.2229 67.89 63.4696 67.6767 63.7496 67.51C64.0362 67.3367 64.2896 67.25 64.5096 67.25C64.7962 67.25 65.0196 67.3 65.1796 67.4C65.3396 67.5 65.4196 67.63 65.4196 67.79C65.4196 67.93 65.3696 68.0767 65.2696 68.23C65.1762 68.3767 65.0562 68.5033 64.9096 68.61C64.7629 68.71 64.6196 68.7667 64.4796 68.78C64.3462 68.78 64.2562 68.7633 64.2096 68.73C64.1629 68.6967 64.1396 68.6467 64.1396 68.58L64.1996 68.25C63.6662 68.3967 63.1829 68.75 62.7496 69.31L62.1696 71.62ZM66.2611 66.06C66.2611 65.8533 66.3245 65.67 66.4511 65.51C66.5845 65.35 66.7678 65.27 67.0011 65.27C67.2478 65.27 67.4611 65.3467 67.6411 65.5C67.8278 65.6533 67.9211 65.8267 67.9211 66.02C67.9211 66.2133 67.8278 66.38 67.6411 66.52C67.4545 66.66 67.2378 66.73 66.9911 66.73C66.7511 66.73 66.5678 66.67 66.4411 66.55C66.3211 66.4233 66.2611 66.26 66.2611 66.06ZM67.3111 67.83C66.9578 69.27 66.6878 70.3533 66.5011 71.08C66.4745 71.1867 66.4611 71.3033 66.4611 71.43L66.4711 71.71C66.4711 71.8233 66.4345 71.9033 66.3611 71.95C66.2945 71.9967 66.1478 72.0233 65.9211 72.03C65.7011 72.03 65.5345 72.0067 65.4211 71.96C65.3078 71.9133 65.2511 71.8133 65.2511 71.66C65.2511 71.5867 65.3345 71.1967 65.5011 70.49C65.6745 69.7833 65.9078 68.8633 66.2011 67.73L65.9711 67.43C65.9511 67.41 65.9411 67.3867 65.9411 67.36C65.9411 67.2933 66.0145 67.24 66.1611 67.2C66.3078 67.1533 66.5111 67.13 66.7711 67.13C66.9978 67.13 67.1411 67.1967 67.2011 67.33C67.2678 67.4567 67.3045 67.6233 67.3111 67.83ZM69.7948 72.1C69.2081 72.1 68.7515 71.9 68.4248 71.5C68.0981 71.1 67.9348 70.59 67.9348 69.97C67.9348 69.45 68.0448 68.9733 68.2648 68.54C68.4915 68.1067 68.8048 67.7667 69.2048 67.52C69.6115 67.2667 70.0748 67.14 70.5948 67.14C71.1748 67.14 71.5648 67.19 71.7648 67.29C71.8248 67.3167 71.8781 67.36 71.9248 67.42C71.9715 67.4733 71.9948 67.5267 71.9948 67.58C71.9948 67.6467 71.9781 67.7167 71.9448 67.79C71.9181 67.8633 71.8748 67.92 71.8148 67.96C71.9681 67.9733 72.0981 68.05 72.2048 68.19C72.3115 68.3233 72.3915 68.48 72.4448 68.66C72.4981 68.84 72.5248 68.9967 72.5248 69.13C72.5248 69.6033 72.4081 70.07 72.1748 70.53C71.9481 70.99 71.6281 71.3667 71.2148 71.66C70.8015 71.9533 70.3281 72.1 69.7948 72.1ZM69.9448 71.27C70.1581 71.27 70.3748 71.1667 70.5948 70.96C70.8215 70.7467 71.0081 70.4667 71.1548 70.12C71.3015 69.7733 71.3748 69.41 71.3748 69.03C71.3748 68.9567 71.3481 68.89 71.2948 68.83C71.2481 68.77 71.1815 68.7067 71.0948 68.64C71.0481 68.6067 71.0048 68.5733 70.9648 68.54C70.9315 68.5 70.9148 68.4633 70.9148 68.43C70.9148 68.4033 70.9215 68.3667 70.9348 68.32C70.9548 68.2733 70.9648 68.24 70.9648 68.22C70.9648 68.12 70.8415 68.07 70.5948 68.07C70.3215 68.07 70.0681 68.18 69.8348 68.4C69.6081 68.62 69.4281 68.9 69.2948 69.24C69.1681 69.58 69.1048 69.9133 69.1048 70.24C69.1048 70.4333 69.1481 70.61 69.2348 70.77C69.3215 70.9233 69.4281 71.0467 69.5548 71.14C69.6881 71.2267 69.8181 71.27 69.9448 71.27Z" fill="#CB5300"/>
</g>
<defs>
<filter id="filter0_dd_159_1216" x="0" y="0" width="92" height="92" filterUnits="userSpaceOnUse" color-interpolation-filters="sRGB">
<feFlood flood-opacity="0" result="BackgroundImageFix"/>
<feColorMatrix in="SourceAlpha" type="matrix" values="0 0 0 0 0 0 0 0 0 0 0 0 0 0 0 0 0 0 127 0" result="hardAlpha"/>
<feMorphology radius="2" operator="dilate" in="SourceAlpha" result="effect1_dropShadow_159_1216"/>
<feOffset dy="2"/>
<feGaussianBlur stdDeviation="3"/>
<feColorMatrix type="matrix" values="0 0 0 0 0 0 0 0 0 0 0 0 0 0 0 0 0 0 0.15 0"/>
<feBlend mode="normal" in2="BackgroundImageFix" result="effect1_dropShadow_159_1216"/>
<feColorMatrix in="SourceAlpha" type="matrix" values="0 0 0 0 0 0 0 0 0 0 0 0 0 0 0 0 0 0 127 0" result="hardAlpha"/>
<feOffset dy="1"/>
<feGaussianBlur stdDeviation="1"/>
<feColorMatrix type="matrix" values="0 0 0 0 0 0 0 0 0 0 0 0 0 0 0 0 0 0 0.3 0"/>
<feBlend mode="normal" in2="effect1_dropShadow_159_1216" result="effect2_dropShadow_159_1216"/>
<feBlend mode="normal" in="SourceGraphic" in2="effect2_dropShadow_159_1216" result="shape"/>
</filter>
</defs>
</svg>
