<svg width="25" height="22" viewBox="0 0 25 22" fill="none" xmlns="http://www.w3.org/2000/svg">
<path d="M12.1875 0C5.95942 0 2.89023 0.263386 1.54376 0.436378C0.6108 0.556238 0 1.35288 0 2.22436L5.42402e-06 3.95753C7.35615e-09 4.66949 0.254226 5.37685 0.770483 5.91581C1.82497 7.01659 4.30895 9.43101 7.88136 11.7869C7.95844 11.8377 8.00535 11.9187 8.01304 12.0018C8.35835 15.7229 8.67501 18.2681 8.84379 19.5259C8.96816 20.4526 9.75975 21.1249 10.6795 21.1249C11.0287 21.1249 11.3709 21.027 11.6671 20.8421L14.3898 19.1437C14.9638 18.7855 15.4243 18.217 15.5783 17.4924C15.7602 16.6358 16.0437 14.9854 16.3489 12.0096C16.3575 11.9257 16.405 11.8453 16.4812 11.7951C20.0603 9.43665 22.5488 7.01783 23.6045 5.91576C24.1207 5.37685 24.375 4.66949 24.375 3.95753V2.22436C24.375 1.35288 23.7642 0.556238 22.8313 0.436378C21.4848 0.263386 18.4156 0 12.1875 0Z" fill="#0076C0"/>
</svg>
