<svg width="84" height="84" viewBox="0 0 84 84" fill="none" xmlns="http://www.w3.org/2000/svg">
<g filter="url(#filter0_dd_240_580)">
<rect x="8" y="6" width="68" height="68" rx="20" fill="#F9F8F6"/>
<path fill-rule="evenodd" clip-rule="evenodd" d="M35.4519 22.9943C37.2675 23.2396 38.8191 23.6918 40.3092 24.1284C43.3862 25.0294 46.1887 25.8636 50.7061 24.3962C51.9192 24.002 53.1595 24.6684 53.3162 25.9343C53.454 27.0459 53.5881 28.7966 53.5881 31.412C53.5881 34.9536 53.3422 36.9136 53.1726 37.8514V37.8523C53.0539 38.5027 52.5934 39.0205 51.9747 39.2531C46.431 41.3423 43.2614 40.6783 39.6308 39.9085C38.4837 39.6653 37.2891 39.4117 35.9495 39.239C35.9626 37.898 35.9709 36.279 35.9709 34.3365C35.9709 28.6616 35.8988 25.7496 35.8519 24.458C35.8325 23.9169 35.6936 23.4168 35.4519 22.9943Z" fill="#CB5300"/>
<path fill-rule="evenodd" clip-rule="evenodd" d="M32.0197 22.8435C32.203 22.8221 32.4187 22.8085 32.6726 22.8083C32.8905 22.8074 33.1084 22.8188 33.3249 22.8426L33.328 22.8429C34.1721 22.94 34.667 23.6497 34.6975 24.4994C34.7441 25.7854 34.8159 28.6852 34.8159 34.3365C34.8159 39.9878 34.7441 42.8879 34.6975 44.1734C34.667 45.0234 34.1721 45.7331 33.328 45.8295C33.1445 45.8509 32.9282 45.8645 32.6737 45.8645C32.4201 45.8645 32.2033 45.8509 32.0203 45.8301L32.0197 45.8298C31.1756 45.7328 30.6807 45.0234 30.6502 44.1734C30.6037 42.8873 30.5319 39.9878 30.5319 34.3365C30.5319 28.6852 30.6037 25.7849 30.6502 24.4994C30.6807 23.6494 31.1756 22.94 32.0197 22.8435Z" fill="#CB5300"/>
<path d="M34.6448 53.544C34.8368 53.6453 34.9328 53.7733 34.9328 53.928C34.9328 54.024 34.8821 54.1147 34.7808 54.2C34.6794 54.28 34.5648 54.3387 34.4368 54.376L34.3408 54.384C33.6528 54.4213 33.0234 54.472 32.4528 54.536L32.0048 56.328C32.3994 56.264 32.7488 56.2187 33.0528 56.192C33.3568 56.1653 33.5381 56.1493 33.5968 56.144L33.9088 56.12C34.1168 56.2107 34.2208 56.3333 34.2208 56.488C34.2208 56.584 34.1728 56.6773 34.0768 56.768C33.9808 56.8587 33.8714 56.9227 33.7488 56.96L33.6288 56.976C33.3888 57.0027 33.1648 57.024 32.9568 57.04C32.4128 57.088 32.0261 57.1307 31.7968 57.168L31.4128 58.712C31.3861 58.824 31.3568 58.9067 31.3248 58.96C31.2981 59.008 31.2474 59.0427 31.1728 59.064C31.1034 59.0907 30.9968 59.104 30.8528 59.104C30.6874 59.104 30.5648 59.0747 30.4848 59.016C30.4101 58.9627 30.3728 58.8693 30.3728 58.736C30.3728 58.6773 30.3808 58.6213 30.3968 58.568L31.4928 54.24C31.5514 54.0053 31.6128 53.8507 31.6768 53.776C31.7461 53.696 31.8688 53.656 32.0448 53.656C32.2314 53.656 32.3834 53.68 32.5008 53.728C33.2848 53.6267 33.9994 53.5653 34.6448 53.544ZM35.7482 58.696C35.7428 58.728 35.7295 58.792 35.7082 58.888C35.6922 58.9787 35.6468 59.0427 35.5722 59.08C35.5028 59.1173 35.3908 59.136 35.2362 59.136C35.0602 59.136 34.9322 59.1173 34.8522 59.08C34.7722 59.0427 34.7322 58.9627 34.7322 58.84L35.1162 57.312C35.3295 56.432 35.4708 55.872 35.5402 55.632L35.3402 55.392C35.3242 55.376 35.3162 55.3573 35.3162 55.336C35.3162 55.2827 35.3748 55.24 35.4922 55.208C35.6095 55.1707 35.7722 55.152 35.9802 55.152C36.1668 55.152 36.2922 55.2053 36.3562 55.312C36.4202 55.4133 36.4602 55.5467 36.4762 55.712L36.4202 55.92C36.5908 55.712 36.7882 55.5413 37.0122 55.408C37.2415 55.2693 37.4442 55.2 37.6202 55.2C37.8495 55.2 38.0282 55.24 38.1562 55.32C38.2842 55.4 38.3482 55.504 38.3482 55.632C38.3482 55.744 38.3082 55.8613 38.2282 55.984C38.1535 56.1013 38.0575 56.2027 37.9402 56.288C37.8228 56.368 37.7082 56.4133 37.5962 56.424C37.4895 56.424 37.4175 56.4107 37.3802 56.384C37.3428 56.3573 37.3242 56.3173 37.3242 56.264L37.3722 56C36.9455 56.1173 36.5588 56.4 36.2122 56.848L35.7482 58.696ZM39.5574 59.168C39.0347 59.168 38.6534 59.064 38.4134 58.856C38.1734 58.648 38.0534 58.3707 38.0534 58.024C38.0534 57.5173 38.1787 57.048 38.4294 56.616C38.6854 56.184 39.0241 55.8427 39.4454 55.592C39.8721 55.336 40.3307 55.208 40.8214 55.208C41.1201 55.208 41.3707 55.2933 41.5734 55.464C41.7761 55.6293 41.8774 55.8747 41.8774 56.2C41.8774 56.3867 41.8161 56.5413 41.6934 56.664C41.5761 56.7813 41.4054 56.888 41.1814 56.984C40.9574 57.0747 40.5947 57.2053 40.0934 57.376C39.6401 57.5253 39.2721 57.6507 38.9894 57.752C38.9681 57.832 38.9574 57.9147 38.9574 58C38.9574 58.1493 39.0187 58.264 39.1414 58.344C39.2694 58.424 39.4481 58.464 39.6774 58.464C39.8214 58.464 39.9867 58.4347 40.1734 58.376C40.3601 58.3173 40.4774 58.2427 40.5254 58.152C40.7067 57.8213 40.8721 57.656 41.0214 57.656C41.2401 57.656 41.3867 57.6987 41.4614 57.784C41.5414 57.864 41.5841 57.9547 41.5894 58.056C41.5254 58.2267 41.4001 58.4 41.2134 58.576C41.0267 58.7467 40.7894 58.888 40.5014 59C40.2134 59.112 39.8987 59.168 39.5574 59.168ZM39.2134 57.016C39.7414 56.8453 40.1761 56.688 40.5174 56.544C40.8587 56.3947 41.0294 56.248 41.0294 56.104C41.0294 56.04 40.9947 55.9893 40.9254 55.952C40.8561 55.9093 40.7814 55.888 40.7014 55.888C40.5414 55.888 40.3574 55.9493 40.1494 56.072C39.9467 56.1947 39.7574 56.344 39.5814 56.52C39.4054 56.696 39.2827 56.8613 39.2134 57.016ZM43.0428 55.12C43.3041 54.9867 43.5121 54.92 43.6668 54.92C43.8481 54.92 43.9494 55.0133 43.9708 55.2L43.7068 56.184C43.8188 56.0293 43.9841 55.8773 44.2028 55.728C44.4214 55.5787 44.6401 55.456 44.8588 55.36C45.0828 55.264 45.2614 55.216 45.3948 55.216C45.6774 55.216 45.8828 55.2693 46.0108 55.376C46.1388 55.4773 46.2028 55.64 46.2028 55.864C46.1494 56.1627 46.0694 56.5227 45.9628 56.944C45.8561 57.36 45.7894 57.624 45.7628 57.736C45.6454 58.1733 45.5628 58.5013 45.5148 58.72C45.4828 58.8533 45.4508 58.9467 45.4188 59C45.3921 59.048 45.3414 59.0827 45.2668 59.104C45.1974 59.1253 45.0748 59.136 44.8988 59.136C44.8028 59.136 44.7121 59.12 44.6268 59.088C44.5468 59.056 44.5068 59.0027 44.5068 58.928C44.5228 58.752 44.5761 58.4827 44.6668 58.12C44.7628 57.752 44.8908 57.2773 45.0508 56.696C45.1574 56.3333 45.2108 56.136 45.2108 56.104C45.2108 56.0293 45.1681 55.992 45.0828 55.992C44.9601 55.992 44.7761 56.0773 44.5308 56.248C44.2854 56.4133 44.0321 56.6933 43.7708 57.088C43.5094 57.4773 43.3041 57.9867 43.1548 58.616C43.1441 58.648 43.1308 58.7067 43.1148 58.792C43.0988 58.8773 43.0561 58.9387 42.9868 58.976C42.9174 59.008 42.8054 59.024 42.6508 59.024C42.4748 59.024 42.3441 59.0053 42.2588 58.968C42.1788 58.9307 42.1388 58.8507 42.1388 58.728L42.2268 58.384C42.5414 57.152 42.8134 56.064 43.0428 55.12ZM46.9553 56.216C46.8913 56.216 46.8433 56.192 46.8113 56.144C46.7793 56.0907 46.7633 56.024 46.7633 55.944C46.7633 55.832 46.8059 55.7067 46.8913 55.568C46.9393 55.52 47.1979 55.4693 47.6673 55.416L48.0113 53.864C48.0486 53.6933 48.1099 53.568 48.1953 53.488C48.2859 53.4027 48.3846 53.36 48.4913 53.36C48.6193 53.36 48.7339 53.4053 48.8353 53.496C48.9419 53.5867 48.9979 53.6933 49.0033 53.816C49.0033 53.848 48.9979 53.8907 48.9873 53.944L48.6433 55.32C48.9953 55.2933 49.2219 55.28 49.3233 55.28C49.4139 55.28 49.4993 55.3013 49.5793 55.344C49.6646 55.3813 49.7313 55.4267 49.7793 55.48C49.8273 55.5333 49.8513 55.5787 49.8513 55.616C49.8513 55.7067 49.8139 55.7893 49.7393 55.864C49.6699 55.9333 49.5899 55.976 49.4993 55.992L48.4513 56.088L47.7633 58.84C47.6833 59.064 47.5739 59.176 47.4353 59.176C47.3233 59.176 47.2219 59.1067 47.1313 58.968C47.0459 58.8293 47.0033 58.672 47.0033 58.496C47.0033 58.4267 47.0113 58.3573 47.0273 58.288L47.4993 56.168L46.9553 56.216ZM51.2058 59.168C50.6832 59.168 50.3018 59.064 50.0618 58.856C49.8218 58.648 49.7018 58.3707 49.7018 58.024C49.7018 57.5173 49.8272 57.048 50.0778 56.616C50.3338 56.184 50.6725 55.8427 51.0938 55.592C51.5205 55.336 51.9792 55.208 52.4698 55.208C52.7685 55.208 53.0192 55.2933 53.2218 55.464C53.4245 55.6293 53.5258 55.8747 53.5258 56.2C53.5258 56.5627 53.3898 56.8507 53.1178 57.064C52.8512 57.272 52.5125 57.4267 52.1018 57.528C51.6965 57.624 51.2085 57.6987 50.6378 57.752C50.6165 57.832 50.6058 57.9147 50.6058 58C50.6058 58.1493 50.6672 58.264 50.7898 58.344C50.9178 58.424 51.0965 58.464 51.3258 58.464C51.4965 58.464 51.6912 58.4293 51.9098 58.36C52.1338 58.2907 52.3045 58.176 52.4218 58.016C52.4858 57.9253 52.5658 57.8533 52.6618 57.8C52.7632 57.7467 52.8592 57.72 52.9498 57.72C53.0352 57.72 53.1045 57.7493 53.1578 57.808C53.2112 57.8613 53.2378 57.944 53.2378 58.056C53.1738 58.2267 53.0485 58.4 52.8618 58.576C52.6752 58.7467 52.4378 58.888 52.1498 59C51.8618 59.112 51.5472 59.168 51.2058 59.168ZM50.8618 57.016C51.0485 57.0107 51.2832 56.9813 51.5658 56.928C51.8485 56.8747 52.1045 56.7813 52.3338 56.648C52.5632 56.5093 52.6778 56.328 52.6778 56.104C52.6778 56.04 52.6432 55.9893 52.5738 55.952C52.5045 55.9093 52.4298 55.888 52.3498 55.888C52.1898 55.888 52.0058 55.9493 51.7978 56.072C51.5952 56.1947 51.4058 56.344 51.2298 56.52C51.0538 56.696 50.9312 56.8613 50.8618 57.016Z" fill="#CB5300"/>
</g>
<defs>
<filter id="filter0_dd_240_580" x="0" y="0" width="84" height="84" filterUnits="userSpaceOnUse" color-interpolation-filters="sRGB">
<feFlood flood-opacity="0" result="BackgroundImageFix"/>
<feColorMatrix in="SourceAlpha" type="matrix" values="0 0 0 0 0 0 0 0 0 0 0 0 0 0 0 0 0 0 127 0" result="hardAlpha"/>
<feMorphology radius="2" operator="dilate" in="SourceAlpha" result="effect1_dropShadow_240_580"/>
<feOffset dy="2"/>
<feGaussianBlur stdDeviation="3"/>
<feColorMatrix type="matrix" values="0 0 0 0 0 0 0 0 0 0 0 0 0 0 0 0 0 0 0.15 0"/>
<feBlend mode="normal" in2="BackgroundImageFix" result="effect1_dropShadow_240_580"/>
<feColorMatrix in="SourceAlpha" type="matrix" values="0 0 0 0 0 0 0 0 0 0 0 0 0 0 0 0 0 0 127 0" result="hardAlpha"/>
<feOffset dy="1"/>
<feGaussianBlur stdDeviation="1"/>
<feColorMatrix type="matrix" values="0 0 0 0 0 0 0 0 0 0 0 0 0 0 0 0 0 0 0.3 0"/>
<feBlend mode="normal" in2="effect1_dropShadow_240_580" result="effect2_dropShadow_240_580"/>
<feBlend mode="normal" in="SourceGraphic" in2="effect2_dropShadow_240_580" result="shape"/>
</filter>
</defs>
</svg>
