<svg width="84" height="84" viewBox="0 0 84 84" fill="none" xmlns="http://www.w3.org/2000/svg">
<g filter="url(#filter0_dd_240_552)">
<rect x="8" y="6" width="68" height="68" rx="20" fill="#F9F8F6"/>
<path fill-rule="evenodd" clip-rule="evenodd" d="M38.5726 21.418H39.4431C40.5057 21.418 41.4164 22.1599 41.5936 23.2072C41.8534 24.7431 42.2168 27.4264 42.1874 30.2915C42.1705 32.0078 41.0244 33.5462 39.2225 33.9501C39.0606 33.9861 38.8934 34.0208 38.7221 34.0527L39.6868 42.4127C39.8778 44.0739 38.8219 45.6829 37.166 45.9091C36.9833 45.9357 36.7989 45.9507 36.6146 45.9538H36.6052C36.4482 45.9538 36.2578 45.938 36.0479 45.9097C34.3901 45.6854 33.3322 44.0753 33.5243 42.4127L34.4885 34.0529C34.3211 34.0219 34.1542 33.9878 33.9881 33.9504C32.1856 33.5459 31.0401 32.007 31.0223 30.2912C30.9938 27.4264 31.3558 24.7436 31.6159 23.2078C31.7928 22.1604 32.7046 21.418 33.7663 21.418H34.6379L34.3638 28.0925C34.351 28.4072 34.5961 28.6733 34.9107 28.6864C35.2257 28.6991 35.4918 28.454 35.5046 28.1394L35.7807 21.418H37.4299L37.7057 28.1394C37.7188 28.454 37.9849 28.6991 38.2996 28.6864C38.6145 28.6733 38.8596 28.4072 38.8465 28.0925L38.5726 21.418ZM47.088 21.6079C49.3022 23.2524 52.4357 27.7704 52.747 34.7729C52.7886 35.706 52.319 36.5812 51.4712 36.9749C50.9938 37.1961 50.3484 37.4484 49.5356 37.663L49.5301 37.6644C49.5284 37.6646 49.527 37.6663 49.5273 37.6683L50.2093 42.4405C50.4419 44.0706 49.7604 45.5066 48.1719 45.9438C46.6025 46.3763 44.9464 45.2978 44.9464 43.6688V22.8277C44.9464 22.128 45.3628 21.5907 45.8732 21.4072C46.2444 21.2736 46.6793 21.3046 47.088 21.6079Z" fill="#CB5300"/>
<path d="M23.7859 56.08C24.0045 56.08 24.1645 56.12 24.2659 56.2C24.3725 56.2747 24.4392 56.368 24.4659 56.48C24.4925 56.5867 24.5059 56.7253 24.5059 56.896C24.5059 57.344 24.3832 57.7413 24.1379 58.088C23.8925 58.4293 23.5725 58.696 23.1779 58.888C22.7832 59.0747 22.3645 59.168 21.9219 59.168C21.2819 59.168 20.8125 58.9893 20.5139 58.632C20.2152 58.2747 20.0659 57.8373 20.0659 57.32C20.0659 56.7067 20.2285 56.1227 20.5539 55.568C20.8845 55.008 21.2899 54.56 21.7699 54.224C22.2552 53.8827 22.7112 53.712 23.1379 53.712C23.7352 53.712 24.1672 53.832 24.4339 54.072C24.7005 54.3067 24.8339 54.6507 24.8339 55.104C24.8339 55.264 24.7725 55.4 24.6499 55.512C24.5325 55.624 24.3725 55.68 24.1699 55.68C24.0099 55.68 23.9005 55.6373 23.8419 55.552C23.7885 55.4667 23.7619 55.3573 23.7619 55.224L23.7699 54.968C23.7699 54.872 23.7165 54.7787 23.6099 54.688C23.5032 54.5973 23.4045 54.552 23.3139 54.552C23.0152 54.552 22.6872 54.688 22.3299 54.96C21.9725 55.2267 21.6712 55.5893 21.4259 56.048C21.1805 56.5013 21.0579 56.9947 21.0579 57.528C21.0579 57.7733 21.1539 57.9733 21.3459 58.128C21.5379 58.2827 21.7805 58.36 22.0739 58.36C22.2819 58.36 22.5005 58.2987 22.7299 58.176C22.9592 58.048 23.1512 57.8773 23.3059 57.664C23.4659 57.4453 23.5459 57.2133 23.5459 56.968C23.4712 56.9787 23.3619 57.0027 23.2179 57.04C23.0099 57.0933 22.8312 57.1333 22.6819 57.16C22.5379 57.1867 22.3939 57.2 22.2499 57.2C22.0792 57.2 21.9512 57.1787 21.8659 57.136C21.7859 57.088 21.7459 57.0053 21.7459 56.888C21.7459 56.808 21.7645 56.7147 21.8019 56.608C21.8445 56.5013 21.8952 56.424 21.9539 56.376C22.2205 56.3067 22.5272 56.24 22.8739 56.176C23.2259 56.112 23.5299 56.08 23.7859 56.08ZM28.1223 58.584C28.1329 58.7227 28.1516 58.848 28.1783 58.96C28.1676 58.992 28.1196 59.024 28.0343 59.056C27.9543 59.088 27.8849 59.104 27.8263 59.104C27.6343 59.104 27.4956 59.0747 27.4103 59.016C27.3303 58.9627 27.2903 58.88 27.2903 58.768C27.2903 58.6613 27.3009 58.5547 27.3223 58.448C27.2049 58.608 27.0316 58.7413 26.8023 58.848C26.5783 58.9493 26.3969 59 26.2583 59C25.9009 59 25.6023 58.896 25.3623 58.688C25.1276 58.48 25.0103 58.1467 25.0103 57.688C25.0103 57.256 25.1116 56.8507 25.3143 56.472C25.5223 56.088 25.8076 55.7813 26.1703 55.552C26.5329 55.3173 26.9356 55.2 27.3783 55.2C27.4636 55.2 27.5756 55.224 27.7143 55.272C27.8529 55.3147 27.9916 55.392 28.1303 55.504C28.2743 55.6107 28.3943 55.7493 28.4903 55.92C28.5329 55.92 28.5836 55.9413 28.6423 55.984C28.7009 56.0267 28.7303 56.0693 28.7303 56.112C28.7303 56.16 28.7223 56.208 28.7063 56.256L28.1223 58.584ZM27.7623 56.344C27.7303 56.2267 27.6663 56.128 27.5703 56.048C27.4796 55.968 27.3969 55.928 27.3223 55.928C27.0769 55.928 26.8449 56.016 26.6263 56.192C26.4129 56.3627 26.2396 56.576 26.1063 56.832C25.9729 57.088 25.9062 57.3307 25.9062 57.56C25.9062 57.784 25.9329 57.968 25.9863 58.112C26.0396 58.256 26.1436 58.328 26.2983 58.328C26.4316 58.328 26.5836 58.288 26.7543 58.208C26.9303 58.128 27.0849 58.0213 27.2183 57.888C27.3569 57.7493 27.4476 57.6053 27.4903 57.456L27.7623 56.344ZM31.7219 55.904C31.6579 55.872 31.5779 55.856 31.4819 55.856C31.2419 55.856 31.0019 55.904 30.7619 56C30.5219 56.096 30.4019 56.2187 30.4019 56.368C30.4019 56.4747 30.4499 56.56 30.5459 56.624C30.6419 56.688 30.7939 56.76 31.0019 56.84C31.2259 56.9307 31.4072 57.016 31.5459 57.096C31.6845 57.176 31.8045 57.2933 31.9059 57.448C32.0125 57.5973 32.0659 57.7893 32.0659 58.024C32.0659 58.408 31.9059 58.704 31.5859 58.912C31.2712 59.1147 30.8472 59.216 30.3139 59.216C30.0525 59.216 29.8099 59.176 29.5859 59.096C29.3619 59.016 29.1832 58.9147 29.0499 58.792C28.9219 58.664 28.8525 58.5387 28.8419 58.416C28.8419 58.288 28.8979 58.184 29.0099 58.104C29.1219 58.0187 29.2792 57.9627 29.4819 57.936C29.4872 58.0427 29.5432 58.144 29.6499 58.24C29.7565 58.3307 29.8819 58.4053 30.0259 58.464C30.1752 58.5173 30.3032 58.544 30.4099 58.544C30.5912 58.544 30.7565 58.496 30.9059 58.4C31.0552 58.2987 31.1299 58.1813 31.1299 58.048C31.1299 57.8027 30.8925 57.608 30.4179 57.464C30.1139 57.3733 29.8792 57.2293 29.7139 57.032C29.5539 56.8347 29.4739 56.6267 29.4739 56.408C29.4739 55.976 29.6685 55.6667 30.0579 55.48C30.4525 55.288 30.9539 55.192 31.5619 55.192C31.9032 55.192 32.1672 55.232 32.3539 55.312C32.5405 55.392 32.6339 55.5307 32.6339 55.728C32.6339 55.8613 32.5832 55.9787 32.4819 56.08C32.3859 56.1813 32.2472 56.232 32.0659 56.232C31.9059 56.232 31.8019 56.2213 31.7539 56.2C31.7112 56.1733 31.6872 56.1307 31.6819 56.072C31.6819 56.0187 31.6952 55.9627 31.7219 55.904ZM33.9376 58.104C33.9376 58.2267 33.9589 58.312 34.0016 58.36C34.0442 58.408 34.1242 58.432 34.2416 58.432C34.3962 58.432 34.5242 58.4 34.6256 58.336C34.7322 58.2667 34.8602 58.16 35.0096 58.016C35.0522 57.9733 35.1002 57.952 35.1536 57.952C35.2176 57.952 35.2682 58 35.3056 58.096C35.3429 58.1867 35.3616 58.28 35.3616 58.376C35.3616 58.5093 35.3082 58.64 35.2016 58.768C35.0949 58.896 34.9402 59 34.7376 59.08C34.5349 59.16 34.2976 59.2 34.0256 59.2C33.6629 59.2 33.4042 59.1173 33.2496 58.952C33.1002 58.7867 33.0256 58.5333 33.0256 58.192C33.0256 58.144 33.0496 58.0187 33.0976 57.816C33.1456 57.6133 33.2069 57.3707 33.2816 57.088L33.5056 56.176L33.0176 56.216C32.9536 56.216 32.9056 56.192 32.8736 56.144C32.8416 56.096 32.8256 56.0373 32.8256 55.968C32.8256 55.8347 32.8736 55.7013 32.9696 55.568C32.9802 55.552 33.0336 55.536 33.1296 55.52C33.2256 55.504 33.3429 55.488 33.4816 55.472L33.6976 55.448L33.8816 54.624C33.9349 54.4853 34.0149 54.3787 34.1216 54.304C34.2336 54.224 34.3376 54.184 34.4336 54.184C34.5402 54.184 34.6309 54.216 34.7056 54.28C34.7802 54.344 34.8202 54.4187 34.8256 54.504L34.6256 55.36C34.8336 55.3333 35.0256 55.312 35.2016 55.296C35.3829 55.2747 35.5242 55.264 35.6256 55.264C35.8282 55.264 35.9296 55.3813 35.9296 55.616C35.9296 55.7067 35.8896 55.7893 35.8096 55.864C35.7349 55.9333 35.6522 55.976 35.5616 55.992L34.4416 56.104L33.9376 58.104ZM37.2697 58.696C37.2644 58.7333 37.2538 58.7973 37.2378 58.888C37.2271 58.9787 37.1871 59.0427 37.1178 59.08C37.0538 59.1173 36.9444 59.136 36.7898 59.136C36.6138 59.136 36.4831 59.1173 36.3978 59.08C36.3124 59.0427 36.2671 58.9627 36.2618 58.84C36.3044 58.6267 36.3738 58.248 36.4698 57.704C36.5018 57.5227 36.5524 57.2507 36.6217 56.888C36.6911 56.52 36.7444 56.2533 36.7818 56.088C36.8351 55.7093 36.9098 55.4613 37.0058 55.344C37.1018 55.2213 37.2191 55.16 37.3578 55.16C37.5444 55.16 37.6671 55.1867 37.7258 55.24C37.7898 55.2933 37.8244 55.3627 37.8298 55.448L37.7658 55.92C37.9258 55.712 38.1151 55.5413 38.3338 55.408C38.5524 55.2693 38.7498 55.2 38.9258 55.2C39.1604 55.2 39.3444 55.2427 39.4778 55.328C39.6111 55.408 39.6778 55.512 39.6778 55.64C39.6778 55.736 39.6191 55.8107 39.5018 55.864C39.3898 55.9173 39.2404 55.952 39.0538 55.968C38.7604 55.9947 38.4698 56.12 38.1818 56.344C37.8938 56.568 37.6858 56.832 37.5578 57.136L37.2697 58.696ZM41.071 59.08C40.6017 59.08 40.2363 58.92 39.975 58.6C39.7137 58.28 39.583 57.872 39.583 57.376C39.583 56.96 39.671 56.5787 39.847 56.232C40.0283 55.8853 40.279 55.6133 40.599 55.416C40.9243 55.2133 41.295 55.112 41.711 55.112C42.175 55.112 42.487 55.152 42.647 55.232C42.695 55.2533 42.7377 55.288 42.775 55.336C42.8123 55.3787 42.831 55.4213 42.831 55.464C42.831 55.5173 42.8177 55.5733 42.791 55.632C42.7697 55.6907 42.735 55.736 42.687 55.768C42.8097 55.7787 42.9137 55.84 42.999 55.952C43.0843 56.0587 43.1483 56.184 43.191 56.328C43.2337 56.472 43.255 56.5973 43.255 56.704C43.255 57.0827 43.1617 57.456 42.975 57.824C42.7937 58.192 42.5377 58.4933 42.207 58.728C41.8763 58.9627 41.4977 59.08 41.071 59.08ZM41.191 58.416C41.3617 58.416 41.535 58.3333 41.711 58.168C41.8923 57.9973 42.0417 57.7733 42.159 57.496C42.2763 57.2187 42.335 56.928 42.335 56.624C42.335 56.5653 42.3137 56.512 42.271 56.464C42.2337 56.416 42.1803 56.3653 42.111 56.312C42.0737 56.2853 42.039 56.2587 42.007 56.232C41.9803 56.2 41.967 56.1707 41.967 56.144C41.967 56.1227 41.9723 56.0933 41.983 56.056C41.999 56.0187 42.007 55.992 42.007 55.976C42.007 55.896 41.9083 55.856 41.711 55.856C41.4923 55.856 41.2897 55.944 41.103 56.12C40.9217 56.296 40.7777 56.52 40.671 56.792C40.5697 57.064 40.519 57.3307 40.519 57.592C40.519 57.7467 40.5537 57.888 40.623 58.016C40.6923 58.1387 40.7777 58.2373 40.879 58.312C40.9857 58.3813 41.0897 58.416 41.191 58.416ZM44.1015 55.344C44.0855 55.328 44.0775 55.3093 44.0775 55.288C44.0775 55.2347 44.1362 55.192 44.2535 55.16C44.3708 55.1227 44.5335 55.104 44.7415 55.104C44.9335 55.104 45.0748 55.1547 45.1655 55.256C45.2562 55.352 45.3095 55.4693 45.3255 55.608L45.1815 56.128C45.2935 55.9733 45.4508 55.8267 45.6535 55.688C45.8562 55.544 46.0615 55.4293 46.2695 55.344C46.4775 55.2587 46.6482 55.216 46.7815 55.216C47.0642 55.216 47.2695 55.2693 47.3975 55.376C47.5255 55.4773 47.5895 55.64 47.5895 55.864C47.2748 56.6853 47.0668 57.5707 46.9655 58.52L47.0775 58.912C47.0135 59.0347 46.9228 59.1307 46.8055 59.2C46.6935 59.2747 46.5282 59.312 46.3095 59.312C46.1815 59.312 46.0882 59.2693 46.0295 59.184C45.9708 59.0987 45.9415 58.992 45.9415 58.864C45.9415 58.5067 45.9922 58.1147 46.0935 57.688C46.2002 57.256 46.3228 56.816 46.4615 56.368C46.5148 56.1973 46.5415 56.1093 46.5415 56.104C46.5415 56.0293 46.4988 55.992 46.4135 55.992C46.2962 55.992 46.1175 56.0747 45.8775 56.24C45.6428 56.4053 45.4002 56.6853 45.1495 57.08C44.8988 57.4693 44.6962 57.9813 44.5415 58.616C44.5308 58.648 44.5175 58.7067 44.5015 58.792C44.4855 58.8773 44.4428 58.9387 44.3735 58.976C44.3042 59.008 44.1922 59.024 44.0375 59.024C43.8615 59.024 43.7308 59.0053 43.6455 58.968C43.5655 58.9307 43.5255 58.8507 43.5255 58.728C43.5415 58.6533 43.5655 58.5627 43.5975 58.456C43.9068 57.2133 44.1442 56.256 44.3095 55.584L44.1015 55.344ZM49.47 59.08C49.1553 59.08 48.8833 59.0053 48.654 58.856C48.4247 58.7067 48.2487 58.504 48.126 58.248C48.0087 57.992 47.95 57.7013 47.95 57.376C47.95 56.9493 48.0327 56.5653 48.198 56.224C48.3687 55.8773 48.6087 55.6053 48.918 55.408C49.2273 55.2107 49.5873 55.112 49.998 55.112C50.4513 55.112 50.758 55.152 50.918 55.232C50.9607 55.2533 51.0007 55.288 51.038 55.336C51.0807 55.3787 51.1047 55.4213 51.11 55.464C51.0993 55.608 51.0513 55.7093 50.966 55.768C51.0887 55.7787 51.19 55.84 51.27 55.952C51.3553 56.064 51.4193 56.1947 51.462 56.344C51.5047 56.488 51.526 56.6187 51.526 56.736C51.526 57.1147 51.4433 57.4853 51.278 57.848C51.1127 58.2053 50.8727 58.5013 50.558 58.736C50.2487 58.9653 49.886 59.08 49.47 59.08ZM49.582 58.416C49.7527 58.416 49.9153 58.3333 50.07 58.168C50.23 58.0027 50.358 57.784 50.454 57.512C50.5553 57.2347 50.606 56.9387 50.606 56.624C50.606 56.5653 50.5873 56.512 50.55 56.464C50.5127 56.416 50.4593 56.3653 50.39 56.312C50.3793 56.3067 50.3527 56.2853 50.31 56.248C50.2727 56.2107 50.254 56.176 50.254 56.144C50.254 56.1227 50.2593 56.0933 50.27 56.056C50.2807 56.0133 50.286 55.984 50.286 55.968C50.286 55.8933 50.1927 55.856 50.006 55.856C49.7873 55.856 49.5927 55.944 49.422 56.12C49.2567 56.2907 49.126 56.512 49.03 56.784C48.9393 57.0507 48.894 57.32 48.894 57.592C48.894 57.7467 48.9287 57.888 48.998 58.016C49.0727 58.1387 49.1633 58.2373 49.27 58.312C49.3767 58.3813 49.4807 58.416 49.582 58.416ZM52.5029 55.584C52.5189 55.4667 52.5376 55.376 52.5589 55.312C52.5803 55.248 52.6203 55.1973 52.6789 55.16C52.7429 55.1227 52.8363 55.104 52.9589 55.104C53.1456 55.104 53.2709 55.1573 53.3349 55.264C53.3989 55.3653 53.4389 55.4987 53.4549 55.664C53.4443 55.712 53.4363 55.752 53.4309 55.784C53.4309 55.816 53.4256 55.8533 53.4149 55.896C53.5963 55.6827 53.7696 55.52 53.9349 55.408C54.1056 55.296 54.3029 55.24 54.5269 55.24C54.7776 55.24 54.9803 55.3067 55.1349 55.44C55.2949 55.568 55.3883 55.72 55.4149 55.896C55.5643 55.656 55.7536 55.488 55.9829 55.392C56.2123 55.2907 56.4469 55.24 56.6869 55.24C56.9963 55.24 57.2149 55.3147 57.3429 55.464C57.4763 55.6133 57.5429 55.8053 57.5429 56.04C57.5429 56.1147 57.5323 56.2213 57.5109 56.36C57.3723 57.0693 57.2309 57.8107 57.0869 58.584C57.0496 58.776 57.0096 58.92 56.9669 59.016C56.9243 59.1173 56.8603 59.192 56.7749 59.24C56.6896 59.288 56.5669 59.312 56.4069 59.312C56.2789 59.312 56.1856 59.2693 56.1269 59.184C56.0683 59.0987 56.0389 58.992 56.0389 58.864C56.0389 58.8213 56.0443 58.7627 56.0549 58.688C56.1296 58.2933 56.2229 57.848 56.3349 57.352C56.3456 57.304 56.3829 57.1387 56.4469 56.856C56.5109 56.5733 56.5429 56.392 56.5429 56.312C56.5429 56.2 56.5189 56.1227 56.4709 56.08C56.4229 56.032 56.3669 56.008 56.3029 56.008C56.1696 56.008 56.0016 56.0667 55.7989 56.184C55.6016 56.3013 55.4629 56.408 55.3829 56.504C55.2976 56.776 55.1483 57.3813 54.9349 58.32C54.9083 58.432 54.8923 58.528 54.8869 58.608C54.8656 58.7253 54.8443 58.808 54.8229 58.856C54.8016 58.904 54.7589 58.9387 54.6949 58.96C54.6309 58.9813 54.5269 58.992 54.3829 58.992C54.0149 58.992 53.8309 58.9173 53.8309 58.768C53.8629 58.688 53.9136 58.504 53.9829 58.216C54.0523 57.9227 54.1029 57.7173 54.1349 57.6C54.2309 57.1787 54.3456 56.712 54.4789 56.2C54.4789 56.152 54.4576 56.112 54.4149 56.08C54.3723 56.048 54.3243 56.032 54.2709 56.032C54.0789 56.032 53.8816 56.112 53.6789 56.272C53.4816 56.432 53.3296 56.6027 53.2229 56.784C53.1483 57.072 53.0629 57.3973 52.9669 57.76C52.8763 58.1173 52.8069 58.4053 52.7589 58.624C52.7269 58.7733 52.6736 58.8773 52.5989 58.936C52.5243 58.9947 52.3963 59.024 52.2149 59.024C52.0603 59.024 51.9429 59.0053 51.8629 58.968C51.7829 58.9253 51.7429 58.8453 51.7429 58.728C51.7429 58.6693 51.8096 58.3573 51.9429 57.792C52.0816 57.2267 52.2683 56.4907 52.5029 55.584ZM58.9316 54.248C58.9316 54.0827 58.9822 53.936 59.0836 53.808C59.1902 53.68 59.3369 53.616 59.5236 53.616C59.7209 53.616 59.8916 53.6773 60.0356 53.8C60.1849 53.9227 60.2596 54.0613 60.2596 54.216C60.2596 54.3707 60.1849 54.504 60.0356 54.616C59.8862 54.728 59.7129 54.784 59.5156 54.784C59.3236 54.784 59.1769 54.736 59.0756 54.64C58.9796 54.5387 58.9316 54.408 58.9316 54.248ZM59.7716 55.664C59.4889 56.816 59.2729 57.6827 59.1236 58.264C59.1022 58.3493 59.0916 58.4427 59.0916 58.544L59.0996 58.768C59.0996 58.8587 59.0702 58.9227 59.0116 58.96C58.9582 58.9973 58.8409 59.0187 58.6596 59.024C58.4836 59.024 58.3502 59.0053 58.2596 58.968C58.1689 58.9307 58.1236 58.8507 58.1236 58.728C58.1236 58.6693 58.1902 58.3573 58.3236 57.792C58.4622 57.2267 58.6489 56.4907 58.8836 55.584L58.6996 55.344C58.6836 55.328 58.6756 55.3093 58.6756 55.288C58.6756 55.2347 58.7342 55.192 58.8516 55.16C58.9689 55.1227 59.1316 55.104 59.3396 55.104C59.5209 55.104 59.6356 55.1573 59.6836 55.264C59.7369 55.3653 59.7662 55.4987 59.7716 55.664ZM63.4065 58.864C63.3692 58.96 63.2812 59.024 63.1425 59.056C63.0092 59.0933 62.8918 59.112 62.7905 59.112C62.6945 59.112 62.6305 59.088 62.5985 59.04C62.5718 58.9973 62.5478 58.9307 62.5265 58.84C62.5052 58.7493 62.4918 58.688 62.4865 58.656C62.2572 58.8107 62.0225 58.928 61.7825 59.008C61.5478 59.0933 61.3505 59.136 61.1905 59.136C61.0518 59.136 60.8945 59.0907 60.7185 59C60.5478 58.9093 60.4012 58.7867 60.2785 58.632C60.1558 58.4773 60.0945 58.3067 60.0945 58.12C60.0945 57.8213 60.1932 57.44 60.3905 56.976C60.5878 56.512 60.8652 56.1067 61.2225 55.76C61.5852 55.4133 62.0065 55.24 62.4865 55.24C62.9078 55.24 63.2838 55.3067 63.6145 55.44C63.9452 55.5733 64.1105 55.7627 64.1105 56.008C63.9612 56.2853 63.7985 56.7013 63.6225 57.256C63.4518 57.8107 63.3665 58.2213 63.3665 58.488C63.3665 58.664 63.3798 58.7893 63.4065 58.864ZM62.5025 57.984C62.5452 57.7493 62.6172 57.472 62.7185 57.152C62.8252 56.8267 62.9665 56.5013 63.1425 56.176C63.1158 56.0693 63.0305 56 62.8865 55.968C62.7478 55.9307 62.6225 55.912 62.5105 55.912C62.3132 55.912 62.0998 56.0453 61.8705 56.312C61.6412 56.5787 61.4438 56.8907 61.2785 57.248C61.1185 57.6 61.0385 57.8853 61.0385 58.104C61.0385 58.2107 61.0678 58.288 61.1265 58.336C61.1852 58.3787 61.2598 58.4 61.3505 58.4C61.4732 58.4 61.6678 58.3547 61.9345 58.264C62.2065 58.168 62.3958 58.0747 62.5025 57.984Z" fill="#CB5300"/>
</g>
<defs>
<filter id="filter0_dd_240_552" x="0" y="0" width="84" height="84" filterUnits="userSpaceOnUse" color-interpolation-filters="sRGB">
<feFlood flood-opacity="0" result="BackgroundImageFix"/>
<feColorMatrix in="SourceAlpha" type="matrix" values="0 0 0 0 0 0 0 0 0 0 0 0 0 0 0 0 0 0 127 0" result="hardAlpha"/>
<feMorphology radius="2" operator="dilate" in="SourceAlpha" result="effect1_dropShadow_240_552"/>
<feOffset dy="2"/>
<feGaussianBlur stdDeviation="3"/>
<feColorMatrix type="matrix" values="0 0 0 0 0 0 0 0 0 0 0 0 0 0 0 0 0 0 0.15 0"/>
<feBlend mode="normal" in2="BackgroundImageFix" result="effect1_dropShadow_240_552"/>
<feColorMatrix in="SourceAlpha" type="matrix" values="0 0 0 0 0 0 0 0 0 0 0 0 0 0 0 0 0 0 127 0" result="hardAlpha"/>
<feOffset dy="1"/>
<feGaussianBlur stdDeviation="1"/>
<feColorMatrix type="matrix" values="0 0 0 0 0 0 0 0 0 0 0 0 0 0 0 0 0 0 0.3 0"/>
<feBlend mode="normal" in2="effect1_dropShadow_240_552" result="effect2_dropShadow_240_552"/>
<feBlend mode="normal" in="SourceGraphic" in2="effect2_dropShadow_240_552" result="shape"/>
</filter>
</defs>
</svg>
