<svg width="84" height="84" viewBox="0 0 84 84" fill="none" xmlns="http://www.w3.org/2000/svg">
<g filter="url(#filter0_dd_240_515)">
<rect x="8" y="6" width="68" height="68" rx="20" fill="#F9F8F6"/>
<path fill-rule="evenodd" clip-rule="evenodd" d="M39.7693 30.5826C39.5079 30.1784 39.3557 29.6983 39.3557 29.1857C39.3557 28.8123 39.4364 28.4563 39.5814 28.1342C39.9875 27.2307 40.8988 26.5947 41.9464 26.5947C42.9946 26.5947 43.9058 27.2309 44.312 28.135C44.4567 28.4568 44.5374 28.8125 44.5374 29.1857C44.5374 29.782 44.3314 30.3342 43.9871 30.7742C43.5114 31.3824 42.7712 31.7764 41.9464 31.7764C41.0379 31.7764 40.2323 31.2984 39.7693 30.5826ZM44.0586 24.9613C44.0586 23.2231 45.4888 21.7928 47.227 21.7928C48.965 21.7928 50.3955 23.2231 50.3955 24.9613C50.3955 26.6992 48.965 28.1294 47.227 28.1294C45.4888 28.1294 44.0586 26.6992 44.0586 24.9613ZM39.8342 24.9613C39.8342 26.6992 38.404 28.1294 36.666 28.1294C34.9278 28.1294 33.4976 26.6992 33.4976 24.9613C33.4976 23.2231 34.9278 21.7928 36.666 21.7928C38.404 21.7928 39.8342 23.2231 39.8342 24.9613ZM49.0642 28.2198C49.3661 28.2312 49.6547 28.2439 49.9258 28.2581C51.2161 28.3263 52.2792 29.2877 52.511 30.614C52.7184 31.8005 52.9393 33.3654 53.0325 35.0418C53.0851 35.9886 52.4816 36.8158 51.5787 36.9259C51.2945 36.9605 50.9721 36.9907 50.6131 37.0107L50.1862 42.1278C50.1091 43.0518 49.4751 43.8191 48.5899 43.9045C48.1882 43.9431 47.7172 43.9711 47.1927 43.9711C46.6521 43.9711 46.168 43.9414 45.7586 43.9009C45.5462 43.8799 45.1983 43.8194 44.8429 43.7268C45.0976 43.4061 45.2584 43.0049 45.2906 42.5688L45.4625 40.2415C45.5703 40.236 45.6735 40.2304 45.7719 40.2246C46.9396 40.157 47.7948 39.1479 47.6811 37.9838C47.5334 36.4679 47.331 35.1488 47.1586 34.1791C46.9279 32.8817 45.8886 31.928 44.5778 31.8412C45.2645 31.1606 45.6923 30.2192 45.6923 29.1857C45.6923 28.8904 45.6574 28.6029 45.5917 28.3268C46.0871 28.5702 46.6424 28.7072 47.227 28.7072C47.8927 28.7072 48.52 28.5295 49.0642 28.2198ZM38.3014 28.3268C38.2354 28.6029 38.2005 28.8904 38.2005 29.1857C38.2005 30.2192 38.6285 31.1609 39.3152 31.8412C38.0045 31.928 36.9654 32.8817 36.7348 34.1791C36.5626 35.1486 36.36 36.4676 36.2122 37.9838C36.0986 39.1479 36.9538 40.157 38.1215 40.2246C38.2199 40.2304 38.3228 40.236 38.4306 40.2415L38.6025 42.5688C38.6344 42.9997 38.7918 43.3967 39.0413 43.7152C38.699 43.8144 38.3555 43.879 38.1342 43.9009C37.7251 43.9414 37.241 43.9711 36.7004 43.9711C36.1759 43.9711 35.7049 43.9431 35.3032 43.9045C34.418 43.8191 33.784 43.0518 33.7069 42.1278L33.28 37.0107C32.921 36.9907 32.5986 36.9605 32.3144 36.9259C31.4112 36.8158 30.8079 35.9886 30.8606 35.0418C30.9538 33.3654 31.1747 31.8005 31.3821 30.614C31.6138 29.2877 32.677 28.3263 33.9672 28.2581C34.2409 28.2437 34.5292 28.2309 34.828 28.2195C35.3725 28.5295 36.0001 28.7072 36.666 28.7072C37.2507 28.7072 37.806 28.5702 38.3014 28.3268ZM40.11 43.158C39.9057 43.0052 39.7746 42.7571 39.7546 42.4837L39.5451 39.646C39.5234 39.3536 39.2861 39.1237 38.9931 39.1115C38.6956 39.0991 38.4275 39.0852 38.1883 39.0713C37.6813 39.042 37.3125 38.6014 37.3619 38.0961C37.506 36.6157 37.704 35.3279 37.8723 34.3812C38.0098 33.6075 38.6288 33.0347 39.4136 32.9926C39.5456 32.9856 39.6859 32.9787 39.8342 32.9726C40.4103 32.9482 41.1111 32.9316 41.9464 32.9316C42.7196 32.9316 43.3774 32.946 43.9277 32.9673C44.1254 32.9748 44.3092 32.9834 44.4797 32.9926C45.2645 33.0347 45.8836 33.6075 46.0211 34.3812C46.1896 35.3279 46.387 36.6159 46.5315 38.0961C46.5808 38.6014 46.2121 39.042 45.7051 39.0713C45.4658 39.0852 45.1974 39.0991 44.9 39.1115C44.607 39.1237 44.3699 39.3536 44.3483 39.646L44.1387 42.4837C44.1157 42.7937 43.9505 43.0709 43.6974 43.214C43.607 43.2652 43.5053 43.2991 43.3946 43.3113C42.9802 43.3567 42.4803 43.3936 41.9467 43.3936C41.4127 43.3936 40.9129 43.3567 40.4987 43.3113C40.3518 43.2952 40.2201 43.2403 40.11 43.158Z" fill="#CB5300"/>
<path d="M35.4421 56.08C35.6608 56.08 35.8208 56.12 35.9221 56.2C36.0288 56.2747 36.0955 56.368 36.1221 56.48C36.1488 56.5867 36.1621 56.7253 36.1621 56.896C36.1621 57.344 36.0395 57.7413 35.7941 58.088C35.5488 58.4293 35.2288 58.696 34.8341 58.888C34.4395 59.0747 34.0208 59.168 33.5781 59.168C32.9381 59.168 32.4688 58.9893 32.1701 58.632C31.8715 58.2747 31.7221 57.8373 31.7221 57.32C31.7221 56.7067 31.8848 56.1227 32.2101 55.568C32.5408 55.008 32.9461 54.56 33.4261 54.224C33.9115 53.8827 34.3675 53.712 34.7941 53.712C35.3915 53.712 35.8235 53.832 36.0901 54.072C36.3568 54.3067 36.4901 54.6507 36.4901 55.104C36.4901 55.264 36.4288 55.4 36.3061 55.512C36.1888 55.624 36.0288 55.68 35.8261 55.68C35.6661 55.68 35.5568 55.6373 35.4981 55.552C35.4448 55.4667 35.4181 55.3573 35.4181 55.224L35.4261 54.968C35.4261 54.872 35.3728 54.7787 35.2661 54.688C35.1595 54.5973 35.0608 54.552 34.9701 54.552C34.6715 54.552 34.3435 54.688 33.9861 54.96C33.6288 55.2267 33.3275 55.5893 33.0821 56.048C32.8368 56.5013 32.7141 56.9947 32.7141 57.528C32.7141 57.7733 32.8101 57.9733 33.0021 58.128C33.1941 58.2827 33.4368 58.36 33.7301 58.36C33.9381 58.36 34.1568 58.2987 34.3861 58.176C34.6155 58.048 34.8075 57.8773 34.9621 57.664C35.1221 57.4453 35.2021 57.2133 35.2021 56.968C35.1275 56.9787 35.0181 57.0027 34.8741 57.04C34.6661 57.0933 34.4875 57.1333 34.3381 57.16C34.1941 57.1867 34.0501 57.2 33.9061 57.2C33.7355 57.2 33.6075 57.1787 33.5221 57.136C33.4421 57.088 33.4021 57.0053 33.4021 56.888C33.4021 56.808 33.4208 56.7147 33.4581 56.608C33.5008 56.5013 33.5515 56.424 33.6101 56.376C33.8768 56.3067 34.1835 56.24 34.5301 56.176C34.8821 56.112 35.1861 56.08 35.4421 56.08ZM37.6505 58.696C37.6452 58.728 37.6318 58.792 37.6105 58.888C37.5945 58.9787 37.5492 59.0427 37.4745 59.08C37.4052 59.1173 37.2932 59.136 37.1385 59.136C36.9625 59.136 36.8345 59.1173 36.7545 59.08C36.6745 59.0427 36.6345 58.9627 36.6345 58.84L37.0185 57.312C37.2318 56.432 37.3732 55.872 37.4425 55.632L37.2425 55.392C37.2265 55.376 37.2185 55.3573 37.2185 55.336C37.2185 55.2827 37.2772 55.24 37.3945 55.208C37.5118 55.1707 37.6745 55.152 37.8825 55.152C38.0692 55.152 38.1945 55.2053 38.2585 55.312C38.3225 55.4133 38.3625 55.5467 38.3785 55.712L38.3225 55.92C38.4932 55.712 38.6905 55.5413 38.9145 55.408C39.1438 55.2693 39.3465 55.2 39.5225 55.2C39.7518 55.2 39.9305 55.24 40.0585 55.32C40.1865 55.4 40.2505 55.504 40.2505 55.632C40.2505 55.744 40.2105 55.8613 40.1305 55.984C40.0558 56.1013 39.9598 56.2027 39.8425 56.288C39.7252 56.368 39.6105 56.4133 39.4985 56.424C39.3918 56.424 39.3198 56.4107 39.2825 56.384C39.2452 56.3573 39.2265 56.3173 39.2265 56.264L39.2745 56C38.8478 56.1173 38.4612 56.4 38.1145 56.848L37.6505 58.696ZM43.1958 58.976C43.1744 59.0667 43.1264 59.128 43.0518 59.16C42.9771 59.1973 42.8784 59.216 42.7558 59.216C42.3878 59.216 42.2038 59.1333 42.2038 58.968L42.2518 58.664C42.1024 58.776 41.9264 58.888 41.7238 59C41.5211 59.112 41.3531 59.168 41.2198 59.168C40.4304 59.168 40.0358 58.9093 40.0358 58.392C40.0358 57.512 40.2998 56.5573 40.8278 55.528C40.8918 55.4053 40.9584 55.3173 41.0278 55.264C41.1024 55.2107 41.2278 55.184 41.4038 55.184C41.5904 55.184 41.7291 55.2107 41.8198 55.264C41.9158 55.312 41.9638 55.3707 41.9638 55.44C41.9638 55.456 41.9344 55.504 41.8758 55.584C41.8171 55.6533 41.7664 55.7227 41.7238 55.792C41.2224 56.6293 40.9718 57.4453 40.9718 58.24C40.9718 58.3093 40.9984 58.3707 41.0518 58.424C41.1051 58.4773 41.1531 58.504 41.1958 58.504C41.3131 58.504 41.5104 58.448 41.7878 58.336C42.0704 58.224 42.2864 58.1093 42.4358 57.992L42.5958 57.344C42.7878 56.5707 42.9078 56.096 42.9558 55.92C43.0144 55.7067 43.0891 55.5333 43.1798 55.4C43.2758 55.2613 43.4251 55.192 43.6278 55.192C43.9104 55.192 44.0518 55.2773 44.0518 55.448C44.0518 55.4747 44.0438 55.5093 44.0278 55.552C44.0171 55.5893 44.0091 55.6213 44.0038 55.648L43.6838 56.944C43.4278 57.9733 43.2651 58.6507 43.1958 58.976ZM45.1808 58.648C45.1755 58.68 45.1035 58.9707 44.9648 59.52C44.8315 60.0747 44.7381 60.424 44.6848 60.568C44.6635 60.6267 44.5995 60.6693 44.4928 60.696C44.3861 60.728 44.3088 60.744 44.2608 60.744C44.0208 60.744 43.8928 60.5973 43.8768 60.304C43.9781 59.696 44.1488 58.8773 44.3888 57.848C44.6288 56.8133 44.8368 55.968 45.0128 55.312C45.0235 55.232 45.0715 55.1547 45.1568 55.08C45.2475 55 45.3275 54.96 45.3968 54.96C45.5195 54.96 45.6208 54.9973 45.7008 55.072C45.7861 55.1413 45.8368 55.2427 45.8528 55.376C46.0661 55.232 46.3115 55.16 46.5888 55.16C46.8875 55.16 47.1595 55.2267 47.4048 55.36C47.6501 55.488 47.8421 55.6747 47.9808 55.92C48.1248 56.1653 48.1968 56.4507 48.1968 56.776C48.1968 57.176 48.1195 57.5547 47.9648 57.912C47.8101 58.2693 47.5781 58.56 47.2688 58.784C46.9595 59.008 46.5861 59.12 46.1488 59.12C46.0101 59.12 45.8315 59.0747 45.6128 58.984C45.3941 58.888 45.2501 58.776 45.1808 58.648ZM45.4288 57.632C45.4181 57.696 45.4128 57.7413 45.4128 57.768C45.4181 57.9013 45.4608 58.0187 45.5408 58.12C45.6261 58.2213 45.7248 58.3013 45.8368 58.36C45.9488 58.4133 46.0421 58.44 46.1168 58.44C46.3515 58.44 46.5568 58.3573 46.7328 58.192C46.9141 58.0267 47.0528 57.8187 47.1488 57.568C47.2448 57.3173 47.2928 57.072 47.2928 56.832C47.2928 56.5173 47.2128 56.28 47.0528 56.12C46.8928 55.9547 46.6955 55.872 46.4608 55.872C46.3381 55.872 46.2155 55.896 46.0928 55.944C45.9755 55.992 45.8715 56.064 45.7808 56.16L45.4288 57.632ZM50.0554 59.08C49.586 59.08 49.2207 58.92 48.9594 58.6C48.698 58.28 48.5674 57.872 48.5674 57.376C48.5674 56.96 48.6554 56.5787 48.8314 56.232C49.0127 55.8853 49.2634 55.6133 49.5834 55.416C49.9087 55.2133 50.2794 55.112 50.6954 55.112C51.1594 55.112 51.4714 55.152 51.6314 55.232C51.6794 55.2533 51.722 55.288 51.7594 55.336C51.7967 55.3787 51.8154 55.4213 51.8154 55.464C51.8154 55.5173 51.802 55.5733 51.7754 55.632C51.754 55.6907 51.7194 55.736 51.6714 55.768C51.794 55.7787 51.898 55.84 51.9834 55.952C52.0687 56.0587 52.1327 56.184 52.1754 56.328C52.218 56.472 52.2394 56.5973 52.2394 56.704C52.2394 57.0827 52.146 57.456 51.9594 57.824C51.778 58.192 51.522 58.4933 51.1914 58.728C50.8607 58.9627 50.482 59.08 50.0554 59.08ZM50.1754 58.416C50.346 58.416 50.5194 58.3333 50.6954 58.168C50.8767 57.9973 51.026 57.7733 51.1434 57.496C51.2607 57.2187 51.3194 56.928 51.3194 56.624C51.3194 56.5653 51.298 56.512 51.2554 56.464C51.218 56.416 51.1647 56.3653 51.0954 56.312C51.058 56.2853 51.0234 56.2587 50.9914 56.232C50.9647 56.2 50.9514 56.1707 50.9514 56.144C50.9514 56.1227 50.9567 56.0933 50.9674 56.056C50.9834 56.0187 50.9914 55.992 50.9914 55.976C50.9914 55.896 50.8927 55.856 50.6954 55.856C50.4767 55.856 50.274 55.944 50.0874 56.12C49.906 56.296 49.762 56.52 49.6554 56.792C49.554 57.064 49.5034 57.3307 49.5034 57.592C49.5034 57.7467 49.538 57.888 49.6074 58.016C49.6767 58.1387 49.762 58.2373 49.8634 58.312C49.97 58.3813 50.074 58.416 50.1754 58.416Z" fill="#CB5300"/>
</g>
<defs>
<filter id="filter0_dd_240_515" x="0" y="0" width="84" height="84" filterUnits="userSpaceOnUse" color-interpolation-filters="sRGB">
<feFlood flood-opacity="0" result="BackgroundImageFix"/>
<feColorMatrix in="SourceAlpha" type="matrix" values="0 0 0 0 0 0 0 0 0 0 0 0 0 0 0 0 0 0 127 0" result="hardAlpha"/>
<feMorphology radius="2" operator="dilate" in="SourceAlpha" result="effect1_dropShadow_240_515"/>
<feOffset dy="2"/>
<feGaussianBlur stdDeviation="3"/>
<feColorMatrix type="matrix" values="0 0 0 0 0 0 0 0 0 0 0 0 0 0 0 0 0 0 0.15 0"/>
<feBlend mode="normal" in2="BackgroundImageFix" result="effect1_dropShadow_240_515"/>
<feColorMatrix in="SourceAlpha" type="matrix" values="0 0 0 0 0 0 0 0 0 0 0 0 0 0 0 0 0 0 127 0" result="hardAlpha"/>
<feOffset dy="1"/>
<feGaussianBlur stdDeviation="1"/>
<feColorMatrix type="matrix" values="0 0 0 0 0 0 0 0 0 0 0 0 0 0 0 0 0 0 0.3 0"/>
<feBlend mode="normal" in2="effect1_dropShadow_240_515" result="effect2_dropShadow_240_515"/>
<feBlend mode="normal" in="SourceGraphic" in2="effect2_dropShadow_240_515" result="shape"/>
</filter>
</defs>
</svg>
