<svg width="84" height="84" viewBox="0 0 84 84" fill="none" xmlns="http://www.w3.org/2000/svg">
<g filter="url(#filter0_dd_240_310)">
<rect x="8" y="6" width="68" height="68" rx="20" fill="#F9F8F6"/>
<path fill-rule="evenodd" clip-rule="evenodd" d="M36.1948 26.5253C36.5774 25.5606 37.4165 24.9213 38.4536 24.967C39.6962 25.0219 42.0509 25.3255 46.2834 26.4593C50.5155 27.5935 52.7067 28.5083 53.8101 29.0819C54.7313 29.5607 55.1386 30.534 54.9872 31.5609C54.812 32.7494 54.4724 34.6927 53.8733 36.9288C52.7117 41.2641 49.3309 44.7018 44.9446 45.6529C43.4448 45.9781 42.0241 46.1084 41.0859 45.857C40.1475 45.6055 38.9823 44.7822 37.846 43.7509C34.5228 40.7341 33.3141 36.0664 34.4757 31.7311C35.0748 29.4953 35.7523 27.6423 36.1948 26.5253ZM43.5446 31.8625C43.5446 31.8625 42.8599 30.1551 40.7585 30.1551C38.6568 30.1551 37.9721 31.8625 37.9721 31.8625C37.8496 32.1566 37.989 32.4951 38.2831 32.6177C38.5776 32.7405 38.9158 32.601 39.0386 32.3066C39.0386 32.3066 39.4799 31.3103 40.7585 31.3103C42.0368 31.3103 42.4784 32.3069 42.4784 32.3069C42.6012 32.601 42.9395 32.7405 43.2339 32.6177C43.528 32.4951 43.6675 32.1566 43.5446 31.8625ZM46.6546 33.4261C46.6546 33.4261 47.5353 32.7837 48.6426 33.423C49.7496 34.0623 49.634 35.146 49.634 35.146C49.5929 35.4623 49.8164 35.752 50.1324 35.793C50.4484 35.8341 50.7384 35.6106 50.7795 35.2943C50.7795 35.2943 51.0401 33.4735 49.2201 32.4228C47.4001 31.3718 45.9535 32.5082 45.9535 32.5082C45.7001 32.7017 45.6516 33.0643 45.8451 33.3177C46.0386 33.5711 46.4012 33.6196 46.6546 33.4261ZM46.7716 38.585C46.1126 39.4172 45.0941 40.1527 44.1024 40.5328C43.5081 40.7607 42.9267 40.868 42.4563 40.7418C41.9858 40.6157 41.5361 40.2323 41.135 39.7377C40.4663 38.9127 39.9521 37.7666 39.7976 36.7162C39.7511 36.401 39.4575 36.1826 39.1423 36.2288C38.8268 36.2751 38.6083 36.569 38.6546 36.8842C38.8376 38.1287 39.4456 39.4877 40.2376 40.4652C40.8106 41.1718 41.4851 41.6775 42.1574 41.8577C42.8297 42.0379 43.6663 41.9372 44.5161 41.6115C45.6907 41.161 46.8966 40.2883 47.6773 39.3019C47.8752 39.0521 47.8328 38.6884 47.583 38.4907C47.333 38.2928 46.9695 38.3349 46.7716 38.585Z" fill="#CB5300"/>
<path fill-rule="evenodd" clip-rule="evenodd" d="M33.0382 36.9923C33.0454 37.0381 33.0298 37.0843 32.9968 37.1168C32.9639 37.1492 32.917 37.1636 32.8715 37.1556C32.7659 37.129 32.6647 37.078 32.5827 36.999C30.2456 34.7468 28.9158 31.5578 28.9119 28.205C28.9091 25.8902 29.0818 23.9249 29.2188 22.7314C29.3372 21.7002 29.9817 20.8649 30.995 20.6395C32.209 20.3695 34.5618 20.0504 38.9434 20.0451C43.325 20.0401 45.6786 20.3537 46.8932 20.6209C47.907 20.8438 48.5532 21.6777 48.6741 22.7087C48.7631 23.4669 48.867 24.5367 48.9316 25.8101C48.9316 25.8103 48.9316 25.8103 48.9316 25.8106C48.9338 25.8572 48.9133 25.9021 48.8767 25.9306C48.8399 25.9595 48.7916 25.9686 48.747 25.9553C48.0902 25.759 47.3706 25.555 46.5821 25.3438C42.2169 24.1739 39.7859 23.8697 38.5045 23.8132C36.9612 23.745 35.6898 24.6637 35.121 26.1C34.6677 27.2439 33.9735 29.1421 33.3597 31.4322C32.8666 33.2736 32.7654 35.1687 33.0382 36.9923Z" fill="#CB5300"/>
<path d="M22.2976 56.08C22.5163 56.08 22.6763 56.12 22.7776 56.2C22.8843 56.2747 22.9509 56.368 22.9776 56.48C23.0043 56.5867 23.0176 56.7253 23.0176 56.896C23.0176 57.344 22.8949 57.7413 22.6496 58.088C22.4043 58.4293 22.0843 58.696 21.6896 58.888C21.2949 59.0747 20.8763 59.168 20.4336 59.168C19.7936 59.168 19.3243 58.9893 19.0256 58.632C18.7269 58.2747 18.5776 57.8373 18.5776 57.32C18.5776 56.7067 18.7403 56.1227 19.0656 55.568C19.3963 55.008 19.8016 54.56 20.2816 54.224C20.7669 53.8827 21.2229 53.712 21.6496 53.712C22.2469 53.712 22.6789 53.832 22.9456 54.072C23.2123 54.3067 23.3456 54.6507 23.3456 55.104C23.3456 55.264 23.2843 55.4 23.1616 55.512C23.0443 55.624 22.8843 55.68 22.6816 55.68C22.5216 55.68 22.4123 55.6373 22.3536 55.552C22.3003 55.4667 22.2736 55.3573 22.2736 55.224L22.2816 54.968C22.2816 54.872 22.2283 54.7787 22.1216 54.688C22.0149 54.5973 21.9163 54.552 21.8256 54.552C21.5269 54.552 21.1989 54.688 20.8416 54.96C20.4843 55.2267 20.1829 55.5893 19.9376 56.048C19.6923 56.5013 19.5696 56.9947 19.5696 57.528C19.5696 57.7733 19.6656 57.9733 19.8576 58.128C20.0496 58.2827 20.2923 58.36 20.5856 58.36C20.7936 58.36 21.0123 58.2987 21.2416 58.176C21.4709 58.048 21.6629 57.8773 21.8176 57.664C21.9776 57.4453 22.0576 57.2133 22.0576 56.968C21.9829 56.9787 21.8736 57.0027 21.7296 57.04C21.5216 57.0933 21.3429 57.1333 21.1936 57.16C21.0496 57.1867 20.9056 57.2 20.7616 57.2C20.5909 57.2 20.4629 57.1787 20.3776 57.136C20.2976 57.088 20.2576 57.0053 20.2576 56.888C20.2576 56.808 20.2763 56.7147 20.3136 56.608C20.3563 56.5013 20.4069 56.424 20.4656 56.376C20.7323 56.3067 21.0389 56.24 21.3856 56.176C21.7376 56.112 22.0416 56.08 22.2976 56.08ZM24.506 58.696C24.5006 58.728 24.4873 58.792 24.466 58.888C24.45 58.9787 24.4046 59.0427 24.33 59.08C24.2606 59.1173 24.1486 59.136 23.994 59.136C23.818 59.136 23.69 59.1173 23.61 59.08C23.53 59.0427 23.49 58.9627 23.49 58.84L23.874 57.312C24.0873 56.432 24.2286 55.872 24.298 55.632L24.098 55.392C24.082 55.376 24.074 55.3573 24.074 55.336C24.074 55.2827 24.1326 55.24 24.25 55.208C24.3673 55.1707 24.53 55.152 24.738 55.152C24.9246 55.152 25.05 55.2053 25.114 55.312C25.178 55.4133 25.218 55.5467 25.234 55.712L25.178 55.92C25.3486 55.712 25.546 55.5413 25.77 55.408C25.9993 55.2693 26.202 55.2 26.378 55.2C26.6073 55.2 26.786 55.24 26.914 55.32C27.042 55.4 27.106 55.504 27.106 55.632C27.106 55.744 27.066 55.8613 26.986 55.984C26.9113 56.1013 26.8153 56.2027 26.698 56.288C26.5806 56.368 26.466 56.4133 26.354 56.424C26.2473 56.424 26.1753 56.4107 26.138 56.384C26.1006 56.3573 26.082 56.3173 26.082 56.264L26.13 56C25.7033 56.1173 25.3166 56.4 24.97 56.848L24.506 58.696ZM30.0512 58.976C30.0299 59.0667 29.9819 59.128 29.9072 59.16C29.8326 59.1973 29.7339 59.216 29.6112 59.216C29.2432 59.216 29.0592 59.1333 29.0592 58.968L29.1072 58.664C28.9579 58.776 28.7819 58.888 28.5792 59C28.3766 59.112 28.2086 59.168 28.0752 59.168C27.2859 59.168 26.8912 58.9093 26.8912 58.392C26.8912 57.512 27.1552 56.5573 27.6832 55.528C27.7472 55.4053 27.8139 55.3173 27.8832 55.264C27.9579 55.2107 28.0832 55.184 28.2592 55.184C28.4459 55.184 28.5846 55.2107 28.6752 55.264C28.7712 55.312 28.8192 55.3707 28.8192 55.44C28.8192 55.456 28.7899 55.504 28.7312 55.584C28.6726 55.6533 28.6219 55.7227 28.5792 55.792C28.0779 56.6293 27.8272 57.4453 27.8272 58.24C27.8272 58.3093 27.8539 58.3707 27.9072 58.424C27.9606 58.4773 28.0086 58.504 28.0512 58.504C28.1686 58.504 28.3659 58.448 28.6432 58.336C28.9259 58.224 29.1419 58.1093 29.2912 57.992L29.4512 57.344C29.6432 56.5707 29.7632 56.096 29.8112 55.92C29.8699 55.7067 29.9446 55.5333 30.0352 55.4C30.1312 55.2613 30.2806 55.192 30.4832 55.192C30.7659 55.192 30.9072 55.2773 30.9072 55.448C30.9072 55.4747 30.8992 55.5093 30.8832 55.552C30.8726 55.5893 30.8646 55.6213 30.8592 55.648L30.5392 56.944C30.2832 57.9733 30.1206 58.6507 30.0512 58.976ZM32.0363 58.648C32.0309 58.68 31.9589 58.9707 31.8203 59.52C31.6869 60.0747 31.5936 60.424 31.5403 60.568C31.5189 60.6267 31.4549 60.6693 31.3483 60.696C31.2416 60.728 31.1643 60.744 31.1163 60.744C30.8763 60.744 30.7483 60.5973 30.7323 60.304C30.8336 59.696 31.0043 58.8773 31.2443 57.848C31.4843 56.8133 31.6923 55.968 31.8683 55.312C31.8789 55.232 31.9269 55.1547 32.0123 55.08C32.1029 55 32.1829 54.96 32.2523 54.96C32.3749 54.96 32.4763 54.9973 32.5563 55.072C32.6416 55.1413 32.6923 55.2427 32.7083 55.376C32.9216 55.232 33.1669 55.16 33.4443 55.16C33.7429 55.16 34.0149 55.2267 34.2603 55.36C34.5056 55.488 34.6976 55.6747 34.8363 55.92C34.9803 56.1653 35.0523 56.4507 35.0523 56.776C35.0523 57.176 34.9749 57.5547 34.8203 57.912C34.6656 58.2693 34.4336 58.56 34.1243 58.784C33.8149 59.008 33.4416 59.12 33.0043 59.12C32.8656 59.12 32.6869 59.0747 32.4683 58.984C32.2496 58.888 32.1056 58.776 32.0363 58.648ZM32.2843 57.632C32.2736 57.696 32.2683 57.7413 32.2683 57.768C32.2736 57.9013 32.3163 58.0187 32.3963 58.12C32.4816 58.2213 32.5803 58.3013 32.6923 58.36C32.8043 58.4133 32.8976 58.44 32.9723 58.44C33.2069 58.44 33.4123 58.3573 33.5883 58.192C33.7696 58.0267 33.9083 57.8187 34.0043 57.568C34.1003 57.3173 34.1483 57.072 34.1483 56.832C34.1483 56.5173 34.0683 56.28 33.9083 56.12C33.7483 55.9547 33.5509 55.872 33.3163 55.872C33.1936 55.872 33.0709 55.896 32.9483 55.944C32.8309 55.992 32.7269 56.064 32.6363 56.16L32.2843 57.632ZM36.9108 59.08C36.4415 59.08 36.0762 58.92 35.8148 58.6C35.5535 58.28 35.4228 57.872 35.4228 57.376C35.4228 56.96 35.5108 56.5787 35.6868 56.232C35.8682 55.8853 36.1188 55.6133 36.4388 55.416C36.7642 55.2133 37.1348 55.112 37.5508 55.112C38.0148 55.112 38.3268 55.152 38.4868 55.232C38.5348 55.2533 38.5775 55.288 38.6148 55.336C38.6522 55.3787 38.6708 55.4213 38.6708 55.464C38.6708 55.5173 38.6575 55.5733 38.6308 55.632C38.6095 55.6907 38.5748 55.736 38.5268 55.768C38.6495 55.7787 38.7535 55.84 38.8388 55.952C38.9242 56.0587 38.9882 56.184 39.0308 56.328C39.0735 56.472 39.0948 56.5973 39.0948 56.704C39.0948 57.0827 39.0015 57.456 38.8148 57.824C38.6335 58.192 38.3775 58.4933 38.0468 58.728C37.7162 58.9627 37.3375 59.08 36.9108 59.08ZM37.0308 58.416C37.2015 58.416 37.3748 58.3333 37.5508 58.168C37.7322 57.9973 37.8815 57.7733 37.9988 57.496C38.1162 57.2187 38.1748 56.928 38.1748 56.624C38.1748 56.5653 38.1535 56.512 38.1108 56.464C38.0735 56.416 38.0202 56.3653 37.9508 56.312C37.9135 56.2853 37.8788 56.2587 37.8468 56.232C37.8202 56.2 37.8068 56.1707 37.8068 56.144C37.8068 56.1227 37.8122 56.0933 37.8228 56.056C37.8388 56.0187 37.8468 55.992 37.8468 55.976C37.8468 55.896 37.7482 55.856 37.5508 55.856C37.3322 55.856 37.1295 55.944 36.9428 56.12C36.7615 56.296 36.6175 56.52 36.5108 56.792C36.4095 57.064 36.3588 57.3307 36.3588 57.592C36.3588 57.7467 36.3935 57.888 36.4628 58.016C36.5322 58.1387 36.6175 58.2373 36.7188 58.312C36.8255 58.3813 36.9295 58.416 37.0308 58.416ZM43.5475 58.48C43.5048 58.6667 43.4381 58.8107 43.3475 58.912C43.2621 59.0133 43.1208 59.064 42.9235 59.064C42.7581 59.064 42.6355 59.0373 42.5555 58.984C42.4808 58.9253 42.4435 58.8293 42.4435 58.696C42.4435 58.6373 42.4515 58.5813 42.4675 58.528L43.4275 54.696C43.4221 54.696 43.2488 54.7147 42.9075 54.752C42.4968 54.784 42.2408 54.8107 42.1395 54.832C42.0328 54.7947 41.9501 54.7387 41.8915 54.664C41.8381 54.584 41.8115 54.4907 41.8115 54.384C41.8115 54.2987 41.8408 54.2187 41.8995 54.144C41.9635 54.064 42.0381 54.0053 42.1235 53.968C42.5501 53.8827 43.4648 53.808 44.8675 53.744C45.2568 53.728 45.5235 53.712 45.6675 53.696C45.7528 53.7333 45.8248 53.792 45.8835 53.872C45.9475 53.9467 45.9795 54.0267 45.9795 54.112C45.9795 54.208 45.9315 54.3013 45.8355 54.392C45.7395 54.4827 45.6301 54.5467 45.5075 54.584L44.4595 54.624L43.5475 58.48ZM46.5267 59.168C45.9987 59.168 45.6121 59.064 45.3667 58.856C45.1267 58.648 45.0067 58.3707 45.0067 58.024C45.0067 57.5067 45.1134 57.0373 45.3267 56.616C45.5401 56.1893 45.8361 55.856 46.2147 55.616C46.5934 55.3707 47.0254 55.248 47.5107 55.248C47.8147 55.248 48.0681 55.3333 48.2707 55.504C48.4787 55.6747 48.5827 55.928 48.5827 56.264C48.5827 56.6213 48.4654 56.9013 48.2307 57.104C48.0014 57.3067 47.7001 57.4533 47.3267 57.544C46.9587 57.6293 46.4947 57.6987 45.9347 57.752C45.9187 57.8213 45.9107 57.904 45.9107 58C45.9107 58.1493 45.9747 58.264 46.1027 58.344C46.2307 58.424 46.4094 58.464 46.6387 58.464C46.8041 58.464 46.9961 58.4293 47.2147 58.36C47.4387 58.2907 47.6094 58.176 47.7267 58.016C47.7961 57.9253 47.8761 57.8533 47.9667 57.8C48.0627 57.7467 48.1561 57.72 48.2467 57.72C48.3321 57.72 48.4014 57.7493 48.4547 57.808C48.5134 57.8613 48.5427 57.944 48.5427 58.056C48.4841 58.2267 48.3614 58.4 48.1747 58.576C47.9881 58.7467 47.7507 58.888 47.4627 59C47.1801 59.112 46.8681 59.168 46.5267 59.168ZM46.1427 57.016C46.4841 57.0107 46.8334 56.9467 47.1907 56.824C47.5481 56.696 47.7267 56.4747 47.7267 56.16C47.7267 56.0853 47.6921 56.0293 47.6227 55.992C47.5534 55.9493 47.4787 55.928 47.3987 55.928C47.2441 55.928 47.0814 55.9867 46.9107 56.104C46.7454 56.216 46.5934 56.3573 46.4547 56.528C46.3161 56.6933 46.2121 56.856 46.1427 57.016ZM51.9621 58.584C51.9728 58.7227 51.9914 58.848 52.0181 58.96C52.0074 58.992 51.9594 59.024 51.8741 59.056C51.7941 59.088 51.7248 59.104 51.6661 59.104C51.4741 59.104 51.3354 59.0747 51.2501 59.016C51.1701 58.9627 51.1301 58.88 51.1301 58.768C51.1301 58.6613 51.1408 58.5547 51.1621 58.448C51.0448 58.608 50.8714 58.7413 50.6421 58.848C50.4181 58.9493 50.2368 59 50.0981 59C49.7408 59 49.4421 58.896 49.2021 58.688C48.9674 58.48 48.8501 58.1467 48.8501 57.688C48.8501 57.256 48.9514 56.8507 49.1541 56.472C49.3621 56.088 49.6474 55.7813 50.0101 55.552C50.3728 55.3173 50.7754 55.2 51.2181 55.2C51.3034 55.2 51.4154 55.224 51.5541 55.272C51.6928 55.3147 51.8314 55.392 51.9701 55.504C52.1141 55.6107 52.2341 55.7493 52.3301 55.92C52.3728 55.92 52.4234 55.9413 52.4821 55.984C52.5408 56.0267 52.5701 56.0693 52.5701 56.112C52.5701 56.16 52.5621 56.208 52.5461 56.256L51.9621 58.584ZM51.6021 56.344C51.5701 56.2267 51.5061 56.128 51.4101 56.048C51.3194 55.968 51.2368 55.928 51.1621 55.928C50.9168 55.928 50.6848 56.016 50.4661 56.192C50.2528 56.3627 50.0794 56.576 49.9461 56.832C49.8128 57.088 49.7461 57.3307 49.7461 57.56C49.7461 57.784 49.7728 57.968 49.8261 58.112C49.8794 58.256 49.9834 58.328 50.1381 58.328C50.2714 58.328 50.4234 58.288 50.5941 58.208C50.7701 58.128 50.9248 58.0213 51.0581 57.888C51.1968 57.7493 51.2874 57.6053 51.3301 57.456L51.6021 56.344ZM53.3537 56.216C53.2897 56.216 53.2417 56.192 53.2097 56.144C53.1777 56.0907 53.1617 56.024 53.1617 55.944C53.1617 55.832 53.2044 55.7067 53.2897 55.568C53.3377 55.52 53.5964 55.4693 54.0657 55.416L54.4097 53.864C54.4471 53.6933 54.5084 53.568 54.5937 53.488C54.6844 53.4027 54.7831 53.36 54.8897 53.36C55.0177 53.36 55.1324 53.4053 55.2337 53.496C55.3404 53.5867 55.3964 53.6933 55.4017 53.816C55.4017 53.848 55.3964 53.8907 55.3857 53.944L55.0417 55.32C55.3937 55.2933 55.6204 55.28 55.7217 55.28C55.8124 55.28 55.8977 55.3013 55.9777 55.344C56.0631 55.3813 56.1297 55.4267 56.1777 55.48C56.2257 55.5333 56.2497 55.5787 56.2497 55.616C56.2497 55.7067 56.2124 55.7893 56.1377 55.864C56.0684 55.9333 55.9884 55.976 55.8977 55.992L54.8497 56.088L54.1617 58.84C54.0817 59.064 53.9724 59.176 53.8337 59.176C53.7217 59.176 53.6204 59.1067 53.5297 58.968C53.4444 58.8293 53.4017 58.672 53.4017 58.496C53.4017 58.4267 53.4097 58.3573 53.4257 58.288L53.8977 56.168L53.3537 56.216ZM57.0763 58.696C57.0709 58.728 57.0576 58.792 57.0363 58.888C57.0203 58.9787 56.9749 59.0427 56.9003 59.08C56.8309 59.1173 56.7189 59.136 56.5643 59.136C56.3883 59.136 56.2603 59.1173 56.1803 59.08C56.1003 59.0427 56.0603 58.9627 56.0603 58.84L56.4443 57.312C56.6576 56.432 56.7989 55.872 56.8683 55.632L56.6683 55.392C56.6523 55.376 56.6443 55.3573 56.6443 55.336C56.6443 55.2827 56.7029 55.24 56.8203 55.208C56.9376 55.1707 57.1003 55.152 57.3083 55.152C57.4949 55.152 57.6203 55.2053 57.6843 55.312C57.7483 55.4133 57.7883 55.5467 57.8043 55.712L57.7483 55.92C57.9189 55.712 58.1163 55.5413 58.3403 55.408C58.5696 55.2693 58.7723 55.2 58.9483 55.2C59.1776 55.2 59.3563 55.24 59.4843 55.32C59.6123 55.4 59.6763 55.504 59.6763 55.632C59.6763 55.744 59.6363 55.8613 59.5563 55.984C59.4816 56.1013 59.3856 56.2027 59.2683 56.288C59.1509 56.368 59.0363 56.4133 58.9243 56.424C58.8176 56.424 58.7456 56.4107 58.7083 56.384C58.6709 56.3573 58.6523 56.3173 58.6523 56.264L58.7003 56C58.2736 56.1173 57.8869 56.4 57.5403 56.848L57.0763 58.696ZM62.6135 58.864C62.5762 58.96 62.4882 59.024 62.3495 59.056C62.2162 59.0933 62.0989 59.112 61.9975 59.112C61.9015 59.112 61.8375 59.088 61.8055 59.04C61.7789 58.9973 61.7549 58.9307 61.7335 58.84C61.7122 58.7493 61.6989 58.688 61.6935 58.656C61.4642 58.8107 61.2295 58.928 60.9895 59.008C60.7549 59.0933 60.5575 59.136 60.3975 59.136C60.2589 59.136 60.1015 59.0907 59.9255 59C59.7549 58.9093 59.6082 58.7867 59.4855 58.632C59.3629 58.4773 59.3015 58.3067 59.3015 58.12C59.3015 57.8213 59.4002 57.44 59.5975 56.976C59.7949 56.512 60.0722 56.1067 60.4295 55.76C60.7922 55.4133 61.2135 55.24 61.6935 55.24C62.1149 55.24 62.4909 55.3067 62.8215 55.44C63.1522 55.5733 63.3175 55.7627 63.3175 56.008C63.1682 56.2853 63.0055 56.7013 62.8295 57.256C62.6589 57.8107 62.5735 58.2213 62.5735 58.488C62.5735 58.664 62.5869 58.7893 62.6135 58.864ZM61.7095 57.984C61.7522 57.7493 61.8242 57.472 61.9255 57.152C62.0322 56.8267 62.1735 56.5013 62.3495 56.176C62.3229 56.0693 62.2375 56 62.0935 55.968C61.9549 55.9307 61.8295 55.912 61.7175 55.912C61.5202 55.912 61.3069 56.0453 61.0775 56.312C60.8482 56.5787 60.6509 56.8907 60.4855 57.248C60.3255 57.6 60.2455 57.8853 60.2455 58.104C60.2455 58.2107 60.2749 58.288 60.3335 58.336C60.3922 58.3787 60.4669 58.4 60.5575 58.4C60.6802 58.4 60.8749 58.3547 61.1415 58.264C61.4135 58.168 61.6029 58.0747 61.7095 57.984ZM65.3012 54.952C64.7465 57.288 64.4238 58.608 64.3332 58.912C64.3225 58.944 64.2665 58.984 64.1652 59.032C64.0692 59.0853 64.0025 59.112 63.9652 59.112C63.8265 59.112 63.7012 59.0773 63.5892 59.008C63.4772 58.944 63.4158 58.8293 63.4052 58.664C63.4105 58.6373 63.4238 58.5627 63.4452 58.44C63.4665 58.3173 63.4958 58.184 63.5332 58.04C63.7358 57.2773 63.9705 56.344 64.2372 55.24L64.6212 53.696C64.6158 53.664 64.6132 53.6187 64.6132 53.56C64.6132 53.352 64.6718 53.1733 64.7892 53.024C64.9118 52.8747 65.0505 52.8 65.2052 52.8C65.3065 52.8 65.4025 52.84 65.4932 52.92C65.5838 52.9947 65.6558 53.1093 65.7092 53.264L65.3012 54.952Z" fill="#CB5300"/>
</g>
<defs>
<filter id="filter0_dd_240_310" x="0" y="0" width="84" height="84" filterUnits="userSpaceOnUse" color-interpolation-filters="sRGB">
<feFlood flood-opacity="0" result="BackgroundImageFix"/>
<feColorMatrix in="SourceAlpha" type="matrix" values="0 0 0 0 0 0 0 0 0 0 0 0 0 0 0 0 0 0 127 0" result="hardAlpha"/>
<feMorphology radius="2" operator="dilate" in="SourceAlpha" result="effect1_dropShadow_240_310"/>
<feOffset dy="2"/>
<feGaussianBlur stdDeviation="3"/>
<feColorMatrix type="matrix" values="0 0 0 0 0 0 0 0 0 0 0 0 0 0 0 0 0 0 0.15 0"/>
<feBlend mode="normal" in2="BackgroundImageFix" result="effect1_dropShadow_240_310"/>
<feColorMatrix in="SourceAlpha" type="matrix" values="0 0 0 0 0 0 0 0 0 0 0 0 0 0 0 0 0 0 127 0" result="hardAlpha"/>
<feOffset dy="1"/>
<feGaussianBlur stdDeviation="1"/>
<feColorMatrix type="matrix" values="0 0 0 0 0 0 0 0 0 0 0 0 0 0 0 0 0 0 0.3 0"/>
<feBlend mode="normal" in2="effect1_dropShadow_240_310" result="effect2_dropShadow_240_310"/>
<feBlend mode="normal" in="SourceGraphic" in2="effect2_dropShadow_240_310" result="shape"/>
</filter>
</defs>
</svg>
