<svg width="32" height="32" viewBox="0 0 32 32" fill="none" xmlns="http://www.w3.org/2000/svg">
<circle cx="15.8438" cy="15.8438" r="15.8438" fill="#FDFDFC"/>
<g clip-path="url(#clip0_379_2224)">
<path d="M11.4427 15.8438C11.4427 16.9587 11.4925 18.0394 11.5856 19.0712H20.102C20.1952 18.0394 20.2449 16.9587 20.2449 15.8438C20.2449 14.7289 20.1949 13.6482 20.1014 12.6163H11.5862C11.4927 13.6482 11.4427 14.7289 11.4427 15.8438Z" fill="#B1C3BF"/>
<path d="M9.81893 12.6163C9.72938 13.6569 9.68232 14.7372 9.68232 15.8438C9.68232 16.9503 9.72915 18.0306 9.81834 19.0712H3.03792C2.77843 18.0383 2.64062 16.9571 2.64062 15.8438C2.64062 14.7304 2.77843 13.6492 3.03792 12.6163H9.81893Z" fill="#B1C3BF"/>
<path d="M11.7941 10.8559H19.8935C19.6327 9.07944 19.2383 7.49567 18.7497 6.19484C18.2927 4.97819 17.7703 4.05449 17.2355 3.4508C16.6995 2.84563 16.2269 2.64062 15.8438 2.64062C15.4607 2.64062 14.9881 2.84563 14.4521 3.4508C13.9173 4.05449 13.3949 4.97819 12.9379 6.19484C12.4494 7.49567 12.0549 9.07944 11.7941 10.8559Z" fill="#B1C3BF"/>
<path d="M21.8687 12.6163C21.9582 13.6569 22.0053 14.7372 22.0053 15.8438C22.0053 16.9503 21.9585 18.0306 21.8693 19.0712H28.6497C28.9092 18.0383 29.047 16.9571 29.047 15.8438C29.047 14.7304 28.9092 13.6492 28.6497 12.6163H21.8687Z" fill="#B1C3BF"/>
<path d="M28.0724 10.8559H21.6718C21.3961 8.86778 20.9594 7.07126 20.3977 5.5758C20.0394 4.6219 19.6216 3.76709 19.146 3.05688C23.2063 4.10241 26.5106 7.03088 28.0724 10.8559Z" fill="#B1C3BF"/>
<path d="M10.0159 10.8559H3.61526C5.17704 7.03088 8.4813 4.10241 12.5416 3.05688C12.066 3.76709 11.6482 4.6219 11.2899 5.5758C10.7282 7.07126 10.2915 8.86778 10.0159 10.8559Z" fill="#B1C3BF"/>
<path d="M10.0145 20.8317H3.61526C5.17621 24.6547 8.47778 27.582 12.5351 28.629C12.0598 27.9189 11.6427 27.0645 11.2852 26.1113C10.7244 24.6159 10.2891 22.8195 10.0145 20.8317Z" fill="#B1C3BF"/>
<path d="M18.7541 25.4932C19.2419 24.1923 19.6351 22.6085 19.895 20.8317H11.7927C12.0525 22.6085 12.4457 24.1923 12.9335 25.4932C13.3898 26.7097 13.9117 27.6331 14.4467 28.2365C14.9826 28.841 15.4568 29.047 15.8438 29.047C16.2309 29.047 16.705 28.841 17.2409 28.2365C17.7759 27.6331 18.2978 26.7097 18.7541 25.4932Z" fill="#B1C3BF"/>
<path d="M20.4024 26.1113C20.9632 24.6159 21.3985 22.8195 21.6731 20.8317H28.0724C26.5114 24.6547 23.2098 27.582 19.1525 28.629C19.6278 27.9189 20.045 27.0645 20.4024 26.1113Z" fill="#B1C3BF"/>
</g>
<defs>
<clipPath id="clip0_379_2224">
<rect width="28.1668" height="28.1668" fill="white" transform="translate(1.76041 1.76038)"/>
</clipPath>
</defs>
</svg>
