<svg width="84" height="84" viewBox="0 0 84 84" fill="none" xmlns="http://www.w3.org/2000/svg">
<g filter="url(#filter0_dd_240_392)">
<rect x="8" y="6" width="68" height="68" rx="20" fill="#F9F8F6"/>
<path fill-rule="evenodd" clip-rule="evenodd" d="M37.9791 39.4905C36.4081 38.2582 35.3987 36.342 35.3987 34.1901C35.3987 30.472 38.413 27.4574 42.1312 27.4574C45.8496 27.4574 48.8639 30.472 48.8639 34.1901C48.8639 36.342 47.8545 38.2582 46.2835 39.4905C46.1559 40.0053 46.0121 40.499 45.8987 40.8686C45.7773 41.2639 45.4487 41.5511 45.0376 41.5941C44.4857 41.6517 43.5553 41.7149 42.1312 41.7149C40.7073 41.7149 39.7769 41.6517 39.225 41.5941C38.8139 41.5511 38.4853 41.2639 38.3639 40.8686C38.2505 40.499 38.1066 40.0053 37.9791 39.4905ZM46.6857 33.7943C46.6857 31.2787 44.6467 29.2397 42.1312 29.2397C41.8035 29.2397 41.5373 29.5058 41.5373 29.8338C41.5373 30.1618 41.8035 30.4279 42.1312 30.4279C43.9905 30.4279 45.4975 31.9349 45.4975 33.7943C45.4975 34.122 45.764 34.3884 46.0916 34.3884C46.4196 34.3884 46.6857 34.122 46.6857 33.7943Z" fill="#CB5300"/>
<path d="M39.2554 42.1942C39.8281 42.2505 40.7532 42.309 42.1311 42.309C43.5663 42.309 44.5105 42.2455 45.0766 42.1873L45.0156 42.75C44.9477 43.3791 44.508 43.9011 43.8806 43.9834C43.4335 44.0422 42.846 44.091 42.1311 44.091C41.3795 44.091 40.804 44.0369 40.3895 43.9743C39.8617 43.8944 39.4885 43.473 39.3901 42.9482C39.3488 42.7279 39.3025 42.4731 39.2554 42.1942Z" fill="#CB5300"/>
<path fill-rule="evenodd" clip-rule="evenodd" d="M41.5535 22.19C41.5535 21.8715 41.8124 21.6125 42.1309 21.6125C42.4497 21.6125 42.7087 21.8715 42.7087 22.19V24.4078C42.7087 24.7266 42.4497 24.9856 42.1309 24.9856C41.8124 24.9856 41.5535 24.7266 41.5535 24.4078V22.19Z" fill="#CB5300"/>
<path fill-rule="evenodd" clip-rule="evenodd" d="M49.4378 24.8789C49.6631 24.6535 50.0291 24.6535 50.2545 24.8789C50.4799 25.1043 50.4799 25.4702 50.2545 25.6956L48.6862 27.2639C48.4608 27.4893 48.0949 27.4893 47.8695 27.2639C47.6441 27.0385 47.6441 26.6725 47.8695 26.4472L49.4378 24.8789Z" fill="#CB5300"/>
<path fill-rule="evenodd" clip-rule="evenodd" d="M34.2059 25.6956C33.9805 25.4702 33.9805 25.1043 34.2059 24.8789C34.4313 24.6535 34.7972 24.6535 35.0226 24.8789L36.5909 26.4472C36.8163 26.6725 36.8163 27.0385 36.5909 27.2639C36.3655 27.4893 35.9996 27.4893 35.7742 27.2639L34.2059 25.6956Z" fill="#CB5300"/>
<path fill-rule="evenodd" clip-rule="evenodd" d="M31.3192 33.5796C31.0006 33.5796 30.7417 33.3207 30.7417 33.0019C30.7417 32.6834 31.0006 32.4244 31.3192 32.4244H33.537C33.8558 32.4244 34.1147 32.6834 34.1147 33.0019C34.1147 33.3207 33.8558 33.5796 33.537 33.5796H31.3192Z" fill="#CB5300"/>
<path fill-rule="evenodd" clip-rule="evenodd" d="M50.4478 33.5796C50.1293 33.5796 49.8704 33.3207 49.8704 33.0019C49.8704 32.6834 50.1293 32.4244 50.4478 32.4244H52.6656C52.9845 32.4244 53.2434 32.6834 53.2434 33.0019C53.2434 33.3207 52.9845 33.5796 52.6656 33.5796H50.4478Z" fill="#CB5300"/>
<path d="M26.425 54.856C26.3184 54.8187 26.2357 54.7627 26.177 54.688C26.1237 54.608 26.097 54.5147 26.097 54.408C26.097 54.2533 26.201 54.1307 26.409 54.04C27.1717 53.8853 27.9397 53.776 28.713 53.712C28.921 53.8027 29.025 53.9253 29.025 54.08C29.025 54.176 28.977 54.2693 28.881 54.36C28.785 54.4507 28.6757 54.5147 28.553 54.552L28.113 54.608C28.0224 55.008 27.8144 55.8693 27.489 57.192L27.265 58.088L27.881 58.024C28.089 58.1147 28.193 58.2373 28.193 58.392C28.193 58.488 28.145 58.5813 28.049 58.672C27.953 58.7627 27.8437 58.8267 27.721 58.864L27.401 58.904C26.617 58.9893 26.0144 59.0773 25.593 59.168C25.4864 59.1307 25.4064 59.0747 25.353 59C25.2944 58.92 25.265 58.8267 25.265 58.72C25.265 58.5653 25.369 58.4427 25.577 58.352C25.8437 58.2987 26.0464 58.2613 26.185 58.24L27.065 54.744C26.8464 54.776 26.633 54.8133 26.425 54.856ZM29.2929 55.344C29.2769 55.328 29.2689 55.3093 29.2689 55.288C29.2689 55.2347 29.3276 55.192 29.4449 55.16C29.5622 55.1227 29.7249 55.104 29.9329 55.104C30.1249 55.104 30.2662 55.1547 30.3569 55.256C30.4476 55.352 30.5009 55.4693 30.5169 55.608L30.3729 56.128C30.4849 55.9733 30.6422 55.8267 30.8449 55.688C31.0476 55.544 31.2529 55.4293 31.4609 55.344C31.6689 55.2587 31.8396 55.216 31.9729 55.216C32.2556 55.216 32.4609 55.2693 32.5889 55.376C32.7169 55.4773 32.7809 55.64 32.7809 55.864C32.4662 56.6853 32.2582 57.5707 32.1569 58.52L32.2689 58.912C32.2049 59.0347 32.1142 59.1307 31.9969 59.2C31.8849 59.2747 31.7196 59.312 31.5009 59.312C31.3729 59.312 31.2796 59.2693 31.2209 59.184C31.1622 59.0987 31.1329 58.992 31.1329 58.864C31.1329 58.5067 31.1836 58.1147 31.2849 57.688C31.3916 57.256 31.5142 56.816 31.6529 56.368C31.7062 56.1973 31.7329 56.1093 31.7329 56.104C31.7329 56.0293 31.6902 55.992 31.6049 55.992C31.4876 55.992 31.3089 56.0747 31.0689 56.24C30.8342 56.4053 30.5916 56.6853 30.3409 57.08C30.0902 57.4693 29.8876 57.9813 29.7329 58.616C29.7222 58.648 29.7089 58.7067 29.6929 58.792C29.6769 58.8773 29.6342 58.9387 29.5649 58.976C29.4956 59.008 29.3836 59.024 29.2289 59.024C29.0529 59.024 28.9222 59.0053 28.8369 58.968C28.7569 58.9307 28.7169 58.8507 28.7169 58.728C28.7329 58.6533 28.7569 58.5627 28.7889 58.456C29.0982 57.2133 29.3356 56.256 29.5009 55.584L29.2929 55.344ZM34.0214 54.248C34.0214 54.0827 34.0721 53.936 34.1734 53.808C34.2801 53.68 34.4267 53.616 34.6134 53.616C34.8107 53.616 34.9814 53.6773 35.1254 53.8C35.2747 53.9227 35.3494 54.0613 35.3494 54.216C35.3494 54.3707 35.2747 54.504 35.1254 54.616C34.9761 54.728 34.8027 54.784 34.6054 54.784C34.4134 54.784 34.2667 54.736 34.1654 54.64C34.0694 54.5387 34.0214 54.408 34.0214 54.248ZM34.8614 55.664C34.5787 56.816 34.3627 57.6827 34.2134 58.264C34.1921 58.3493 34.1814 58.4427 34.1814 58.544L34.1894 58.768C34.1894 58.8587 34.1601 58.9227 34.1014 58.96C34.0481 58.9973 33.9307 59.0187 33.7494 59.024C33.5734 59.024 33.4401 59.0053 33.3494 58.968C33.2587 58.9307 33.2134 58.8507 33.2134 58.728C33.2134 58.6693 33.2801 58.3573 33.4134 57.792C33.5521 57.2267 33.7387 56.4907 33.9734 55.584L33.7894 55.344C33.7734 55.328 33.7654 55.3093 33.7654 55.288C33.7654 55.2347 33.8241 55.192 33.9414 55.16C34.0587 55.1227 34.2214 55.104 34.4294 55.104C34.6107 55.104 34.7254 55.1573 34.7734 55.264C34.8267 55.3653 34.8561 55.4987 34.8614 55.664ZM38.5203 58.272C38.4243 58.544 38.235 58.7627 37.9523 58.928C37.6697 59.088 37.275 59.168 36.7683 59.168C36.4163 59.168 36.1257 59.1067 35.8963 58.984C35.667 58.8613 35.499 58.7013 35.3923 58.504C35.2857 58.3067 35.2323 58.0933 35.2323 57.864C35.2323 57.352 35.3337 56.896 35.5363 56.496C35.739 56.0907 36.0243 55.776 36.3923 55.552C36.7657 55.3227 37.1977 55.208 37.6883 55.208C37.9977 55.208 38.2643 55.2987 38.4883 55.48C38.7123 55.6613 38.8243 55.9013 38.8243 56.2C38.8243 56.3173 38.7817 56.416 38.6963 56.496C38.6163 56.5707 38.499 56.608 38.3443 56.608C38.2163 56.608 38.1257 56.576 38.0723 56.512C38.019 56.4427 37.9923 56.3627 37.9923 56.272C37.9923 56.1547 37.9523 56.0613 37.8723 55.992C37.7923 55.9227 37.691 55.888 37.5683 55.888C37.4083 55.888 37.2163 55.9733 36.9923 56.144C36.7737 56.3147 36.5843 56.552 36.4243 56.856C36.2697 57.1547 36.1923 57.4907 36.1923 57.864C36.1923 58.0293 36.2537 58.1707 36.3763 58.288C36.499 58.4053 36.6697 58.464 36.8883 58.464C37.0697 58.464 37.2163 58.4293 37.3283 58.36C37.4403 58.2907 37.5603 58.192 37.6883 58.064C37.7683 57.984 37.835 57.9253 37.8883 57.888C37.9417 57.8507 37.9977 57.832 38.0563 57.832C38.1843 57.832 38.2883 57.8693 38.3683 57.944C38.4483 58.0133 38.499 58.1227 38.5203 58.272ZM40.2245 54.248C40.2245 54.0827 40.2752 53.936 40.3765 53.808C40.4832 53.68 40.6299 53.616 40.8165 53.616C41.0139 53.616 41.1845 53.6773 41.3285 53.8C41.4779 53.9227 41.5525 54.0613 41.5525 54.216C41.5525 54.3707 41.4779 54.504 41.3285 54.616C41.1792 54.728 41.0059 54.784 40.8085 54.784C40.6165 54.784 40.4699 54.736 40.3685 54.64C40.2725 54.5387 40.2245 54.408 40.2245 54.248ZM39.4645 58.464C39.4645 58.368 39.7019 57.408 40.1765 55.584L40.1285 55.288C40.1285 55.2293 40.1632 55.184 40.2325 55.152C40.3019 55.12 40.4352 55.104 40.6325 55.104C40.7872 55.104 40.8992 55.1467 40.9685 55.232C41.0432 55.3173 41.0805 55.4187 41.0805 55.536C41.0805 55.568 41.0752 55.6107 41.0645 55.664L40.3525 58.544L40.4005 58.84C40.4005 58.8987 40.3659 58.944 40.2965 58.976C40.2272 59.008 40.0939 59.024 39.8965 59.024C39.7205 59.024 39.6059 58.9733 39.5525 58.872C39.4992 58.7653 39.4699 58.6293 39.4645 58.464ZM44.7155 58.864C44.6835 58.96 44.5981 59.024 44.4595 59.056C44.3261 59.0933 44.2088 59.112 44.1075 59.112C44.0168 59.112 43.9555 59.088 43.9235 59.04C43.8915 58.9973 43.8648 58.9333 43.8435 58.848C43.8221 58.7573 43.8061 58.6933 43.7955 58.656C43.5715 58.8107 43.3395 58.928 43.0995 59.008C42.8648 59.0933 42.6675 59.136 42.5075 59.136C42.3475 59.136 42.1821 59.0987 42.0115 59.024C41.8461 58.9547 41.7021 58.832 41.5795 58.656C41.4568 58.4747 41.3955 58.2347 41.3955 57.936C41.3955 57.632 41.4888 57.2667 41.6755 56.84C41.8675 56.408 42.1395 56.0347 42.4915 55.72C42.8488 55.4 43.2648 55.24 43.7395 55.24C43.9795 55.24 44.2168 55.2987 44.4515 55.416C44.6861 55.528 44.8781 55.672 45.0275 55.848C45.1768 56.0187 45.2541 56.192 45.2595 56.368L45.1555 56.648C45.0061 57.064 44.8888 57.4187 44.8035 57.712C44.7181 58 44.6755 58.2587 44.6755 58.488C44.6755 58.6427 44.6888 58.768 44.7155 58.864ZM43.8035 57.984C43.8515 57.8507 43.9101 57.6773 43.9795 57.464C44.0968 57.0587 44.2088 56.7173 44.3155 56.44C44.2941 56.3653 44.2461 56.288 44.1715 56.208C44.0968 56.1227 44.0195 56.0533 43.9395 56C43.8595 55.9413 43.8035 55.912 43.7715 55.912C43.5741 55.912 43.3635 56.032 43.1395 56.272C42.9155 56.5067 42.7261 56.7867 42.5715 57.112C42.4221 57.4373 42.3475 57.72 42.3475 57.96C42.3475 58.0667 42.3795 58.168 42.4435 58.264C42.5075 58.3547 42.5768 58.4 42.6515 58.4C42.7741 58.4 42.9688 58.3547 43.2355 58.264C43.5075 58.168 43.6968 58.0747 43.8035 57.984ZM45.9631 56.216C45.8991 56.216 45.8511 56.192 45.8191 56.144C45.7871 56.0907 45.7711 56.024 45.7711 55.944C45.7711 55.832 45.8138 55.7067 45.8991 55.568C45.9471 55.52 46.2058 55.4693 46.6751 55.416L47.0191 53.864C47.0564 53.6933 47.1178 53.568 47.2031 53.488C47.2938 53.4027 47.3924 53.36 47.4991 53.36C47.6271 53.36 47.7418 53.4053 47.8431 53.496C47.9498 53.5867 48.0058 53.6933 48.0111 53.816C48.0111 53.848 48.0058 53.8907 47.9951 53.944L47.6511 55.32C48.0031 55.2933 48.2298 55.28 48.3311 55.28C48.4218 55.28 48.5071 55.3013 48.5871 55.344C48.6724 55.3813 48.7391 55.4267 48.7871 55.48C48.8351 55.5333 48.8591 55.5787 48.8591 55.616C48.8591 55.7067 48.8218 55.7893 48.7471 55.864C48.6778 55.9333 48.5978 55.976 48.5071 55.992L47.4591 56.088L46.7711 58.84C46.6911 59.064 46.5818 59.176 46.4431 59.176C46.3311 59.176 46.2298 59.1067 46.1391 58.968C46.0538 58.8293 46.0111 58.672 46.0111 58.496C46.0111 58.4267 46.0191 58.3573 46.0351 58.288L46.5071 56.168L45.9631 56.216ZM49.6777 54.248C49.6777 54.0827 49.7283 53.936 49.8297 53.808C49.9363 53.68 50.083 53.616 50.2697 53.616C50.467 53.616 50.6377 53.6773 50.7817 53.8C50.931 53.9227 51.0057 54.0613 51.0057 54.216C51.0057 54.3707 50.931 54.504 50.7817 54.616C50.6323 54.728 50.459 54.784 50.2617 54.784C50.0697 54.784 49.923 54.736 49.8217 54.64C49.7257 54.5387 49.6777 54.408 49.6777 54.248ZM50.5177 55.664C50.235 56.816 50.019 57.6827 49.8697 58.264C49.8483 58.3493 49.8377 58.4427 49.8377 58.544L49.8457 58.768C49.8457 58.8587 49.8163 58.9227 49.7577 58.96C49.7043 58.9973 49.587 59.0187 49.4057 59.024C49.2297 59.024 49.0963 59.0053 49.0057 58.968C48.915 58.9307 48.8697 58.8507 48.8697 58.728C48.8697 58.6693 48.9363 58.3573 49.0697 57.792C49.2083 57.2267 49.395 56.4907 49.6297 55.584L49.4457 55.344C49.4297 55.328 49.4217 55.3093 49.4217 55.288C49.4217 55.2347 49.4803 55.192 49.5977 55.16C49.715 55.1227 49.8777 55.104 50.0857 55.104C50.267 55.104 50.3817 55.1573 50.4297 55.264C50.483 55.3653 50.5123 55.4987 50.5177 55.664ZM51.8966 59.168C51.7153 59.1307 51.5873 59.0933 51.5126 59.056C51.4379 59.0187 51.3899 58.968 51.3686 58.904C51.3473 58.84 51.3339 58.7307 51.3286 58.576C51.3126 58.2133 51.2886 57.8533 51.2566 57.496C51.2513 57.4107 51.2353 57.1573 51.2086 56.736C51.1819 56.3147 51.1686 55.9147 51.1686 55.536C51.1686 55.44 51.2166 55.36 51.3126 55.296C51.4139 55.232 51.5393 55.2 51.6886 55.2C51.9766 55.2 52.1206 55.3307 52.1206 55.592L52.1286 57.784V58.344C52.4859 57.672 52.8886 56.9787 53.3366 56.264C53.7899 55.5493 54.0833 55.192 54.2166 55.192C54.3873 55.192 54.5313 55.2267 54.6486 55.296C54.7659 55.36 54.8273 55.4347 54.8326 55.52C54.7846 55.6107 54.6806 55.776 54.5206 56.016C54.4566 56.1067 54.3419 56.2827 54.1766 56.544L53.8966 56.984C53.4486 57.6827 53.1366 58.1627 52.9606 58.424C52.7846 58.68 52.6353 58.864 52.5126 58.976C52.4539 59.0293 52.3686 59.0747 52.2566 59.112C52.1446 59.1493 52.0246 59.168 51.8966 59.168ZM57.8713 58.864C57.834 58.96 57.746 59.024 57.6073 59.056C57.474 59.0933 57.3567 59.112 57.2553 59.112C57.1593 59.112 57.0953 59.088 57.0633 59.04C57.0367 58.9973 57.0127 58.9307 56.9913 58.84C56.97 58.7493 56.9567 58.688 56.9513 58.656C56.722 58.8107 56.4873 58.928 56.2473 59.008C56.0127 59.0933 55.8153 59.136 55.6553 59.136C55.5167 59.136 55.3593 59.0907 55.1833 59C55.0127 58.9093 54.866 58.7867 54.7433 58.632C54.6207 58.4773 54.5593 58.3067 54.5593 58.12C54.5593 57.8213 54.658 57.44 54.8553 56.976C55.0527 56.512 55.33 56.1067 55.6873 55.76C56.05 55.4133 56.4713 55.24 56.9513 55.24C57.3727 55.24 57.7487 55.3067 58.0793 55.44C58.41 55.5733 58.5753 55.7627 58.5753 56.008C58.426 56.2853 58.2633 56.7013 58.0873 57.256C57.9167 57.8107 57.8313 58.2213 57.8313 58.488C57.8313 58.664 57.8447 58.7893 57.8713 58.864ZM56.9673 57.984C57.01 57.7493 57.082 57.472 57.1833 57.152C57.29 56.8267 57.4313 56.5013 57.6073 56.176C57.5807 56.0693 57.4953 56 57.3513 55.968C57.2127 55.9307 57.0873 55.912 56.9753 55.912C56.778 55.912 56.5647 56.0453 56.3353 56.312C56.106 56.5787 55.9087 56.8907 55.7433 57.248C55.5833 57.6 55.5033 57.8853 55.5033 58.104C55.5033 58.2107 55.5327 58.288 55.5913 58.336C55.65 58.3787 55.7247 58.4 55.8153 58.4C55.938 58.4 56.1327 58.3547 56.3993 58.264C56.6713 58.168 56.8607 58.0747 56.9673 57.984Z" fill="#CB5300"/>
</g>
<defs>
<filter id="filter0_dd_240_392" x="0" y="0" width="84" height="84" filterUnits="userSpaceOnUse" color-interpolation-filters="sRGB">
<feFlood flood-opacity="0" result="BackgroundImageFix"/>
<feColorMatrix in="SourceAlpha" type="matrix" values="0 0 0 0 0 0 0 0 0 0 0 0 0 0 0 0 0 0 127 0" result="hardAlpha"/>
<feMorphology radius="2" operator="dilate" in="SourceAlpha" result="effect1_dropShadow_240_392"/>
<feOffset dy="2"/>
<feGaussianBlur stdDeviation="3"/>
<feColorMatrix type="matrix" values="0 0 0 0 0 0 0 0 0 0 0 0 0 0 0 0 0 0 0.15 0"/>
<feBlend mode="normal" in2="BackgroundImageFix" result="effect1_dropShadow_240_392"/>
<feColorMatrix in="SourceAlpha" type="matrix" values="0 0 0 0 0 0 0 0 0 0 0 0 0 0 0 0 0 0 127 0" result="hardAlpha"/>
<feOffset dy="1"/>
<feGaussianBlur stdDeviation="1"/>
<feColorMatrix type="matrix" values="0 0 0 0 0 0 0 0 0 0 0 0 0 0 0 0 0 0 0.3 0"/>
<feBlend mode="normal" in2="effect1_dropShadow_240_392" result="effect2_dropShadow_240_392"/>
<feBlend mode="normal" in="SourceGraphic" in2="effect2_dropShadow_240_392" result="shape"/>
</filter>
</defs>
</svg>
