<svg width="84" height="84" viewBox="0 0 84 84" fill="none" xmlns="http://www.w3.org/2000/svg">
<g filter="url(#filter0_dd_240_256)">
<rect x="8" y="6" width="68" height="68" rx="20" fill="#F9F8F6"/>
<path fill-rule="evenodd" clip-rule="evenodd" d="M33.4896 34.6747C37.0172 36.1301 39.4612 37.015 40.8202 37.4809C41.8201 37.8248 42.906 37.8248 43.9055 37.4809C45.2645 37.0154 47.7077 36.1305 51.2365 34.6747C51.2547 35.2732 51.2632 35.8722 51.2624 36.4711V36.4728C51.2624 38.7433 51.1477 40.1699 51.0338 41.0248C50.968 41.513 50.6934 41.9315 50.2584 42.1602C49.0049 42.8196 46.4558 43.7778 42.3629 43.7778C38.2699 43.7778 35.7208 42.8188 34.4677 42.1594C34.0328 41.9307 33.7578 41.5122 33.6923 41.0231C33.5781 40.1691 33.4638 38.7425 33.4638 36.4711V36.4695C33.4626 35.8714 33.471 35.2728 33.4896 34.6747ZM33.0514 32.6637C33.0325 32.6552 33.0135 32.6471 32.9941 32.6394C30.2754 31.4974 28.3394 30.6126 27.0305 29.9828C26.844 29.8932 26.7317 29.7407 26.7317 29.5748C26.7317 29.409 26.844 29.2565 27.0305 29.1665C28.3794 28.5176 30.395 27.5967 33.2457 26.4045C37.2066 24.7475 39.9119 23.7649 41.3646 23.2669H41.3658C42.0119 23.0443 42.7138 23.0443 43.3604 23.2669H43.3612C44.813 23.7649 47.5199 24.7475 51.4804 26.4045C54.3316 27.5967 56.346 28.5176 57.696 29.1665C57.8822 29.2561 57.9936 29.409 57.9936 29.5748C57.9936 29.7403 57.8822 29.8932 57.696 29.9828C56.346 30.6316 54.3308 31.5526 51.4804 32.7448C47.5195 34.4018 44.8138 35.3844 43.3612 35.8823L43.3604 35.8827C42.7138 36.105 42.0119 36.105 41.3658 35.8827L41.365 35.8823C39.9131 35.3844 37.2058 34.4018 33.2457 32.7448C33.1803 32.7176 33.1157 32.6905 33.0514 32.6637Z" fill="#CB5300"/>
<path fill-rule="evenodd" clip-rule="evenodd" d="M28.9677 32.7379V45.4007C28.6999 45.3237 28.4177 45.2823 28.1265 45.2823C27.8353 45.2823 27.553 45.3237 27.2853 45.4007V31.9711C27.7816 32.2022 28.3409 32.4581 28.9677 32.7379Z" fill="#CB5300"/>
<path d="M28.1199 46.1982C29.272 46.1982 30.2197 47.146 30.2197 48.2981C30.2197 49.4502 29.272 50.3979 28.1199 50.3979C26.9684 50.3979 26.02 49.4502 26.02 48.2981C26.02 47.146 26.9684 46.1982 28.1199 46.1982Z" fill="#CB5300"/>
<path d="M27.05 55.856C26.9434 55.8187 26.8607 55.7627 26.802 55.688C26.7487 55.608 26.722 55.5147 26.722 55.408C26.722 55.2533 26.826 55.1307 27.034 55.04C27.7967 54.8853 28.5647 54.776 29.338 54.712C29.546 54.8027 29.65 54.9253 29.65 55.08C29.65 55.176 29.602 55.2693 29.506 55.36C29.41 55.4507 29.3007 55.5147 29.178 55.552L28.738 55.608C28.6474 56.008 28.4394 56.8693 28.114 58.192L27.89 59.088L28.506 59.024C28.714 59.1147 28.818 59.2373 28.818 59.392C28.818 59.488 28.77 59.5813 28.674 59.672C28.578 59.7627 28.4687 59.8267 28.346 59.864L28.026 59.904C27.242 59.9893 26.6394 60.0773 26.218 60.168C26.1114 60.1307 26.0314 60.0747 25.978 60C25.9194 59.92 25.89 59.8267 25.89 59.72C25.89 59.5653 25.994 59.4427 26.202 59.352C26.4687 59.2987 26.6714 59.2613 26.81 59.24L27.69 55.744C27.4714 55.776 27.258 55.8133 27.05 55.856ZM29.9179 56.344C29.9019 56.328 29.8939 56.3093 29.8939 56.288C29.8939 56.2347 29.9526 56.192 30.0699 56.16C30.1872 56.1227 30.3499 56.104 30.5579 56.104C30.7499 56.104 30.8912 56.1547 30.9819 56.256C31.0726 56.352 31.1259 56.4693 31.1419 56.608L30.9979 57.128C31.1099 56.9733 31.2672 56.8267 31.4699 56.688C31.6726 56.544 31.8779 56.4293 32.0859 56.344C32.2939 56.2587 32.4646 56.216 32.5979 56.216C32.8806 56.216 33.0859 56.2693 33.2139 56.376C33.3419 56.4773 33.4059 56.64 33.4059 56.864C33.0912 57.6853 32.8832 58.5707 32.7819 59.52L32.8939 59.912C32.8299 60.0347 32.7392 60.1307 32.6219 60.2C32.5099 60.2747 32.3446 60.312 32.1259 60.312C31.9979 60.312 31.9046 60.2693 31.8459 60.184C31.7872 60.0987 31.7579 59.992 31.7579 59.864C31.7579 59.5067 31.8086 59.1147 31.9099 58.688C32.0166 58.256 32.1392 57.816 32.2779 57.368C32.3312 57.1973 32.3579 57.1093 32.3579 57.104C32.3579 57.0293 32.3152 56.992 32.2299 56.992C32.1126 56.992 31.9339 57.0747 31.6939 57.24C31.4592 57.4053 31.2166 57.6853 30.9659 58.08C30.7152 58.4693 30.5126 58.9813 30.3579 59.616C30.3472 59.648 30.3339 59.7067 30.3179 59.792C30.3019 59.8773 30.2592 59.9387 30.1899 59.976C30.1206 60.008 30.0086 60.024 29.8539 60.024C29.6779 60.024 29.5472 60.0053 29.4619 59.968C29.3819 59.9307 29.3419 59.8507 29.3419 59.728C29.3579 59.6533 29.3819 59.5627 29.4139 59.456C29.7232 58.2133 29.9606 57.256 30.1259 56.584L29.9179 56.344ZM35.0464 57.368C35.0464 57.4747 35.0944 57.56 35.1904 57.624C35.2864 57.688 35.4384 57.76 35.6464 57.84C35.8704 57.9307 36.0517 58.016 36.1904 58.096C36.3291 58.176 36.4491 58.2933 36.5504 58.448C36.6571 58.5973 36.7104 58.7893 36.7104 59.024C36.7104 59.408 36.5504 59.704 36.2304 59.912C35.9157 60.1147 35.4917 60.216 34.9584 60.216C34.6971 60.216 34.4517 60.1733 34.2224 60.088C33.9984 60.008 33.8197 59.9067 33.6864 59.784C33.5531 59.6613 33.4864 59.5387 33.4864 59.416C33.4864 59.288 33.5424 59.184 33.6544 59.104C33.7664 59.0187 33.9237 58.9627 34.1264 58.936C34.1317 59.0427 34.1877 59.144 34.2944 59.24C34.4011 59.3307 34.5264 59.4053 34.6704 59.464C34.8197 59.5173 34.9477 59.544 35.0544 59.544C35.2357 59.544 35.4011 59.496 35.5504 59.4C35.6997 59.2987 35.7744 59.1813 35.7744 59.048C35.7744 58.8027 35.5371 58.608 35.0624 58.464C34.7584 58.3733 34.5237 58.2293 34.3584 58.032C34.1984 57.8347 34.1184 57.6267 34.1184 57.408C34.1184 57.024 34.2757 56.728 34.5904 56.52C34.9104 56.312 35.3371 56.208 35.8704 56.208C36.1317 56.208 36.3637 56.248 36.5664 56.328C36.7744 56.408 36.9344 56.512 37.0464 56.64C37.1584 56.7627 37.2144 56.8853 37.2144 57.008C37.2144 57.136 37.1584 57.2427 37.0464 57.328C36.9344 57.408 36.7771 57.4613 36.5744 57.488C36.5691 57.3813 36.5211 57.2827 36.4304 57.192C36.3451 57.096 36.2411 57.0213 36.1184 56.968C35.9957 56.9093 35.8811 56.88 35.7744 56.88C35.5931 56.88 35.4251 56.928 35.2704 57.024C35.1211 57.12 35.0464 57.2347 35.0464 57.368ZM37.8381 57.216C37.7741 57.216 37.7261 57.192 37.6941 57.144C37.6621 57.0907 37.6461 57.024 37.6461 56.944C37.6461 56.832 37.6888 56.7067 37.7741 56.568C37.8221 56.52 38.0808 56.4693 38.5501 56.416L38.8941 54.864C38.9314 54.6933 38.9928 54.568 39.0781 54.488C39.1688 54.4027 39.2674 54.36 39.3741 54.36C39.5021 54.36 39.6168 54.4053 39.7181 54.496C39.8248 54.5867 39.8808 54.6933 39.8861 54.816C39.8861 54.848 39.8808 54.8907 39.8701 54.944L39.5261 56.32C39.8781 56.2933 40.1048 56.28 40.2061 56.28C40.2968 56.28 40.3821 56.3013 40.4621 56.344C40.5474 56.3813 40.6141 56.4267 40.6621 56.48C40.7101 56.5333 40.7341 56.5787 40.7341 56.616C40.7341 56.7067 40.6968 56.7893 40.6221 56.864C40.5528 56.9333 40.4728 56.976 40.3821 56.992L39.3341 57.088L38.6461 59.84C38.5661 60.064 38.4568 60.176 38.3181 60.176C38.2061 60.176 38.1048 60.1067 38.0141 59.968C37.9288 59.8293 37.8861 59.672 37.8861 59.496C37.8861 59.4267 37.8941 59.3573 37.9101 59.288L38.3821 57.168L37.8381 57.216ZM41.5527 55.248C41.5527 55.0827 41.6033 54.936 41.7047 54.808C41.8113 54.68 41.958 54.616 42.1447 54.616C42.342 54.616 42.5127 54.6773 42.6567 54.8C42.806 54.9227 42.8807 55.0613 42.8807 55.216C42.8807 55.3707 42.806 55.504 42.6567 55.616C42.5073 55.728 42.334 55.784 42.1367 55.784C41.9447 55.784 41.798 55.736 41.6967 55.64C41.6007 55.5387 41.5527 55.408 41.5527 55.248ZM42.3927 56.664C42.11 57.816 41.894 58.6827 41.7447 59.264C41.7233 59.3493 41.7127 59.4427 41.7127 59.544L41.7207 59.768C41.7207 59.8587 41.6913 59.9227 41.6327 59.96C41.5793 59.9973 41.462 60.0187 41.2807 60.024C41.1047 60.024 40.9713 60.0053 40.8807 59.968C40.79 59.9307 40.7447 59.8507 40.7447 59.728C40.7447 59.6693 40.8113 59.3573 40.9447 58.792C41.0833 58.2267 41.27 57.4907 41.5047 56.584L41.3207 56.344C41.3047 56.328 41.2967 56.3093 41.2967 56.288C41.2967 56.2347 41.3553 56.192 41.4727 56.16C41.59 56.1227 41.7527 56.104 41.9607 56.104C42.142 56.104 42.2567 56.1573 42.3047 56.264C42.358 56.3653 42.3873 56.4987 42.3927 56.664ZM44.0196 59.12C44.0196 59.2427 44.0516 59.3413 44.1156 59.416C44.1796 59.4853 44.2703 59.52 44.3876 59.52C44.5476 59.52 44.6783 59.4747 44.7796 59.384C44.8863 59.288 44.9983 59.1547 45.1156 58.984C45.2009 58.8613 45.2703 58.7733 45.3236 58.72C45.3769 58.6667 45.4383 58.64 45.5076 58.64C45.6463 58.64 45.7449 58.6587 45.8036 58.696C45.8623 58.728 45.8916 58.7973 45.8916 58.904C45.8916 58.952 45.8863 59.0107 45.8756 59.08C45.8649 59.144 45.8516 59.192 45.8356 59.224C45.7076 59.496 45.4969 59.7307 45.2036 59.928C44.9156 60.1253 44.5876 60.224 44.2196 60.224C43.8516 60.224 43.5743 60.136 43.3876 59.96C43.2009 59.7787 43.1076 59.5227 43.1076 59.192C43.1076 59.144 43.1316 59.0187 43.1796 58.816C43.2276 58.6133 43.2889 58.3707 43.3636 58.088L43.5876 57.176L43.0996 57.216C43.0356 57.216 42.9876 57.192 42.9556 57.144C42.9236 57.096 42.9076 57.0373 42.9076 56.968C42.9076 56.8347 42.9556 56.7013 43.0516 56.568C43.0623 56.552 43.1156 56.536 43.2116 56.52C43.3076 56.504 43.4249 56.488 43.5636 56.472L43.7796 56.448L44.0516 55.28C44.1049 55.1413 44.1849 55.0347 44.2916 54.96C44.4036 54.88 44.5076 54.84 44.6036 54.84C44.7103 54.84 44.8009 54.872 44.8756 54.936C44.9503 55 44.9903 55.0747 44.9956 55.16L44.7076 56.36C44.9156 56.3333 45.1076 56.312 45.2836 56.296C45.4649 56.2747 45.6063 56.264 45.7076 56.264C45.9103 56.264 46.0116 56.3813 46.0116 56.616C46.0116 56.7067 45.9716 56.7893 45.8916 56.864C45.8169 56.9333 45.7343 56.976 45.6436 56.992L44.5236 57.104L44.0196 59.12ZM49.5278 59.976C49.5064 60.0667 49.4584 60.128 49.3838 60.16C49.3091 60.1973 49.2104 60.216 49.0878 60.216C48.7198 60.216 48.5358 60.1333 48.5358 59.968L48.5838 59.664C48.4024 59.8347 48.2238 59.96 48.0478 60.04C47.8771 60.1253 47.6824 60.168 47.4638 60.168C47.1544 60.168 46.8931 60.0853 46.6798 59.92C46.4718 59.7493 46.3678 59.448 46.3678 59.016C46.3678 58.9093 46.3838 58.792 46.4158 58.664L46.9518 56.528C46.9838 56.4107 47.0398 56.3253 47.1198 56.272C47.2051 56.2133 47.3411 56.184 47.5278 56.184C47.8051 56.184 47.9438 56.2613 47.9438 56.416C47.9438 56.48 47.9251 56.5813 47.8878 56.72L47.3518 58.864C47.3358 58.928 47.3278 58.992 47.3278 59.056C47.3278 59.168 47.3571 59.2587 47.4158 59.328C47.4744 59.3973 47.5678 59.432 47.6958 59.432C47.8664 59.432 48.0584 59.384 48.2718 59.288C48.4851 59.1867 48.6558 59.0693 48.7838 58.936L48.9918 58.128C49.2104 57.264 49.3384 56.7627 49.3758 56.624C49.4078 56.5067 49.4371 56.4213 49.4638 56.368C49.4958 56.3093 49.5491 56.2667 49.6238 56.24C49.6984 56.208 49.8104 56.192 49.9598 56.192C50.2424 56.192 50.3838 56.2773 50.3838 56.448C50.3838 56.4747 50.3758 56.5093 50.3598 56.552C50.3491 56.5893 50.3411 56.6213 50.3358 56.648L50.0158 57.944C49.7598 58.9733 49.5971 59.6507 49.5278 59.976ZM51.8008 59.104C51.8008 59.2267 51.8222 59.312 51.8648 59.36C51.9075 59.408 51.9875 59.432 52.1048 59.432C52.2595 59.432 52.3875 59.4 52.4888 59.336C52.5955 59.2667 52.7235 59.16 52.8728 59.016C52.9155 58.9733 52.9635 58.952 53.0168 58.952C53.0808 58.952 53.1315 59 53.1688 59.096C53.2062 59.1867 53.2248 59.28 53.2248 59.376C53.2248 59.5093 53.1715 59.64 53.0648 59.768C52.9582 59.896 52.8035 60 52.6008 60.08C52.3982 60.16 52.1608 60.2 51.8888 60.2C51.5262 60.2 51.2675 60.1173 51.1128 59.952C50.9635 59.7867 50.8888 59.5333 50.8888 59.192C50.8888 59.144 50.9128 59.0187 50.9608 58.816C51.0088 58.6133 51.0702 58.3707 51.1448 58.088L51.3688 57.176L50.8808 57.216C50.8168 57.216 50.7688 57.192 50.7368 57.144C50.7048 57.096 50.6888 57.0373 50.6888 56.968C50.6888 56.8347 50.7368 56.7013 50.8328 56.568C50.8435 56.552 50.8968 56.536 50.9928 56.52C51.0888 56.504 51.2062 56.488 51.3448 56.472L51.5608 56.448L51.7448 55.624C51.7982 55.4853 51.8782 55.3787 51.9848 55.304C52.0968 55.224 52.2008 55.184 52.2968 55.184C52.4035 55.184 52.4942 55.216 52.5688 55.28C52.6435 55.344 52.6835 55.4187 52.6888 55.504L52.4888 56.36C52.6968 56.3333 52.8888 56.312 53.0648 56.296C53.2462 56.2747 53.3875 56.264 53.4888 56.264C53.6915 56.264 53.7928 56.3813 53.7928 56.616C53.7928 56.7067 53.7528 56.7893 53.6728 56.864C53.5982 56.9333 53.5155 56.976 53.4248 56.992L52.3048 57.104L51.8008 59.104ZM55.677 60.08C55.3624 60.08 55.0904 60.0053 54.861 59.856C54.6317 59.7067 54.4557 59.504 54.333 59.248C54.2157 58.992 54.157 58.7013 54.157 58.376C54.157 57.9493 54.2397 57.5653 54.405 57.224C54.5757 56.8773 54.8157 56.6053 55.125 56.408C55.4344 56.2107 55.7944 56.112 56.205 56.112C56.6584 56.112 56.965 56.152 57.125 56.232C57.1677 56.2533 57.2077 56.288 57.245 56.336C57.2877 56.3787 57.3117 56.4213 57.317 56.464C57.3064 56.608 57.2584 56.7093 57.173 56.768C57.2957 56.7787 57.397 56.84 57.477 56.952C57.5624 57.064 57.6264 57.1947 57.669 57.344C57.7117 57.488 57.733 57.6187 57.733 57.736C57.733 58.1147 57.6504 58.4853 57.485 58.848C57.3197 59.2053 57.0797 59.5013 56.765 59.736C56.4557 59.9653 56.093 60.08 55.677 60.08ZM55.789 59.416C55.9597 59.416 56.1224 59.3333 56.277 59.168C56.437 59.0027 56.565 58.784 56.661 58.512C56.7624 58.2347 56.813 57.9387 56.813 57.624C56.813 57.5653 56.7944 57.512 56.757 57.464C56.7197 57.416 56.6664 57.3653 56.597 57.312C56.5864 57.3067 56.5597 57.2853 56.517 57.248C56.4797 57.2107 56.461 57.176 56.461 57.144C56.461 57.1227 56.4664 57.0933 56.477 57.056C56.4877 57.0133 56.493 56.984 56.493 56.968C56.493 56.8933 56.3997 56.856 56.213 56.856C55.9944 56.856 55.7997 56.944 55.629 57.12C55.4637 57.2907 55.333 57.512 55.237 57.784C55.1464 58.0507 55.101 58.32 55.101 58.592C55.101 58.7467 55.1357 58.888 55.205 59.016C55.2797 59.1387 55.3704 59.2373 55.477 59.312C55.5837 59.3813 55.6877 59.416 55.789 59.416Z" fill="#CB5300"/>
</g>
<defs>
<filter id="filter0_dd_240_256" x="0" y="0" width="84" height="84" filterUnits="userSpaceOnUse" color-interpolation-filters="sRGB">
<feFlood flood-opacity="0" result="BackgroundImageFix"/>
<feColorMatrix in="SourceAlpha" type="matrix" values="0 0 0 0 0 0 0 0 0 0 0 0 0 0 0 0 0 0 127 0" result="hardAlpha"/>
<feMorphology radius="2" operator="dilate" in="SourceAlpha" result="effect1_dropShadow_240_256"/>
<feOffset dy="2"/>
<feGaussianBlur stdDeviation="3"/>
<feColorMatrix type="matrix" values="0 0 0 0 0 0 0 0 0 0 0 0 0 0 0 0 0 0 0.15 0"/>
<feBlend mode="normal" in2="BackgroundImageFix" result="effect1_dropShadow_240_256"/>
<feColorMatrix in="SourceAlpha" type="matrix" values="0 0 0 0 0 0 0 0 0 0 0 0 0 0 0 0 0 0 127 0" result="hardAlpha"/>
<feOffset dy="1"/>
<feGaussianBlur stdDeviation="1"/>
<feColorMatrix type="matrix" values="0 0 0 0 0 0 0 0 0 0 0 0 0 0 0 0 0 0 0.3 0"/>
<feBlend mode="normal" in2="effect1_dropShadow_240_256" result="effect2_dropShadow_240_256"/>
<feBlend mode="normal" in="SourceGraphic" in2="effect2_dropShadow_240_256" result="shape"/>
</filter>
</defs>
</svg>
