<svg width="84" height="84" viewBox="0 0 84 84" fill="none" xmlns="http://www.w3.org/2000/svg">
<g filter="url(#filter0_dd_240_287)">
<rect x="8" y="6" width="68" height="68" rx="20" fill="#F9F8F6"/>
<path fill-rule="evenodd" clip-rule="evenodd" d="M34.4338 31.4392C33.7587 31.444 33.1835 31.3902 32.7022 31.3095L32.7006 31.3092C31.3577 31.0797 30.3757 29.9159 30.3757 28.5536V26.7901C30.3757 26.4145 30.5252 26.0541 30.7907 25.7885C31.0563 25.5229 31.4164 25.3738 31.7921 25.3738H33.6886C33.654 26.0011 33.6309 26.6975 33.6309 27.4402C33.6309 28.835 33.9101 30.195 34.4338 31.4392Z" fill="#CB5300"/>
<path fill-rule="evenodd" clip-rule="evenodd" d="M50.3963 25.3738H52.2928C52.6684 25.3738 53.0286 25.5229 53.2944 25.7885C53.56 26.0541 53.7091 26.4145 53.7091 26.7901V28.5536C53.7091 29.9159 52.7272 31.0797 51.3843 31.3092L51.3827 31.3095C50.9014 31.3902 50.3261 31.444 49.6514 31.4392C50.1751 30.195 50.4539 28.835 50.4539 27.4402C50.4539 26.6975 50.4309 26.0011 50.3963 25.3738Z" fill="#CB5300"/>
<path fill-rule="evenodd" clip-rule="evenodd" d="M44.0033 41.2583C45.186 41.5076 46.0906 42.5106 46.1918 43.7412L45.962 43.971H38.1236L37.8938 43.7412C37.9947 42.5106 38.8996 41.5076 40.082 41.2583C40.2674 41.2192 40.4595 41.1987 40.6567 41.1987H43.4289C43.6258 41.1987 43.8179 41.2192 44.0033 41.2583Z" fill="#CB5300"/>
<path fill-rule="evenodd" clip-rule="evenodd" d="M34.4491 23.2382C34.5484 22.3808 35.0895 21.6902 35.9323 21.5036C36.8654 21.2971 38.6746 21.0529 42.0427 21.0529C45.4107 21.0529 47.2193 21.2971 48.1531 21.5036C48.9958 21.6902 49.5367 22.3808 49.6359 23.2382C49.7424 24.1545 49.8766 25.6632 49.8766 27.4402C49.8766 30.9302 48.0275 34.1918 44.9242 35.7889C43.8546 36.3397 42.8037 36.7207 42.0427 36.7207C41.2814 36.7207 40.2304 36.3392 39.1609 35.7889C36.0576 34.1918 34.2085 30.9305 34.2085 27.4402C34.2085 25.6632 34.3427 24.1545 34.4491 23.2382Z" fill="#CB5300"/>
<path fill-rule="evenodd" clip-rule="evenodd" d="M40.0789 40.6709V36.8402C40.8143 37.1274 41.498 37.2985 42.0427 37.2985C42.5875 37.2985 43.2711 37.1277 44.0063 36.8405V40.6709C43.8187 40.6382 43.6257 40.6213 43.4289 40.6213H40.6566C40.4595 40.6213 40.2665 40.6382 40.0789 40.6709Z" fill="#CB5300"/>
<path d="M38.3715 57.984C38.5795 58.0747 38.6835 58.1973 38.6835 58.352C38.6835 58.448 38.6355 58.5413 38.5395 58.632C38.4435 58.7227 38.3342 58.7867 38.2115 58.824C37.9182 58.856 37.7102 58.8747 37.5875 58.88C36.8729 58.9387 36.3689 58.9947 36.0755 59.048C36.0275 59.08 35.9262 59.096 35.7715 59.096C35.6222 59.096 35.4889 59.0267 35.3715 58.888C35.2595 58.7493 35.2035 58.6053 35.2035 58.456C35.2035 58.3973 35.2115 58.3413 35.2275 58.288L36.2515 54.24C36.3102 54.0053 36.3715 53.8507 36.4355 53.776C36.5049 53.696 36.6275 53.656 36.8035 53.656C36.9475 53.656 37.0702 53.672 37.1715 53.704C37.2782 53.736 37.3342 53.784 37.3395 53.848C37.3395 53.9973 36.9955 55.448 36.3075 58.2C36.7769 58.12 37.3742 58.056 38.0995 58.008L38.3715 57.984ZM39.7948 54.248C39.7948 54.0827 39.8455 53.936 39.9468 53.808C40.0535 53.68 40.2002 53.616 40.3868 53.616C40.5842 53.616 40.7548 53.6773 40.8988 53.8C41.0482 53.9227 41.1228 54.0613 41.1228 54.216C41.1228 54.3707 41.0482 54.504 40.8988 54.616C40.7495 54.728 40.5762 54.784 40.3788 54.784C40.1868 54.784 40.0402 54.736 39.9388 54.64C39.8428 54.5387 39.7948 54.408 39.7948 54.248ZM40.6348 55.664C40.3522 56.816 40.1362 57.6827 39.9868 58.264C39.9655 58.3493 39.9548 58.4427 39.9548 58.544L39.9628 58.768C39.9628 58.8587 39.9335 58.9227 39.8748 58.96C39.8215 58.9973 39.7042 59.0187 39.5228 59.024C39.3468 59.024 39.2135 59.0053 39.1228 58.968C39.0322 58.9307 38.9868 58.8507 38.9868 58.728C38.9868 58.6693 39.0535 58.3573 39.1868 57.792C39.3255 57.2267 39.5122 56.4907 39.7468 55.584L39.5628 55.344C39.5468 55.328 39.5388 55.3093 39.5388 55.288C39.5388 55.2347 39.5975 55.192 39.7148 55.16C39.8322 55.1227 39.9948 55.104 40.2028 55.104C40.3842 55.104 40.4988 55.1573 40.5468 55.264C40.6002 55.3653 40.6295 55.4987 40.6348 55.664ZM41.9578 60.816C41.7124 60.816 41.4804 60.7627 41.2618 60.656C41.0484 60.5493 40.8698 60.4107 40.7258 60.24C40.5764 60.0747 40.4698 59.9067 40.4058 59.736C40.4111 59.64 40.4591 59.544 40.5498 59.448C40.6351 59.3573 40.7871 59.312 41.0058 59.312C41.0751 59.312 41.1338 59.3387 41.1818 59.392C41.2351 59.4453 41.2938 59.5307 41.3578 59.648C41.4431 59.808 41.5311 59.9307 41.6218 60.016C41.7178 60.1067 41.8484 60.152 42.0138 60.152C42.2004 60.152 42.3791 60.0773 42.5498 59.928C42.7258 59.784 42.8751 59.5867 42.9978 59.336C43.1258 59.0853 43.2138 58.808 43.2618 58.504C43.1444 58.664 43.0084 58.7867 42.8538 58.872C42.7044 58.9573 42.5631 59 42.4298 59C42.0031 59 41.6644 58.9067 41.4138 58.72C41.1684 58.528 41.0458 58.1893 41.0458 57.704C41.0458 57.2667 41.1658 56.8587 41.4058 56.48C41.6511 56.1013 41.9764 55.8 42.3818 55.576C42.7871 55.352 43.2218 55.24 43.6858 55.24C43.9898 55.24 44.2138 55.3013 44.3578 55.424C44.5071 55.5467 44.5978 55.7013 44.6298 55.888C44.7204 55.9307 44.7684 55.9733 44.7738 56.016C44.7738 56.032 44.7631 56.088 44.7418 56.184C44.6404 56.6213 44.4271 57.4853 44.1018 58.776L44.0138 59.128C43.8804 59.6453 43.6244 60.056 43.2458 60.36C42.8724 60.664 42.4431 60.816 41.9578 60.816ZM43.7658 56.064C43.7231 55.9893 43.6804 55.9413 43.6378 55.92C43.6004 55.8987 43.5418 55.888 43.4618 55.888C43.2111 55.888 42.9684 55.9707 42.7338 56.136C42.4991 56.296 42.3098 56.5067 42.1658 56.768C42.0218 57.024 41.9498 57.288 41.9498 57.56C41.9498 57.7573 41.9844 57.928 42.0538 58.072C42.1284 58.216 42.2458 58.2987 42.4058 58.32C42.6191 58.2827 42.8191 58.1867 43.0058 58.032C43.1978 57.8773 43.3284 57.6773 43.3978 57.432L43.7658 56.064ZM48.3088 58.864C48.2715 58.96 48.1835 59.024 48.0448 59.056C47.9115 59.0933 47.7942 59.112 47.6928 59.112C47.5968 59.112 47.5328 59.088 47.5008 59.04C47.4742 58.9973 47.4502 58.9307 47.4288 58.84C47.4075 58.7493 47.3942 58.688 47.3888 58.656C47.1595 58.8107 46.9248 58.928 46.6848 59.008C46.4502 59.0933 46.2528 59.136 46.0928 59.136C45.9542 59.136 45.7968 59.0907 45.6208 59C45.4502 58.9093 45.3035 58.7867 45.1808 58.632C45.0582 58.4773 44.9968 58.3067 44.9968 58.12C44.9968 57.8213 45.0955 57.44 45.2928 56.976C45.4902 56.512 45.7675 56.1067 46.1248 55.76C46.4875 55.4133 46.9088 55.24 47.3888 55.24C47.8102 55.24 48.1862 55.3067 48.5168 55.44C48.8475 55.5733 49.0128 55.7627 49.0128 56.008C48.8635 56.2853 48.7008 56.7013 48.5248 57.256C48.3542 57.8107 48.2688 58.2213 48.2688 58.488C48.2688 58.664 48.2822 58.7893 48.3088 58.864ZM47.4048 57.984C47.4475 57.7493 47.5195 57.472 47.6208 57.152C47.7275 56.8267 47.8688 56.5013 48.0448 56.176C48.0182 56.0693 47.9328 56 47.7888 55.968C47.6502 55.9307 47.5248 55.912 47.4128 55.912C47.2155 55.912 47.0022 56.0453 46.7728 56.312C46.5435 56.5787 46.3462 56.8907 46.1808 57.248C46.0208 57.6 45.9408 57.8853 45.9408 58.104C45.9408 58.2107 45.9702 58.288 46.0288 58.336C46.0875 58.3787 46.1622 58.4 46.2528 58.4C46.3755 58.4 46.5702 58.3547 46.8368 58.264C47.1088 58.168 47.2982 58.0747 47.4048 57.984Z" fill="#CB5300"/>
</g>
<defs>
<filter id="filter0_dd_240_287" x="0" y="0" width="84" height="84" filterUnits="userSpaceOnUse" color-interpolation-filters="sRGB">
<feFlood flood-opacity="0" result="BackgroundImageFix"/>
<feColorMatrix in="SourceAlpha" type="matrix" values="0 0 0 0 0 0 0 0 0 0 0 0 0 0 0 0 0 0 127 0" result="hardAlpha"/>
<feMorphology radius="2" operator="dilate" in="SourceAlpha" result="effect1_dropShadow_240_287"/>
<feOffset dy="2"/>
<feGaussianBlur stdDeviation="3"/>
<feColorMatrix type="matrix" values="0 0 0 0 0 0 0 0 0 0 0 0 0 0 0 0 0 0 0.15 0"/>
<feBlend mode="normal" in2="BackgroundImageFix" result="effect1_dropShadow_240_287"/>
<feColorMatrix in="SourceAlpha" type="matrix" values="0 0 0 0 0 0 0 0 0 0 0 0 0 0 0 0 0 0 127 0" result="hardAlpha"/>
<feOffset dy="1"/>
<feGaussianBlur stdDeviation="1"/>
<feColorMatrix type="matrix" values="0 0 0 0 0 0 0 0 0 0 0 0 0 0 0 0 0 0 0.3 0"/>
<feBlend mode="normal" in2="effect1_dropShadow_240_287" result="effect2_dropShadow_240_287"/>
<feBlend mode="normal" in="SourceGraphic" in2="effect2_dropShadow_240_287" result="shape"/>
</filter>
</defs>
</svg>
