<svg width="84" height="84" viewBox="0 0 84 84" fill="none" xmlns="http://www.w3.org/2000/svg">
<g filter="url(#filter0_dd_240_464)">
<rect x="8" y="6" width="68" height="68" rx="20" fill="#F9F8F6"/>
<path fill-rule="evenodd" clip-rule="evenodd" d="M47.3625 23.5601C48.2945 23.6117 49.0946 24.2418 49.3632 25.1359C50.8284 30.0758 51.8583 35.0853 52.6797 40.1278C52.7812 40.7568 52.6073 41.3989 52.2023 41.8907C51.7976 42.3828 51.2004 42.6767 50.5639 42.6974C44.9553 42.8704 39.2203 42.8488 33.393 42.6858C32.7556 42.6672 32.1574 42.3756 31.7504 41.8852C31.3431 41.3945 31.1671 40.7524 31.2664 40.1228C32.0578 35.199 33.1135 30.2167 34.6003 25.1401C34.8656 24.2427 35.6654 23.6087 36.5994 23.5549C40.274 23.3536 43.8536 23.3741 47.3625 23.5601ZM45.2228 29.4207C45.2228 30.976 43.751 32.1966 41.9782 32.1966C40.2056 32.1966 38.7338 30.976 38.7338 29.4207C38.7338 29.1019 38.4748 28.8433 38.156 28.8433C37.8372 28.8433 37.5786 29.1019 37.5786 29.4207C37.5786 31.5698 39.5289 33.3518 41.9782 33.3518C44.4275 33.3518 46.378 31.5698 46.378 29.4207C46.378 29.1019 46.1191 28.8433 45.8003 28.8433C45.4815 28.8433 45.2228 29.1019 45.2228 29.4207Z" fill="#CB5300"/>
<path d="M37.042 53.656C37.2394 53.6933 37.3674 53.7253 37.426 53.752C37.49 53.7733 37.5327 53.808 37.554 53.856C37.442 54.288 37.2954 54.9013 37.114 55.696C36.9327 56.4853 36.81 57.016 36.746 57.288C36.6287 57.832 36.5194 58.3147 36.418 58.736C36.3434 59.0293 36.226 59.176 36.066 59.176C35.5754 59.176 35.33 59.0613 35.33 58.832C35.33 58.9227 35.4687 58.32 35.746 57.024L35.89 56.336L34.298 58.8C34.2127 58.9067 34.0874 58.96 33.922 58.96C33.7834 58.96 33.6527 58.9253 33.53 58.856C33.4127 58.7867 33.362 58.7173 33.378 58.648L32.938 56.064L32.282 58.712C32.2447 58.8667 32.186 58.9707 32.106 59.024C32.0314 59.0773 31.8874 59.104 31.674 59.104C31.5087 59.104 31.386 59.0747 31.306 59.016C31.2314 58.9627 31.194 58.8693 31.194 58.736C31.194 58.6773 31.202 58.6213 31.218 58.568L32.314 54.24C32.3727 54.0053 32.434 53.8507 32.498 53.776C32.5674 53.696 32.69 53.656 32.866 53.656C33.01 53.656 33.138 53.672 33.25 53.704C33.362 53.736 33.4207 53.784 33.426 53.848V53.864L34.066 57.84C34.2954 57.472 34.6714 56.864 35.194 56.016C35.722 55.168 36.1354 54.5067 36.434 54.032C36.4874 53.8987 36.546 53.8133 36.61 53.776C36.6794 53.7333 36.7567 53.704 36.842 53.688C36.9327 53.672 36.9994 53.6613 37.042 53.656ZM40.8293 58.584C40.8399 58.7227 40.8586 58.848 40.8853 58.96C40.8746 58.992 40.8266 59.024 40.7413 59.056C40.6613 59.088 40.5919 59.104 40.5333 59.104C40.3413 59.104 40.2026 59.0747 40.1173 59.016C40.0373 58.9627 39.9973 58.88 39.9973 58.768C39.9973 58.6613 40.0079 58.5547 40.0293 58.448C39.9119 58.608 39.7386 58.7413 39.5093 58.848C39.2853 58.9493 39.1039 59 38.9653 59C38.6079 59 38.3093 58.896 38.0693 58.688C37.8346 58.48 37.7173 58.1467 37.7173 57.688C37.7173 57.256 37.8186 56.8507 38.0213 56.472C38.2293 56.088 38.5146 55.7813 38.8773 55.552C39.2399 55.3173 39.6426 55.2 40.0853 55.2C40.1706 55.2 40.2826 55.224 40.4213 55.272C40.5599 55.3147 40.6986 55.392 40.8373 55.504C40.9813 55.6107 41.1013 55.7493 41.1973 55.92C41.2399 55.92 41.2906 55.9413 41.3493 55.984C41.4079 56.0267 41.4373 56.0693 41.4373 56.112C41.4373 56.16 41.4293 56.208 41.4133 56.256L40.8293 58.584ZM40.4693 56.344C40.4373 56.2267 40.3733 56.128 40.2773 56.048C40.1866 55.968 40.1039 55.928 40.0293 55.928C39.7839 55.928 39.5519 56.016 39.3333 56.192C39.1199 56.3627 38.9466 56.576 38.8133 56.832C38.6799 57.088 38.6133 57.3307 38.6133 57.56C38.6133 57.784 38.6399 57.968 38.6933 58.112C38.7466 58.256 38.8506 58.328 39.0053 58.328C39.1386 58.328 39.2906 58.288 39.4613 58.208C39.6373 58.128 39.7919 58.0213 39.9253 57.888C40.0639 57.7493 40.1546 57.6053 40.1973 57.456L40.4693 56.344ZM42.7169 58.696C42.7116 58.728 42.6982 58.792 42.6769 58.888C42.6609 58.9787 42.6156 59.0427 42.5409 59.08C42.4716 59.1173 42.3596 59.136 42.2049 59.136C42.0289 59.136 41.9009 59.1173 41.8209 59.08C41.7409 59.0427 41.7009 58.9627 41.7009 58.84L42.0849 57.312C42.2982 56.432 42.4396 55.872 42.5089 55.632L42.3089 55.392C42.2929 55.376 42.2849 55.3573 42.2849 55.336C42.2849 55.2827 42.3436 55.24 42.4609 55.208C42.5782 55.1707 42.7409 55.152 42.9489 55.152C43.1356 55.152 43.2609 55.2053 43.3249 55.312C43.3889 55.4133 43.4289 55.5467 43.4449 55.712L43.3889 55.92C43.5596 55.712 43.7569 55.5413 43.9809 55.408C44.2102 55.2693 44.4129 55.2 44.5889 55.2C44.8182 55.2 44.9969 55.24 45.1249 55.32C45.2529 55.4 45.3169 55.504 45.3169 55.632C45.3169 55.744 45.2769 55.8613 45.1969 55.984C45.1222 56.1013 45.0262 56.2027 44.9089 56.288C44.7916 56.368 44.6769 56.4133 44.5649 56.424C44.4582 56.424 44.3862 56.4107 44.3489 56.384C44.3116 56.3573 44.2929 56.3173 44.2929 56.264L44.3409 56C43.9142 56.1173 43.5276 56.4 43.1809 56.848L42.7169 58.696ZM48.2782 58.272C48.1822 58.544 47.9928 58.7627 47.7102 58.928C47.4275 59.088 47.0328 59.168 46.5262 59.168C46.1742 59.168 45.8835 59.1067 45.6542 58.984C45.4248 58.8613 45.2568 58.7013 45.1502 58.504C45.0435 58.3067 44.9902 58.0933 44.9902 57.864C44.9902 57.352 45.0915 56.896 45.2942 56.496C45.4968 56.0907 45.7822 55.776 46.1502 55.552C46.5235 55.3227 46.9555 55.208 47.4462 55.208C47.7555 55.208 48.0222 55.2987 48.2462 55.48C48.4702 55.6613 48.5822 55.9013 48.5822 56.2C48.5822 56.3173 48.5395 56.416 48.4542 56.496C48.3742 56.5707 48.2568 56.608 48.1022 56.608C47.9742 56.608 47.8835 56.576 47.8302 56.512C47.7768 56.4427 47.7502 56.3627 47.7502 56.272C47.7502 56.1547 47.7102 56.0613 47.6302 55.992C47.5502 55.9227 47.4488 55.888 47.3262 55.888C47.1662 55.888 46.9742 55.9733 46.7502 56.144C46.5315 56.3147 46.3422 56.552 46.1822 56.856C46.0275 57.1547 45.9502 57.4907 45.9502 57.864C45.9502 58.0293 46.0115 58.1707 46.1342 58.288C46.2568 58.4053 46.4275 58.464 46.6462 58.464C46.8275 58.464 46.9742 58.4293 47.0862 58.36C47.1982 58.2907 47.3182 58.192 47.4462 58.064C47.5262 57.984 47.5928 57.9253 47.6462 57.888C47.6995 57.8507 47.7555 57.832 47.8142 57.832C47.9422 57.832 48.0462 57.8693 48.1262 57.944C48.2062 58.0133 48.2568 58.1227 48.2782 58.272ZM52.2463 58.864C52.209 58.96 52.121 59.024 51.9823 59.056C51.849 59.0933 51.7317 59.112 51.6303 59.112C51.5343 59.112 51.4703 59.088 51.4383 59.04C51.4117 58.9973 51.3877 58.9307 51.3663 58.84C51.345 58.7493 51.3317 58.688 51.3263 58.656C51.097 58.8107 50.8623 58.928 50.6223 59.008C50.3877 59.0933 50.1903 59.136 50.0303 59.136C49.8917 59.136 49.7343 59.0907 49.5583 59C49.3877 58.9093 49.241 58.7867 49.1183 58.632C48.9957 58.4773 48.9343 58.3067 48.9343 58.12C48.9343 57.8213 49.033 57.44 49.2303 56.976C49.4277 56.512 49.705 56.1067 50.0623 55.76C50.425 55.4133 50.8463 55.24 51.3263 55.24C51.7477 55.24 52.1237 55.3067 52.4543 55.44C52.785 55.5733 52.9503 55.7627 52.9503 56.008C52.801 56.2853 52.6383 56.7013 52.4623 57.256C52.2917 57.8107 52.2063 58.2213 52.2063 58.488C52.2063 58.664 52.2197 58.7893 52.2463 58.864ZM51.3423 57.984C51.385 57.7493 51.457 57.472 51.5583 57.152C51.665 56.8267 51.8063 56.5013 51.9823 56.176C51.9557 56.0693 51.8703 56 51.7263 55.968C51.5877 55.9307 51.4623 55.912 51.3503 55.912C51.153 55.912 50.9397 56.0453 50.7103 56.312C50.481 56.5787 50.2837 56.8907 50.1183 57.248C49.9583 57.6 49.8783 57.8853 49.8783 58.104C49.8783 58.2107 49.9077 58.288 49.9663 58.336C50.025 58.3787 50.0997 58.4 50.1903 58.4C50.313 58.4 50.5077 58.3547 50.7743 58.264C51.0463 58.168 51.2357 58.0747 51.3423 57.984Z" fill="#CB5300"/>
</g>
<defs>
<filter id="filter0_dd_240_464" x="0" y="0" width="84" height="84" filterUnits="userSpaceOnUse" color-interpolation-filters="sRGB">
<feFlood flood-opacity="0" result="BackgroundImageFix"/>
<feColorMatrix in="SourceAlpha" type="matrix" values="0 0 0 0 0 0 0 0 0 0 0 0 0 0 0 0 0 0 127 0" result="hardAlpha"/>
<feMorphology radius="2" operator="dilate" in="SourceAlpha" result="effect1_dropShadow_240_464"/>
<feOffset dy="2"/>
<feGaussianBlur stdDeviation="3"/>
<feColorMatrix type="matrix" values="0 0 0 0 0 0 0 0 0 0 0 0 0 0 0 0 0 0 0.15 0"/>
<feBlend mode="normal" in2="BackgroundImageFix" result="effect1_dropShadow_240_464"/>
<feColorMatrix in="SourceAlpha" type="matrix" values="0 0 0 0 0 0 0 0 0 0 0 0 0 0 0 0 0 0 127 0" result="hardAlpha"/>
<feOffset dy="1"/>
<feGaussianBlur stdDeviation="1"/>
<feColorMatrix type="matrix" values="0 0 0 0 0 0 0 0 0 0 0 0 0 0 0 0 0 0 0.3 0"/>
<feBlend mode="normal" in2="effect1_dropShadow_240_464" result="effect2_dropShadow_240_464"/>
<feBlend mode="normal" in="SourceGraphic" in2="effect2_dropShadow_240_464" result="shape"/>
</filter>
</defs>
</svg>
