<svg width="84" height="84" viewBox="0 0 84 84" fill="none" xmlns="http://www.w3.org/2000/svg">
<g filter="url(#filter0_dd_240_453)">
<rect x="8" y="6" width="68" height="68" rx="20" fill="#F9F8F6"/>
<path fill-rule="evenodd" clip-rule="evenodd" d="M49.926 27.4746C48.1531 27.3177 45.8397 27.4741 42.6335 28.9143C41.7658 29.2996 41.1626 30.0955 41.0118 31.0148L36.8267 30.9946C35.6923 30.989 34.6943 30.243 34.3674 29.1566L33.7778 27.1949C33.6952 26.9202 33.4049 26.7644 33.1302 26.847C32.8554 26.9296 32.6996 27.2196 32.7823 27.4943L33.3719 29.456C33.8302 30.9802 35.2302 32.0264 36.8217 32.0342L40.9752 32.0544V32.9421C40.9752 33.6834 41.2696 34.3945 41.7938 34.9187C42.2995 35.4244 42.979 35.7163 43.692 35.7366C43.3322 35.9786 42.9939 36.2564 42.6826 36.5674C41.8967 37.3534 41.3236 38.3126 41.0009 39.3555C40.9067 39.6599 41.0772 39.9837 41.3819 40.0779C41.6863 40.1722 42.0101 40.0014 42.1043 39.697C42.3721 38.8321 42.8476 38.0362 43.4996 37.3841C44.5539 36.3298 45.9838 35.7377 47.4748 35.7377C47.7939 35.7377 48.0522 35.479 48.0522 35.1599C48.0522 34.8411 47.7939 34.5825 47.4748 34.5825H43.7705C43.3355 34.5825 42.9183 34.4098 42.6105 34.102C42.3031 33.7943 42.1301 33.3771 42.1301 32.9421V31.4681C42.1301 30.8197 42.5121 30.2319 43.1048 29.9688L43.107 29.9677C46.0908 28.6276 48.3289 28.28 50.3859 28.4039C52.0404 28.7712 53.2528 30.245 53.2528 31.9807V35.1599C53.2528 38.5743 52.5663 40.5592 49.926 42.3243C48.4858 43.2871 46.777 43.8801 44.9359 43.9672C44.7793 43.9747 44.6218 43.9783 44.4635 43.9783H39.1419C33.9208 43.9783 30.5201 39.4963 30.5201 34.2753V31.8332C30.5201 29.0332 30.481 25.7658 32.4607 23.7861C34.4406 21.8061 37.1683 21.8 39.9683 21.8H45.6185C46.6874 21.8 47.9899 21.9503 48.7456 22.706C49.5013 23.462 49.926 24.4872 49.926 25.5559V27.4746Z" fill="#CB5300"/>
<path d="M28.7491 53.656C28.9464 53.6933 29.0744 53.7253 29.1331 53.752C29.1971 53.7733 29.2397 53.808 29.2611 53.856C29.1491 54.288 29.0024 54.9013 28.8211 55.696C28.6397 56.4853 28.5171 57.016 28.4531 57.288C28.3357 57.832 28.2264 58.3147 28.1251 58.736C28.0504 59.0293 27.9331 59.176 27.7731 59.176C27.2824 59.176 27.0371 59.0613 27.0371 58.832C27.0371 58.9227 27.1757 58.32 27.4531 57.024L27.5971 56.336L26.0051 58.8C25.9197 58.9067 25.7944 58.96 25.6291 58.96C25.4904 58.96 25.3597 58.9253 25.2371 58.856C25.1197 58.7867 25.0691 58.7173 25.0851 58.648L24.6451 56.064L23.9891 58.712C23.9517 58.8667 23.8931 58.9707 23.8131 59.024C23.7384 59.0773 23.5944 59.104 23.3811 59.104C23.2157 59.104 23.0931 59.0747 23.0131 59.016C22.9384 58.9627 22.9011 58.8693 22.9011 58.736C22.9011 58.6773 22.9091 58.6213 22.9251 58.568L24.0211 54.24C24.0797 54.0053 24.1411 53.8507 24.2051 53.776C24.2744 53.696 24.3971 53.656 24.5731 53.656C24.7171 53.656 24.8451 53.672 24.9571 53.704C25.0691 53.736 25.1277 53.784 25.1331 53.848V53.864L25.7731 57.84C26.0024 57.472 26.3784 56.864 26.9011 56.016C27.4291 55.168 27.8424 54.5067 28.1411 54.032C28.1944 53.8987 28.2531 53.8133 28.3171 53.776C28.3864 53.7333 28.4637 53.704 28.5491 53.688C28.6397 53.672 28.7064 53.6613 28.7491 53.656ZM31.0163 59.168C30.547 59.168 30.1816 59.008 29.9203 58.688C29.659 58.368 29.5283 57.96 29.5283 57.464C29.5283 57.048 29.627 56.656 29.8243 56.288C30.027 55.92 30.3016 55.624 30.6483 55.4C30.995 55.176 31.3763 55.064 31.7923 55.064C32.203 55.064 32.539 55.2 32.8003 55.472C33.067 55.7387 33.2003 56.1333 33.2003 56.656C33.2003 57.024 33.099 57.4053 32.8963 57.8C32.6936 58.1947 32.4216 58.5227 32.0803 58.784C31.7443 59.04 31.3896 59.168 31.0163 59.168ZM31.1363 58.528C31.307 58.528 31.4776 58.4213 31.6483 58.208C31.8243 57.9947 31.9683 57.7253 32.0803 57.4C32.1923 57.0747 32.2483 56.7573 32.2483 56.448C32.2483 55.9733 32.051 55.736 31.6563 55.736C31.4376 55.736 31.2376 55.84 31.0563 56.048C30.875 56.256 30.731 56.5147 30.6243 56.824C30.5176 57.128 30.4643 57.4133 30.4643 57.68C30.4643 57.8347 30.499 57.9787 30.5683 58.112C30.6376 58.24 30.723 58.3413 30.8243 58.416C30.931 58.4907 31.035 58.528 31.1363 58.528ZM34.4708 59.168C34.2895 59.1307 34.1615 59.0933 34.0868 59.056C34.0121 59.0187 33.9641 58.968 33.9428 58.904C33.9215 58.84 33.9081 58.7307 33.9028 58.576C33.8868 58.2133 33.8628 57.8533 33.8308 57.496C33.8255 57.4107 33.8095 57.1573 33.7828 56.736C33.7561 56.3147 33.7428 55.9147 33.7428 55.536C33.7428 55.44 33.7908 55.36 33.8868 55.296C33.9881 55.232 34.1135 55.2 34.2628 55.2C34.5508 55.2 34.6948 55.3307 34.6948 55.592L34.7028 57.784V58.344C35.0601 57.672 35.4628 56.9787 35.9108 56.264C36.3641 55.5493 36.6575 55.192 36.7908 55.192C36.9615 55.192 37.1055 55.2267 37.2228 55.296C37.3401 55.36 37.4015 55.4347 37.4068 55.52C37.3588 55.6107 37.2548 55.776 37.0948 56.016C37.0308 56.1067 36.9161 56.2827 36.7508 56.544L36.4708 56.984C36.0228 57.6827 35.7108 58.1627 35.5348 58.424C35.3588 58.68 35.2095 58.864 35.0868 58.976C35.0281 59.0293 34.9428 59.0747 34.8308 59.112C34.7188 59.1493 34.5988 59.168 34.4708 59.168ZM38.1816 54.248C38.1816 54.0827 38.2322 53.936 38.3336 53.808C38.4402 53.68 38.5869 53.616 38.7736 53.616C38.9709 53.616 39.1416 53.6773 39.2856 53.8C39.4349 53.9227 39.5096 54.0613 39.5096 54.216C39.5096 54.3707 39.4349 54.504 39.2856 54.616C39.1362 54.728 38.9629 54.784 38.7656 54.784C38.5736 54.784 38.4269 54.736 38.3256 54.64C38.2296 54.5387 38.1816 54.408 38.1816 54.248ZM37.4216 58.464C37.4216 58.368 37.6589 57.408 38.1336 55.584L38.0856 55.288C38.0856 55.2293 38.1202 55.184 38.1896 55.152C38.2589 55.12 38.3922 55.104 38.5896 55.104C38.7442 55.104 38.8562 55.1467 38.9256 55.232C39.0002 55.3173 39.0376 55.4187 39.0376 55.536C39.0376 55.568 39.0322 55.6107 39.0216 55.664L38.3096 58.544L38.3576 58.84C38.3576 58.8987 38.3229 58.944 38.2536 58.976C38.1842 59.008 38.0509 59.024 37.8536 59.024C37.6776 59.024 37.5629 58.9733 37.5096 58.872C37.4562 58.7653 37.4269 58.6293 37.4216 58.464ZM40.1045 55.584C40.1205 55.4667 40.1392 55.376 40.1605 55.312C40.1818 55.248 40.2218 55.1973 40.2805 55.16C40.3445 55.1227 40.4378 55.104 40.5605 55.104C40.7472 55.104 40.8725 55.1573 40.9365 55.264C41.0005 55.3653 41.0405 55.4987 41.0565 55.664C41.0458 55.712 41.0378 55.752 41.0325 55.784C41.0325 55.816 41.0272 55.8533 41.0165 55.896C41.1978 55.6827 41.3712 55.52 41.5365 55.408C41.7072 55.296 41.9045 55.24 42.1285 55.24C42.3792 55.24 42.5818 55.3067 42.7365 55.44C42.8965 55.568 42.9898 55.72 43.0165 55.896C43.1658 55.656 43.3552 55.488 43.5845 55.392C43.8138 55.2907 44.0485 55.24 44.2885 55.24C44.5978 55.24 44.8165 55.3147 44.9445 55.464C45.0778 55.6133 45.1445 55.8053 45.1445 56.04C45.1445 56.1147 45.1338 56.2213 45.1125 56.36C44.9738 57.0693 44.8325 57.8107 44.6885 58.584C44.6512 58.776 44.6112 58.92 44.5685 59.016C44.5258 59.1173 44.4618 59.192 44.3765 59.24C44.2912 59.288 44.1685 59.312 44.0085 59.312C43.8805 59.312 43.7872 59.2693 43.7285 59.184C43.6698 59.0987 43.6405 58.992 43.6405 58.864C43.6405 58.8213 43.6458 58.7627 43.6565 58.688C43.7312 58.2933 43.8245 57.848 43.9365 57.352C43.9472 57.304 43.9845 57.1387 44.0485 56.856C44.1125 56.5733 44.1445 56.392 44.1445 56.312C44.1445 56.2 44.1205 56.1227 44.0725 56.08C44.0245 56.032 43.9685 56.008 43.9045 56.008C43.7712 56.008 43.6032 56.0667 43.4005 56.184C43.2032 56.3013 43.0645 56.408 42.9845 56.504C42.8992 56.776 42.7498 57.3813 42.5365 58.32C42.5098 58.432 42.4938 58.528 42.4885 58.608C42.4672 58.7253 42.4458 58.808 42.4245 58.856C42.4032 58.904 42.3605 58.9387 42.2965 58.96C42.2325 58.9813 42.1285 58.992 41.9845 58.992C41.6165 58.992 41.4325 58.9173 41.4325 58.768C41.4645 58.688 41.5152 58.504 41.5845 58.216C41.6538 57.9227 41.7045 57.7173 41.7365 57.6C41.8325 57.1787 41.9472 56.712 42.0805 56.2C42.0805 56.152 42.0592 56.112 42.0165 56.08C41.9738 56.048 41.9258 56.032 41.8725 56.032C41.6805 56.032 41.4832 56.112 41.2805 56.272C41.0832 56.432 40.9312 56.6027 40.8245 56.784C40.7498 57.072 40.6645 57.3973 40.5685 57.76C40.4778 58.1173 40.4085 58.4053 40.3605 58.624C40.3285 58.7733 40.2752 58.8773 40.2005 58.936C40.1258 58.9947 39.9978 59.024 39.8165 59.024C39.6618 59.024 39.5445 59.0053 39.4645 58.968C39.3845 58.9253 39.3445 58.8453 39.3445 58.728C39.3445 58.6693 39.4112 58.3573 39.5445 57.792C39.6832 57.2267 39.8698 56.4907 40.1045 55.584ZM47.0931 59.168C46.5651 59.168 46.1785 59.064 45.9331 58.856C45.6931 58.648 45.5731 58.3707 45.5731 58.024C45.5731 57.5067 45.6798 57.0373 45.8931 56.616C46.1065 56.1893 46.4025 55.856 46.7811 55.616C47.1598 55.3707 47.5918 55.248 48.0771 55.248C48.3811 55.248 48.6345 55.3333 48.8371 55.504C49.0451 55.6747 49.1491 55.928 49.1491 56.264C49.1491 56.6213 49.0318 56.9013 48.7971 57.104C48.5678 57.3067 48.2665 57.4533 47.8931 57.544C47.5251 57.6293 47.0611 57.6987 46.5011 57.752C46.4851 57.8213 46.4771 57.904 46.4771 58C46.4771 58.1493 46.5411 58.264 46.6691 58.344C46.7971 58.424 46.9758 58.464 47.2051 58.464C47.3705 58.464 47.5625 58.4293 47.7811 58.36C48.0051 58.2907 48.1758 58.176 48.2931 58.016C48.3625 57.9253 48.4425 57.8533 48.5331 57.8C48.6291 57.7467 48.7225 57.72 48.8131 57.72C48.8985 57.72 48.9678 57.7493 49.0211 57.808C49.0798 57.8613 49.1091 57.944 49.1091 58.056C49.0505 58.2267 48.9278 58.4 48.7411 58.576C48.5545 58.7467 48.3171 58.888 48.0291 59C47.7465 59.112 47.4345 59.168 47.0931 59.168ZM46.7091 57.016C47.0505 57.0107 47.3998 56.9467 47.7571 56.824C48.1145 56.696 48.2931 56.4747 48.2931 56.16C48.2931 56.0853 48.2585 56.0293 48.1891 55.992C48.1198 55.9493 48.0451 55.928 47.9651 55.928C47.8105 55.928 47.6478 55.9867 47.4771 56.104C47.3118 56.216 47.1598 56.3573 47.0211 56.528C46.8825 56.6933 46.7785 56.856 46.7091 57.016ZM50.2645 55.12C50.5152 54.9867 50.7232 54.92 50.8885 54.92C51.0698 54.92 51.1712 55.0133 51.1925 55.2L50.8725 56.392C51.2245 55.8853 51.5525 55.536 51.8565 55.344C52.1605 55.1467 52.4325 55.048 52.6725 55.048C52.9552 55.048 53.1605 55.1013 53.2885 55.208C53.4218 55.3093 53.4912 55.472 53.4965 55.696C53.3152 56.1867 53.1632 56.6533 53.0405 57.096C52.9232 57.5387 52.8645 57.9467 52.8645 58.32V58.504C52.8645 58.6533 52.8218 58.752 52.7365 58.8C52.6565 58.8427 52.4938 58.864 52.2485 58.864C52.1525 58.864 52.0618 58.848 51.9765 58.816C51.8965 58.784 51.8565 58.7307 51.8565 58.656C51.8565 58.4427 51.9045 58.1307 52.0005 57.72C52.0965 57.3093 52.2032 56.904 52.3205 56.504C52.4432 56.104 52.5045 55.9147 52.5045 55.936C52.5045 55.8613 52.4618 55.824 52.3765 55.824C52.2645 55.824 52.0832 55.9227 51.8325 56.12C51.5818 56.3173 51.3258 56.6267 51.0645 57.048C50.8032 57.464 50.5952 57.9867 50.4405 58.616C50.4352 58.648 50.4245 58.7067 50.4085 58.792C50.3925 58.8773 50.3498 58.9387 50.2805 58.976C50.2112 59.008 50.0992 59.024 49.9445 59.024C49.7685 59.024 49.6378 59.0053 49.5525 58.968C49.4672 58.9307 49.4245 58.8507 49.4245 58.728L49.6645 57.704C49.7285 57.4267 49.8112 57.0747 49.9125 56.648C50.0138 56.216 50.1312 55.7067 50.2645 55.12ZM54.9923 58.12C54.9923 58.2427 55.0243 58.3413 55.0883 58.416C55.1523 58.4853 55.2429 58.52 55.3603 58.52C55.5203 58.52 55.6509 58.4747 55.7523 58.384C55.8589 58.288 55.9709 58.1547 56.0883 57.984C56.1736 57.8613 56.2429 57.7733 56.2963 57.72C56.3496 57.6667 56.4109 57.64 56.4803 57.64C56.6189 57.64 56.7176 57.6587 56.7763 57.696C56.8349 57.728 56.8643 57.7973 56.8643 57.904C56.8643 57.952 56.8589 58.0107 56.8483 58.08C56.8376 58.144 56.8243 58.192 56.8083 58.224C56.6803 58.496 56.4696 58.7307 56.1763 58.928C55.8883 59.1253 55.5603 59.224 55.1923 59.224C54.8243 59.224 54.5469 59.136 54.3603 58.96C54.1736 58.7787 54.0803 58.5227 54.0803 58.192C54.0803 58.144 54.1043 58.0187 54.1523 57.816C54.2003 57.6133 54.2616 57.3707 54.3363 57.088L54.5603 56.176L54.0723 56.216C54.0083 56.216 53.9603 56.192 53.9283 56.144C53.8963 56.096 53.8803 56.0373 53.8803 55.968C53.8803 55.8347 53.9283 55.7013 54.0243 55.568C54.0349 55.552 54.0883 55.536 54.1842 55.52C54.2803 55.504 54.3976 55.488 54.5363 55.472L54.7523 55.448L55.0243 54.28C55.0776 54.1413 55.1576 54.0347 55.2643 53.96C55.3763 53.88 55.4803 53.84 55.5763 53.84C55.6829 53.84 55.7736 53.872 55.8483 53.936C55.9229 54 55.9629 54.0747 55.9683 54.16L55.6803 55.36C55.8883 55.3333 56.0803 55.312 56.2563 55.296C56.4376 55.2747 56.5789 55.264 56.6803 55.264C56.8829 55.264 56.9843 55.3813 56.9843 55.616C56.9843 55.7067 56.9443 55.7893 56.8643 55.864C56.7896 55.9333 56.7069 55.976 56.6163 55.992L55.4963 56.104L54.9923 58.12ZM58.8444 59.168C58.3751 59.168 58.0098 59.008 57.7484 58.688C57.4871 58.368 57.3564 57.96 57.3564 57.464C57.3564 57.048 57.4551 56.656 57.6524 56.288C57.8551 55.92 58.1298 55.624 58.4764 55.4C58.8231 55.176 59.2044 55.064 59.6204 55.064C60.0311 55.064 60.3671 55.2 60.6284 55.472C60.8951 55.7387 61.0284 56.1333 61.0284 56.656C61.0284 57.024 60.9271 57.4053 60.7244 57.8C60.5218 58.1947 60.2498 58.5227 59.9084 58.784C59.5724 59.04 59.2178 59.168 58.8444 59.168ZM58.9644 58.528C59.1351 58.528 59.3058 58.4213 59.4764 58.208C59.6524 57.9947 59.7964 57.7253 59.9084 57.4C60.0204 57.0747 60.0764 56.7573 60.0764 56.448C60.0764 55.9733 59.8791 55.736 59.4844 55.736C59.2658 55.736 59.0658 55.84 58.8844 56.048C58.7031 56.256 58.5591 56.5147 58.4524 56.824C58.3458 57.128 58.2924 57.4133 58.2924 57.68C58.2924 57.8347 58.3271 57.9787 58.3964 58.112C58.4658 58.24 58.5511 58.3413 58.6524 58.416C58.7591 58.4907 58.8631 58.528 58.9644 58.528Z" fill="#CB5300"/>
</g>
<defs>
<filter id="filter0_dd_240_453" x="0" y="0" width="84" height="84" filterUnits="userSpaceOnUse" color-interpolation-filters="sRGB">
<feFlood flood-opacity="0" result="BackgroundImageFix"/>
<feColorMatrix in="SourceAlpha" type="matrix" values="0 0 0 0 0 0 0 0 0 0 0 0 0 0 0 0 0 0 127 0" result="hardAlpha"/>
<feMorphology radius="2" operator="dilate" in="SourceAlpha" result="effect1_dropShadow_240_453"/>
<feOffset dy="2"/>
<feGaussianBlur stdDeviation="3"/>
<feColorMatrix type="matrix" values="0 0 0 0 0 0 0 0 0 0 0 0 0 0 0 0 0 0 0.15 0"/>
<feBlend mode="normal" in2="BackgroundImageFix" result="effect1_dropShadow_240_453"/>
<feColorMatrix in="SourceAlpha" type="matrix" values="0 0 0 0 0 0 0 0 0 0 0 0 0 0 0 0 0 0 127 0" result="hardAlpha"/>
<feOffset dy="1"/>
<feGaussianBlur stdDeviation="1"/>
<feColorMatrix type="matrix" values="0 0 0 0 0 0 0 0 0 0 0 0 0 0 0 0 0 0 0.3 0"/>
<feBlend mode="normal" in2="effect1_dropShadow_240_453" result="effect2_dropShadow_240_453"/>
<feBlend mode="normal" in="SourceGraphic" in2="effect2_dropShadow_240_453" result="shape"/>
</filter>
</defs>
</svg>
