<svg width="84" height="84" viewBox="0 0 84 84" fill="none" xmlns="http://www.w3.org/2000/svg">
<g filter="url(#filter0_dd_240_478)">
<rect x="8" y="6" width="68" height="68" rx="20" fill="#F9F8F6"/>
<path d="M54.0006 21.8409C54.0006 20.7164 53.0888 19.7969 51.9454 19.8738C49.0723 20.0669 43.0997 20.7623 37.3831 23.2737C36.2643 23.7652 35.5928 24.8901 35.5928 26.0932V35.3063C35.1925 35.2139 34.7757 35.1651 34.3479 35.1651C31.3014 35.1651 28.8318 37.6348 28.8318 40.6812C28.8318 43.7277 31.3014 46.1973 34.3479 46.1973C37.2608 46.1973 39.6462 43.9396 39.8499 41.0784C39.859 41.0501 39.864 41.0199 39.864 40.9885V29.8801C43.7571 28.5179 47.2334 27.8557 49.7295 27.5341V32.2331C49.3292 32.1407 48.9124 32.0919 48.4845 32.0919C45.4381 32.0919 42.9685 34.5616 42.9685 37.6081C42.9685 40.6545 45.4381 43.1241 48.4845 43.1241C51.3975 43.1241 53.7829 40.8663 53.9866 38.0051C53.9957 37.9768 54.0006 37.9466 54.0006 37.9153V21.8409Z" fill="#CB5300"/>
<path d="M35.6006 53.656C35.798 53.6933 35.926 53.7253 35.9846 53.752C36.0486 53.7733 36.0913 53.808 36.1126 53.856C36.0006 54.288 35.854 54.9013 35.6726 55.696C35.4913 56.4853 35.3686 57.016 35.3046 57.288C35.1873 57.832 35.078 58.3147 34.9766 58.736C34.902 59.0293 34.7846 59.176 34.6246 59.176C34.134 59.176 33.8886 59.0613 33.8886 58.832C33.8886 58.9227 34.0273 58.32 34.3046 57.024L34.4486 56.336L32.8566 58.8C32.7713 58.9067 32.646 58.96 32.4806 58.96C32.342 58.96 32.2113 58.9253 32.0886 58.856C31.9713 58.7867 31.9206 58.7173 31.9366 58.648L31.4966 56.064L30.8406 58.712C30.8033 58.8667 30.7446 58.9707 30.6646 59.024C30.59 59.0773 30.446 59.104 30.2326 59.104C30.0673 59.104 29.9446 59.0747 29.8646 59.016C29.79 58.9627 29.7526 58.8693 29.7526 58.736C29.7526 58.6773 29.7606 58.6213 29.7766 58.568L30.8726 54.24C30.9313 54.0053 30.9926 53.8507 31.0566 53.776C31.126 53.696 31.2486 53.656 31.4246 53.656C31.5686 53.656 31.6966 53.672 31.8086 53.704C31.9206 53.736 31.9793 53.784 31.9846 53.848V53.864L32.6246 57.84C32.854 57.472 33.23 56.864 33.7526 56.016C34.2806 55.168 34.694 54.5067 34.9926 54.032C35.046 53.8987 35.1046 53.8133 35.1686 53.776C35.238 53.7333 35.3153 53.704 35.4006 53.688C35.4913 53.672 35.558 53.6613 35.6006 53.656ZM39.5239 58.976C39.5025 59.0667 39.4545 59.128 39.3799 59.16C39.3052 59.1973 39.2065 59.216 39.0839 59.216C38.7159 59.216 38.5319 59.1333 38.5319 58.968L38.5799 58.664C38.4305 58.776 38.2545 58.888 38.0519 59C37.8492 59.112 37.6812 59.168 37.5479 59.168C36.7585 59.168 36.3639 58.9093 36.3639 58.392C36.3639 57.512 36.6279 56.5573 37.1559 55.528C37.2199 55.4053 37.2865 55.3173 37.3559 55.264C37.4305 55.2107 37.5559 55.184 37.7319 55.184C37.9185 55.184 38.0572 55.2107 38.1479 55.264C38.2439 55.312 38.2919 55.3707 38.2919 55.44C38.2919 55.456 38.2625 55.504 38.2039 55.584C38.1452 55.6533 38.0945 55.7227 38.0519 55.792C37.5505 56.6293 37.2999 57.4453 37.2999 58.24C37.2999 58.3093 37.3265 58.3707 37.3799 58.424C37.4332 58.4773 37.4812 58.504 37.5239 58.504C37.6412 58.504 37.8385 58.448 38.1159 58.336C38.3985 58.224 38.6145 58.1093 38.7639 57.992L38.9239 57.344C39.1159 56.5707 39.2359 56.096 39.2839 55.92C39.3425 55.7067 39.4172 55.5333 39.5079 55.4C39.6039 55.2613 39.7532 55.192 39.9559 55.192C40.2385 55.192 40.3799 55.2773 40.3799 55.448C40.3799 55.4747 40.3719 55.5093 40.3559 55.552C40.3452 55.5893 40.3372 55.6213 40.3319 55.648L40.0119 56.944C39.7559 57.9733 39.5932 58.6507 39.5239 58.976ZM43.2609 55.904C43.1969 55.872 43.1169 55.856 43.0209 55.856C42.7809 55.856 42.5409 55.904 42.3009 56C42.0609 56.096 41.9409 56.2187 41.9409 56.368C41.9409 56.4747 41.9889 56.56 42.0849 56.624C42.1809 56.688 42.3329 56.76 42.5409 56.84C42.7649 56.9307 42.9463 57.016 43.0849 57.096C43.2236 57.176 43.3436 57.2933 43.4449 57.448C43.5516 57.5973 43.6049 57.7893 43.6049 58.024C43.6049 58.408 43.4449 58.704 43.1249 58.912C42.8103 59.1147 42.3863 59.216 41.8529 59.216C41.5916 59.216 41.3489 59.176 41.1249 59.096C40.9009 59.016 40.7223 58.9147 40.5889 58.792C40.4609 58.664 40.3916 58.5387 40.3809 58.416C40.3809 58.288 40.4369 58.184 40.5489 58.104C40.6609 58.0187 40.8183 57.9627 41.0209 57.936C41.0263 58.0427 41.0823 58.144 41.1889 58.24C41.2956 58.3307 41.4209 58.4053 41.5649 58.464C41.7143 58.5173 41.8423 58.544 41.9489 58.544C42.1303 58.544 42.2956 58.496 42.4449 58.4C42.5943 58.2987 42.6689 58.1813 42.6689 58.048C42.6689 57.8027 42.4316 57.608 41.9569 57.464C41.6529 57.3733 41.4183 57.2293 41.2529 57.032C41.0929 56.8347 41.0129 56.6267 41.0129 56.408C41.0129 55.976 41.2076 55.6667 41.5969 55.48C41.9916 55.288 42.4929 55.192 43.1009 55.192C43.4423 55.192 43.7063 55.232 43.8929 55.312C44.0796 55.392 44.1729 55.5307 44.1729 55.728C44.1729 55.8613 44.1223 55.9787 44.0209 56.08C43.9249 56.1813 43.7863 56.232 43.6049 56.232C43.4449 56.232 43.3409 56.2213 43.2929 56.2C43.2503 56.1733 43.2263 56.1307 43.2209 56.072C43.2209 56.0187 43.2343 55.9627 43.2609 55.904ZM45.2206 54.248C45.2206 54.0827 45.2713 53.936 45.3726 53.808C45.4793 53.68 45.626 53.616 45.8126 53.616C46.01 53.616 46.1806 53.6773 46.3246 53.8C46.474 53.9227 46.5486 54.0613 46.5486 54.216C46.5486 54.3707 46.474 54.504 46.3246 54.616C46.1753 54.728 46.002 54.784 45.8046 54.784C45.6126 54.784 45.466 54.736 45.3646 54.64C45.2686 54.5387 45.2206 54.408 45.2206 54.248ZM44.4606 58.464C44.4606 58.368 44.698 57.408 45.1726 55.584L45.1246 55.288C45.1246 55.2293 45.1593 55.184 45.2286 55.152C45.298 55.12 45.4313 55.104 45.6286 55.104C45.7833 55.104 45.8953 55.1467 45.9646 55.232C46.0393 55.3173 46.0766 55.4187 46.0766 55.536C46.0766 55.568 46.0713 55.6107 46.0606 55.664L45.3486 58.544L45.3966 58.84C45.3966 58.8987 45.362 58.944 45.2926 58.976C45.2233 59.008 45.09 59.024 44.8926 59.024C44.7166 59.024 44.602 58.9733 44.5486 58.872C44.4953 58.7653 44.466 58.6293 44.4606 58.464ZM49.7196 58.272C49.6236 58.544 49.4342 58.7627 49.1516 58.928C48.8689 59.088 48.4742 59.168 47.9676 59.168C47.6156 59.168 47.3249 59.1067 47.0956 58.984C46.8662 58.8613 46.6982 58.7013 46.5916 58.504C46.4849 58.3067 46.4316 58.0933 46.4316 57.864C46.4316 57.352 46.5329 56.896 46.7356 56.496C46.9382 56.0907 47.2236 55.776 47.5916 55.552C47.9649 55.3227 48.3969 55.208 48.8876 55.208C49.1969 55.208 49.4636 55.2987 49.6876 55.48C49.9116 55.6613 50.0236 55.9013 50.0236 56.2C50.0236 56.3173 49.9809 56.416 49.8956 56.496C49.8156 56.5707 49.6982 56.608 49.5436 56.608C49.4156 56.608 49.3249 56.576 49.2716 56.512C49.2182 56.4427 49.1916 56.3627 49.1916 56.272C49.1916 56.1547 49.1516 56.0613 49.0716 55.992C48.9916 55.9227 48.8902 55.888 48.7676 55.888C48.6076 55.888 48.4156 55.9733 48.1916 56.144C47.9729 56.3147 47.7836 56.552 47.6236 56.856C47.4689 57.1547 47.3916 57.4907 47.3916 57.864C47.3916 58.0293 47.4529 58.1707 47.5756 58.288C47.6982 58.4053 47.8689 58.464 48.0876 58.464C48.2689 58.464 48.4156 58.4293 48.5276 58.36C48.6396 58.2907 48.7596 58.192 48.8876 58.064C48.9676 57.984 49.0342 57.9253 49.0876 57.888C49.1409 57.8507 49.1969 57.832 49.2556 57.832C49.3836 57.832 49.4876 57.8693 49.5676 57.944C49.6476 58.0133 49.6982 58.1227 49.7196 58.272ZM53.7038 58.864C53.6718 58.96 53.5864 59.024 53.4478 59.056C53.3144 59.0933 53.1971 59.112 53.0958 59.112C53.0051 59.112 52.9438 59.088 52.9118 59.04C52.8798 58.9973 52.8531 58.9333 52.8318 58.848C52.8104 58.7573 52.7944 58.6933 52.7838 58.656C52.5598 58.8107 52.3278 58.928 52.0878 59.008C51.8531 59.0933 51.6558 59.136 51.4958 59.136C51.3358 59.136 51.1704 59.0987 50.9998 59.024C50.8344 58.9547 50.6904 58.832 50.5678 58.656C50.4451 58.4747 50.3838 58.2347 50.3838 57.936C50.3838 57.632 50.4771 57.2667 50.6638 56.84C50.8558 56.408 51.1278 56.0347 51.4798 55.72C51.8371 55.4 52.2531 55.24 52.7278 55.24C52.9678 55.24 53.2051 55.2987 53.4398 55.416C53.6744 55.528 53.8664 55.672 54.0158 55.848C54.1651 56.0187 54.2424 56.192 54.2478 56.368L54.1438 56.648C53.9944 57.064 53.8771 57.4187 53.7918 57.712C53.7064 58 53.6638 58.2587 53.6638 58.488C53.6638 58.6427 53.6771 58.768 53.7038 58.864ZM52.7918 57.984C52.8398 57.8507 52.8984 57.6773 52.9678 57.464C53.0851 57.0587 53.1971 56.7173 53.3038 56.44C53.2824 56.3653 53.2344 56.288 53.1598 56.208C53.0851 56.1227 53.0078 56.0533 52.9278 56C52.8478 55.9413 52.7918 55.912 52.7598 55.912C52.5624 55.912 52.3518 56.032 52.1278 56.272C51.9038 56.5067 51.7144 56.7867 51.5598 57.112C51.4104 57.4373 51.3358 57.72 51.3358 57.96C51.3358 58.0667 51.3678 58.168 51.4318 58.264C51.4958 58.3547 51.5651 58.4 51.6398 58.4C51.7624 58.4 51.9571 58.3547 52.2238 58.264C52.4958 58.168 52.6851 58.0747 52.7918 57.984Z" fill="#CB5300"/>
</g>
<defs>
<filter id="filter0_dd_240_478" x="0" y="0" width="84" height="84" filterUnits="userSpaceOnUse" color-interpolation-filters="sRGB">
<feFlood flood-opacity="0" result="BackgroundImageFix"/>
<feColorMatrix in="SourceAlpha" type="matrix" values="0 0 0 0 0 0 0 0 0 0 0 0 0 0 0 0 0 0 127 0" result="hardAlpha"/>
<feMorphology radius="2" operator="dilate" in="SourceAlpha" result="effect1_dropShadow_240_478"/>
<feOffset dy="2"/>
<feGaussianBlur stdDeviation="3"/>
<feColorMatrix type="matrix" values="0 0 0 0 0 0 0 0 0 0 0 0 0 0 0 0 0 0 0.15 0"/>
<feBlend mode="normal" in2="BackgroundImageFix" result="effect1_dropShadow_240_478"/>
<feColorMatrix in="SourceAlpha" type="matrix" values="0 0 0 0 0 0 0 0 0 0 0 0 0 0 0 0 0 0 127 0" result="hardAlpha"/>
<feOffset dy="1"/>
<feGaussianBlur stdDeviation="1"/>
<feColorMatrix type="matrix" values="0 0 0 0 0 0 0 0 0 0 0 0 0 0 0 0 0 0 0.3 0"/>
<feBlend mode="normal" in2="effect1_dropShadow_240_478" result="effect2_dropShadow_240_478"/>
<feBlend mode="normal" in="SourceGraphic" in2="effect2_dropShadow_240_478" result="shape"/>
</filter>
</defs>
</svg>
