<svg width="84" height="84" viewBox="0 0 84 84" fill="none" xmlns="http://www.w3.org/2000/svg">
<g filter="url(#filter0_dd_240_489)">
<rect x="8" y="6" width="68" height="68" rx="20" fill="#F9F8F6"/>
<path fill-rule="evenodd" clip-rule="evenodd" d="M35.8868 37.0882C35.7589 37.0586 35.6259 37.0428 35.4889 37.0428C35.1075 37.0428 34.754 37.165 34.466 37.3727C34.3296 37.4711 34.1568 37.5049 33.9933 37.4658C33.8297 37.4264 33.6914 37.3178 33.6146 37.1681C32.954 35.8826 32.5808 34.4255 32.5808 32.8819C32.5808 28.4221 35.6946 24.684 39.8644 23.7239C40.0915 23.6715 40.3279 23.7608 40.4635 23.9504C40.5993 24.1398 40.6079 24.392 40.4854 24.5902C40.3202 24.8575 40.2251 25.1724 40.2251 25.5095C40.2251 26.1807 40.603 26.7643 41.1577 27.059C40.8807 26.9192 40.5403 27.0243 40.3909 27.2985L35.5136 36.2499C35.3611 36.5299 35.4645 36.8809 35.7445 37.0336C35.7903 37.0586 35.8382 37.0766 35.8868 37.0882ZM41.1743 27.0676C41.4152 27.1923 41.6886 27.2624 41.978 27.2624C42.9455 27.2624 43.7312 26.4771 43.7312 25.5095C43.7312 25.1724 43.6358 24.8575 43.4709 24.5902C43.3483 24.392 43.3569 24.1398 43.4925 23.9504C43.6283 23.7608 43.8645 23.6715 44.0916 23.7239C45.119 23.9604 46.0821 24.3654 46.9504 24.9082C47.1616 25.0405 47.2645 25.293 47.2054 25.5348C47.173 25.6684 47.1558 25.8078 47.1558 25.9512C47.1558 26.4208 47.341 26.8477 47.642 27.1626C47.4144 26.9395 47.0485 26.9428 46.8253 27.1704L37.0431 37.1401C36.8537 37.333 36.8274 37.6255 36.9624 37.8462C36.7204 37.4714 36.3389 37.1947 35.892 37.0893C36.1379 37.1459 36.4013 37.035 36.528 36.8027L41.4052 27.8513C41.5577 27.5713 41.4543 27.2203 41.1743 27.0676ZM37.2421 38.796C37.2421 38.4536 37.1437 38.1339 36.9738 37.8639C36.9957 37.8969 37.0212 37.928 37.0506 37.9568C37.2782 38.1802 37.6441 38.1766 37.8675 37.9493L47.6498 27.9794C47.8666 27.7584 47.8696 27.4072 47.6614 27.1826C47.9794 27.5045 48.421 27.7041 48.9087 27.7041C49.0523 27.7041 49.1917 27.6872 49.3251 27.6544C49.5671 27.5954 49.8197 27.6982 49.9516 27.9095C50.7423 29.1742 51.2407 30.6402 51.3516 32.2126C51.3674 32.4369 51.2515 32.6501 51.0547 32.7588C50.8579 32.8674 50.6159 32.8522 50.4343 32.7191C50.1446 32.507 49.7869 32.3817 49.4008 32.3817C48.4332 32.3817 47.6476 33.1671 47.6476 34.1346C47.6476 35.1022 48.4332 35.8878 49.4008 35.8878C49.579 35.8878 49.7515 35.8612 49.9136 35.8116C50.1288 35.7456 50.3628 35.8108 50.5127 35.9785C50.663 36.1459 50.7021 36.3855 50.6131 36.5923C49.1732 39.9359 45.847 42.279 41.978 42.279C40.1236 42.279 38.394 41.7407 36.9369 40.812C36.7952 40.7216 36.6999 40.5741 36.6757 40.4075C36.6516 40.2411 36.7012 40.0726 36.8119 39.9456C37.0797 39.6379 37.2421 39.2356 37.2421 38.796ZM37.2421 38.796C37.2421 38.8625 37.2535 38.9301 37.2779 38.9961C37.3885 39.2952 37.7209 39.4483 38.0197 39.3377L47.2703 35.9186C47.5694 35.8083 47.7224 35.4756 47.6118 35.1767C47.5012 34.8776 47.1688 34.7246 46.87 34.8352L37.6194 38.2542C37.3866 38.3402 37.2421 38.5611 37.2421 38.796Z" fill="#CB5300"/>
<path fill-rule="evenodd" clip-rule="evenodd" d="M35.4889 35.8878C37.0941 35.8878 38.3973 37.1908 38.3973 38.7959C38.3973 40.4008 37.0941 41.7041 35.4889 41.7041C33.8841 41.7041 32.5808 40.4008 32.5808 38.7959C32.5808 37.1908 33.8841 35.8878 35.4889 35.8878ZM35.4889 37.0427C34.5214 37.0427 33.736 37.8284 33.736 38.7959C33.736 39.7635 34.5214 40.5488 35.4889 40.5488C36.4565 40.5488 37.2421 39.7635 37.2421 38.7959C37.2421 37.8284 36.4565 37.0427 35.4889 37.0427Z" fill="#CB5300"/>
<path fill-rule="evenodd" clip-rule="evenodd" d="M48.9086 23.0431C50.5138 23.0431 51.8167 24.3461 51.8167 25.9512C51.8167 27.5564 50.5138 28.8593 48.9086 28.8593C47.3037 28.8593 46.0005 27.5564 46.0005 25.9512C46.0005 24.3461 47.3037 23.0431 48.9086 23.0431ZM48.9086 24.1983C47.9411 24.1983 47.1557 24.9837 47.1557 25.9512C47.1557 26.9187 47.9411 27.7041 48.9086 27.7041C49.8761 27.7041 50.6618 26.9187 50.6618 25.9512C50.6618 24.9837 49.8761 24.1983 48.9086 24.1983Z" fill="#CB5300"/>
<path fill-rule="evenodd" clip-rule="evenodd" d="M41.9779 22.6014C43.5831 22.6014 44.8861 23.9044 44.8861 25.5096C44.8861 27.1144 43.5831 28.4177 41.9779 28.4177C40.3731 28.4177 39.0698 27.1144 39.0698 25.5096C39.0698 23.9044 40.3731 22.6014 41.9779 22.6014ZM41.9779 23.7564C41.0104 23.7564 40.225 24.542 40.225 25.5096C40.225 26.4771 41.0104 27.2625 41.9779 27.2625C42.9455 27.2625 43.7311 26.4771 43.7311 25.5096C43.7311 24.542 42.9455 23.7564 41.9779 23.7564Z" fill="#CB5300"/>
<path fill-rule="evenodd" clip-rule="evenodd" d="M49.3503 31.2266C50.9554 31.2266 52.2587 32.5298 52.2587 34.1347C52.2587 35.7398 50.9554 37.0428 49.3503 37.0428C47.7454 37.0428 46.4421 35.7398 46.4421 34.1347C46.4421 32.5298 47.7454 31.2266 49.3503 31.2266ZM49.3503 32.3818C48.3827 32.3818 47.5973 33.1672 47.5973 34.1347C47.5973 35.1022 48.3827 35.8879 49.3503 35.8879C50.3178 35.8879 51.1034 35.1022 51.1034 34.1347C51.1034 33.1672 50.3178 32.3818 49.3503 32.3818Z" fill="#CB5300"/>
<path d="M37.6716 58.368C37.7356 58.3787 37.8102 58.4373 37.8956 58.544C37.9809 58.6507 38.0236 58.7493 38.0236 58.84C38.0236 58.8987 37.9782 58.944 37.8876 58.976C37.8556 58.9867 37.8022 59.0053 37.7276 59.032C37.6582 59.064 37.5942 59.0853 37.5356 59.096C37.4769 59.1067 37.4102 59.112 37.3356 59.112C37.2236 59.112 37.1382 59.0987 37.0796 59.072C36.9302 59.008 36.7356 58.8587 36.4956 58.624C36.2556 58.3893 36.0236 58.1227 35.7996 57.824C35.5756 57.52 35.4102 57.2373 35.3036 56.976H35.2556C35.1062 56.976 34.9969 56.9733 34.9276 56.968C34.7676 57.56 34.6342 58.0773 34.5276 58.52C34.4849 58.7067 34.4182 58.8507 34.3276 58.952C34.2422 59.0533 34.1009 59.104 33.9036 59.104C33.7382 59.104 33.6156 59.0747 33.5356 59.016C33.4609 58.9627 33.4236 58.8693 33.4236 58.736C33.4236 58.6773 33.4316 58.6213 33.4476 58.568L34.4156 54.832C34.1382 54.912 33.9276 55.0213 33.7836 55.16C33.7249 55.096 33.6769 55.0133 33.6396 54.912C33.6076 54.8053 33.5916 54.7013 33.5916 54.6C33.5916 54.5253 33.6129 54.4667 33.6556 54.424C33.7036 54.376 33.7676 54.3333 33.8476 54.296C33.8742 54.28 33.9702 54.232 34.1356 54.152C34.3062 54.072 34.4689 54.0107 34.6236 53.968C34.6716 53.8613 34.7436 53.7733 34.8396 53.704C34.9409 53.6347 35.0689 53.6 35.2236 53.6C35.3142 53.6 35.3889 53.6187 35.4476 53.656C35.5062 53.688 35.5462 53.7307 35.5676 53.784C35.7649 53.72 36.0022 53.688 36.2796 53.688C36.6209 53.688 36.9169 53.7573 37.1676 53.896C37.4236 54.0293 37.6182 54.2027 37.7516 54.416C37.8849 54.6293 37.9516 54.8453 37.9516 55.064C37.9516 55.5493 37.7942 55.9387 37.4796 56.232C37.1702 56.52 36.7702 56.7253 36.2796 56.848C36.3916 57.04 36.5409 57.256 36.7276 57.496C36.9142 57.736 37.0902 57.9413 37.2556 58.112C37.4262 58.2773 37.5382 58.36 37.5916 58.36L37.6716 58.368ZM35.4796 54.616C35.3249 55.2347 35.1969 55.7707 35.0956 56.224C35.1596 56.2293 35.2502 56.232 35.3676 56.232C35.6236 56.232 35.8796 56.1947 36.1356 56.12C36.3916 56.04 36.6049 55.9227 36.7756 55.768C36.9516 55.6133 37.0396 55.4213 37.0396 55.192C37.0396 54.984 36.9542 54.8187 36.7836 54.696C36.6129 54.568 36.3836 54.504 36.0956 54.504C35.9356 54.504 35.7302 54.5413 35.4796 54.616ZM39.8269 59.168C39.3043 59.168 38.9229 59.064 38.6829 58.856C38.4429 58.648 38.3229 58.3707 38.3229 58.024C38.3229 57.5173 38.4483 57.048 38.6989 56.616C38.9549 56.184 39.2936 55.8427 39.7149 55.592C40.1416 55.336 40.6003 55.208 41.0909 55.208C41.3896 55.208 41.6403 55.2933 41.8429 55.464C42.0456 55.6293 42.1469 55.8747 42.1469 56.2C42.1469 56.3867 42.0856 56.5413 41.9629 56.664C41.8456 56.7813 41.6749 56.888 41.4509 56.984C41.2269 57.0747 40.8643 57.2053 40.3629 57.376C39.9096 57.5253 39.5416 57.6507 39.2589 57.752C39.2376 57.832 39.2269 57.9147 39.2269 58C39.2269 58.1493 39.2883 58.264 39.4109 58.344C39.5389 58.424 39.7176 58.464 39.9469 58.464C40.0909 58.464 40.2563 58.4347 40.4429 58.376C40.6296 58.3173 40.7469 58.2427 40.7949 58.152C40.9763 57.8213 41.1416 57.656 41.2909 57.656C41.5096 57.656 41.6563 57.6987 41.7309 57.784C41.8109 57.864 41.8536 57.9547 41.8589 58.056C41.7949 58.2267 41.6696 58.4 41.4829 58.576C41.2963 58.7467 41.0589 58.888 40.7709 59C40.4829 59.112 40.1683 59.168 39.8269 59.168ZM39.4829 57.016C40.0109 56.8453 40.4456 56.688 40.7869 56.544C41.1283 56.3947 41.2989 56.248 41.2989 56.104C41.2989 56.04 41.2643 55.9893 41.1949 55.952C41.1256 55.9093 41.0509 55.888 40.9709 55.888C40.8109 55.888 40.6269 55.9493 40.4189 56.072C40.2163 56.1947 40.0269 56.344 39.8509 56.52C39.6749 56.696 39.5523 56.8613 39.4829 57.016ZM46.0163 53.072C46.0376 52.992 46.099 52.928 46.2003 52.88C46.307 52.8267 46.419 52.8 46.5363 52.8C46.6323 52.8 46.7363 52.8213 46.8483 52.864C46.9603 52.9067 47.0163 52.968 47.0163 53.048L46.5123 55.016C46.0696 56.7387 45.811 57.7893 45.7363 58.168C45.7043 58.328 45.6883 58.4507 45.6883 58.536C45.6883 58.68 45.7043 58.8213 45.7363 58.96C45.7256 58.992 45.683 59.024 45.6083 59.056C45.539 59.088 45.475 59.104 45.4163 59.104C45.3096 59.104 45.1923 59.0907 45.0643 59.064C44.9363 59.0373 44.8563 59.008 44.8243 58.976C44.7763 58.9333 44.7523 58.848 44.7523 58.72C44.7523 58.624 44.763 58.5333 44.7843 58.448C44.6723 58.608 44.5016 58.7413 44.2723 58.848C44.0483 58.9493 43.867 59 43.7283 59C42.9123 59 42.5043 58.56 42.5043 57.68C42.5043 57.296 42.5896 56.912 42.7603 56.528C42.9363 56.144 43.1843 55.8267 43.5043 55.576C43.8296 55.3253 44.2056 55.2 44.6323 55.2C44.7496 55.2 44.8803 55.248 45.0243 55.344C45.1683 55.4347 45.2856 55.5387 45.3763 55.656C45.4936 55.16 45.5976 54.7467 45.6883 54.416C45.731 54.24 45.779 54.04 45.8323 53.816C45.891 53.5867 45.9523 53.3387 46.0163 53.072ZM45.2003 56.4C45.1683 56.2827 45.091 56.176 44.9683 56.08C44.851 55.9787 44.755 55.928 44.6803 55.928C44.435 55.928 44.2056 56.008 43.9923 56.168C43.779 56.328 43.6083 56.536 43.4803 56.792C43.3576 57.048 43.2963 57.312 43.2963 57.584C43.2963 57.7867 43.3336 57.968 43.4083 58.128C43.483 58.288 43.5976 58.368 43.7523 58.368C43.8856 58.368 44.0403 58.3253 44.2163 58.24C44.3976 58.1493 44.5576 58.0347 44.6963 57.896C44.835 57.752 44.9203 57.6053 44.9523 57.456L45.2003 56.4ZM48.1551 59.168C47.6324 59.168 47.2511 59.064 47.0111 58.856C46.7711 58.648 46.6511 58.3707 46.6511 58.024C46.6511 57.5173 46.7764 57.048 47.0271 56.616C47.2831 56.184 47.6217 55.8427 48.0431 55.592C48.4697 55.336 48.9284 55.208 49.4191 55.208C49.7177 55.208 49.9684 55.2933 50.1711 55.464C50.3737 55.6293 50.4751 55.8747 50.4751 56.2C50.4751 56.5627 50.3391 56.8507 50.0671 57.064C49.8004 57.272 49.4617 57.4267 49.0511 57.528C48.6457 57.624 48.1577 57.6987 47.5871 57.752C47.5657 57.832 47.5551 57.9147 47.5551 58C47.5551 58.1493 47.6164 58.264 47.7391 58.344C47.8671 58.424 48.0457 58.464 48.2751 58.464C48.4457 58.464 48.6404 58.4293 48.8591 58.36C49.0831 58.2907 49.2537 58.176 49.3711 58.016C49.4351 57.9253 49.5151 57.8533 49.6111 57.8C49.7124 57.7467 49.8084 57.72 49.8991 57.72C49.9844 57.72 50.0537 57.7493 50.1071 57.808C50.1604 57.8613 50.1871 57.944 50.1871 58.056C50.1231 58.2267 49.9977 58.4 49.8111 58.576C49.6244 58.7467 49.3871 58.888 49.0991 59C48.8111 59.112 48.4964 59.168 48.1551 59.168ZM47.8111 57.016C47.9977 57.0107 48.2324 56.9813 48.5151 56.928C48.7977 56.8747 49.0537 56.7813 49.2831 56.648C49.5124 56.5093 49.6271 56.328 49.6271 56.104C49.6271 56.04 49.5924 55.9893 49.5231 55.952C49.4537 55.9093 49.3791 55.888 49.2991 55.888C49.1391 55.888 48.9551 55.9493 48.7471 56.072C48.5444 56.1947 48.3551 56.344 48.1791 56.52C48.0031 56.696 47.8804 56.8613 47.8111 57.016Z" fill="#CB5300"/>
</g>
<defs>
<filter id="filter0_dd_240_489" x="0" y="0" width="84" height="84" filterUnits="userSpaceOnUse" color-interpolation-filters="sRGB">
<feFlood flood-opacity="0" result="BackgroundImageFix"/>
<feColorMatrix in="SourceAlpha" type="matrix" values="0 0 0 0 0 0 0 0 0 0 0 0 0 0 0 0 0 0 127 0" result="hardAlpha"/>
<feMorphology radius="2" operator="dilate" in="SourceAlpha" result="effect1_dropShadow_240_489"/>
<feOffset dy="2"/>
<feGaussianBlur stdDeviation="3"/>
<feColorMatrix type="matrix" values="0 0 0 0 0 0 0 0 0 0 0 0 0 0 0 0 0 0 0.15 0"/>
<feBlend mode="normal" in2="BackgroundImageFix" result="effect1_dropShadow_240_489"/>
<feColorMatrix in="SourceAlpha" type="matrix" values="0 0 0 0 0 0 0 0 0 0 0 0 0 0 0 0 0 0 127 0" result="hardAlpha"/>
<feOffset dy="1"/>
<feGaussianBlur stdDeviation="1"/>
<feColorMatrix type="matrix" values="0 0 0 0 0 0 0 0 0 0 0 0 0 0 0 0 0 0 0.3 0"/>
<feBlend mode="normal" in2="effect1_dropShadow_240_489" result="effect2_dropShadow_240_489"/>
<feBlend mode="normal" in="SourceGraphic" in2="effect2_dropShadow_240_489" result="shape"/>
</filter>
</defs>
</svg>
