<svg width="84" height="84" viewBox="0 0 84 84" fill="none" xmlns="http://www.w3.org/2000/svg">
<g filter="url(#filter0_dd_240_327)">
<rect x="8" y="6" width="68" height="68" rx="20" fill="#F9F8F6"/>
<path d="M42.0894 40.1029C44.3706 40.1029 46.2198 38.2536 46.2198 35.9725C46.2198 33.6913 44.3706 31.842 42.0894 31.842C39.8082 31.842 37.959 33.6913 37.959 35.9725C37.959 38.2536 39.8082 40.1029 42.0894 40.1029Z" fill="#CB5300"/>
<path fill-rule="evenodd" clip-rule="evenodd" d="M45.4948 25.8608C46.1936 26.2385 46.6982 26.924 46.8471 27.761C46.9985 28.6122 47.1761 29.7709 47.306 31.1022C47.3084 31.124 47.3101 31.1455 47.3114 31.1673C47.3305 31.4588 47.1689 31.7325 46.9044 31.8566C46.6399 31.981 46.3259 31.9302 46.1138 31.7291C45.0652 30.7337 43.6481 30.1228 42.0894 30.1228C40.5312 30.1228 39.114 30.7337 38.065 31.7291C37.853 31.9302 37.5394 31.981 37.2748 31.8566C37.0099 31.7325 36.8484 31.4588 36.8678 31.1673C36.8692 31.1455 36.8709 31.124 36.8729 31.1022C37.0028 29.7706 37.1807 28.6122 37.3321 27.7606C37.4807 26.924 37.9853 26.2385 38.6841 25.8608C39.4471 26.924 40.6931 27.6219 42.0894 27.6219C43.4858 27.6219 44.7318 26.924 45.4948 25.8608ZM40.2833 25.5246C40.7831 25.5048 41.3827 25.4912 42.0894 25.4912C42.7958 25.4912 43.3955 25.5048 43.8956 25.5246C43.4091 25.9456 42.7767 26.2017 42.0894 26.2017C41.4018 26.2017 40.7698 25.9456 40.2833 25.5246Z" fill="#CB5300"/>
<path d="M44.8587 23.4325C44.8587 24.9516 43.6086 26.2017 42.0895 26.2017C40.5704 26.2017 39.3203 24.9516 39.3203 23.4325C39.3203 21.9131 40.5704 20.6633 42.0895 20.6633C43.6086 20.6633 44.8587 21.9131 44.8587 23.4325Z" fill="#CB5300"/>
<path fill-rule="evenodd" clip-rule="evenodd" d="M49.1932 43.969C48.5165 44.3856 47.6704 44.48 46.8713 44.1902C46.0583 43.8957 44.966 43.4702 43.7479 42.9173C43.7282 42.9081 43.7087 42.8989 43.6893 42.8893C43.4271 42.7601 43.2707 42.4833 43.2956 42.1918C43.3204 41.9007 43.5212 41.6542 43.8015 41.5714C45.1876 41.1606 46.4254 40.2388 47.2044 38.8891C47.9837 37.5395 48.163 36.0068 47.8259 34.6009C47.7577 34.3166 47.8705 34.0196 48.1105 33.8523C48.3502 33.6852 48.6679 33.6821 48.911 33.8448C48.929 33.8567 48.9468 33.869 48.9645 33.8816C50.0527 34.6599 50.967 35.3932 51.629 35.9502C52.2791 36.4973 52.6204 37.277 52.5982 38.071C51.2959 38.2002 50.0687 38.9304 49.3705 40.1396C48.6723 41.3488 48.6539 42.7768 49.1932 43.969ZM52.0899 39.6241C51.8571 40.067 51.569 40.593 51.2158 41.2049C50.8623 41.8165 50.5511 42.3292 50.2838 42.7523C50.1624 42.1206 50.2569 41.4449 50.6005 40.8497C50.9441 40.2545 51.4821 39.8348 52.0899 39.6241Z" fill="#CB5300"/>
<path d="M51.6144 44.6325C50.2985 43.8729 49.841 42.1653 50.6005 40.8498C51.3601 39.5342 53.0677 39.0767 54.3836 39.8362C55.6991 40.5958 56.1566 42.3034 55.3971 43.6189C54.6375 44.9345 52.9299 45.392 51.6144 44.6325Z" fill="#CB5300"/>
<path fill-rule="evenodd" clip-rule="evenodd" d="M31.7204 38.1532C31.6979 37.3589 32.0392 36.5792 32.6896 36.0321C33.3513 35.475 34.2656 34.7421 35.3538 33.9638C35.3715 33.9512 35.3896 33.9386 35.4073 33.9266C35.6504 33.764 35.9681 33.7671 36.2081 33.9345C36.4481 34.1015 36.5609 34.3984 36.4927 34.6828C36.1553 36.0887 36.3346 37.6214 37.1139 38.971C37.8932 40.3207 39.1307 41.2425 40.5171 41.6533C40.7974 41.7364 40.9982 41.9826 41.023 42.274C41.0476 42.5652 40.8915 42.842 40.6293 42.9712C40.6099 42.9807 40.5904 42.99 40.5703 42.9992C39.3523 43.5524 38.2603 43.9776 37.4469 44.2721C36.6479 44.5619 35.8021 44.4674 35.1257 44.0512C35.665 42.8587 35.6463 41.431 34.9481 40.2218C34.2499 39.0126 33.0227 38.2824 31.7204 38.1532ZM34.0348 42.8345C33.7679 42.4114 33.4563 41.8991 33.1031 41.2871C32.7496 40.6752 32.4615 40.1492 32.2287 39.7063C32.8365 39.917 33.3745 40.3367 33.7181 40.9319C34.0617 41.5271 34.1562 42.2028 34.0348 42.8345Z" fill="#CB5300"/>
<path d="M29.9355 39.9184C31.251 39.1589 32.9586 39.6164 33.7182 40.9319C34.4777 42.2475 34.0202 43.9551 32.7046 44.7146C31.3887 45.4741 29.6811 45.0166 28.9216 43.7011C28.1621 42.3855 28.6199 40.6779 29.9355 39.9184Z" fill="#CB5300"/>
<path d="M32.9708 54.272C33.0294 54.0373 33.0908 53.8827 33.1548 53.808C33.2241 53.728 33.3468 53.688 33.5228 53.688C33.6668 53.688 33.7894 53.704 33.8908 53.736C33.9974 53.768 34.0534 53.816 34.0588 53.88C34.0854 53.896 34.0988 53.9387 34.0988 54.008C34.0988 54.12 34.0694 54.2907 34.0108 54.52C33.9521 54.7493 33.8668 55.048 33.7548 55.416C33.6268 55.8587 33.5228 56.2347 33.4428 56.544C33.3628 56.8533 33.3121 57.1173 33.2908 57.336L33.2828 57.448C33.2828 57.6613 33.3361 57.8373 33.4428 57.976C33.5494 58.1093 33.6801 58.208 33.8348 58.272C33.9894 58.3307 34.1414 58.36 34.2908 58.36C34.6321 58.36 34.9014 58.2827 35.0988 58.128C35.2961 57.968 35.4454 57.752 35.5468 57.48C35.6534 57.2027 35.7521 56.8267 35.8428 56.352C35.8908 56.112 35.9654 55.7653 36.0668 55.312C36.1681 54.8587 36.2348 54.584 36.2668 54.488C36.3148 54.3493 36.3441 54.2427 36.3548 54.168C36.3868 54.0453 36.4188 53.952 36.4508 53.888C36.4881 53.824 36.5441 53.768 36.6188 53.72C36.6401 53.7147 36.6694 53.7093 36.7068 53.704C36.7441 53.6933 36.7734 53.688 36.7948 53.688C36.9761 53.688 37.1254 53.704 37.2428 53.736C37.3654 53.768 37.4374 53.808 37.4588 53.856C37.3788 54.1707 37.2668 54.64 37.1228 55.264C36.9841 55.8827 36.8828 56.3733 36.8188 56.736C36.5254 58.3573 35.6454 59.168 34.1788 59.168C33.8054 59.168 33.4721 59.0933 33.1788 58.944C32.8854 58.7947 32.6534 58.5893 32.4828 58.328C32.3174 58.0613 32.2348 57.76 32.2348 57.424C32.2348 57.2533 32.2588 57.0773 32.3068 56.896L32.9708 54.272ZM38.0117 55.344C37.9957 55.328 37.9877 55.3093 37.9877 55.288C37.9877 55.2347 38.0463 55.192 38.1637 55.16C38.281 55.1227 38.4437 55.104 38.6517 55.104C38.8437 55.104 38.985 55.1547 39.0757 55.256C39.1663 55.352 39.2197 55.4693 39.2357 55.608L39.0917 56.128C39.2037 55.9733 39.361 55.8267 39.5637 55.688C39.7663 55.544 39.9717 55.4293 40.1797 55.344C40.3877 55.2587 40.5583 55.216 40.6917 55.216C40.9743 55.216 41.1797 55.2693 41.3077 55.376C41.4357 55.4773 41.4997 55.64 41.4997 55.864C41.185 56.6853 40.977 57.5707 40.8757 58.52L40.9877 58.912C40.9237 59.0347 40.833 59.1307 40.7157 59.2C40.6037 59.2747 40.4383 59.312 40.2197 59.312C40.0917 59.312 39.9983 59.2693 39.9397 59.184C39.881 59.0987 39.8517 58.992 39.8517 58.864C39.8517 58.5067 39.9023 58.1147 40.0037 57.688C40.1103 57.256 40.233 56.816 40.3717 56.368C40.425 56.1973 40.4517 56.1093 40.4517 56.104C40.4517 56.0293 40.409 55.992 40.3237 55.992C40.2063 55.992 40.0277 56.0747 39.7877 56.24C39.553 56.4053 39.3103 56.6853 39.0597 57.08C38.809 57.4693 38.6063 57.9813 38.4517 58.616C38.441 58.648 38.4277 58.7067 38.4117 58.792C38.3957 58.8773 38.353 58.9387 38.2837 58.976C38.2143 59.008 38.1023 59.024 37.9477 59.024C37.7717 59.024 37.641 59.0053 37.5557 58.968C37.4757 58.9307 37.4357 58.8507 37.4357 58.728C37.4517 58.6533 37.4757 58.5627 37.5077 58.456C37.817 57.2133 38.0543 56.256 38.2197 55.584L38.0117 55.344ZM42.7402 54.248C42.7402 54.0827 42.7908 53.936 42.8922 53.808C42.9988 53.68 43.1455 53.616 43.3322 53.616C43.5295 53.616 43.7002 53.6773 43.8442 53.8C43.9935 53.9227 44.0682 54.0613 44.0682 54.216C44.0682 54.3707 43.9935 54.504 43.8442 54.616C43.6948 54.728 43.5215 54.784 43.3242 54.784C43.1322 54.784 42.9855 54.736 42.8842 54.64C42.7882 54.5387 42.7402 54.408 42.7402 54.248ZM43.5802 55.664C43.2975 56.816 43.0815 57.6827 42.9322 58.264C42.9108 58.3493 42.9002 58.4427 42.9002 58.544L42.9082 58.768C42.9082 58.8587 42.8788 58.9227 42.8202 58.96C42.7668 58.9973 42.6495 59.0187 42.4682 59.024C42.2922 59.024 42.1588 59.0053 42.0682 58.968C41.9775 58.9307 41.9322 58.8507 41.9322 58.728C41.9322 58.6693 41.9988 58.3573 42.1322 57.792C42.2708 57.2267 42.4575 56.4907 42.6922 55.584L42.5082 55.344C42.4922 55.328 42.4842 55.3093 42.4842 55.288C42.4842 55.2347 42.5428 55.192 42.6602 55.16C42.7775 55.1227 42.9402 55.104 43.1482 55.104C43.3295 55.104 43.4442 55.1573 43.4922 55.264C43.5455 55.3653 43.5748 55.4987 43.5802 55.664ZM45.8951 54.192C45.7191 54.192 45.4871 54.3493 45.1991 54.664C45.1351 54.6267 45.0898 54.5813 45.0631 54.528C45.0364 54.4693 45.0231 54.3707 45.0231 54.232C45.0231 54.1253 45.0791 54.0133 45.1911 53.896C45.3031 53.7787 45.4364 53.6827 45.5911 53.608C45.7511 53.528 45.8951 53.488 46.0231 53.488C46.2578 53.488 46.4978 53.5813 46.7431 53.768C46.8444 53.848 46.9351 53.904 47.0151 53.936C47.0951 53.968 47.1804 53.984 47.2711 53.984C47.3351 53.984 47.3938 53.968 47.4471 53.936C47.5004 53.8987 47.5538 53.856 47.6071 53.808C47.6604 53.7547 47.7004 53.7147 47.7271 53.688C47.7484 53.6667 47.7724 53.656 47.7991 53.656C47.8204 53.656 47.8418 53.6693 47.8631 53.696C47.8844 53.7227 47.8978 53.736 47.9031 53.736C47.9138 53.736 47.9191 53.76 47.9191 53.808C47.9191 53.9573 47.8684 54.0987 47.7671 54.232C47.6658 54.36 47.5484 54.464 47.4151 54.544C47.2818 54.624 47.1751 54.664 47.0951 54.664C46.9724 54.664 46.8604 54.6453 46.7591 54.608C46.6631 54.5653 46.5458 54.4987 46.4071 54.408C46.3058 54.328 46.2151 54.272 46.1351 54.24C46.0604 54.208 45.9804 54.192 45.8951 54.192ZM47.0871 58.584C47.0978 58.7227 47.1164 58.848 47.1431 58.96C47.1324 58.992 47.0844 59.024 46.9991 59.056C46.9191 59.088 46.8498 59.104 46.7911 59.104C46.5991 59.104 46.4604 59.0747 46.3751 59.016C46.2951 58.9627 46.2551 58.88 46.2551 58.768C46.2551 58.6613 46.2658 58.5547 46.2871 58.448C46.1698 58.608 45.9964 58.7413 45.7671 58.848C45.5431 58.9493 45.3618 59 45.2231 59C44.8658 59 44.5671 58.896 44.3271 58.688C44.0924 58.48 43.9751 58.1467 43.9751 57.688C43.9751 57.256 44.0764 56.8507 44.2791 56.472C44.4871 56.088 44.7724 55.7813 45.1351 55.552C45.4978 55.3173 45.9004 55.2 46.3431 55.2C46.4284 55.2 46.5404 55.224 46.6791 55.272C46.8178 55.3147 46.9564 55.392 47.0951 55.504C47.2391 55.6107 47.3591 55.7493 47.4551 55.92C47.4978 55.92 47.5484 55.9413 47.6071 55.984C47.6658 56.0267 47.6951 56.0693 47.6951 56.112C47.6951 56.16 47.6871 56.208 47.6711 56.256L47.0871 58.584ZM46.7271 56.344C46.6951 56.2267 46.6311 56.128 46.5351 56.048C46.4444 55.968 46.3618 55.928 46.2871 55.928C46.0418 55.928 45.8098 56.016 45.5911 56.192C45.3778 56.3627 45.2044 56.576 45.0711 56.832C44.9378 57.088 44.8711 57.3307 44.8711 57.56C44.8711 57.784 44.8978 57.968 44.9511 58.112C45.0044 58.256 45.1084 58.328 45.2631 58.328C45.3964 58.328 45.5484 58.288 45.7191 58.208C45.8951 58.128 46.0498 58.0213 46.1831 57.888C46.3218 57.7493 46.4124 57.6053 46.4551 57.456L46.7271 56.344ZM49.5827 59.08C49.1134 59.08 48.7481 58.92 48.4867 58.6C48.2254 58.28 48.0947 57.872 48.0947 57.376C48.0947 56.96 48.1827 56.5787 48.3587 56.232C48.5401 55.8853 48.7907 55.6133 49.1107 55.416C49.4361 55.2133 49.8067 55.112 50.2227 55.112C50.6867 55.112 50.9987 55.152 51.1587 55.232C51.2067 55.2533 51.2494 55.288 51.2867 55.336C51.3241 55.3787 51.3427 55.4213 51.3427 55.464C51.3427 55.5173 51.3294 55.5733 51.3027 55.632C51.2814 55.6907 51.2467 55.736 51.1987 55.768C51.3214 55.7787 51.4254 55.84 51.5107 55.952C51.5961 56.0587 51.6601 56.184 51.7027 56.328C51.7454 56.472 51.7667 56.5973 51.7667 56.704C51.7667 57.0827 51.6734 57.456 51.4867 57.824C51.3054 58.192 51.0494 58.4933 50.7187 58.728C50.3881 58.9627 50.0094 59.08 49.5827 59.08ZM49.7027 58.416C49.8734 58.416 50.0467 58.3333 50.2227 58.168C50.4041 57.9973 50.5534 57.7733 50.6707 57.496C50.7881 57.2187 50.8467 56.928 50.8467 56.624C50.8467 56.5653 50.8254 56.512 50.7827 56.464C50.7454 56.416 50.6921 56.3653 50.6227 56.312C50.5854 56.2853 50.5507 56.2587 50.5187 56.232C50.4921 56.2 50.4787 56.1707 50.4787 56.144C50.4787 56.1227 50.4841 56.0933 50.4947 56.056C50.5107 56.0187 50.5187 55.992 50.5187 55.976C50.5187 55.896 50.4201 55.856 50.2227 55.856C50.0041 55.856 49.8014 55.944 49.6147 56.12C49.4334 56.296 49.2894 56.52 49.1827 56.792C49.0814 57.064 49.0307 57.3307 49.0307 57.592C49.0307 57.7467 49.0654 57.888 49.1347 58.016C49.2041 58.1387 49.2894 58.2373 49.3907 58.312C49.4974 58.3813 49.6014 58.416 49.7027 58.416Z" fill="#CB5300"/>
</g>
<defs>
<filter id="filter0_dd_240_327" x="0" y="0" width="84" height="84" filterUnits="userSpaceOnUse" color-interpolation-filters="sRGB">
<feFlood flood-opacity="0" result="BackgroundImageFix"/>
<feColorMatrix in="SourceAlpha" type="matrix" values="0 0 0 0 0 0 0 0 0 0 0 0 0 0 0 0 0 0 127 0" result="hardAlpha"/>
<feMorphology radius="2" operator="dilate" in="SourceAlpha" result="effect1_dropShadow_240_327"/>
<feOffset dy="2"/>
<feGaussianBlur stdDeviation="3"/>
<feColorMatrix type="matrix" values="0 0 0 0 0 0 0 0 0 0 0 0 0 0 0 0 0 0 0.15 0"/>
<feBlend mode="normal" in2="BackgroundImageFix" result="effect1_dropShadow_240_327"/>
<feColorMatrix in="SourceAlpha" type="matrix" values="0 0 0 0 0 0 0 0 0 0 0 0 0 0 0 0 0 0 127 0" result="hardAlpha"/>
<feOffset dy="1"/>
<feGaussianBlur stdDeviation="1"/>
<feColorMatrix type="matrix" values="0 0 0 0 0 0 0 0 0 0 0 0 0 0 0 0 0 0 0.3 0"/>
<feBlend mode="normal" in2="effect1_dropShadow_240_327" result="effect2_dropShadow_240_327"/>
<feBlend mode="normal" in="SourceGraphic" in2="effect2_dropShadow_240_327" result="shape"/>
</filter>
</defs>
</svg>
