<svg width="64" height="64" viewBox="0 0 64 64" fill="none" xmlns="http://www.w3.org/2000/svg">
<g filter="url(#filter0_d_151_1617)">
<rect x="2" width="56" height="56" rx="20" fill="#FDFDFC" shape-rendering="crispEdges"/>
<path d="M36.4807 26.389H26.7599" stroke="#0076C0" stroke-width="2" stroke-linecap="round" stroke-linejoin="round"/>
<path d="M31.6199 21.5286V31.2495" stroke="#0076C0" stroke-width="2" stroke-linecap="round" stroke-linejoin="round"/>
<path fill-rule="evenodd" clip-rule="evenodd" d="M16.2288 26.389C16.2239 29.3908 17.1011 32.328 18.7514 34.8356C18.4864 35.0569 18.2219 35.2761 17.9586 35.4944L17.7947 35.6302L17.7745 35.6469C16.5485 36.6635 15.3401 37.6655 14.1477 38.7652C12.7325 40.0694 12.5657 42.0541 13.9104 43.432C14.1241 43.6509 14.3404 43.8672 14.5593 44.0809C15.9364 45.4248 17.921 45.2587 19.2253 43.8435C20.3302 42.6438 21.3371 41.4287 22.3586 40.1958L23.15 39.2423C25.5803 40.8463 28.4908 41.7803 31.6201 41.7803C40.1202 41.7803 47.0115 34.889 47.0115 26.389C47.0115 17.8889 40.1202 10.9976 31.6201 10.9976C23.1201 10.9976 16.2288 17.8889 16.2288 26.389ZM40.601 30.0887C41.0895 28.9093 41.341 27.6452 41.341 26.3687C41.341 25.0921 41.0895 23.828 40.601 22.6487C40.1125 21.4693 39.3965 20.3977 38.4938 19.495C37.5911 18.5923 36.5195 17.8763 35.3401 17.3878C34.1607 16.8993 32.8967 16.6478 31.6201 16.6478C30.3436 16.6478 29.0795 16.8993 27.9001 17.3878C26.7207 17.8763 25.6491 18.5923 24.7465 19.495C23.8438 20.3977 23.1278 21.4693 22.6392 22.6487C22.1507 23.828 21.8993 25.0921 21.8993 26.3687C21.8993 27.6452 22.1507 28.9093 22.6392 30.0887C23.1278 31.2681 23.8438 32.3397 24.7465 33.2423C25.6491 34.145 26.7207 34.861 27.9001 35.3495C29.0795 35.8381 30.3436 36.0895 31.6201 36.0895C32.8967 36.0895 34.1607 35.8381 35.3401 35.3495C36.5195 34.861 37.5911 34.145 38.4938 33.2423C39.3965 32.3397 40.1125 31.2681 40.601 30.0887Z" fill="#0076C0"/>
<path fill-rule="evenodd" clip-rule="evenodd" d="M16.2288 26.389C16.2239 29.3908 17.1011 32.328 18.7514 34.8356C18.4864 35.0569 18.2219 35.2761 17.9586 35.4944L17.7947 35.6302L17.7745 35.6469C16.5485 36.6635 15.3401 37.6655 14.1477 38.7652C12.7325 40.0694 12.5657 42.0541 13.9104 43.432C14.1241 43.6509 14.3404 43.8672 14.5593 44.0809C15.9364 45.4248 17.921 45.2587 19.2253 43.8435C20.3302 42.6438 21.3371 41.4287 22.3586 40.1958L23.15 39.2423C25.5803 40.8463 28.4908 41.7803 31.6201 41.7803C40.1202 41.7803 47.0115 34.889 47.0115 26.389C47.0115 17.8889 40.1202 10.9976 31.6201 10.9976C23.1201 10.9976 16.2288 17.8889 16.2288 26.389ZM40.601 30.0887C41.0895 28.9093 41.341 27.6452 41.341 26.3687C41.341 25.0921 41.0895 23.828 40.601 22.6487C40.1125 21.4693 39.3965 20.3977 38.4938 19.495C37.5911 18.5923 36.5195 17.8763 35.3401 17.3878C34.1607 16.8993 32.8967 16.6478 31.6201 16.6478C30.3436 16.6478 29.0795 16.8993 27.9001 17.3878C26.7207 17.8763 25.6491 18.5923 24.7465 19.495C23.8438 20.3977 23.1278 21.4693 22.6392 22.6487C22.1507 23.828 21.8993 25.0921 21.8993 26.3687C21.8993 27.6452 22.1507 28.9093 22.6392 30.0887C23.1278 31.2681 23.8438 32.3397 24.7465 33.2423C25.6491 34.145 26.7207 34.861 27.9001 35.3495C29.0795 35.8381 30.3436 36.0895 31.6201 36.0895C32.8967 36.0895 34.1607 35.8381 35.3401 35.3495C36.5195 34.861 37.5911 34.145 38.4938 33.2423C39.3965 32.3397 40.1125 31.2681 40.601 30.0887Z" fill="#0076C0"/>
</g>
<defs>
<filter id="filter0_d_151_1617" x="0" y="0" width="64" height="64" filterUnits="userSpaceOnUse" color-interpolation-filters="sRGB">
<feFlood flood-opacity="0" result="BackgroundImageFix"/>
<feColorMatrix in="SourceAlpha" type="matrix" values="0 0 0 0 0 0 0 0 0 0 0 0 0 0 0 0 0 0 127 0" result="hardAlpha"/>
<feOffset dx="2" dy="4"/>
<feGaussianBlur stdDeviation="2"/>
<feComposite in2="hardAlpha" operator="out"/>
<feColorMatrix type="matrix" values="0 0 0 0 0.521569 0 0 0 0 0.270588 0 0 0 0 0.0980392 0 0 0 0.15 0"/>
<feBlend mode="normal" in2="BackgroundImageFix" result="effect1_dropShadow_151_1617"/>
<feBlend mode="normal" in="SourceGraphic" in2="effect1_dropShadow_151_1617" result="shape"/>
</filter>
</defs>
</svg>
