<svg width="64" height="64" viewBox="0 0 64 64" fill="none" xmlns="http://www.w3.org/2000/svg">
<g filter="url(#filter0_d_151_1621)">
<rect x="2" width="56" height="56" rx="20" fill="#FDFDFC" shape-rendering="crispEdges"/>
<path d="M36.8931 26.2864H26.5531" stroke="#0076C0" stroke-width="2" stroke-linecap="round" stroke-linejoin="round"/>
<path d="M15.3516 26.2863C15.3464 29.4794 16.2794 32.6037 18.0348 35.2709C17.7526 35.5067 17.471 35.7401 17.1905 35.9726C17.1327 36.0205 17.0749 36.0684 17.0172 36.1162L16.9957 36.1341C15.6916 37.2154 14.4063 38.2811 13.138 39.4509C11.6326 40.8382 11.4551 42.9493 12.8855 44.415C13.1128 44.6478 13.3429 44.8779 13.5757 45.1051C15.0405 46.5347 17.1516 46.358 18.5389 44.8527C19.7142 43.5765 20.7853 42.284 21.8718 40.9726L22.7137 39.9584C25.2987 41.6645 28.3947 42.658 31.7233 42.658C40.7648 42.658 48.095 35.3278 48.095 26.2863C48.095 17.2449 40.7648 9.91465 31.7233 9.91465C22.6818 9.91465 15.3516 17.2449 15.3516 26.2863ZM42.0633 26.2648C42.0633 27.6226 41.7959 28.9672 41.2762 30.2217C40.7566 31.4762 39.9949 32.6161 39.0348 33.5763C38.0746 34.5364 36.9348 35.2981 35.6802 35.8177C34.4257 36.3373 33.0812 36.6048 31.7233 36.6048C30.3654 36.6048 29.0208 36.3373 27.7663 35.8177C26.5118 35.2981 25.372 34.5364 24.4118 33.5763C23.4516 32.6161 22.69 31.4762 22.1704 30.2217C21.6507 28.9672 21.3833 27.6226 21.3833 26.2648C21.3833 24.9069 21.6507 23.5623 22.1704 22.3078C22.69 21.0533 23.4516 19.9134 24.4118 18.9533C25.372 17.9931 26.5118 17.2315 27.7663 16.7118C29.0208 16.1922 30.3654 15.9248 31.7233 15.9248C33.0812 15.9248 34.4257 16.1922 35.6802 16.7118C36.9348 17.2315 38.0746 17.9931 39.0348 18.9533C39.9949 19.9134 40.7566 21.0533 41.2762 22.3078C41.7959 23.5623 42.0633 24.9069 42.0633 26.2648Z" fill="#0076C0"/>
</g>
<defs>
<filter id="filter0_d_151_1621" x="0" y="0" width="64" height="64" filterUnits="userSpaceOnUse" color-interpolation-filters="sRGB">
<feFlood flood-opacity="0" result="BackgroundImageFix"/>
<feColorMatrix in="SourceAlpha" type="matrix" values="0 0 0 0 0 0 0 0 0 0 0 0 0 0 0 0 0 0 127 0" result="hardAlpha"/>
<feOffset dx="2" dy="4"/>
<feGaussianBlur stdDeviation="2"/>
<feComposite in2="hardAlpha" operator="out"/>
<feColorMatrix type="matrix" values="0 0 0 0 0.521569 0 0 0 0 0.270588 0 0 0 0 0.0980392 0 0 0 0.15 0"/>
<feBlend mode="normal" in2="BackgroundImageFix" result="effect1_dropShadow_151_1621"/>
<feBlend mode="normal" in="SourceGraphic" in2="effect1_dropShadow_151_1621" result="shape"/>
</filter>
</defs>
</svg>
