<svg width="84" height="84" viewBox="0 0 84 84" fill="none" xmlns="http://www.w3.org/2000/svg">
<g id="audiovisual" filter="url(#filter0_dd_422_2622)">
<rect x="8" y="6" width="68" height="68" rx="20" fill="#F9F8F6"/>
<g id="audiovisual_2" clip-path="url(#clip0_422_2622)">
<g id="Audiovisual">
<g id="Group">
<g id="Group_2">
<path id="Vector" fill-rule="evenodd" clip-rule="evenodd" d="M44.7953 23.686C45.7498 23.7833 46.4934 24.5579 46.5518 25.5156C46.8476 30.5022 46.8893 35.4888 46.5699 40.4758C46.5038 41.4565 45.7216 42.2365 44.7407 42.2996C40.4109 42.5608 35.9023 42.5447 31.2382 42.287C30.2503 42.2307 29.4591 41.4469 29.394 40.4594C29.094 35.6577 29.0926 30.6791 29.4055 25.5144C29.4653 24.5568 30.21 23.7833 31.1648 23.6868C35.7513 23.2438 40.2944 23.2472 44.7953 23.686Z" fill="#CB5300"/>
</g>
<g id="Group_3">
<path id="Vector_2" fill-rule="evenodd" clip-rule="evenodd" d="M53.0569 26.5395C53.3638 26.3601 53.7424 26.356 54.0525 26.5285C54.3631 26.7011 54.5596 27.0249 54.5689 27.3802C54.6696 31.2772 54.6808 35.1001 54.5705 38.8634C54.56 39.2015 54.3804 39.5118 54.092 39.6887C53.8036 39.866 53.4456 39.8861 53.1395 39.7422C51.5974 39.0154 50.1781 38.1876 48.9525 37.2001C48.563 36.8785 48.3133 36.4184 48.2557 35.9166C48.0511 34.0694 48.0596 32.2218 48.2364 30.3742C48.2988 29.7479 48.6589 29.19 49.2034 28.8746C50.5506 28.0864 51.7979 27.2893 53.0569 26.5395Z" fill="#CB5300"/>
</g>
</g>
</g>
</g>
<path id="textIcon" d="M25.6327 57.224C24.9341 57.3413 24.3767 57.448 23.9607 57.544C23.8327 57.7467 23.7501 57.8827 23.7127 57.952C23.6007 58.1493 23.4994 58.3147 23.4087 58.448C23.3234 58.576 23.2301 58.6907 23.1287 58.792C23.0167 58.904 22.9234 58.984 22.8487 59.032C22.7794 59.08 22.6967 59.104 22.6007 59.104C22.4407 59.104 22.2994 59.0693 22.1767 59C22.0594 58.9253 22.0007 58.8507 22.0007 58.776C22.0114 58.7653 22.0701 58.648 22.1767 58.424C22.2834 58.1947 22.4807 57.9093 22.7687 57.568C22.7687 57.5253 22.7554 57.472 22.7287 57.408C22.7021 57.344 22.6887 57.3067 22.6887 57.296C22.6887 57.1413 22.9314 56.9547 23.4167 56.736C23.6887 56.3307 23.9741 55.9307 24.2727 55.536C24.5767 55.1413 24.9474 54.6747 25.3847 54.136C25.4914 54.0027 25.6274 53.8933 25.7927 53.808C25.9581 53.7227 26.1234 53.68 26.2887 53.68C26.4594 53.68 26.5874 53.696 26.6727 53.728C26.7581 53.76 26.8114 53.8027 26.8327 53.856C26.8594 53.9093 26.8727 53.984 26.8727 54.08C26.8514 54.24 26.8381 54.36 26.8327 54.44C26.7527 55.0853 26.6914 55.64 26.6487 56.104C26.6114 56.5627 26.5927 57.0213 26.5927 57.48C26.5927 57.9013 26.6114 58.288 26.6487 58.64C26.6327 58.768 26.5767 58.8853 26.4807 58.992C26.3847 59.0933 26.2727 59.144 26.1447 59.144C25.8994 59.144 25.7367 59.0827 25.6567 58.96C25.5821 58.8373 25.5447 58.6293 25.5447 58.336C25.5447 58.1227 25.5741 57.752 25.6327 57.224ZM24.5927 56.624C24.6887 56.6027 24.8354 56.5787 25.0327 56.552L25.6727 56.456C25.7207 55.7147 25.7767 55.1813 25.8407 54.856C25.6327 55.1013 25.2167 55.6907 24.5927 56.624ZM30.7387 58.976C30.7174 59.0667 30.6694 59.128 30.5947 59.16C30.5201 59.1973 30.4214 59.216 30.2987 59.216C29.9307 59.216 29.7467 59.1333 29.7467 58.968L29.7947 58.664C29.6454 58.776 29.4694 58.888 29.2667 59C29.0641 59.112 28.8961 59.168 28.7627 59.168C27.9734 59.168 27.5787 58.9093 27.5787 58.392C27.5787 57.512 27.8427 56.5573 28.3707 55.528C28.4347 55.4053 28.5014 55.3173 28.5707 55.264C28.6454 55.2107 28.7707 55.184 28.9467 55.184C29.1334 55.184 29.2721 55.2107 29.3627 55.264C29.4587 55.312 29.5067 55.3707 29.5067 55.44C29.5067 55.456 29.4774 55.504 29.4187 55.584C29.3601 55.6533 29.3094 55.7227 29.2667 55.792C28.7654 56.6293 28.5147 57.4453 28.5147 58.24C28.5147 58.3093 28.5414 58.3707 28.5947 58.424C28.6481 58.4773 28.6961 58.504 28.7387 58.504C28.8561 58.504 29.0534 58.448 29.3307 58.336C29.6134 58.224 29.8294 58.1093 29.9787 57.992L30.1387 57.344C30.3307 56.5707 30.4507 56.096 30.4987 55.92C30.5574 55.7067 30.6321 55.5333 30.7227 55.4C30.8187 55.2613 30.9681 55.192 31.1707 55.192C31.4534 55.192 31.5947 55.2773 31.5947 55.448C31.5947 55.4747 31.5867 55.5093 31.5707 55.552C31.5601 55.5893 31.5521 55.6213 31.5467 55.648L31.2267 56.944C30.9707 57.9733 30.8081 58.6507 30.7387 58.976ZM35.3718 53.072C35.3931 52.992 35.4544 52.928 35.5558 52.88C35.6624 52.8267 35.7744 52.8 35.8918 52.8C35.9878 52.8 36.0918 52.8213 36.2038 52.864C36.3158 52.9067 36.3718 52.968 36.3718 53.048L35.8678 55.016C35.4251 56.7387 35.1664 57.7893 35.0918 58.168C35.0598 58.328 35.0438 58.4507 35.0438 58.536C35.0438 58.68 35.0598 58.8213 35.0918 58.96C35.0811 58.992 35.0384 59.024 34.9638 59.056C34.8944 59.088 34.8304 59.104 34.7718 59.104C34.6651 59.104 34.5478 59.0907 34.4198 59.064C34.2918 59.0373 34.2118 59.008 34.1798 58.976C34.1318 58.9333 34.1078 58.848 34.1078 58.72C34.1078 58.624 34.1184 58.5333 34.1398 58.448C34.0278 58.608 33.8571 58.7413 33.6278 58.848C33.4038 58.9493 33.2224 59 33.0838 59C32.2678 59 31.8598 58.56 31.8598 57.68C31.8598 57.296 31.9451 56.912 32.1158 56.528C32.2918 56.144 32.5398 55.8267 32.8598 55.576C33.1851 55.3253 33.5611 55.2 33.9878 55.2C34.1051 55.2 34.2358 55.248 34.3798 55.344C34.5238 55.4347 34.6411 55.5387 34.7318 55.656C34.8491 55.16 34.9531 54.7467 35.0438 54.416C35.0864 54.24 35.1344 54.04 35.1878 53.816C35.2464 53.5867 35.3078 53.3387 35.3718 53.072ZM34.5558 56.4C34.5238 56.2827 34.4464 56.176 34.3238 56.08C34.2064 55.9787 34.1104 55.928 34.0358 55.928C33.7904 55.928 33.5611 56.008 33.3478 56.168C33.1344 56.328 32.9638 56.536 32.8358 56.792C32.7131 57.048 32.6518 57.312 32.6518 57.584C32.6518 57.7867 32.6891 57.968 32.7638 58.128C32.8384 58.288 32.9531 58.368 33.1078 58.368C33.2411 58.368 33.3958 58.3253 33.5718 58.24C33.7531 58.1493 33.9131 58.0347 34.0518 57.896C34.1904 57.752 34.2758 57.6053 34.3078 57.456L34.5558 56.4ZM36.9745 54.248C36.9745 54.0827 37.0252 53.936 37.1265 53.808C37.2332 53.68 37.3799 53.616 37.5665 53.616C37.7639 53.616 37.9345 53.6773 38.0785 53.8C38.2279 53.9227 38.3025 54.0613 38.3025 54.216C38.3025 54.3707 38.2279 54.504 38.0785 54.616C37.9292 54.728 37.7559 54.784 37.5585 54.784C37.3665 54.784 37.2199 54.736 37.1185 54.64C37.0225 54.5387 36.9745 54.408 36.9745 54.248ZM36.2145 58.464C36.2145 58.368 36.4519 57.408 36.9265 55.584L36.8785 55.288C36.8785 55.2293 36.9132 55.184 36.9825 55.152C37.0519 55.12 37.1852 55.104 37.3825 55.104C37.5372 55.104 37.6492 55.1467 37.7185 55.232C37.7932 55.3173 37.8305 55.4187 37.8305 55.536C37.8305 55.568 37.8252 55.6107 37.8145 55.664L37.1025 58.544L37.1505 58.84C37.1505 58.8987 37.1159 58.944 37.0465 58.976C36.9772 59.008 36.8439 59.024 36.6465 59.024C36.4705 59.024 36.3559 58.9733 36.3025 58.872C36.2492 58.7653 36.2199 58.6293 36.2145 58.464ZM39.8255 59.08C39.5108 59.08 39.2388 59.0053 39.0095 58.856C38.7801 58.7067 38.6041 58.504 38.4815 58.248C38.3641 57.992 38.3055 57.7013 38.3055 57.376C38.3055 56.9493 38.3881 56.5653 38.5535 56.224C38.7241 55.8773 38.9641 55.6053 39.2735 55.408C39.5828 55.2107 39.9428 55.112 40.3535 55.112C40.8068 55.112 41.1135 55.152 41.2735 55.232C41.3161 55.2533 41.3561 55.288 41.3935 55.336C41.4361 55.3787 41.4601 55.4213 41.4655 55.464C41.4548 55.608 41.4068 55.7093 41.3215 55.768C41.4441 55.7787 41.5455 55.84 41.6255 55.952C41.7108 56.064 41.7748 56.1947 41.8175 56.344C41.8601 56.488 41.8815 56.6187 41.8815 56.736C41.8815 57.1147 41.7988 57.4853 41.6335 57.848C41.4681 58.2053 41.2281 58.5013 40.9135 58.736C40.6041 58.9653 40.2415 59.08 39.8255 59.08ZM39.9375 58.416C40.1081 58.416 40.2708 58.3333 40.4255 58.168C40.5855 58.0027 40.7135 57.784 40.8095 57.512C40.9108 57.2347 40.9615 56.9387 40.9615 56.624C40.9615 56.5653 40.9428 56.512 40.9055 56.464C40.8681 56.416 40.8148 56.3653 40.7455 56.312C40.7348 56.3067 40.7081 56.2853 40.6655 56.248C40.6281 56.2107 40.6095 56.176 40.6095 56.144C40.6095 56.1227 40.6148 56.0933 40.6255 56.056C40.6361 56.0133 40.6415 55.984 40.6415 55.968C40.6415 55.8933 40.5481 55.856 40.3615 55.856C40.1428 55.856 39.9481 55.944 39.7775 56.12C39.6121 56.2907 39.4815 56.512 39.3855 56.784C39.2948 57.0507 39.2495 57.32 39.2495 57.592C39.2495 57.7467 39.2841 57.888 39.3535 58.016C39.4281 58.1387 39.5188 58.2373 39.6255 58.312C39.7321 58.3813 39.8361 58.416 39.9375 58.416ZM43.2104 59.168C43.0504 59.1413 42.9357 59.1093 42.8664 59.072C42.7971 59.04 42.7491 59 42.7224 58.952C42.7011 58.904 42.6797 58.8213 42.6584 58.704L42.6504 58.648C42.6024 58.376 42.5517 57.864 42.4984 57.112C42.4504 56.3547 42.4264 55.816 42.4264 55.496C42.4264 55.4107 42.4691 55.3413 42.5544 55.288C42.6451 55.2293 42.7597 55.2 42.8984 55.2C43.1811 55.2 43.3224 55.3307 43.3224 55.592L43.3544 56.696C43.3864 57.4107 43.4051 57.96 43.4104 58.344C43.6984 57.72 44.0531 57.04 44.4744 56.304C44.9011 55.5627 45.1837 55.192 45.3224 55.192C45.5144 55.192 45.6717 55.2187 45.7944 55.272C45.9224 55.32 45.9864 55.4267 45.9864 55.592C45.9864 55.6507 45.9304 55.768 45.8184 55.944L45.1144 57.064C44.7464 57.656 44.4637 58.1013 44.2664 58.4C44.0691 58.6933 43.9224 58.8853 43.8264 58.976C43.7677 59.0293 43.6824 59.0747 43.5704 59.112C43.4584 59.1493 43.3384 59.168 43.2104 59.168ZM46.8652 54.248C46.8652 54.0827 46.9158 53.936 47.0172 53.808C47.1238 53.68 47.2705 53.616 47.4572 53.616C47.6545 53.616 47.8252 53.6773 47.9692 53.8C48.1185 53.9227 48.1932 54.0613 48.1932 54.216C48.1932 54.3707 48.1185 54.504 47.9692 54.616C47.8198 54.728 47.6465 54.784 47.4492 54.784C47.2572 54.784 47.1105 54.736 47.0092 54.64C46.9132 54.5387 46.8652 54.408 46.8652 54.248ZM47.7052 55.664C47.4225 56.816 47.2065 57.6827 47.0572 58.264C47.0358 58.3493 47.0252 58.4427 47.0252 58.544L47.0332 58.768C47.0332 58.8587 47.0038 58.9227 46.9452 58.96C46.8918 58.9973 46.7745 59.0187 46.5932 59.024C46.4172 59.024 46.2838 59.0053 46.1932 58.968C46.1025 58.9307 46.0572 58.8507 46.0572 58.728C46.0572 58.6693 46.1238 58.3573 46.2572 57.792C46.3958 57.2267 46.5825 56.4907 46.8172 55.584L46.6332 55.344C46.6172 55.328 46.6092 55.3093 46.6092 55.288C46.6092 55.2347 46.6678 55.192 46.7852 55.16C46.9025 55.1227 47.0652 55.104 47.2732 55.104C47.4545 55.104 47.5692 55.1573 47.6172 55.264C47.6705 55.3653 47.6998 55.4987 47.7052 55.664ZM49.4361 56.368C49.4414 56.4747 49.4868 56.56 49.5721 56.624C49.6574 56.6827 49.7988 56.7547 49.9961 56.84C50.2041 56.9307 50.3748 57.0187 50.5081 57.104C50.6414 57.184 50.7561 57.3013 50.8521 57.456C50.9481 57.6107 50.9961 57.8053 50.9961 58.04C50.9961 58.424 50.8521 58.7173 50.5641 58.92C50.2814 59.1173 49.8974 59.216 49.4121 59.216C49.1721 59.216 48.9454 59.1733 48.7321 59.088C48.5241 59.008 48.3588 58.9067 48.2361 58.784C48.1134 58.6613 48.0494 58.5387 48.0441 58.416C48.0441 58.2827 48.0921 58.176 48.1881 58.096C48.2894 58.016 48.4308 57.9627 48.6121 57.936C48.6174 58.0427 48.6708 58.144 48.7721 58.24C48.8734 58.3307 48.9908 58.4053 49.1241 58.464C49.2628 58.5173 49.3828 58.544 49.4841 58.544C49.6868 58.544 49.8254 58.5093 49.9001 58.44C49.9801 58.3653 50.0201 58.264 50.0201 58.136C50.0201 57.9973 49.9748 57.8667 49.8841 57.744C49.7934 57.616 49.6548 57.5227 49.4681 57.464C49.1801 57.3733 48.9508 57.2267 48.7801 57.024C48.6094 56.816 48.5241 56.6027 48.5241 56.384C48.5241 56 48.6548 55.704 48.9161 55.496C49.1774 55.288 49.5454 55.184 50.0201 55.184C50.2601 55.184 50.4734 55.2267 50.6601 55.312C50.8468 55.3973 50.9908 55.504 51.0921 55.632C51.1934 55.76 51.2441 55.8853 51.2441 56.008C51.2441 56.136 51.1908 56.2427 51.0841 56.328C50.9828 56.408 50.8414 56.4613 50.6601 56.488C50.6494 56.3173 50.5881 56.1733 50.4761 56.056C50.3694 55.9387 50.2441 55.88 50.1001 55.88C49.9294 55.88 49.7748 55.928 49.6361 56.024C49.5028 56.12 49.4361 56.2347 49.4361 56.368ZM54.6293 58.976C54.608 59.0667 54.56 59.128 54.4853 59.16C54.4107 59.1973 54.312 59.216 54.1893 59.216C53.8213 59.216 53.6373 59.1333 53.6373 58.968L53.6853 58.664C53.504 58.8347 53.3253 58.96 53.1493 59.04C52.9787 59.1253 52.784 59.168 52.5653 59.168C52.256 59.168 51.9947 59.0853 51.7813 58.92C51.5733 58.7493 51.4693 58.448 51.4693 58.016C51.4693 57.9093 51.4853 57.792 51.5173 57.664L52.0533 55.528C52.0853 55.4107 52.1413 55.3253 52.2213 55.272C52.3067 55.2133 52.4427 55.184 52.6293 55.184C52.9067 55.184 53.0453 55.2613 53.0453 55.416C53.0453 55.48 53.0267 55.5813 52.9893 55.72L52.4533 57.864C52.4373 57.928 52.4293 57.992 52.4293 58.056C52.4293 58.168 52.4587 58.2587 52.5173 58.328C52.576 58.3973 52.6693 58.432 52.7973 58.432C52.968 58.432 53.16 58.384 53.3733 58.288C53.5867 58.1867 53.7573 58.0693 53.8853 57.936L54.0933 57.128C54.312 56.264 54.44 55.7627 54.4773 55.624C54.5093 55.5067 54.5387 55.4213 54.5653 55.368C54.5973 55.3093 54.6507 55.2667 54.7253 55.24C54.8 55.208 54.912 55.192 55.0613 55.192C55.344 55.192 55.4853 55.2773 55.4853 55.448C55.4853 55.4747 55.4773 55.5093 55.4613 55.552C55.4507 55.5893 55.4427 55.6213 55.4373 55.648L55.1173 56.944C54.8613 57.9733 54.6987 58.6507 54.6293 58.976ZM58.9264 58.864C58.8944 58.96 58.8091 59.024 58.6704 59.056C58.5371 59.0933 58.4197 59.112 58.3184 59.112C58.2277 59.112 58.1664 59.088 58.1344 59.04C58.1024 58.9973 58.0757 58.9333 58.0544 58.848C58.0331 58.7573 58.0171 58.6933 58.0064 58.656C57.7824 58.8107 57.5504 58.928 57.3104 59.008C57.0757 59.0933 56.8784 59.136 56.7184 59.136C56.5584 59.136 56.3931 59.0987 56.2224 59.024C56.0571 58.9547 55.9131 58.832 55.7904 58.656C55.6677 58.4747 55.6064 58.2347 55.6064 57.936C55.6064 57.632 55.6997 57.2667 55.8864 56.84C56.0784 56.408 56.3504 56.0347 56.7024 55.72C57.0597 55.4 57.4757 55.24 57.9504 55.24C58.1904 55.24 58.4277 55.2987 58.6624 55.416C58.8971 55.528 59.0891 55.672 59.2384 55.848C59.3877 56.0187 59.4651 56.192 59.4704 56.368L59.3664 56.648C59.2171 57.064 59.0997 57.4187 59.0144 57.712C58.9291 58 58.8864 58.2587 58.8864 58.488C58.8864 58.6427 58.8997 58.768 58.9264 58.864ZM58.0144 57.984C58.0624 57.8507 58.1211 57.6773 58.1904 57.464C58.3077 57.0587 58.4197 56.7173 58.5264 56.44C58.5051 56.3653 58.4571 56.288 58.3824 56.208C58.3077 56.1227 58.2304 56.0533 58.1504 56C58.0704 55.9413 58.0144 55.912 57.9824 55.912C57.7851 55.912 57.5744 56.032 57.3504 56.272C57.1264 56.5067 56.9371 56.7867 56.7824 57.112C56.6331 57.4373 56.5584 57.72 56.5584 57.96C56.5584 58.0667 56.5904 58.168 56.6544 58.264C56.7184 58.3547 56.7877 58.4 56.8624 58.4C56.9851 58.4 57.1797 58.3547 57.4464 58.264C57.7184 58.168 57.9077 58.0747 58.0144 57.984ZM61.67 54.648C61.0674 57.1813 60.7127 58.6293 60.606 58.992C60.5954 59.024 60.5394 59.064 60.438 59.112C60.342 59.1653 60.2754 59.192 60.238 59.192C60.0887 59.192 59.9447 59.1547 59.806 59.08C59.6674 59.0053 59.5927 58.8853 59.582 58.72C59.5874 58.7093 59.614 58.6533 59.662 58.552C59.71 58.4507 59.758 58.3067 59.806 58.12C59.9287 57.6613 60.0674 57.1173 60.222 56.488C60.382 55.8587 60.4887 55.4373 60.542 55.224L60.918 53.696C60.9127 53.6533 60.91 53.432 60.91 53.032C60.926 52.9627 60.9847 52.9067 61.086 52.864C61.1927 52.8213 61.2887 52.8 61.374 52.8C61.5074 52.8 61.6434 52.8453 61.782 52.936C61.926 53.0267 62.0007 53.136 62.006 53.264L61.67 54.648Z" fill="#CB5300"/>
</g>
<defs>
<filter id="filter0_dd_422_2622" x="0" y="0" width="84" height="84" filterUnits="userSpaceOnUse" color-interpolation-filters="sRGB">
<feFlood flood-opacity="0" result="BackgroundImageFix"/>
<feColorMatrix in="SourceAlpha" type="matrix" values="0 0 0 0 0 0 0 0 0 0 0 0 0 0 0 0 0 0 127 0" result="hardAlpha"/>
<feMorphology radius="2" operator="dilate" in="SourceAlpha" result="effect1_dropShadow_422_2622"/>
<feOffset dy="2"/>
<feGaussianBlur stdDeviation="3"/>
<feColorMatrix type="matrix" values="0 0 0 0 0 0 0 0 0 0 0 0 0 0 0 0 0 0 0.15 0"/>
<feBlend mode="normal" in2="BackgroundImageFix" result="effect1_dropShadow_422_2622"/>
<feColorMatrix in="SourceAlpha" type="matrix" values="0 0 0 0 0 0 0 0 0 0 0 0 0 0 0 0 0 0 127 0" result="hardAlpha"/>
<feOffset dy="1"/>
<feGaussianBlur stdDeviation="1"/>
<feColorMatrix type="matrix" values="0 0 0 0 0 0 0 0 0 0 0 0 0 0 0 0 0 0 0.3 0"/>
<feBlend mode="normal" in2="effect1_dropShadow_422_2622" result="effect2_dropShadow_422_2622"/>
<feBlend mode="normal" in="SourceGraphic" in2="effect2_dropShadow_422_2622" result="shape"/>
</filter>
<clipPath id="clip0_422_2622">
<rect width="28" height="28" fill="white" transform="translate(28 19)"/>
</clipPath>
</defs>
</svg>
