<svg width="84" height="84" viewBox="0 0 84 84" fill="none" xmlns="http://www.w3.org/2000/svg">
<g id="danca" filter="url(#filter0_dd_422_2611)">
<rect x="8" y="6" width="68" height="68" rx="20" fill="#F9F8F6"/>
<g id="danca_2" clip-path="url(#clip0_422_2611)">
<g id="Group">
<g id="Group_2">
<g id="Dan&#195;&#167;a">
<g id="Group_3">
<g id="Group_4">
<path id="Vector" fill-rule="evenodd" clip-rule="evenodd" d="M42.2814 27.569C42.2274 27.5507 42.1898 27.5017 42.1867 27.4446C42.0619 25.2556 42.1137 23.2518 42.1696 21.252C42.182 20.7969 42.555 20.4342 43.0105 20.4346C43.9213 20.4362 45.409 20.4378 46.5001 20.4359C46.9308 20.4342 47.2929 20.7587 47.3382 21.187C47.509 22.914 48.2729 23.8327 48.9302 24.3287C47.908 25.0746 46.5247 26.7206 45.6235 30.038C45.6055 30.1027 45.5521 30.1514 45.4863 30.1635C45.4201 30.1759 45.3528 30.1491 45.313 30.0952C44.8845 29.5192 44.4283 29.0566 44.0045 28.6933C43.0807 27.9013 42.309 27.5792 42.309 27.5792C42.2997 27.5756 42.2907 27.572 42.2814 27.569ZM45.2357 31.3276C45.2674 31.3619 45.2795 31.4099 45.2683 31.455C44.8177 33.282 44.4429 34.661 43.9647 35.6039C43.5704 36.3815 43.1049 36.8298 42.428 36.9399C42.3817 36.9467 42.3348 36.934 42.2985 36.9046C42.2622 36.8752 42.2401 36.832 42.2373 36.7853C42.2022 36.2152 42.1923 35.8637 42.1923 35.8637C42.1066 33.7057 42.0845 31.3236 42.1814 28.6639C42.1836 28.6024 42.2178 28.5469 42.2709 28.5168C42.3243 28.4864 42.3895 28.4864 42.4432 28.5162C42.7189 28.6763 43.1111 28.9318 43.5409 29.3003C44.0824 29.7646 44.6827 30.4069 45.1882 31.2632C45.2022 31.2867 45.2183 31.3083 45.2357 31.3276ZM42.3159 37.9425C42.3087 37.852 42.3746 37.7723 42.4646 37.7622C43.4325 37.6508 44.1007 37.0709 44.6494 35.9885C45.2248 34.8544 45.6667 33.1153 46.2455 30.7453C47.1882 26.8865 48.7616 25.2938 49.7006 24.7818C49.7795 24.8178 49.8429 24.8449 49.8857 24.8658C54.0442 24.7684 53.3048 28.4632 52.812 28.8197C48.0682 33.6485 48.2837 41.1352 48.4027 43.1974C48.5216 45.2596 46.7864 45.6726 46.7864 45.6726H45.6692C43.3468 45.6618 42.5525 40.7797 42.3159 37.9425Z" fill="#CB5300"/>
</g>
<g id="Group_5">
<path id="Vector_2" fill-rule="evenodd" clip-rule="evenodd" d="M30.8255 36.554C30.8196 36.5367 30.8168 36.5187 30.8168 36.5007C30.8165 36.1822 30.8165 33.1219 30.8165 32.4344C30.8165 32.3629 30.8621 32.2992 30.9298 32.2757C30.9618 32.2681 30.9916 32.2531 31.0199 32.2335C31.0199 32.2335 34.1483 30.0524 34.7402 29.6397C34.7979 29.5995 34.8746 29.5995 34.9324 29.6397C35.5245 30.0527 38.653 32.2335 38.653 32.2335C38.6813 32.2531 38.7111 32.2681 38.7418 32.2789C38.8083 32.3018 38.8527 32.3642 38.8527 32.4344C38.8561 33.1346 38.8561 36.3014 38.8561 36.6069C38.8561 36.6229 38.8539 36.6393 38.8493 36.6546C38.3518 38.3261 36.5837 39.5431 34.8364 39.5431C33.1454 39.5431 31.3614 38.1454 30.8255 36.554ZM38.562 38.6205C38.6074 38.5675 38.6807 38.5486 38.7459 38.5728C38.8111 38.5969 38.8545 38.6593 38.8545 38.7286C38.8561 39.7813 38.8561 42.2447 38.8561 42.2447C38.8561 44.138 37.3976 45.6726 35.5985 45.6726H34.0744C32.2753 45.6726 30.8165 44.138 30.8165 42.2447V38.5842C30.8168 38.5136 30.8609 38.4509 30.9273 38.4267C30.9935 38.4025 31.0677 38.4225 31.1133 38.4767C32.0616 39.5614 33.4596 40.3174 34.8364 40.3174C36.2381 40.3174 37.6258 39.6591 38.562 38.6205ZM31.0807 31.2625C31.0292 31.2981 30.9624 31.3024 30.9068 31.2736C30.8512 31.2446 30.8165 31.1871 30.8165 31.1246C30.8165 30.2579 30.8165 27.8817 30.8165 27.0077C30.8165 26.9447 30.8519 26.8868 30.9081 26.8581C30.9643 26.8293 31.0317 26.8346 31.0829 26.8715C31.7381 27.3439 33.4164 28.5541 33.9859 28.9644C34.03 28.9964 34.0561 29.0477 34.0555 29.102C34.0552 29.1565 34.0285 29.2075 33.9838 29.2385C33.4115 29.6374 31.7334 30.8074 31.0807 31.2625ZM35.6891 29.2385C35.6444 29.2075 35.6177 29.1565 35.6171 29.102C35.6168 29.0477 35.6429 28.9964 35.687 28.9644C36.2561 28.5541 37.9348 27.3439 38.59 26.8715C38.6409 26.8346 38.7086 26.8293 38.7648 26.8581C38.8207 26.8868 38.8561 26.9447 38.8561 27.0077C38.8561 27.8817 38.8561 30.2579 38.8561 31.1246C38.8561 31.1871 38.8213 31.2446 38.7657 31.2736C38.7105 31.3024 38.6434 31.2981 38.5922 31.2625C37.9391 30.8074 36.2611 29.6374 35.6891 29.2385ZM30.8168 25.8231C30.8168 25.8227 30.8165 25.8227 30.8165 25.8227C30.8165 25.8221 30.8165 25.8211 30.8165 25.8211C31.8676 24.3489 32.4132 23.2443 32.6119 21.0759C32.6585 20.6525 33.0162 20.3323 33.4422 20.3323C34.2536 20.3274 35.5193 20.3274 36.3369 20.3274C36.7703 20.3274 37.1327 20.6574 37.1731 21.0886C37.3243 23.3387 37.8969 24.392 38.8561 25.8211C38.7844 25.8231 38.7117 25.8449 38.6481 25.891C38.6481 25.891 35.5314 28.1382 34.9346 28.5684C34.8759 28.6106 34.7967 28.6106 34.738 28.5684C34.1409 28.1378 31.0245 25.891 31.0245 25.891C30.9609 25.8449 30.8885 25.8231 30.8168 25.8231Z" fill="#CB5300"/>
</g>
</g>
</g>
</g>
</g>
</g>
<path id="textIcon" d="M27.4504 57.608C27.3704 57.848 27.2104 58.0907 26.9704 58.336C26.7358 58.576 26.4371 58.776 26.0744 58.936C25.7171 59.0907 25.3251 59.168 24.8984 59.168C24.2478 59.168 23.7704 59.0107 23.4664 58.696C23.1624 58.376 23.0104 57.968 23.0104 57.472C23.0104 56.768 23.1678 56.1307 23.4824 55.56C23.7971 54.984 24.2211 54.5333 24.7544 54.208C25.2878 53.8773 25.8638 53.712 26.4824 53.712C26.7278 53.712 26.9518 53.768 27.1544 53.88C27.3571 53.992 27.5171 54.1547 27.6344 54.368C27.7518 54.576 27.8104 54.8213 27.8104 55.104C27.8104 55.264 27.7491 55.4 27.6264 55.512C27.5091 55.624 27.3491 55.68 27.1464 55.68C26.9864 55.68 26.8771 55.6373 26.8184 55.552C26.7651 55.4667 26.7384 55.3573 26.7384 55.224L26.7464 54.968C26.7464 54.872 26.6931 54.7787 26.5864 54.688C26.4798 54.5973 26.3811 54.552 26.2904 54.552C25.9918 54.552 25.6638 54.688 25.3064 54.96C24.9491 55.2267 24.6478 55.5893 24.4024 56.048C24.1571 56.5013 24.0344 56.9947 24.0344 57.528C24.0344 57.7733 24.1304 57.9733 24.3224 58.128C24.5144 58.2827 24.7571 58.36 25.0504 58.36C25.1464 58.36 25.2718 58.328 25.4264 58.264C25.5811 58.2 25.7224 58.12 25.8504 58.024C25.9838 57.928 26.0718 57.8347 26.1144 57.744C26.1784 57.6107 26.2691 57.4613 26.3864 57.296C26.5038 57.1307 26.6211 57.048 26.7384 57.048C27.0104 57.048 27.1944 57.1067 27.2904 57.224C27.3918 57.3413 27.4451 57.4693 27.4504 57.608ZM29.5866 59.168C29.1173 59.168 28.752 59.008 28.4906 58.688C28.2293 58.368 28.0986 57.96 28.0986 57.464C28.0986 57.048 28.1973 56.656 28.3946 56.288C28.5973 55.92 28.872 55.624 29.2186 55.4C29.5653 55.176 29.9466 55.064 30.3626 55.064C30.7733 55.064 31.1093 55.2 31.3706 55.472C31.6373 55.7387 31.7706 56.1333 31.7706 56.656C31.7706 57.024 31.6693 57.4053 31.4666 57.8C31.264 58.1947 30.992 58.5227 30.6506 58.784C30.3146 59.04 29.96 59.168 29.5866 59.168ZM29.7066 58.528C29.8773 58.528 30.048 58.4213 30.2186 58.208C30.3946 57.9947 30.5386 57.7253 30.6506 57.4C30.7626 57.0747 30.8186 56.7573 30.8186 56.448C30.8186 55.9733 30.6213 55.736 30.2266 55.736C30.008 55.736 29.808 55.84 29.6266 56.048C29.4453 56.256 29.3013 56.5147 29.1946 56.824C29.088 57.128 29.0346 57.4133 29.0346 57.68C29.0346 57.8347 29.0693 57.9787 29.1386 58.112C29.208 58.24 29.2933 58.3413 29.3946 58.416C29.5013 58.4907 29.6053 58.528 29.7066 58.528ZM32.5611 55.344C32.5451 55.328 32.5371 55.3093 32.5371 55.288C32.5371 55.2347 32.5958 55.192 32.7131 55.16C32.8305 55.1227 32.9931 55.104 33.2011 55.104C33.3878 55.104 33.5131 55.1573 33.5771 55.264C33.6411 55.3653 33.6811 55.4987 33.6971 55.664C33.6865 55.7067 33.6758 55.7653 33.6651 55.84L33.6251 56.032C33.7798 55.8507 34.0091 55.6747 34.3131 55.504C34.6171 55.328 34.8545 55.24 35.0251 55.24C35.2918 55.24 35.4758 55.288 35.5771 55.384C35.6838 55.4747 35.7451 55.6507 35.7611 55.912C35.9585 55.7253 36.1851 55.568 36.4411 55.44C36.6971 55.3067 36.9211 55.24 37.1131 55.24C37.3158 55.24 37.5025 55.2827 37.6731 55.368C37.8438 55.448 37.9291 55.5787 37.9291 55.76C37.9291 55.808 37.9265 55.8453 37.9211 55.872C37.9051 55.9573 37.8731 56.0773 37.8251 56.232C37.7825 56.3813 37.7505 56.4907 37.7291 56.56C37.5958 56.992 37.4918 57.3573 37.4171 57.656C37.3478 57.9493 37.3051 58.2373 37.2891 58.52L37.4011 58.912C37.3371 59.0347 37.2465 59.1307 37.1291 59.2C37.0171 59.2747 36.8518 59.312 36.6331 59.312C36.5051 59.312 36.4118 59.2693 36.3531 59.184C36.2945 59.0987 36.2651 58.992 36.2651 58.864C36.2651 58.8373 36.2678 58.808 36.2731 58.776C36.2785 58.744 36.2811 58.7147 36.2811 58.688C36.2918 58.3893 36.3345 58.088 36.4091 57.784C36.4891 57.4747 36.5905 57.128 36.7131 56.744C36.8251 56.408 36.8811 56.2027 36.8811 56.128C36.8811 56.096 36.8758 56.064 36.8651 56.032C36.8598 55.9947 36.8518 55.976 36.8411 55.976C36.7185 55.976 36.5158 56.0347 36.2331 56.152C35.9558 56.2693 35.7691 56.3867 35.6731 56.504C35.5718 56.8293 35.4038 57.5067 35.1691 58.536L35.1211 58.76C35.0945 58.8987 35.0678 58.9947 35.0411 59.048C35.0198 59.1013 34.9745 59.1413 34.9051 59.168C34.8358 59.1947 34.7238 59.208 34.5691 59.208C34.2011 59.208 34.0171 59.1333 34.0171 58.984C34.0598 58.8667 34.1771 58.416 34.3691 57.632C34.4865 57.1467 34.6198 56.6107 34.7691 56.024C34.7371 56.04 34.6785 56.064 34.5931 56.096C34.3371 56.1973 34.1131 56.3013 33.9211 56.408C33.7345 56.5147 33.5825 56.64 33.4651 56.784L33.2571 57.632C33.2251 57.76 33.1958 57.88 33.1691 57.992C33.1425 58.0987 33.1185 58.1893 33.0971 58.264C33.0705 58.3547 33.0518 58.4773 33.0411 58.632C33.0305 58.7387 33.0145 58.816 32.9931 58.864C32.9771 58.912 32.9318 58.952 32.8571 58.984C32.7878 59.0107 32.6758 59.024 32.5211 59.024C32.3451 59.024 32.2118 59.0053 32.1211 58.968C32.0305 58.9307 31.9851 58.8507 31.9851 58.728C31.9851 58.6693 32.0518 58.3573 32.1851 57.792C32.3238 57.2267 32.5105 56.4907 32.7451 55.584L32.5611 55.344ZM39.1418 58.648C39.1364 58.68 39.0644 58.9707 38.9258 59.52C38.7924 60.0747 38.6991 60.424 38.6458 60.568C38.6244 60.6267 38.5604 60.6693 38.4538 60.696C38.3471 60.728 38.2698 60.744 38.2218 60.744C37.9817 60.744 37.8537 60.5973 37.8377 60.304C37.9391 59.696 38.1098 58.8773 38.3498 57.848C38.5898 56.8133 38.7978 55.968 38.9738 55.312C38.9844 55.232 39.0324 55.1547 39.1178 55.08C39.2084 55 39.2884 54.96 39.3578 54.96C39.4804 54.96 39.5818 54.9973 39.6618 55.072C39.7471 55.1413 39.7978 55.2427 39.8138 55.376C40.0271 55.232 40.2724 55.16 40.5498 55.16C40.8484 55.16 41.1204 55.2267 41.3658 55.36C41.6111 55.488 41.8031 55.6747 41.9418 55.92C42.0858 56.1653 42.1578 56.4507 42.1578 56.776C42.1578 57.176 42.0804 57.5547 41.9258 57.912C41.7711 58.2693 41.5391 58.56 41.2298 58.784C40.9204 59.008 40.5471 59.12 40.1098 59.12C39.9711 59.12 39.7924 59.0747 39.5738 58.984C39.3551 58.888 39.2111 58.776 39.1418 58.648ZM39.3898 57.632C39.3791 57.696 39.3738 57.7413 39.3738 57.768C39.3791 57.9013 39.4218 58.0187 39.5018 58.12C39.5871 58.2213 39.6858 58.3013 39.7978 58.36C39.9098 58.4133 40.0031 58.44 40.0778 58.44C40.3124 58.44 40.5178 58.3573 40.6938 58.192C40.8751 58.0267 41.0138 57.8187 41.1098 57.568C41.2058 57.3173 41.2538 57.072 41.2538 56.832C41.2538 56.5173 41.1738 56.28 41.0138 56.12C40.8538 55.9547 40.6564 55.872 40.4218 55.872C40.2991 55.872 40.1764 55.896 40.0538 55.944C39.9364 55.992 39.8324 56.064 39.7418 56.16L39.3898 57.632ZM45.6643 58.864C45.627 58.96 45.539 59.024 45.4003 59.056C45.267 59.0933 45.1496 59.112 45.0483 59.112C44.9523 59.112 44.8883 59.088 44.8563 59.04C44.8296 58.9973 44.8056 58.9307 44.7843 58.84C44.763 58.7493 44.7496 58.688 44.7443 58.656C44.515 58.8107 44.2803 58.928 44.0403 59.008C43.8056 59.0933 43.6083 59.136 43.4483 59.136C43.3096 59.136 43.1523 59.0907 42.9763 59C42.8056 58.9093 42.659 58.7867 42.5363 58.632C42.4136 58.4773 42.3523 58.3067 42.3523 58.12C42.3523 57.8213 42.451 57.44 42.6483 56.976C42.8456 56.512 43.123 56.1067 43.4803 55.76C43.843 55.4133 44.2643 55.24 44.7443 55.24C45.1656 55.24 45.5416 55.3067 45.8723 55.44C46.203 55.5733 46.3683 55.7627 46.3683 56.008C46.219 56.2853 46.0563 56.7013 45.8803 57.256C45.7096 57.8107 45.6243 58.2213 45.6243 58.488C45.6243 58.664 45.6376 58.7893 45.6643 58.864ZM44.7603 57.984C44.803 57.7493 44.875 57.472 44.9763 57.152C45.083 56.8267 45.2243 56.5013 45.4003 56.176C45.3736 56.0693 45.2883 56 45.1443 55.968C45.0056 55.9307 44.8803 55.912 44.7683 55.912C44.571 55.912 44.3576 56.0453 44.1283 56.312C43.899 56.5787 43.7016 56.8907 43.5363 57.248C43.3763 57.6 43.2963 57.8853 43.2963 58.104C43.2963 58.2107 43.3256 58.288 43.3843 58.336C43.443 58.3787 43.5176 58.4 43.6083 58.4C43.731 58.4 43.9256 58.3547 44.1923 58.264C44.4643 58.168 44.6536 58.0747 44.7603 57.984ZM47.2879 55.12C47.5386 54.9867 47.7466 54.92 47.9119 54.92C48.0933 54.92 48.1946 55.0133 48.2159 55.2L47.8959 56.392C48.2479 55.8853 48.5759 55.536 48.8799 55.344C49.1839 55.1467 49.4559 55.048 49.6959 55.048C49.9786 55.048 50.1839 55.1013 50.3119 55.208C50.4453 55.3093 50.5146 55.472 50.5199 55.696C50.3386 56.1867 50.1866 56.6533 50.0639 57.096C49.9466 57.5387 49.8879 57.9467 49.8879 58.32V58.504C49.8879 58.6533 49.8453 58.752 49.7599 58.8C49.6799 58.8427 49.5173 58.864 49.2719 58.864C49.1759 58.864 49.0853 58.848 48.9999 58.816C48.9199 58.784 48.8799 58.7307 48.8799 58.656C48.8799 58.4427 48.9279 58.1307 49.0239 57.72C49.1199 57.3093 49.2266 56.904 49.3439 56.504C49.4666 56.104 49.5279 55.9147 49.5279 55.936C49.5279 55.8613 49.4853 55.824 49.3999 55.824C49.2879 55.824 49.1066 55.9227 48.8559 56.12C48.6053 56.3173 48.3493 56.6267 48.0879 57.048C47.8266 57.464 47.6186 57.9867 47.4639 58.616C47.4586 58.648 47.4479 58.7067 47.4319 58.792C47.4159 58.8773 47.3733 58.9387 47.3039 58.976C47.2346 59.008 47.1226 59.024 46.9679 59.024C46.7919 59.024 46.6613 59.0053 46.5759 58.968C46.4906 58.9307 46.4479 58.8507 46.4479 58.728L46.6879 57.704C46.7519 57.4267 46.8346 57.0747 46.9359 56.648C47.0373 56.216 47.1546 55.7067 47.2879 55.12ZM52.0637 56.36C52.1864 56.12 52.3544 55.9147 52.5677 55.744C52.7864 55.5733 53.0077 55.4427 53.2317 55.352C53.4557 55.2613 53.6397 55.216 53.7837 55.216C54.061 55.216 54.261 55.2693 54.3837 55.376C54.5064 55.4773 54.5677 55.64 54.5677 55.864C54.253 56.6853 54.045 57.5707 53.9437 58.52L54.0557 58.912C53.9917 59.0347 53.9064 59.1307 53.7997 59.2C53.693 59.2747 53.5304 59.312 53.3117 59.312C53.1837 59.312 53.0904 59.2693 53.0317 59.184C52.973 59.0987 52.9437 58.992 52.9437 58.864C52.9437 58.5067 52.9944 58.1147 53.0957 57.688C53.2024 57.256 53.325 56.816 53.4637 56.368C53.517 56.1973 53.5437 56.1093 53.5437 56.104C53.5437 56.0293 53.501 55.992 53.4157 55.992C53.3037 55.992 53.141 56.0747 52.9277 56.24C52.7144 56.4053 52.493 56.6853 52.2637 57.08C52.0344 57.4693 51.8424 57.9813 51.6877 58.616C51.6824 58.6427 51.669 58.6987 51.6477 58.784C51.6264 58.8693 51.5784 58.9307 51.5037 58.968C51.429 59.0053 51.3144 59.024 51.1597 59.024C50.973 59.024 50.829 59.0053 50.7277 58.968C50.6264 58.9253 50.5757 58.8453 50.5757 58.728C51.2744 55.9813 51.7064 54.264 51.8717 53.576C51.8664 53.5067 51.861 53.416 51.8557 53.304C51.8557 53.1867 51.8557 53.096 51.8557 53.032C51.8717 52.9573 51.9277 52.9013 52.0237 52.864C52.125 52.8213 52.2264 52.8 52.3277 52.8C52.4984 52.8 52.6424 52.8453 52.7597 52.936C52.877 53.0267 52.941 53.1413 52.9517 53.28L52.0637 56.36ZM55.915 54.248C55.915 54.0773 55.979 53.9173 56.107 53.768C56.235 53.6187 56.3923 53.544 56.579 53.544C56.771 53.544 56.9203 53.6027 57.027 53.72C57.139 53.8373 57.1977 53.9787 57.203 54.144C57.203 54.304 57.1337 54.4507 56.995 54.584C56.8563 54.7173 56.691 54.784 56.499 54.784C56.307 54.784 56.1603 54.736 56.059 54.64C55.963 54.5387 55.915 54.408 55.915 54.248ZM55.227 58.464C55.227 58.3307 55.4483 57.3707 55.891 55.584C55.8963 55.392 55.931 55.264 55.995 55.2C56.0643 55.136 56.179 55.104 56.339 55.104C56.4723 55.104 56.579 55.1467 56.659 55.232C56.7443 55.312 56.787 55.416 56.787 55.544C56.787 55.5707 56.7817 55.6107 56.771 55.664L56.115 58.544L56.083 58.76C56.0777 58.8453 56.0643 58.904 56.043 58.936C56.0217 58.968 55.9683 58.9893 55.883 59C55.803 59.016 55.659 59.024 55.451 59.024C55.3497 59.024 55.2803 59.0053 55.243 58.968C55.2057 58.9307 55.187 58.8773 55.187 58.808C55.187 58.744 55.195 58.6853 55.211 58.632C55.2217 58.5467 55.227 58.4907 55.227 58.464ZM60.3019 58.584C60.3126 58.7227 60.3313 58.848 60.3579 58.96C60.3473 58.992 60.2993 59.024 60.2139 59.056C60.1339 59.088 60.0646 59.104 60.0059 59.104C59.8139 59.104 59.6753 59.0747 59.5899 59.016C59.5099 58.9627 59.4699 58.88 59.4699 58.768C59.4699 58.6613 59.4806 58.5547 59.5019 58.448C59.3846 58.608 59.2113 58.7413 58.9819 58.848C58.7579 58.9493 58.5766 59 58.4379 59C58.0806 59 57.7819 58.896 57.5419 58.688C57.3073 58.48 57.1899 58.1467 57.1899 57.688C57.1899 57.256 57.2913 56.8507 57.4939 56.472C57.7019 56.088 57.9873 55.7813 58.3499 55.552C58.7126 55.3173 59.1153 55.2 59.5579 55.2C59.6433 55.2 59.7553 55.224 59.8939 55.272C60.0326 55.3147 60.1713 55.392 60.3099 55.504C60.4539 55.6107 60.5739 55.7493 60.6699 55.92C60.7126 55.92 60.7633 55.9413 60.8219 55.984C60.8806 56.0267 60.9099 56.0693 60.9099 56.112C60.9099 56.16 60.9019 56.208 60.8859 56.256L60.3019 58.584ZM59.9419 56.344C59.9099 56.2267 59.8459 56.128 59.7499 56.048C59.6593 55.968 59.5766 55.928 59.5019 55.928C59.2566 55.928 59.0246 56.016 58.8059 56.192C58.5926 56.3627 58.4193 56.576 58.2859 56.832C58.1526 57.088 58.0859 57.3307 58.0859 57.56C58.0859 57.784 58.1126 57.968 58.1659 58.112C58.2193 58.256 58.3233 58.328 58.4779 58.328C58.6113 58.328 58.7633 58.288 58.9339 58.208C59.1099 58.128 59.2646 58.0213 59.3979 57.888C59.5366 57.7493 59.6273 57.6053 59.6699 57.456L59.9419 56.344Z" fill="#CB5300"/>
</g>
<defs>
<filter id="filter0_dd_422_2611" x="0" y="0" width="84" height="84" filterUnits="userSpaceOnUse" color-interpolation-filters="sRGB">
<feFlood flood-opacity="0" result="BackgroundImageFix"/>
<feColorMatrix in="SourceAlpha" type="matrix" values="0 0 0 0 0 0 0 0 0 0 0 0 0 0 0 0 0 0 127 0" result="hardAlpha"/>
<feMorphology radius="2" operator="dilate" in="SourceAlpha" result="effect1_dropShadow_422_2611"/>
<feOffset dy="2"/>
<feGaussianBlur stdDeviation="3"/>
<feColorMatrix type="matrix" values="0 0 0 0 0 0 0 0 0 0 0 0 0 0 0 0 0 0 0.15 0"/>
<feBlend mode="normal" in2="BackgroundImageFix" result="effect1_dropShadow_422_2611"/>
<feColorMatrix in="SourceAlpha" type="matrix" values="0 0 0 0 0 0 0 0 0 0 0 0 0 0 0 0 0 0 127 0" result="hardAlpha"/>
<feOffset dy="1"/>
<feGaussianBlur stdDeviation="1"/>
<feColorMatrix type="matrix" values="0 0 0 0 0 0 0 0 0 0 0 0 0 0 0 0 0 0 0.3 0"/>
<feBlend mode="normal" in2="effect1_dropShadow_422_2611" result="effect2_dropShadow_422_2611"/>
<feBlend mode="normal" in="SourceGraphic" in2="effect2_dropShadow_422_2611" result="shape"/>
</filter>
<clipPath id="clip0_422_2611">
<rect width="28" height="28" fill="white" transform="translate(28 19)"/>
</clipPath>
</defs>
</svg>
