<svg width="84" height="84" viewBox="0 0 84 84" fill="none" xmlns="http://www.w3.org/2000/svg">
<g id="desporto" filter="url(#filter0_dd_423_2478)">
<rect x="8" y="6" width="68" height="68" rx="20" fill="#F9F8F6"/>
<g id="desporto_2">
<g id="stopwatch-half--seconds-thirty-hour-half-measure-time-stopwatch">
<path id="Union" fill-rule="evenodd" clip-rule="evenodd" d="M37.6503 21.9356C37.6342 22.1093 37.625 22.2973 37.625 22.5C37.625 22.7027 37.6342 22.8907 37.6503 23.0644C37.7792 24.4559 39.0137 25.0787 40.0633 25.1049C40.3525 25.1121 40.7026 25.1181 41.125 25.1216V45.25C41.125 45.7332 41.5168 46.125 42 46.125C43.4938 46.125 44.973 45.8308 46.353 45.2592C47.7331 44.6875 48.987 43.8496 50.0433 42.7934C51.0996 41.737 51.9375 40.4831 52.5091 39.103C53.0808 37.723 53.375 36.2438 53.375 34.75C53.375 33.2562 53.0808 31.777 52.5091 30.397C52.417 30.1746 52.318 29.9555 52.2122 29.7399C52.5904 29.3575 52.8963 29.0398 53.1431 28.7776C53.9657 27.9036 54.3083 26.5161 53.3658 25.3984C53.1875 25.1868 52.974 24.9536 52.7185 24.6981C52.463 24.4426 52.2297 24.2291 52.0182 24.0507C50.9005 23.1082 49.513 23.4508 48.639 24.2735C48.4234 24.4764 48.1703 24.7193 47.8746 25.0094C47.3885 24.7162 46.8799 24.4591 46.353 24.2409C46.2305 24.1901 46.1072 24.1416 45.9832 24.0952C46.1788 23.8149 46.3119 23.4727 46.3497 23.0644C46.3658 22.8907 46.375 22.7027 46.375 22.5C46.375 22.2973 46.3658 22.1093 46.3497 21.9356C46.2208 20.5441 44.9863 19.9212 43.9367 19.8951C43.4676 19.8834 42.8387 19.875 42 19.875C41.1613 19.875 40.5324 19.8834 40.0633 19.8951C39.0137 19.9212 37.7792 20.5441 37.6503 21.9356ZM34.2274 26.6414C34.1602 26.7058 34.0895 26.7749 34.0154 26.849C33.9413 26.9231 33.8722 26.9938 33.8078 27.061C33.1132 27.7862 33.2228 28.7989 33.8763 29.4869C34.0173 29.6353 34.1722 29.795 34.3395 29.9622C34.5067 30.1295 34.6664 30.2845 34.8148 30.4255C35.5028 31.079 36.5155 31.1885 37.2408 30.4939C37.308 30.4295 37.3786 30.3605 37.4527 30.2863C37.5269 30.2122 37.596 30.1416 37.6604 30.0744C38.3549 29.3492 38.2454 28.3365 37.5919 27.6484C37.4509 27.5 37.2959 27.3403 37.1286 27.1731C36.9614 27.0058 36.8017 26.8509 36.6533 26.7099C35.9653 26.0564 34.9526 25.9468 34.2274 26.6414ZM30.625 34.75C30.625 34.6352 30.6261 34.5275 30.6283 34.4263C30.6496 33.4069 31.4478 32.7378 32.422 32.7147C32.59 32.7107 32.7695 32.7083 32.9583 32.7083C33.1472 32.7083 33.3267 32.7107 33.4947 32.7147C34.4688 32.7378 35.2671 33.4069 35.2884 34.4263C35.2905 34.5275 35.2917 34.6352 35.2917 34.75C35.2917 34.8648 35.2905 34.9725 35.2884 35.0738C35.2671 36.0931 34.4688 36.7622 33.4947 36.7853C33.3267 36.7893 33.1472 36.7917 32.9583 36.7917C32.7695 36.7917 32.59 36.7893 32.422 36.7853C31.4478 36.7622 30.6496 36.0931 30.6283 35.0738C30.6261 34.9725 30.625 34.8648 30.625 34.75ZM37.6604 39.5924C37.596 39.5252 37.5269 39.4545 37.4527 39.3804C37.3786 39.3063 37.308 39.2372 37.2408 39.1728C36.5155 38.4782 35.5028 38.5877 34.8148 39.2413C34.6664 39.3822 34.5067 39.5373 34.3395 39.7045C34.1722 39.8718 34.0173 40.0314 33.8763 40.1798C33.2228 40.8679 33.1132 41.8806 33.8078 42.6058C33.8722 42.673 33.9413 42.7436 34.0154 42.8177C34.0895 42.8919 34.1602 42.9609 34.2274 43.0253C34.9526 43.72 35.9653 43.6104 36.6533 42.9569C36.8017 42.8159 36.9614 42.6609 37.1286 42.4936C37.2959 42.3264 37.4509 42.1667 37.5919 42.0183C38.2454 41.3303 38.3549 40.3176 37.6604 39.5924Z" fill="#CB5300"/>
</g>
</g>
<path id="textIcon" d="M28.2031 53.512C28.3578 53.512 28.4751 53.5333 28.5551 53.576C28.6351 53.6187 28.6751 53.6747 28.6751 53.744C28.7765 53.728 28.8645 53.7173 28.9391 53.712C29.0191 53.7067 29.1071 53.704 29.2031 53.704C29.5871 53.704 29.9098 53.7973 30.1711 53.984C30.4378 54.1707 30.6351 54.416 30.7631 54.72C30.8965 55.024 30.9631 55.352 30.9631 55.704C30.9631 55.7947 30.9605 55.8613 30.9551 55.904C30.9071 56.544 30.7471 57.1093 30.4751 57.6C30.2031 58.0853 29.8431 58.4613 29.3951 58.728C28.9525 58.9947 28.4538 59.128 27.8991 59.128C27.7445 59.128 27.5551 59.1093 27.3311 59.072C27.2458 59.056 27.1445 59 27.0271 58.904C26.9151 58.8027 26.8191 58.688 26.7391 58.56C26.6591 58.432 26.6191 58.3173 26.6191 58.216C26.6191 58.1573 26.6271 58.1013 26.6431 58.048L27.4831 54.808C27.1791 54.8987 26.9231 55.016 26.7151 55.16C26.6511 55.096 26.6031 55.016 26.5711 54.92C26.5391 54.824 26.5231 54.7253 26.5231 54.624C26.5231 54.5067 26.5711 54.4027 26.6671 54.312C26.9178 54.152 27.2645 54.016 27.7071 53.904C27.8085 53.6427 27.9738 53.512 28.2031 53.512ZM27.6431 58.24C27.7711 58.272 27.9098 58.288 28.0591 58.288C28.4325 58.288 28.7525 58.1867 29.0191 57.984C29.2858 57.776 29.4938 57.5147 29.6431 57.2C29.7978 56.8853 29.8991 56.56 29.9471 56.224C29.9685 56.0907 29.9791 55.9413 29.9791 55.776C29.9791 55.4027 29.8965 55.1093 29.7311 54.896C29.5658 54.6773 29.3098 54.568 28.9631 54.568C28.8138 54.568 28.6778 54.5787 28.5551 54.6C28.4591 55.016 28.2565 55.8293 27.9471 57.04C27.7818 57.6907 27.6805 58.0907 27.6431 58.24ZM32.6004 59.168C32.0777 59.168 31.6964 59.064 31.4564 58.856C31.2164 58.648 31.0964 58.3707 31.0964 58.024C31.0964 57.5173 31.2217 57.048 31.4724 56.616C31.7284 56.184 32.067 55.8427 32.4884 55.592C32.915 55.336 33.3737 55.208 33.8644 55.208C34.163 55.208 34.4137 55.2933 34.6164 55.464C34.819 55.6293 34.9204 55.8747 34.9204 56.2C34.9204 56.3867 34.859 56.5413 34.7364 56.664C34.619 56.7813 34.4484 56.888 34.2244 56.984C34.0004 57.0747 33.6377 57.2053 33.1364 57.376C32.683 57.5253 32.315 57.6507 32.0324 57.752C32.011 57.832 32.0004 57.9147 32.0004 58C32.0004 58.1493 32.0617 58.264 32.1844 58.344C32.3124 58.424 32.491 58.464 32.7204 58.464C32.8644 58.464 33.0297 58.4347 33.2164 58.376C33.403 58.3173 33.5204 58.2427 33.5684 58.152C33.7497 57.8213 33.915 57.656 34.0644 57.656C34.283 57.656 34.4297 57.6987 34.5044 57.784C34.5844 57.864 34.627 57.9547 34.6324 58.056C34.5684 58.2267 34.443 58.4 34.2564 58.576C34.0697 58.7467 33.8324 58.888 33.5444 59C33.2564 59.112 32.9417 59.168 32.6004 59.168ZM32.2564 57.016C32.7844 56.8453 33.219 56.688 33.5604 56.544C33.9017 56.3947 34.0724 56.248 34.0724 56.104C34.0724 56.04 34.0377 55.9893 33.9684 55.952C33.899 55.9093 33.8244 55.888 33.7444 55.888C33.5844 55.888 33.4004 55.9493 33.1924 56.072C32.9897 56.1947 32.8004 56.344 32.6244 56.52C32.4484 56.696 32.3257 56.8613 32.2564 57.016ZM37.8938 55.904C37.8298 55.872 37.7498 55.856 37.6538 55.856C37.4138 55.856 37.1738 55.904 36.9338 56C36.6938 56.096 36.5738 56.2187 36.5738 56.368C36.5738 56.4747 36.6218 56.56 36.7178 56.624C36.8138 56.688 36.9658 56.76 37.1738 56.84C37.3978 56.9307 37.5791 57.016 37.7178 57.096C37.8564 57.176 37.9764 57.2933 38.0778 57.448C38.1844 57.5973 38.2378 57.7893 38.2378 58.024C38.2378 58.408 38.0778 58.704 37.7578 58.912C37.4431 59.1147 37.0191 59.216 36.4858 59.216C36.2244 59.216 35.9818 59.176 35.7578 59.096C35.5338 59.016 35.3551 58.9147 35.2218 58.792C35.0938 58.664 35.0244 58.5387 35.0137 58.416C35.0137 58.288 35.0697 58.184 35.1818 58.104C35.2938 58.0187 35.4511 57.9627 35.6538 57.936C35.6591 58.0427 35.7151 58.144 35.8218 58.24C35.9284 58.3307 36.0538 58.4053 36.1978 58.464C36.3471 58.5173 36.4751 58.544 36.5818 58.544C36.7631 58.544 36.9284 58.496 37.0778 58.4C37.2271 58.2987 37.3018 58.1813 37.3018 58.048C37.3018 57.8027 37.0644 57.608 36.5898 57.464C36.2858 57.3733 36.0511 57.2293 35.8858 57.032C35.7258 56.8347 35.6458 56.6267 35.6458 56.408C35.6458 55.976 35.8404 55.6667 36.2298 55.48C36.6244 55.288 37.1258 55.192 37.7338 55.192C38.0751 55.192 38.3391 55.232 38.5258 55.312C38.7124 55.392 38.8058 55.5307 38.8058 55.728C38.8058 55.8613 38.7551 55.9787 38.6538 56.08C38.5578 56.1813 38.4191 56.232 38.2378 56.232C38.0778 56.232 37.9738 56.2213 37.9258 56.2C37.8831 56.1733 37.8591 56.1307 37.8538 56.072C37.8538 56.0187 37.8671 55.9627 37.8938 55.904ZM39.8214 58.648C39.8161 58.68 39.7441 58.9707 39.6054 59.52C39.4721 60.0747 39.3788 60.424 39.3254 60.568C39.3041 60.6267 39.2401 60.6693 39.1334 60.696C39.0268 60.728 38.9494 60.744 38.9014 60.744C38.6614 60.744 38.5334 60.5973 38.5174 60.304C38.6188 59.696 38.7894 58.8773 39.0294 57.848C39.2694 56.8133 39.4774 55.968 39.6534 55.312C39.6641 55.232 39.7121 55.1547 39.7974 55.08C39.8881 55 39.9681 54.96 40.0374 54.96C40.1601 54.96 40.2614 54.9973 40.3414 55.072C40.4268 55.1413 40.4774 55.2427 40.4934 55.376C40.7068 55.232 40.9521 55.16 41.2294 55.16C41.5281 55.16 41.8001 55.2267 42.0454 55.36C42.2908 55.488 42.4828 55.6747 42.6214 55.92C42.7654 56.1653 42.8374 56.4507 42.8374 56.776C42.8374 57.176 42.7601 57.5547 42.6054 57.912C42.4508 58.2693 42.2188 58.56 41.9094 58.784C41.6001 59.008 41.2268 59.12 40.7894 59.12C40.6508 59.12 40.4721 59.0747 40.2534 58.984C40.0348 58.888 39.8908 58.776 39.8214 58.648ZM40.0694 57.632C40.0588 57.696 40.0534 57.7413 40.0534 57.768C40.0588 57.9013 40.1014 58.0187 40.1814 58.12C40.2668 58.2213 40.3654 58.3013 40.4774 58.36C40.5894 58.4133 40.6828 58.44 40.7574 58.44C40.9921 58.44 41.1974 58.3573 41.3734 58.192C41.5548 58.0267 41.6934 57.8187 41.7894 57.568C41.8854 57.3173 41.9334 57.072 41.9334 56.832C41.9334 56.5173 41.8534 56.28 41.6934 56.12C41.5334 55.9547 41.3361 55.872 41.1014 55.872C40.9788 55.872 40.8561 55.896 40.7334 55.944C40.6161 55.992 40.5121 56.064 40.4214 56.16L40.0694 57.632ZM44.696 59.08C44.2267 59.08 43.8613 58.92 43.6 58.6C43.3387 58.28 43.208 57.872 43.208 57.376C43.208 56.96 43.296 56.5787 43.472 56.232C43.6533 55.8853 43.904 55.6133 44.224 55.416C44.5493 55.2133 44.92 55.112 45.336 55.112C45.8 55.112 46.112 55.152 46.272 55.232C46.32 55.2533 46.3627 55.288 46.4 55.336C46.4373 55.3787 46.456 55.4213 46.456 55.464C46.456 55.5173 46.4427 55.5733 46.416 55.632C46.3947 55.6907 46.36 55.736 46.312 55.768C46.4347 55.7787 46.5387 55.84 46.624 55.952C46.7093 56.0587 46.7733 56.184 46.816 56.328C46.8587 56.472 46.88 56.5973 46.88 56.704C46.88 57.0827 46.7867 57.456 46.6 57.824C46.4187 58.192 46.1627 58.4933 45.832 58.728C45.5013 58.9627 45.1227 59.08 44.696 59.08ZM44.816 58.416C44.9867 58.416 45.16 58.3333 45.336 58.168C45.5173 57.9973 45.6667 57.7733 45.784 57.496C45.9013 57.2187 45.96 56.928 45.96 56.624C45.96 56.5653 45.9387 56.512 45.896 56.464C45.8587 56.416 45.8053 56.3653 45.736 56.312C45.6987 56.2853 45.664 56.2587 45.632 56.232C45.6053 56.2 45.592 56.1707 45.592 56.144C45.592 56.1227 45.5973 56.0933 45.608 56.056C45.624 56.0187 45.632 55.992 45.632 55.976C45.632 55.896 45.5333 55.856 45.336 55.856C45.1173 55.856 44.9147 55.944 44.728 56.12C44.5467 56.296 44.4027 56.52 44.296 56.792C44.1947 57.064 44.144 57.3307 44.144 57.592C44.144 57.7467 44.1787 57.888 44.248 58.016C44.3173 58.1387 44.4027 58.2373 44.504 58.312C44.6107 58.3813 44.7147 58.416 44.816 58.416ZM48.2385 58.696C48.2332 58.7333 48.2225 58.7973 48.2065 58.888C48.1958 58.9787 48.1558 59.0427 48.0865 59.08C48.0225 59.1173 47.9132 59.136 47.7585 59.136C47.5825 59.136 47.4518 59.1173 47.3665 59.08C47.2812 59.0427 47.2358 58.9627 47.2305 58.84C47.2732 58.6267 47.3425 58.248 47.4385 57.704C47.4705 57.5227 47.5212 57.2507 47.5905 56.888C47.6598 56.52 47.7132 56.2533 47.7505 56.088C47.8038 55.7093 47.8785 55.4613 47.9745 55.344C48.0705 55.2213 48.1878 55.16 48.3265 55.16C48.5132 55.16 48.6358 55.1867 48.6945 55.24C48.7585 55.2933 48.7932 55.3627 48.7985 55.448L48.7345 55.92C48.8945 55.712 49.0838 55.5413 49.3025 55.408C49.5212 55.2693 49.7185 55.2 49.8945 55.2C50.1292 55.2 50.3132 55.2427 50.4465 55.328C50.5798 55.408 50.6465 55.512 50.6465 55.64C50.6465 55.736 50.5878 55.8107 50.4705 55.864C50.3585 55.9173 50.2092 55.952 50.0225 55.968C49.7292 55.9947 49.4385 56.12 49.1505 56.344C48.8625 56.568 48.6545 56.832 48.5265 57.136L48.2385 58.696ZM51.6798 58.12C51.6798 58.2427 51.7118 58.3413 51.7758 58.416C51.8398 58.4853 51.9304 58.52 52.0478 58.52C52.2078 58.52 52.3384 58.4747 52.4398 58.384C52.5464 58.288 52.6584 58.1547 52.7758 57.984C52.8611 57.8613 52.9304 57.7733 52.9838 57.72C53.0371 57.6667 53.0984 57.64 53.1678 57.64C53.3064 57.64 53.4051 57.6587 53.4638 57.696C53.5224 57.728 53.5518 57.7973 53.5518 57.904C53.5518 57.952 53.5464 58.0107 53.5358 58.08C53.5251 58.144 53.5118 58.192 53.4958 58.224C53.3678 58.496 53.1571 58.7307 52.8638 58.928C52.5758 59.1253 52.2478 59.224 51.8798 59.224C51.5118 59.224 51.2344 59.136 51.0478 58.96C50.8611 58.7787 50.7678 58.5227 50.7678 58.192C50.7678 58.144 50.7918 58.0187 50.8398 57.816C50.8878 57.6133 50.9491 57.3707 51.0238 57.088L51.2478 56.176L50.7598 56.216C50.6958 56.216 50.6478 56.192 50.6158 56.144C50.5838 56.096 50.5678 56.0373 50.5678 55.968C50.5678 55.8347 50.6158 55.7013 50.7118 55.568C50.7224 55.552 50.7758 55.536 50.8717 55.52C50.9678 55.504 51.0851 55.488 51.2238 55.472L51.4398 55.448L51.7118 54.28C51.7651 54.1413 51.8451 54.0347 51.9518 53.96C52.0638 53.88 52.1678 53.84 52.2638 53.84C52.3704 53.84 52.4611 53.872 52.5358 53.936C52.6104 54 52.6504 54.0747 52.6558 54.16L52.3678 55.36C52.5758 55.3333 52.7678 55.312 52.9438 55.296C53.1251 55.2747 53.2664 55.264 53.3678 55.264C53.5704 55.264 53.6718 55.3813 53.6718 55.616C53.6718 55.7067 53.6318 55.7893 53.5518 55.864C53.4771 55.9333 53.3944 55.976 53.3038 55.992L52.1838 56.104L51.6798 58.12ZM55.5559 59.08C55.2413 59.08 54.9693 59.0053 54.7399 58.856C54.5106 58.7067 54.3346 58.504 54.2119 58.248C54.0946 57.992 54.0359 57.7013 54.0359 57.376C54.0359 56.9493 54.1186 56.5653 54.2839 56.224C54.4546 55.8773 54.6946 55.6053 55.0039 55.408C55.3133 55.2107 55.6733 55.112 56.0839 55.112C56.5373 55.112 56.8439 55.152 57.0039 55.232C57.0466 55.2533 57.0866 55.288 57.1239 55.336C57.1666 55.3787 57.1906 55.4213 57.1959 55.464C57.1853 55.608 57.1373 55.7093 57.0519 55.768C57.1746 55.7787 57.2759 55.84 57.3559 55.952C57.4413 56.064 57.5053 56.1947 57.5479 56.344C57.5906 56.488 57.6119 56.6187 57.6119 56.736C57.6119 57.1147 57.5293 57.4853 57.3639 57.848C57.1986 58.2053 56.9586 58.5013 56.6439 58.736C56.3346 58.9653 55.9719 59.08 55.5559 59.08ZM55.6679 58.416C55.8386 58.416 56.0013 58.3333 56.1559 58.168C56.3159 58.0027 56.4439 57.784 56.5399 57.512C56.6413 57.2347 56.6919 56.9387 56.6919 56.624C56.6919 56.5653 56.6733 56.512 56.6359 56.464C56.5986 56.416 56.5453 56.3653 56.4759 56.312C56.4653 56.3067 56.4386 56.2853 56.3959 56.248C56.3586 56.2107 56.3399 56.176 56.3399 56.144C56.3399 56.1227 56.3453 56.0933 56.3559 56.056C56.3666 56.0133 56.3719 55.984 56.3719 55.968C56.3719 55.8933 56.2786 55.856 56.0919 55.856C55.8733 55.856 55.6786 55.944 55.5079 56.12C55.3426 56.2907 55.2119 56.512 55.1159 56.784C55.0253 57.0507 54.9799 57.32 54.9799 57.592C54.9799 57.7467 55.0146 57.888 55.0839 58.016C55.1586 58.1387 55.2493 58.2373 55.3559 58.312C55.4626 58.3813 55.5666 58.416 55.6679 58.416Z" fill="#CB5300"/>
</g>
<defs>
<filter id="filter0_dd_423_2478" x="0" y="0" width="84" height="84" filterUnits="userSpaceOnUse" color-interpolation-filters="sRGB">
<feFlood flood-opacity="0" result="BackgroundImageFix"/>
<feColorMatrix in="SourceAlpha" type="matrix" values="0 0 0 0 0 0 0 0 0 0 0 0 0 0 0 0 0 0 127 0" result="hardAlpha"/>
<feMorphology radius="2" operator="dilate" in="SourceAlpha" result="effect1_dropShadow_423_2478"/>
<feOffset dy="2"/>
<feGaussianBlur stdDeviation="3"/>
<feColorMatrix type="matrix" values="0 0 0 0 0 0 0 0 0 0 0 0 0 0 0 0 0 0 0.15 0"/>
<feBlend mode="normal" in2="BackgroundImageFix" result="effect1_dropShadow_423_2478"/>
<feColorMatrix in="SourceAlpha" type="matrix" values="0 0 0 0 0 0 0 0 0 0 0 0 0 0 0 0 0 0 127 0" result="hardAlpha"/>
<feOffset dy="1"/>
<feGaussianBlur stdDeviation="1"/>
<feColorMatrix type="matrix" values="0 0 0 0 0 0 0 0 0 0 0 0 0 0 0 0 0 0 0.3 0"/>
<feBlend mode="normal" in2="effect1_dropShadow_423_2478" result="effect2_dropShadow_423_2478"/>
<feBlend mode="normal" in="SourceGraphic" in2="effect2_dropShadow_423_2478" result="shape"/>
</filter>
</defs>
</svg>
