<svg width="84" height="84" viewBox="0 0 84 84" fill="none" xmlns="http://www.w3.org/2000/svg">
<g id="educacao" filter="url(#filter0_dd_423_2475)">
<rect x="8" y="6" width="68" height="68" rx="20" fill="#F9F8F6"/>
<g id="educacao_2">
<g id="book-1--content-books-book-close">
<path id="Union" fill-rule="evenodd" clip-rule="evenodd" d="M42 46.125C40.0691 46.125 38.4225 46.0854 37.0417 46.0266V19.9734C38.4225 19.9146 40.0691 19.875 42 19.875C45.7387 19.875 48.4115 20.0234 50.1525 20.1724C52.0758 20.3369 53.5309 21.8399 53.6714 23.7512C53.8116 25.6572 53.9583 28.6836 53.9583 33C53.9583 37.3164 53.8116 40.3428 53.6714 42.2488C53.5309 44.16 52.0758 45.6631 50.1525 45.8276C48.4115 45.9766 45.7386 46.125 42 46.125ZM39.6667 26C39.6667 25.3556 40.189 24.8333 40.8333 24.8333H47.8333C48.4777 24.8333 49 25.3556 49 26C49 26.6444 48.4777 27.1667 47.8333 27.1667H40.8333C40.189 27.1667 39.6667 26.6444 39.6667 26ZM40.8333 30.0833C40.189 30.0833 39.6667 30.6056 39.6667 31.25C39.6667 31.8944 40.189 32.4167 40.8333 32.4167H44.3333C44.9777 32.4167 45.5 31.8944 45.5 31.25C45.5 30.6056 44.9777 30.0833 44.3333 30.0833H40.8333ZM33.8475 20.1724C34.2726 20.136 34.7534 20.0997 35.2917 20.0656V45.9345C34.7534 45.9004 34.2726 45.8641 33.8475 45.8277C31.9242 45.6632 30.4691 44.1601 30.3286 42.2489C30.1884 40.3428 30.0417 37.3165 30.0417 33.0001C30.0417 28.6836 30.1884 25.6572 30.3286 23.7513C30.4691 21.84 31.9242 20.3369 33.8475 20.1724Z" fill="#CB5300"/>
</g>
</g>
<path id="textIcon" d="M30.0911 53.592C30.2831 53.6933 30.3791 53.8213 30.3791 53.976C30.3791 54.072 30.3257 54.1627 30.2191 54.248C30.1177 54.328 30.0031 54.384 29.8751 54.416L29.5231 54.44C29.3631 54.4507 29.1471 54.4667 28.8751 54.488C28.6031 54.504 28.2831 54.528 27.9151 54.56L27.5551 55.992C27.8911 55.9387 28.1684 55.896 28.3871 55.864C28.6111 55.832 28.8591 55.8053 29.1311 55.784C29.3391 55.8747 29.4431 55.9973 29.4431 56.152C29.4431 56.248 29.3951 56.3413 29.2991 56.432C29.2031 56.5227 29.0937 56.5867 28.9711 56.624L28.5151 56.672C28.0297 56.7253 27.6404 56.7787 27.3471 56.832C27.2831 57.1253 27.1924 57.496 27.0751 57.944L27.0111 58.192C27.7204 58.0587 28.4057 57.9653 29.0671 57.912C29.2751 58.0027 29.3791 58.1253 29.3791 58.28C29.3791 58.376 29.3311 58.4693 29.2351 58.56C29.1391 58.6507 29.0297 58.7147 28.9071 58.752C27.8937 58.8693 27.1791 58.968 26.7631 59.048C26.7151 59.08 26.6111 59.096 26.4511 59.096C26.3017 59.096 26.1684 59.0267 26.0511 58.888C25.9391 58.7493 25.8831 58.6053 25.8831 58.456C25.8831 58.3973 25.8911 58.3413 25.9071 58.288L26.8191 54.68H26.7951C26.7897 54.6213 26.7524 54.5493 26.6831 54.464C26.6777 54.4533 26.6564 54.4213 26.6191 54.368C26.5817 54.3093 26.5631 54.2533 26.5631 54.2C26.5737 54.0453 26.6751 53.9227 26.8671 53.832C27.2671 53.7787 27.8271 53.728 28.5471 53.68C29.2671 53.6267 29.7817 53.5973 30.0911 53.592ZM33.6726 53.072C33.6939 52.992 33.7552 52.928 33.8566 52.88C33.9632 52.8267 34.0752 52.8 34.1926 52.8C34.2886 52.8 34.3926 52.8213 34.5046 52.864C34.6166 52.9067 34.6726 52.968 34.6726 53.048L34.1686 55.016C33.7259 56.7387 33.4672 57.7893 33.3926 58.168C33.3606 58.328 33.3446 58.4507 33.3446 58.536C33.3446 58.68 33.3606 58.8213 33.3926 58.96C33.3819 58.992 33.3392 59.024 33.2646 59.056C33.1952 59.088 33.1312 59.104 33.0726 59.104C32.9659 59.104 32.8486 59.0907 32.7206 59.064C32.5926 59.0373 32.5126 59.008 32.4806 58.976C32.4326 58.9333 32.4086 58.848 32.4086 58.72C32.4086 58.624 32.4192 58.5333 32.4406 58.448C32.3286 58.608 32.1579 58.7413 31.9286 58.848C31.7046 58.9493 31.5232 59 31.3846 59C30.5686 59 30.1606 58.56 30.1606 57.68C30.1606 57.296 30.2459 56.912 30.4166 56.528C30.5926 56.144 30.8406 55.8267 31.1606 55.576C31.4859 55.3253 31.8619 55.2 32.2886 55.2C32.4059 55.2 32.5366 55.248 32.6806 55.344C32.8246 55.4347 32.9419 55.5387 33.0326 55.656C33.1499 55.16 33.2539 54.7467 33.3446 54.416C33.3872 54.24 33.4352 54.04 33.4886 53.816C33.5472 53.5867 33.6086 53.3387 33.6726 53.072ZM32.8566 56.4C32.8246 56.2827 32.7472 56.176 32.6246 56.08C32.5072 55.9787 32.4112 55.928 32.3366 55.928C32.0912 55.928 31.8619 56.008 31.6486 56.168C31.4352 56.328 31.2646 56.536 31.1366 56.792C31.0139 57.048 30.9526 57.312 30.9526 57.584C30.9526 57.7867 30.9899 57.968 31.0646 58.128C31.1392 58.288 31.2539 58.368 31.4086 58.368C31.5419 58.368 31.6966 58.3253 31.8726 58.24C32.0539 58.1493 32.2139 58.0347 32.3526 57.896C32.4912 57.752 32.5766 57.6053 32.6086 57.456L32.8566 56.4ZM37.5473 58.976C37.526 59.0667 37.478 59.128 37.4033 59.16C37.3286 59.1973 37.23 59.216 37.1073 59.216C36.7393 59.216 36.5553 59.1333 36.5553 58.968L36.6033 58.664C36.454 58.776 36.278 58.888 36.0753 59C35.8726 59.112 35.7046 59.168 35.5713 59.168C34.782 59.168 34.3873 58.9093 34.3873 58.392C34.3873 57.512 34.6513 56.5573 35.1793 55.528C35.2433 55.4053 35.31 55.3173 35.3793 55.264C35.454 55.2107 35.5793 55.184 35.7553 55.184C35.942 55.184 36.0806 55.2107 36.1713 55.264C36.2673 55.312 36.3153 55.3707 36.3153 55.44C36.3153 55.456 36.286 55.504 36.2273 55.584C36.1686 55.6533 36.118 55.7227 36.0753 55.792C35.574 56.6293 35.3233 57.4453 35.3233 58.24C35.3233 58.3093 35.35 58.3707 35.4033 58.424C35.4566 58.4773 35.5046 58.504 35.5473 58.504C35.6646 58.504 35.862 58.448 36.1393 58.336C36.422 58.224 36.638 58.1093 36.7873 57.992L36.9473 57.344C37.1393 56.5707 37.2593 56.096 37.3073 55.92C37.366 55.7067 37.4406 55.5333 37.5313 55.4C37.6273 55.2613 37.7766 55.192 37.9793 55.192C38.262 55.192 38.4033 55.2773 38.4033 55.448C38.4033 55.4747 38.3953 55.5093 38.3793 55.552C38.3686 55.5893 38.3606 55.6213 38.3553 55.648L38.0353 56.944C37.7793 57.9733 37.6166 58.6507 37.5473 58.976ZM41.8524 58.272C41.7564 58.544 41.567 58.7627 41.2844 58.928C41.0017 59.088 40.607 59.168 40.1004 59.168C39.7484 59.168 39.4577 59.1067 39.2284 58.984C38.999 58.8613 38.831 58.7013 38.7244 58.504C38.6177 58.3067 38.5644 58.0933 38.5644 57.864C38.5644 57.352 38.6657 56.896 38.8684 56.496C39.071 56.0907 39.3564 55.776 39.7244 55.552C40.0977 55.3227 40.5297 55.208 41.0204 55.208C41.3297 55.208 41.5964 55.2987 41.8204 55.48C42.0444 55.6613 42.1564 55.9013 42.1564 56.2C42.1564 56.3173 42.1137 56.416 42.0284 56.496C41.9484 56.5707 41.831 56.608 41.6764 56.608C41.5484 56.608 41.4577 56.576 41.4044 56.512C41.351 56.4427 41.3244 56.3627 41.3244 56.272C41.3244 56.1547 41.2844 56.0613 41.2044 55.992C41.1244 55.9227 41.023 55.888 40.9004 55.888C40.7404 55.888 40.5484 55.9733 40.3244 56.144C40.1057 56.3147 39.9164 56.552 39.7564 56.856C39.6017 57.1547 39.5244 57.4907 39.5244 57.864C39.5244 58.0293 39.5857 58.1707 39.7084 58.288C39.831 58.4053 40.0017 58.464 40.2204 58.464C40.4017 58.464 40.5484 58.4293 40.6604 58.36C40.7724 58.2907 40.8924 58.192 41.0204 58.064C41.1004 57.984 41.167 57.9253 41.2204 57.888C41.2737 57.8507 41.3297 57.832 41.3884 57.832C41.5164 57.832 41.6204 57.8693 41.7004 57.944C41.7804 58.0133 41.831 58.1227 41.8524 58.272ZM45.8206 58.864C45.7832 58.96 45.6952 59.024 45.5566 59.056C45.4232 59.0933 45.3059 59.112 45.2046 59.112C45.1086 59.112 45.0446 59.088 45.0126 59.04C44.9859 58.9973 44.9619 58.9307 44.9406 58.84C44.9192 58.7493 44.9059 58.688 44.9006 58.656C44.6712 58.8107 44.4366 58.928 44.1966 59.008C43.9619 59.0933 43.7646 59.136 43.6046 59.136C43.4659 59.136 43.3086 59.0907 43.1326 59C42.9619 58.9093 42.8152 58.7867 42.6926 58.632C42.5699 58.4773 42.5086 58.3067 42.5086 58.12C42.5086 57.8213 42.6072 57.44 42.8046 56.976C43.0019 56.512 43.2792 56.1067 43.6366 55.76C43.9992 55.4133 44.4206 55.24 44.9006 55.24C45.3219 55.24 45.6979 55.3067 46.0286 55.44C46.3592 55.5733 46.5246 55.7627 46.5246 56.008C46.3752 56.2853 46.2126 56.7013 46.0366 57.256C45.8659 57.8107 45.7806 58.2213 45.7806 58.488C45.7806 58.664 45.7939 58.7893 45.8206 58.864ZM44.9166 57.984C44.9592 57.7493 45.0312 57.472 45.1326 57.152C45.2392 56.8267 45.3806 56.5013 45.5566 56.176C45.5299 56.0693 45.4446 56 45.3006 55.968C45.1619 55.9307 45.0366 55.912 44.9246 55.912C44.7272 55.912 44.5139 56.0453 44.2846 56.312C44.0552 56.5787 43.8579 56.8907 43.6926 57.248C43.5326 57.6 43.4526 57.8853 43.4526 58.104C43.4526 58.2107 43.4819 58.288 43.5406 58.336C43.5992 58.3787 43.6739 58.4 43.7646 58.4C43.8872 58.4 44.0819 58.3547 44.3486 58.264C44.6206 58.168 44.8099 58.0747 44.9166 57.984ZM49.9002 56.608C49.7722 56.608 49.6842 56.5787 49.6362 56.52C49.5935 56.4613 49.5722 56.384 49.5722 56.288L49.5802 56.104C49.5802 56.04 49.5455 55.9893 49.4762 55.952C49.4069 55.9093 49.3322 55.888 49.2522 55.888C49.0869 55.888 48.8629 55.9867 48.5802 56.184C48.3029 56.3813 48.0575 56.6427 47.8442 56.968C47.6362 57.288 47.5322 57.632 47.5322 58C47.5322 58.1493 47.5909 58.264 47.7082 58.344C47.8255 58.424 47.9989 58.464 48.2282 58.464C48.3722 58.464 48.5375 58.4347 48.7242 58.376C48.9109 58.3173 49.0282 58.2427 49.0762 58.152C49.2575 57.8213 49.4229 57.656 49.5722 57.656C49.7909 57.656 49.9375 57.6987 50.0122 57.784C50.0922 57.864 50.1349 57.9547 50.1402 58.056C50.0869 58.2053 49.9802 58.3573 49.8202 58.512C49.6655 58.6667 49.4709 58.8027 49.2362 58.92C49.0015 59.032 48.7429 59.1067 48.4602 59.144C48.3589 59.2987 48.2789 59.432 48.2202 59.544C48.3162 59.528 48.4069 59.52 48.4922 59.52C48.6949 59.52 48.8815 59.5787 49.0522 59.696C49.2229 59.8187 49.3082 59.96 49.3082 60.12C49.3082 60.3973 49.1829 60.6133 48.9322 60.768C48.6815 60.9227 48.3429 61 47.9162 61C47.6922 61 47.4789 60.9413 47.2762 60.824C47.0735 60.7067 46.9722 60.568 46.9722 60.408C46.9722 60.3867 47.0042 60.3627 47.0682 60.336C47.1375 60.3147 47.2122 60.304 47.2922 60.304C47.3722 60.304 47.4389 60.312 47.4922 60.328C47.5455 60.3493 47.6069 60.376 47.6762 60.408C47.7402 60.44 47.7909 60.464 47.8282 60.48C47.8709 60.496 47.9215 60.504 47.9802 60.504C48.1562 60.504 48.2922 60.4747 48.3882 60.416C48.4842 60.3573 48.5322 60.2747 48.5322 60.168C48.5322 60.0933 48.5029 60.0373 48.4442 60C48.3855 59.9627 48.3109 59.944 48.2202 59.944C48.1882 59.944 48.1509 59.9493 48.1082 59.96C48.0709 59.9707 48.0442 59.9787 48.0282 59.984C47.9589 60.0107 47.8922 60.024 47.8282 60.024C47.6789 60.024 47.5642 60.0133 47.4842 59.992C47.4042 59.976 47.3642 59.952 47.3642 59.92C47.3642 59.776 47.4949 59.52 47.7562 59.152C47.3509 59.104 47.0522 58.976 46.8602 58.768C46.6682 58.56 46.5722 58.304 46.5722 58C46.5722 57.4987 46.7002 57.0347 46.9562 56.608C47.2122 56.176 47.5562 55.8347 47.9882 55.584C48.4202 55.3333 48.8815 55.208 49.3722 55.208C49.6762 55.208 49.9269 55.2987 50.1242 55.48C50.3269 55.656 50.4282 55.896 50.4282 56.2C50.4282 56.3173 50.3802 56.416 50.2842 56.496C50.1882 56.5707 50.0602 56.608 49.9002 56.608ZM52.5084 54.192C52.3324 54.192 52.1004 54.3493 51.8124 54.664C51.7484 54.6267 51.703 54.5813 51.6764 54.528C51.6497 54.4693 51.6364 54.3707 51.6364 54.232C51.6364 54.1253 51.6924 54.0133 51.8044 53.896C51.9164 53.7787 52.0497 53.6827 52.2044 53.608C52.3644 53.528 52.5084 53.488 52.6364 53.488C52.871 53.488 53.111 53.5813 53.3564 53.768C53.4577 53.848 53.5484 53.904 53.6284 53.936C53.7084 53.968 53.7937 53.984 53.8844 53.984C53.9484 53.984 54.007 53.968 54.0604 53.936C54.1137 53.8987 54.167 53.856 54.2204 53.808C54.2737 53.7547 54.3137 53.7147 54.3404 53.688C54.3617 53.6667 54.3857 53.656 54.4124 53.656C54.4337 53.656 54.455 53.6693 54.4764 53.696C54.4977 53.7227 54.511 53.736 54.5164 53.736C54.527 53.736 54.5324 53.76 54.5324 53.808C54.5324 53.9573 54.4817 54.0987 54.3804 54.232C54.279 54.36 54.1617 54.464 54.0284 54.544C53.895 54.624 53.7884 54.664 53.7084 54.664C53.5857 54.664 53.4737 54.6453 53.3724 54.608C53.2764 54.5653 53.159 54.4987 53.0204 54.408C52.919 54.328 52.8284 54.272 52.7484 54.24C52.6737 54.208 52.5937 54.192 52.5084 54.192ZM53.7004 58.584C53.711 58.7227 53.7297 58.848 53.7564 58.96C53.7457 58.992 53.6977 59.024 53.6124 59.056C53.5324 59.088 53.463 59.104 53.4044 59.104C53.2124 59.104 53.0737 59.0747 52.9884 59.016C52.9084 58.9627 52.8684 58.88 52.8684 58.768C52.8684 58.6613 52.879 58.5547 52.9004 58.448C52.783 58.608 52.6097 58.7413 52.3804 58.848C52.1564 58.9493 51.975 59 51.8364 59C51.479 59 51.1804 58.896 50.9404 58.688C50.7057 58.48 50.5884 58.1467 50.5884 57.688C50.5884 57.256 50.6897 56.8507 50.8924 56.472C51.1004 56.088 51.3857 55.7813 51.7484 55.552C52.111 55.3173 52.5137 55.2 52.9564 55.2C53.0417 55.2 53.1537 55.224 53.2924 55.272C53.431 55.3147 53.5697 55.392 53.7084 55.504C53.8524 55.6107 53.9724 55.7493 54.0684 55.92C54.111 55.92 54.1617 55.9413 54.2204 55.984C54.279 56.0267 54.3084 56.0693 54.3084 56.112C54.3084 56.16 54.3004 56.208 54.2844 56.256L53.7004 58.584ZM53.3404 56.344C53.3084 56.2267 53.2444 56.128 53.1484 56.048C53.0577 55.968 52.975 55.928 52.9004 55.928C52.655 55.928 52.423 56.016 52.2044 56.192C51.991 56.3627 51.8177 56.576 51.6844 56.832C51.551 57.088 51.4844 57.3307 51.4844 57.56C51.4844 57.784 51.511 57.968 51.5644 58.112C51.6177 58.256 51.7217 58.328 51.8764 58.328C52.0097 58.328 52.1617 58.288 52.3324 58.208C52.5084 58.128 52.663 58.0213 52.7964 57.888C52.935 57.7493 53.0257 57.6053 53.0684 57.456L53.3404 56.344ZM56.22 59.08C55.9053 59.08 55.6333 59.0053 55.404 58.856C55.1747 58.7067 54.9987 58.504 54.876 58.248C54.7587 57.992 54.7 57.7013 54.7 57.376C54.7 56.9493 54.7827 56.5653 54.948 56.224C55.1187 55.8773 55.3587 55.6053 55.668 55.408C55.9773 55.2107 56.3373 55.112 56.748 55.112C57.2013 55.112 57.508 55.152 57.668 55.232C57.7107 55.2533 57.7507 55.288 57.788 55.336C57.8307 55.3787 57.8547 55.4213 57.86 55.464C57.8493 55.608 57.8013 55.7093 57.716 55.768C57.8387 55.7787 57.94 55.84 58.02 55.952C58.1053 56.064 58.1693 56.1947 58.212 56.344C58.2547 56.488 58.276 56.6187 58.276 56.736C58.276 57.1147 58.1933 57.4853 58.028 57.848C57.8627 58.2053 57.6227 58.5013 57.308 58.736C56.9987 58.9653 56.636 59.08 56.22 59.08ZM56.332 58.416C56.5027 58.416 56.6653 58.3333 56.82 58.168C56.98 58.0027 57.108 57.784 57.204 57.512C57.3053 57.2347 57.356 56.9387 57.356 56.624C57.356 56.5653 57.3373 56.512 57.3 56.464C57.2627 56.416 57.2093 56.3653 57.14 56.312C57.1293 56.3067 57.1027 56.2853 57.06 56.248C57.0227 56.2107 57.004 56.176 57.004 56.144C57.004 56.1227 57.0093 56.0933 57.02 56.056C57.0307 56.0133 57.036 55.984 57.036 55.968C57.036 55.8933 56.9427 55.856 56.756 55.856C56.5373 55.856 56.3427 55.944 56.172 56.12C56.0067 56.2907 55.876 56.512 55.78 56.784C55.6893 57.0507 55.644 57.32 55.644 57.592C55.644 57.7467 55.6787 57.888 55.748 58.016C55.8227 58.1387 55.9133 58.2373 56.02 58.312C56.1267 58.3813 56.2307 58.416 56.332 58.416Z" fill="#CB5300"/>
</g>
<defs>
<filter id="filter0_dd_423_2475" x="0" y="0" width="84" height="84" filterUnits="userSpaceOnUse" color-interpolation-filters="sRGB">
<feFlood flood-opacity="0" result="BackgroundImageFix"/>
<feColorMatrix in="SourceAlpha" type="matrix" values="0 0 0 0 0 0 0 0 0 0 0 0 0 0 0 0 0 0 127 0" result="hardAlpha"/>
<feMorphology radius="2" operator="dilate" in="SourceAlpha" result="effect1_dropShadow_423_2475"/>
<feOffset dy="2"/>
<feGaussianBlur stdDeviation="3"/>
<feColorMatrix type="matrix" values="0 0 0 0 0 0 0 0 0 0 0 0 0 0 0 0 0 0 0.15 0"/>
<feBlend mode="normal" in2="BackgroundImageFix" result="effect1_dropShadow_423_2475"/>
<feColorMatrix in="SourceAlpha" type="matrix" values="0 0 0 0 0 0 0 0 0 0 0 0 0 0 0 0 0 0 127 0" result="hardAlpha"/>
<feOffset dy="1"/>
<feGaussianBlur stdDeviation="1"/>
<feColorMatrix type="matrix" values="0 0 0 0 0 0 0 0 0 0 0 0 0 0 0 0 0 0 0.3 0"/>
<feBlend mode="normal" in2="effect1_dropShadow_423_2475" result="effect2_dropShadow_423_2475"/>
<feBlend mode="normal" in="SourceGraphic" in2="effect2_dropShadow_423_2475" result="shape"/>
</filter>
</defs>
</svg>
