<svg width="84" height="84" viewBox="0 0 84 84" fill="none" xmlns="http://www.w3.org/2000/svg">
<g id="promocao_cultural" filter="url(#filter0_dd_422_2617)">
<rect x="8" y="6" width="68" height="68" rx="20" fill="#F9F8F6"/>
<g id="promocao_cultural_2">
<g id="Group">
<g id="Group_2">
<g id="Cultura">
<g id="Group_3">
<g id="Group_4">
<path id="Vector" fill-rule="evenodd" clip-rule="evenodd" d="M46.8828 36.1895C47.6236 37.2097 48.1221 38.4659 48.2774 39.8433C48.301 40.0774 48.2256 40.3106 48.0695 40.4848C47.9133 40.6594 47.6913 40.759 47.4585 40.759C45.145 40.7677 38.8656 40.7677 36.5524 40.7677C36.3171 40.7677 36.0927 40.6671 35.9349 40.4907C35.7775 40.3143 35.701 40.079 35.7249 39.8424C35.8889 38.4659 36.3873 37.2097 37.1279 36.1895L37.3718 36.3372C38.754 37.1746 40.3313 37.6492 42.0053 37.6492C43.6794 37.6492 45.2567 37.1746 46.6391 36.3372L46.8828 36.1895Z" fill="#CB5300"/>
</g>
<g id="Group_5">
<path id="Vector_2" fill-rule="evenodd" clip-rule="evenodd" d="M33.6292 31.1873C32.9652 29.7705 32.5709 28.1658 32.5244 26.4623H51.4866C51.4401 28.1658 51.0458 29.7705 50.3818 31.1873H33.6292ZM49.9097 32.0867C49.0383 33.578 47.8494 34.8092 46.4534 35.6546C45.1267 36.4584 43.6124 36.9142 42.0055 36.9142C40.3986 36.9142 38.8847 36.4584 37.5576 35.6546C36.1616 34.8092 34.973 33.578 34.1013 32.0867H49.9097ZM48.3294 27.6402C47.8074 27.6402 47.3837 28.1227 47.3837 28.7167C47.3837 29.3107 47.8074 29.7928 48.3294 29.7928C48.8514 29.7928 49.2754 29.3107 49.2754 28.7167C49.2754 28.1227 48.8514 27.6402 48.3294 27.6402ZM35.7831 27.6402C35.2611 27.6402 34.8374 28.1227 34.8374 28.7167C34.8374 29.3107 35.2611 29.7928 35.7831 29.7928C36.3051 29.7928 36.7288 29.3107 36.7288 28.7167C36.7288 28.1227 36.3051 27.6402 35.7831 27.6402ZM40.8017 27.6402C40.2797 27.6402 39.8557 28.1227 39.8557 28.7167C39.8557 29.3107 40.2797 29.7928 40.8017 29.7928C41.3238 29.7928 41.7475 29.3107 41.7475 28.7167C41.7475 28.1227 41.3238 27.6402 40.8017 27.6402ZM45.8201 27.6402C45.298 27.6402 44.8743 28.1227 44.8743 28.7167C44.8743 29.3107 45.298 29.7928 45.8201 29.7928C46.3421 29.7928 46.7661 29.3107 46.7661 28.7167C46.7661 28.1227 46.3421 27.6402 45.8201 27.6402ZM43.3111 27.6402C42.7887 27.6402 42.365 28.1227 42.365 28.7167C42.365 29.3107 42.7887 29.7928 43.3111 29.7928C43.8331 29.7928 44.2568 29.3107 44.2568 28.7167C44.2568 28.1227 43.8331 27.6402 43.3111 27.6402ZM38.2924 27.6402C37.7704 27.6402 37.3464 28.1227 37.3464 28.7167C37.3464 29.3107 37.7704 29.7928 38.2924 29.7928C38.8145 29.7928 39.2382 29.3107 39.2382 28.7167C39.2382 28.1227 38.8145 27.6402 38.2924 27.6402ZM32.5197 25.7409V20.1719H32.5219H51.4544C51.4667 20.1719 51.479 20.1712 51.4913 20.1701V25.7409H51.4857L51.4872 25.7999C51.4743 25.7722 51.4581 25.7453 51.4395 25.7204L47.8855 20.9861C47.561 20.5537 47.082 20.3122 46.5824 20.3288C46.0831 20.3453 45.6174 20.6188 45.3157 21.0721L42.6907 25.0156C42.5282 25.2596 42.2746 25.4031 42.0055 25.4031C41.7364 25.4031 41.4828 25.2596 41.3203 25.0156L38.6956 21.0721C38.3939 20.6188 37.9282 20.3453 37.4286 20.3288C36.9293 20.3122 36.45 20.5537 36.1255 20.9861L32.5718 25.7204C32.5529 25.7453 32.537 25.7722 32.5238 25.7999L32.5257 25.7409H32.5197ZM33.7297 25.5629L36.7266 21.5704C36.8958 21.3452 37.1453 21.2192 37.4055 21.2279C37.6654 21.2365 37.9082 21.379 38.0654 21.615L40.6901 25.5585L40.693 25.5629H33.7297ZM43.3183 25.5629L43.3209 25.5585L45.9459 21.615C46.1031 21.379 46.3456 21.2365 46.6058 21.2279C46.8657 21.2192 47.1155 21.3452 47.2844 21.5704L50.2816 25.5629H43.3183ZM32.5197 19.2725V17.2872C32.5197 16.205 33.3886 15.3275 34.4605 15.3275C38.0999 15.3275 45.9111 15.3275 49.5509 15.3275C50.0656 15.3275 50.5592 15.534 50.9231 15.9014C51.2871 16.2691 51.4913 16.7677 51.4913 17.2872C51.4913 18.2784 51.4913 19.2743 51.4913 19.2743C51.479 19.2732 51.4667 19.2725 51.4544 19.2725H32.5219C32.5212 19.2725 32.5203 19.2725 32.5197 19.2725Z" fill="#CB5300"/>
<path id="Vector_3" fill-rule="evenodd" clip-rule="evenodd" d="M33.215 20.1719H51.4544C51.4667 20.1719 51.479 20.1712 51.4913 20.1701V25.7409H51.4857L51.4872 25.7999C51.4743 25.7722 51.4581 25.7453 51.4395 25.7204L47.8855 20.9861C47.561 20.5537 47.082 20.3122 46.5824 20.3288C46.0831 20.3453 45.6174 20.6188 45.3157 21.0721L42.6907 25.0156C42.5282 25.2596 42.2746 25.4031 42.0055 25.4031C41.7364 25.4031 41.4828 25.2596 41.3203 25.0156L38.6956 21.0721C38.3939 20.6188 37.9282 20.3453 37.4286 20.3288C36.9293 20.3122 36.45 20.5537 36.1255 20.9861L32.5718 25.7204C32.5529 25.7453 32.537 25.7722 32.5238 25.7999L32.5257 25.7409H32.5197V20.8721L32.5206 20.1719H32.5219V20.8699L33.2128 20.1719V20.2263C33.214 20.2083 33.215 20.1903 33.215 20.1719ZM33.6292 31.1873C32.9652 29.7705 32.5709 28.1658 32.5244 26.4623H51.4866C51.4401 28.1658 51.0458 29.7705 50.3818 31.1873H33.6292ZM40.6718 30.4871C40.2282 30.4486 39.825 30.2148 39.5471 29.8582C39.2691 30.2148 38.866 30.4486 38.4221 30.4871H40.6718ZM39.0826 27.1621C39.259 27.2678 39.4168 27.4082 39.5471 27.5751C39.6774 27.4082 39.8348 27.2678 40.0116 27.1621H39.0826ZM36.5733 27.1621C36.7497 27.2678 36.9075 27.4082 37.0378 27.5751C37.168 27.4082 37.3258 27.2678 37.5023 27.1621H36.5733ZM45.6904 30.4871C45.2468 30.4486 44.8433 30.2148 44.5654 29.8582C44.2878 30.2148 43.8843 30.4486 43.4407 30.4871H45.6904ZM38.1625 30.4871C37.7188 30.4486 37.3157 30.2148 37.0378 29.8582C36.7598 30.2148 36.3567 30.4486 35.9131 30.4871H38.1625ZM43.1811 30.4871C42.7375 30.4486 42.334 30.2148 42.0564 29.8582C41.7785 30.2148 41.375 30.4486 40.9314 30.4871H43.1811ZM41.5919 27.1621C41.7684 27.2678 41.9261 27.4082 42.0564 27.5751C42.1864 27.4082 42.3441 27.2678 42.5209 27.1621H41.5919ZM49.1196 27.1621C49.6192 27.4614 49.9686 28.0367 49.9686 28.7167C49.9686 29.6694 49.2834 30.4159 48.4594 30.4871H49.9331C50.3635 29.4621 50.6465 28.3418 50.7521 27.1621H49.1196ZM48.1998 30.4871C47.7561 30.4486 47.3527 30.2148 47.0747 29.8582C46.7971 30.2148 46.3936 30.4486 45.95 30.4871H48.1998ZM35.6531 30.4871C34.8291 30.4159 34.1443 29.6694 34.1443 28.7167C34.1443 28.0367 34.4933 27.4614 34.9929 27.1621H33.2592C33.3648 28.3418 33.6478 29.4621 34.0779 30.4871H35.6531ZM44.1012 27.1621C44.2777 27.2678 44.4355 27.4082 44.5654 27.5751C44.6957 27.4082 44.8535 27.2678 45.0299 27.1621H44.1012ZM46.6102 27.1621C46.787 27.2678 46.9448 27.4082 47.0747 27.5751C47.205 27.4082 47.3628 27.2678 47.5392 27.1621H46.6102ZM45.8201 27.6402C45.298 27.6402 44.8743 28.1227 44.8743 28.7167C44.8743 29.3107 45.298 29.7928 45.8201 29.7928C46.3421 29.7928 46.7661 29.3107 46.7661 28.7167C46.7661 28.1227 46.3421 27.6402 45.8201 27.6402ZM43.3111 27.6402C42.7887 27.6402 42.365 28.1227 42.365 28.7167C42.365 29.3107 42.7887 29.7928 43.3111 29.7928C43.8331 29.7928 44.2568 29.3107 44.2568 28.7167C44.2568 28.1227 43.8331 27.6402 43.3111 27.6402ZM48.3294 27.6402C47.8074 27.6402 47.3837 28.1227 47.3837 28.7167C47.3837 29.3107 47.8074 29.7928 48.3294 29.7928C48.8514 29.7928 49.2754 29.3107 49.2754 28.7167C49.2754 28.1227 48.8514 27.6402 48.3294 27.6402ZM40.8017 27.6402C40.2797 27.6402 39.8557 28.1227 39.8557 28.7167C39.8557 29.3107 40.2797 29.7928 40.8017 29.7928C41.3238 29.7928 41.7475 29.3107 41.7475 28.7167C41.7475 28.1227 41.3238 27.6402 40.8017 27.6402ZM38.2924 27.6402C37.7704 27.6402 37.3464 28.1227 37.3464 28.7167C37.3464 29.3107 37.7704 29.7928 38.2924 29.7928C38.8145 29.7928 39.2382 29.3107 39.2382 28.7167C39.2382 28.1227 38.8145 27.6402 38.2924 27.6402ZM35.7831 27.6402C35.2611 27.6402 34.8374 28.1227 34.8374 28.7167C34.8374 29.3107 35.2611 29.7928 35.7831 29.7928C36.3051 29.7928 36.7288 29.3107 36.7288 28.7167C36.7288 28.1227 36.3051 27.6402 35.7831 27.6402ZM49.9097 32.0867C49.0383 33.578 47.8494 34.8092 46.4534 35.6546C45.1267 36.4584 43.6124 36.9142 42.0055 36.9142C40.3986 36.9142 38.8847 36.4584 37.5576 35.6546C36.1616 34.8092 34.973 33.578 34.1013 32.0867H49.9097ZM48.6042 32.7868H35.4071C36.1119 33.705 36.9606 34.4767 37.9143 35.0545C39.1348 35.7939 40.5273 36.2141 42.0055 36.2141C43.4837 36.2141 44.8762 35.7939 46.0971 35.0545C47.0507 34.4767 47.8994 33.705 48.6042 32.7868ZM33.7297 25.5629L36.7266 21.5704C36.8958 21.3452 37.1453 21.2192 37.4055 21.2279C37.6654 21.2365 37.9082 21.379 38.0654 21.615L40.6901 25.5585L40.693 25.5629H33.7297ZM39.3918 24.8627L37.4902 22.0054C37.4627 21.9643 37.4276 21.9291 37.3824 21.9273C37.3407 21.9262 37.3062 21.9568 37.279 21.9931L35.1248 24.8627H39.3918ZM32.5197 19.2725V17.2872C32.5197 16.205 33.3886 15.3275 34.4605 15.3275H49.5509C50.0656 15.3275 50.5592 15.534 50.9231 15.9014C51.2871 16.2691 51.4913 16.7677 51.4913 17.2872V19.2743C51.479 19.2732 51.4667 19.2725 51.4544 19.2725H32.5219H32.5197ZM33.2128 18.5724H50.7982V17.2872C50.7982 16.9534 50.667 16.6328 50.433 16.3964C50.1991 16.16 49.8816 16.0273 49.5509 16.0273H34.4605C33.7715 16.0273 33.2128 16.5914 33.2128 17.2872V18.5724ZM43.3183 25.5629L43.3209 25.5585L45.9459 21.615C46.1031 21.379 46.3456 21.2365 46.6058 21.2279C46.8657 21.2192 47.1155 21.3452 47.2844 21.5704L50.2816 25.5629H43.3183ZM44.6192 24.8627H48.8862L46.7323 21.9931C46.7051 21.9568 46.6706 21.9262 46.6286 21.9273C46.5834 21.9291 46.5483 21.9643 46.5211 22.0054L44.6192 24.8627ZM33.2128 23.7078L35.3414 20.8721H33.2128V23.7078ZM39.3975 20.8721L41.8955 24.6253C41.9233 24.667 41.9597 24.703 42.0055 24.703C42.0517 24.703 42.0877 24.667 42.1155 24.6253L44.6138 20.8721H39.3975ZM48.6696 20.8721L50.7982 23.7078V20.8721H48.6696Z" fill="#CB5300"/>
</g>
<g id="Group_6">
<path id="Vector_4" fill-rule="evenodd" clip-rule="evenodd" d="M51.4911 25.5627V25.7408H51.4853L51.487 25.8002C51.4737 25.7721 51.4581 25.7455 51.4391 25.7203L51.3207 25.5627H51.4911ZM32.5234 25.8002L32.5251 25.7408H32.5193V25.5627H32.6897L32.5714 25.7203C32.5527 25.7455 32.5367 25.7721 32.5234 25.8002Z" fill="white"/>
</g>
</g>
</g>
</g>
</g>
</g>
<path id="textIcon" d="M24.1734 49.6C24.1734 49.5253 24.1948 49.4667 24.2374 49.424C24.2854 49.376 24.3494 49.3333 24.4294 49.296C24.4561 49.28 24.5521 49.232 24.7174 49.152C24.8881 49.072 25.0508 49.0107 25.2054 48.968C25.2534 48.8613 25.3254 48.7733 25.4214 48.704C25.5228 48.6347 25.6508 48.6 25.8054 48.6C25.8961 48.6 25.9708 48.6187 26.0294 48.656C26.0881 48.688 26.1281 48.7307 26.1494 48.784C26.3468 48.72 26.5841 48.688 26.8614 48.688C27.2081 48.688 27.5068 48.7627 27.7574 48.912C28.0134 49.056 28.2054 49.256 28.3334 49.512C28.4668 49.768 28.5334 50.056 28.5334 50.376C28.5334 50.44 28.5254 50.528 28.5094 50.64C28.2908 51.888 27.3574 52.512 25.7094 52.512C25.5601 52.512 25.4508 52.5093 25.3814 52.504L25.2774 52.888C25.1654 53.2987 25.1094 53.5093 25.1094 53.52C25.0668 53.7067 25.0001 53.8507 24.9094 53.952C24.8241 54.0533 24.6828 54.104 24.4854 54.104C24.3201 54.104 24.1974 54.0747 24.1174 54.016C24.0428 53.9627 24.0054 53.8693 24.0054 53.736C24.0054 53.6773 24.0134 53.6213 24.0294 53.568L24.9974 49.832C24.7201 49.912 24.5094 50.0213 24.3654 50.16C24.3068 50.096 24.2588 50.0133 24.2214 49.912C24.1894 49.8053 24.1734 49.7013 24.1734 49.6ZM25.5494 51.76C25.6134 51.7653 25.7041 51.768 25.8214 51.768C26.3281 51.768 26.7281 51.672 27.0214 51.48C27.3201 51.288 27.5121 50.992 27.5974 50.592C27.6134 50.5013 27.6214 50.4347 27.6214 50.392C27.6214 50.0933 27.5388 49.872 27.3734 49.728C27.2081 49.5787 26.9761 49.504 26.6774 49.504C26.5174 49.504 26.3121 49.5413 26.0614 49.616C25.8534 50.4427 25.6828 51.1573 25.5494 51.76ZM29.7208 53.696C29.7155 53.728 29.7021 53.792 29.6808 53.888C29.6648 53.9787 29.6195 54.0427 29.5448 54.08C29.4755 54.1173 29.3635 54.136 29.2088 54.136C29.0328 54.136 28.9048 54.1173 28.8248 54.08C28.7448 54.0427 28.7048 53.9627 28.7048 53.84L29.0888 52.312C29.3021 51.432 29.4435 50.872 29.5128 50.632L29.3128 50.392C29.2968 50.376 29.2888 50.3573 29.2888 50.336C29.2888 50.2827 29.3475 50.24 29.4648 50.208C29.5821 50.1707 29.7448 50.152 29.9528 50.152C30.1395 50.152 30.2648 50.2053 30.3288 50.312C30.3928 50.4133 30.4328 50.5467 30.4488 50.712L30.3928 50.92C30.5635 50.712 30.7608 50.5413 30.9848 50.408C31.2141 50.2693 31.4168 50.2 31.5928 50.2C31.8221 50.2 32.0008 50.24 32.1288 50.32C32.2568 50.4 32.3208 50.504 32.3208 50.632C32.3208 50.744 32.2808 50.8613 32.2008 50.984C32.1261 51.1013 32.0301 51.2027 31.9128 51.288C31.7955 51.368 31.6808 51.4133 31.5688 51.424C31.4621 51.424 31.3901 51.4107 31.3528 51.384C31.3155 51.3573 31.2968 51.3173 31.2968 51.264L31.3448 51C30.9181 51.1173 30.5315 51.4 30.1848 51.848L29.7208 53.696ZM33.6101 54.168C33.1407 54.168 32.7754 54.008 32.5141 53.688C32.2527 53.368 32.1221 52.96 32.1221 52.464C32.1221 52.048 32.2207 51.656 32.4181 51.288C32.6207 50.92 32.8954 50.624 33.2421 50.4C33.5887 50.176 33.9701 50.064 34.3861 50.064C34.7967 50.064 35.1327 50.2 35.3941 50.472C35.6607 50.7387 35.7941 51.1333 35.7941 51.656C35.7941 52.024 35.6927 52.4053 35.4901 52.8C35.2874 53.1947 35.0154 53.5227 34.6741 53.784C34.3381 54.04 33.9834 54.168 33.6101 54.168ZM33.7301 53.528C33.9007 53.528 34.0714 53.4213 34.2421 53.208C34.4181 52.9947 34.5621 52.7253 34.6741 52.4C34.7861 52.0747 34.8421 51.7573 34.8421 51.448C34.8421 50.9733 34.6447 50.736 34.2501 50.736C34.0314 50.736 33.8314 50.84 33.6501 51.048C33.4687 51.256 33.3247 51.5147 33.2181 51.824C33.1114 52.128 33.0581 52.4133 33.0581 52.68C33.0581 52.8347 33.0927 52.9787 33.1621 53.112C33.2314 53.24 33.3167 53.3413 33.4181 53.416C33.5247 53.4907 33.6287 53.528 33.7301 53.528ZM36.7686 50.584C36.7846 50.4667 36.8032 50.376 36.8246 50.312C36.8459 50.248 36.8859 50.1973 36.9446 50.16C37.0086 50.1227 37.1019 50.104 37.2246 50.104C37.4112 50.104 37.5366 50.1573 37.6006 50.264C37.6646 50.3653 37.7046 50.4987 37.7206 50.664C37.7099 50.712 37.7019 50.752 37.6966 50.784C37.6966 50.816 37.6912 50.8533 37.6806 50.896C37.8619 50.6827 38.0352 50.52 38.2006 50.408C38.3712 50.296 38.5686 50.24 38.7926 50.24C39.0432 50.24 39.2459 50.3067 39.4006 50.44C39.5606 50.568 39.6539 50.72 39.6806 50.896C39.8299 50.656 40.0192 50.488 40.2486 50.392C40.4779 50.2907 40.7126 50.24 40.9526 50.24C41.2619 50.24 41.4806 50.3147 41.6086 50.464C41.7419 50.6133 41.8086 50.8053 41.8086 51.04C41.8086 51.1147 41.7979 51.2213 41.7766 51.36C41.6379 52.0693 41.4966 52.8107 41.3526 53.584C41.3152 53.776 41.2752 53.92 41.2326 54.016C41.1899 54.1173 41.1259 54.192 41.0406 54.24C40.9552 54.288 40.8326 54.312 40.6726 54.312C40.5446 54.312 40.4512 54.2693 40.3926 54.184C40.3339 54.0987 40.3046 53.992 40.3046 53.864C40.3046 53.8213 40.3099 53.7627 40.3206 53.688C40.3952 53.2933 40.4886 52.848 40.6006 52.352C40.6112 52.304 40.6486 52.1387 40.7126 51.856C40.7766 51.5733 40.8086 51.392 40.8086 51.312C40.8086 51.2 40.7846 51.1227 40.7366 51.08C40.6886 51.032 40.6326 51.008 40.5686 51.008C40.4352 51.008 40.2672 51.0667 40.0646 51.184C39.8672 51.3013 39.7286 51.408 39.6486 51.504C39.5632 51.776 39.4139 52.3813 39.2006 53.32C39.1739 53.432 39.1579 53.528 39.1526 53.608C39.1312 53.7253 39.1099 53.808 39.0886 53.856C39.0672 53.904 39.0246 53.9387 38.9606 53.96C38.8966 53.9813 38.7926 53.992 38.6486 53.992C38.2806 53.992 38.0966 53.9173 38.0966 53.768C38.1286 53.688 38.1792 53.504 38.2486 53.216C38.3179 52.9227 38.3686 52.7173 38.4006 52.6C38.4966 52.1787 38.6112 51.712 38.7446 51.2C38.7446 51.152 38.7232 51.112 38.6806 51.08C38.6379 51.048 38.5899 51.032 38.5366 51.032C38.3446 51.032 38.1472 51.112 37.9446 51.272C37.7472 51.432 37.5952 51.6027 37.4886 51.784C37.4139 52.072 37.3286 52.3973 37.2326 52.76C37.1419 53.1173 37.0726 53.4053 37.0246 53.624C36.9926 53.7733 36.9392 53.8773 36.8646 53.936C36.7899 53.9947 36.6619 54.024 36.4806 54.024C36.3259 54.024 36.2086 54.0053 36.1286 53.968C36.0486 53.9253 36.0086 53.8453 36.0086 53.728C36.0086 53.6693 36.0752 53.3573 36.2086 52.792C36.3472 52.2267 36.5339 51.4907 36.7686 50.584ZM43.8132 54.08C43.3439 54.08 42.9785 53.92 42.7172 53.6C42.4559 53.28 42.3252 52.872 42.3252 52.376C42.3252 51.96 42.4132 51.5787 42.5892 51.232C42.7705 50.8853 43.0212 50.6133 43.3412 50.416C43.6665 50.2133 44.0372 50.112 44.4532 50.112C44.9172 50.112 45.2292 50.152 45.3892 50.232C45.4372 50.2533 45.4799 50.288 45.5172 50.336C45.5545 50.3787 45.5732 50.4213 45.5732 50.464C45.5732 50.5173 45.5599 50.5733 45.5332 50.632C45.5119 50.6907 45.4772 50.736 45.4292 50.768C45.5519 50.7787 45.6559 50.84 45.7412 50.952C45.8265 51.0587 45.8905 51.184 45.9332 51.328C45.9759 51.472 45.9972 51.5973 45.9972 51.704C45.9972 52.0827 45.9039 52.456 45.7172 52.824C45.5359 53.192 45.2799 53.4933 44.9492 53.728C44.6185 53.9627 44.2399 54.08 43.8132 54.08ZM43.9332 53.416C44.1039 53.416 44.2772 53.3333 44.4532 53.168C44.6345 52.9973 44.7839 52.7733 44.9012 52.496C45.0185 52.2187 45.0772 51.928 45.0772 51.624C45.0772 51.5653 45.0559 51.512 45.0132 51.464C44.9759 51.416 44.9225 51.3653 44.8532 51.312C44.8159 51.2853 44.7812 51.2587 44.7492 51.232C44.7225 51.2 44.7092 51.1707 44.7092 51.144C44.7092 51.1227 44.7145 51.0933 44.7252 51.056C44.7412 51.0187 44.7492 50.992 44.7492 50.976C44.7492 50.896 44.6505 50.856 44.4532 50.856C44.2345 50.856 44.0319 50.944 43.8452 51.12C43.6639 51.296 43.5199 51.52 43.4132 51.792C43.3119 52.064 43.2612 52.3307 43.2612 52.592C43.2612 52.7467 43.2959 52.888 43.3652 53.016C43.4345 53.1387 43.5199 53.2373 43.6212 53.312C43.7279 53.3813 43.8319 53.416 43.9332 53.416ZM49.5877 51.608C49.4597 51.608 49.3717 51.5787 49.3237 51.52C49.281 51.4613 49.2597 51.384 49.2597 51.288L49.2677 51.104C49.2677 51.04 49.233 50.9893 49.1637 50.952C49.0944 50.9093 49.0197 50.888 48.9397 50.888C48.7744 50.888 48.5504 50.9867 48.2677 51.184C47.9904 51.3813 47.745 51.6427 47.5317 51.968C47.3237 52.288 47.2197 52.632 47.2197 53C47.2197 53.1493 47.2784 53.264 47.3957 53.344C47.513 53.424 47.6864 53.464 47.9157 53.464C48.0597 53.464 48.225 53.4347 48.4117 53.376C48.5984 53.3173 48.7157 53.2427 48.7637 53.152C48.945 52.8213 49.1104 52.656 49.2597 52.656C49.4784 52.656 49.625 52.6987 49.6997 52.784C49.7797 52.864 49.8224 52.9547 49.8277 53.056C49.7744 53.2053 49.6677 53.3573 49.5077 53.512C49.353 53.6667 49.1584 53.8027 48.9237 53.92C48.689 54.032 48.4304 54.1067 48.1477 54.144C48.0464 54.2987 47.9664 54.432 47.9077 54.544C48.0037 54.528 48.0944 54.52 48.1797 54.52C48.3824 54.52 48.569 54.5787 48.7397 54.696C48.9104 54.8187 48.9957 54.96 48.9957 55.12C48.9957 55.3973 48.8704 55.6133 48.6197 55.768C48.369 55.9227 48.0304 56 47.6037 56C47.3797 56 47.1664 55.9413 46.9637 55.824C46.761 55.7067 46.6597 55.568 46.6597 55.408C46.6597 55.3867 46.6917 55.3627 46.7557 55.336C46.825 55.3147 46.8997 55.304 46.9797 55.304C47.0597 55.304 47.1264 55.312 47.1797 55.328C47.233 55.3493 47.2944 55.376 47.3637 55.408C47.4277 55.44 47.4784 55.464 47.5157 55.48C47.5584 55.496 47.609 55.504 47.6677 55.504C47.8437 55.504 47.9797 55.4747 48.0757 55.416C48.1717 55.3573 48.2197 55.2747 48.2197 55.168C48.2197 55.0933 48.1904 55.0373 48.1317 55C48.073 54.9627 47.9984 54.944 47.9077 54.944C47.8757 54.944 47.8384 54.9493 47.7957 54.96C47.7584 54.9707 47.7317 54.9787 47.7157 54.984C47.6464 55.0107 47.5797 55.024 47.5157 55.024C47.3664 55.024 47.2517 55.0133 47.1717 54.992C47.0917 54.976 47.0517 54.952 47.0517 54.92C47.0517 54.776 47.1824 54.52 47.4437 54.152C47.0384 54.104 46.7397 53.976 46.5477 53.768C46.3557 53.56 46.2597 53.304 46.2597 53C46.2597 52.4987 46.3877 52.0347 46.6437 51.608C46.8997 51.176 47.2437 50.8347 47.6757 50.584C48.1077 50.3333 48.569 50.208 49.0597 50.208C49.3637 50.208 49.6144 50.2987 49.8117 50.48C50.0144 50.656 50.1157 50.896 50.1157 51.2C50.1157 51.3173 50.0677 51.416 49.9717 51.496C49.8757 51.5707 49.7477 51.608 49.5877 51.608ZM52.1959 49.192C52.0199 49.192 51.7879 49.3493 51.4999 49.664C51.4359 49.6267 51.3905 49.5813 51.3639 49.528C51.3372 49.4693 51.3239 49.3707 51.3239 49.232C51.3239 49.1253 51.3799 49.0133 51.4919 48.896C51.6039 48.7787 51.7372 48.6827 51.8919 48.608C52.0519 48.528 52.1959 48.488 52.3239 48.488C52.5585 48.488 52.7985 48.5813 53.0439 48.768C53.1452 48.848 53.2359 48.904 53.3159 48.936C53.3959 48.968 53.4812 48.984 53.5719 48.984C53.6359 48.984 53.6945 48.968 53.7479 48.936C53.8012 48.8987 53.8545 48.856 53.9079 48.808C53.9612 48.7547 54.0012 48.7147 54.0279 48.688C54.0492 48.6667 54.0732 48.656 54.0999 48.656C54.1212 48.656 54.1425 48.6693 54.1639 48.696C54.1852 48.7227 54.1985 48.736 54.2039 48.736C54.2145 48.736 54.2199 48.76 54.2199 48.808C54.2199 48.9573 54.1692 49.0987 54.0679 49.232C53.9665 49.36 53.8492 49.464 53.7159 49.544C53.5825 49.624 53.4759 49.664 53.3959 49.664C53.2732 49.664 53.1612 49.6453 53.0599 49.608C52.9639 49.5653 52.8465 49.4987 52.7079 49.408C52.6065 49.328 52.5159 49.272 52.4359 49.24C52.3612 49.208 52.2812 49.192 52.1959 49.192ZM53.3879 53.584C53.3985 53.7227 53.4172 53.848 53.4439 53.96C53.4332 53.992 53.3852 54.024 53.2999 54.056C53.2199 54.088 53.1505 54.104 53.0919 54.104C52.8999 54.104 52.7612 54.0747 52.6759 54.016C52.5959 53.9627 52.5559 53.88 52.5559 53.768C52.5559 53.6613 52.5665 53.5547 52.5879 53.448C52.4705 53.608 52.2972 53.7413 52.0679 53.848C51.8439 53.9493 51.6625 54 51.5239 54C51.1665 54 50.8679 53.896 50.6279 53.688C50.3932 53.48 50.2759 53.1467 50.2759 52.688C50.2759 52.256 50.3772 51.8507 50.5799 51.472C50.7879 51.088 51.0732 50.7813 51.4359 50.552C51.7985 50.3173 52.2012 50.2 52.6439 50.2C52.7292 50.2 52.8412 50.224 52.9799 50.272C53.1185 50.3147 53.2572 50.392 53.3959 50.504C53.5399 50.6107 53.6599 50.7493 53.7559 50.92C53.7985 50.92 53.8492 50.9413 53.9079 50.984C53.9665 51.0267 53.9959 51.0693 53.9959 51.112C53.9959 51.16 53.9879 51.208 53.9719 51.256L53.3879 53.584ZM53.0279 51.344C52.9959 51.2267 52.9319 51.128 52.8359 51.048C52.7452 50.968 52.6625 50.928 52.5879 50.928C52.3425 50.928 52.1105 51.016 51.8919 51.192C51.6785 51.3627 51.5052 51.576 51.3719 51.832C51.2385 52.088 51.1719 52.3307 51.1719 52.56C51.1719 52.784 51.1985 52.968 51.2519 53.112C51.3052 53.256 51.4092 53.328 51.5639 53.328C51.6972 53.328 51.8492 53.288 52.0199 53.208C52.1959 53.128 52.3505 53.0213 52.4839 52.888C52.6225 52.7493 52.7132 52.6053 52.7559 52.456L53.0279 51.344ZM55.9075 54.08C55.5928 54.08 55.3208 54.0053 55.0915 53.856C54.8622 53.7067 54.6862 53.504 54.5635 53.248C54.4462 52.992 54.3875 52.7013 54.3875 52.376C54.3875 51.9493 54.4702 51.5653 54.6355 51.224C54.8062 50.8773 55.0462 50.6053 55.3555 50.408C55.6648 50.2107 56.0248 50.112 56.4355 50.112C56.8888 50.112 57.1955 50.152 57.3555 50.232C57.3982 50.2533 57.4382 50.288 57.4755 50.336C57.5182 50.3787 57.5422 50.4213 57.5475 50.464C57.5368 50.608 57.4888 50.7093 57.4035 50.768C57.5262 50.7787 57.6275 50.84 57.7075 50.952C57.7928 51.064 57.8568 51.1947 57.8995 51.344C57.9422 51.488 57.9635 51.6187 57.9635 51.736C57.9635 52.1147 57.8808 52.4853 57.7155 52.848C57.5502 53.2053 57.3102 53.5013 56.9955 53.736C56.6862 53.9653 56.3235 54.08 55.9075 54.08ZM56.0195 53.416C56.1902 53.416 56.3528 53.3333 56.5075 53.168C56.6675 53.0027 56.7955 52.784 56.8915 52.512C56.9928 52.2347 57.0435 51.9387 57.0435 51.624C57.0435 51.5653 57.0248 51.512 56.9875 51.464C56.9502 51.416 56.8968 51.3653 56.8275 51.312C56.8168 51.3067 56.7902 51.2853 56.7475 51.248C56.7102 51.2107 56.6915 51.176 56.6915 51.144C56.6915 51.1227 56.6968 51.0933 56.7075 51.056C56.7182 51.0133 56.7235 50.984 56.7235 50.968C56.7235 50.8933 56.6302 50.856 56.4435 50.856C56.2248 50.856 56.0302 50.944 55.8595 51.12C55.6942 51.2907 55.5635 51.512 55.4675 51.784C55.3768 52.0507 55.3315 52.32 55.3315 52.592C55.3315 52.7467 55.3662 52.888 55.4355 53.016C55.5102 53.1387 55.6008 53.2373 55.7075 53.312C55.8142 53.3813 55.9182 53.416 56.0195 53.416ZM33.2317 62.608C33.1517 62.848 32.9917 63.0907 32.7517 63.336C32.517 63.576 32.2184 63.776 31.8557 63.936C31.4984 64.0907 31.1064 64.168 30.6797 64.168C30.029 64.168 29.5517 64.0107 29.2477 63.696C28.9437 63.376 28.7917 62.968 28.7917 62.472C28.7917 61.768 28.949 61.1307 29.2637 60.56C29.5784 59.984 30.0024 59.5333 30.5357 59.208C31.069 58.8773 31.645 58.712 32.2637 58.712C32.509 58.712 32.733 58.768 32.9357 58.88C33.1384 58.992 33.2984 59.1547 33.4157 59.368C33.533 59.576 33.5917 59.8213 33.5917 60.104C33.5917 60.264 33.5304 60.4 33.4077 60.512C33.2904 60.624 33.1304 60.68 32.9277 60.68C32.7677 60.68 32.6584 60.6373 32.5997 60.552C32.5464 60.4667 32.5197 60.3573 32.5197 60.224L32.5277 59.968C32.5277 59.872 32.4744 59.7787 32.3677 59.688C32.261 59.5973 32.1624 59.552 32.0717 59.552C31.773 59.552 31.445 59.688 31.0877 59.96C30.7304 60.2267 30.429 60.5893 30.1837 61.048C29.9384 61.5013 29.8157 61.9947 29.8157 62.528C29.8157 62.7733 29.9117 62.9733 30.1037 63.128C30.2957 63.2827 30.5384 63.36 30.8317 63.36C30.9277 63.36 31.053 63.328 31.2077 63.264C31.3624 63.2 31.5037 63.12 31.6317 63.024C31.765 62.928 31.853 62.8347 31.8957 62.744C31.9597 62.6107 32.0504 62.4613 32.1677 62.296C32.285 62.1307 32.4024 62.048 32.5197 62.048C32.7917 62.048 32.9757 62.1067 33.0717 62.224C33.173 62.3413 33.2264 62.4693 33.2317 62.608ZM37.0239 63.976C37.0025 64.0667 36.9545 64.128 36.8799 64.16C36.8052 64.1973 36.7065 64.216 36.5839 64.216C36.2159 64.216 36.0319 64.1333 36.0319 63.968L36.0799 63.664C35.9305 63.776 35.7545 63.888 35.5519 64C35.3492 64.112 35.1812 64.168 35.0479 64.168C34.2585 64.168 33.8639 63.9093 33.8639 63.392C33.8639 62.512 34.1279 61.5573 34.6559 60.528C34.7199 60.4053 34.7865 60.3173 34.8559 60.264C34.9305 60.2107 35.0559 60.184 35.2319 60.184C35.4185 60.184 35.5572 60.2107 35.6479 60.264C35.7439 60.312 35.7919 60.3707 35.7919 60.44C35.7919 60.456 35.7625 60.504 35.7039 60.584C35.6452 60.6533 35.5945 60.7227 35.5519 60.792C35.0505 61.6293 34.7999 62.4453 34.7999 63.24C34.7999 63.3093 34.8265 63.3707 34.8799 63.424C34.9332 63.4773 34.9812 63.504 35.0239 63.504C35.1412 63.504 35.3385 63.448 35.6159 63.336C35.8985 63.224 36.1145 63.1093 36.2639 62.992L36.4239 62.344C36.6159 61.5707 36.7359 61.096 36.7839 60.92C36.8425 60.7067 36.9172 60.5333 37.0079 60.4C37.1039 60.2613 37.2532 60.192 37.4559 60.192C37.7385 60.192 37.8799 60.2773 37.8799 60.448C37.8799 60.4747 37.8719 60.5093 37.8559 60.552C37.8452 60.5893 37.8372 60.6213 37.8319 60.648L37.5119 61.944C37.2559 62.9733 37.0932 63.6507 37.0239 63.976ZM40.0489 59.648C39.4463 62.1813 39.0916 63.6293 38.9849 63.992C38.9743 64.024 38.9183 64.064 38.8169 64.112C38.7209 64.1653 38.6543 64.192 38.6169 64.192C38.4676 64.192 38.3236 64.1547 38.1849 64.08C38.0463 64.0053 37.9716 63.8853 37.9609 63.72C37.9663 63.7093 37.9929 63.6533 38.0409 63.552C38.0889 63.4507 38.1369 63.3067 38.1849 63.12C38.3076 62.6613 38.4463 62.1173 38.6009 61.488C38.7609 60.8587 38.8676 60.4373 38.9209 60.224L39.2969 58.696C39.2916 58.6533 39.2889 58.432 39.2889 58.032C39.3049 57.9627 39.3636 57.9067 39.4649 57.864C39.5716 57.8213 39.6676 57.8 39.7529 57.8C39.8863 57.8 40.0223 57.8453 40.1609 57.936C40.3049 58.0267 40.3796 58.136 40.3849 58.264L40.0489 59.648ZM41.5782 63.104C41.5782 63.2267 41.5995 63.312 41.6422 63.36C41.6849 63.408 41.7649 63.432 41.8822 63.432C42.0369 63.432 42.1649 63.4 42.2662 63.336C42.3729 63.2667 42.5009 63.16 42.6502 63.016C42.6929 62.9733 42.7409 62.952 42.7942 62.952C42.8582 62.952 42.9089 63 42.9462 63.096C42.9835 63.1867 43.0022 63.28 43.0022 63.376C43.0022 63.5093 42.9489 63.64 42.8422 63.768C42.7355 63.896 42.5809 64 42.3782 64.08C42.1755 64.16 41.9382 64.2 41.6662 64.2C41.3035 64.2 41.0449 64.1173 40.8902 63.952C40.7409 63.7867 40.6662 63.5333 40.6662 63.192C40.6662 63.144 40.6902 63.0187 40.7382 62.816C40.7862 62.6133 40.8475 62.3707 40.9222 62.088L41.1462 61.176L40.6582 61.216C40.5942 61.216 40.5462 61.192 40.5142 61.144C40.4822 61.096 40.4662 61.0373 40.4662 60.968C40.4662 60.8347 40.5142 60.7013 40.6102 60.568C40.6209 60.552 40.6742 60.536 40.7702 60.52C40.8662 60.504 40.9835 60.488 41.1222 60.472L41.3382 60.448L41.5222 59.624C41.5755 59.4853 41.6555 59.3787 41.7622 59.304C41.8742 59.224 41.9782 59.184 42.0742 59.184C42.1809 59.184 42.2715 59.216 42.3462 59.28C42.4209 59.344 42.4609 59.4187 42.4662 59.504L42.2662 60.36C42.4742 60.3333 42.6662 60.312 42.8422 60.296C43.0235 60.2747 43.1649 60.264 43.2662 60.264C43.4689 60.264 43.5702 60.3813 43.5702 60.616C43.5702 60.7067 43.5302 60.7893 43.4502 60.864C43.3755 60.9333 43.2929 60.976 43.2022 60.992L42.0822 61.104L41.5782 63.104ZM47.0864 63.976C47.065 64.0667 47.017 64.128 46.9424 64.16C46.8677 64.1973 46.769 64.216 46.6464 64.216C46.2784 64.216 46.0944 64.1333 46.0944 63.968L46.1424 63.664C45.961 63.8347 45.7824 63.96 45.6064 64.04C45.4357 64.1253 45.241 64.168 45.0224 64.168C44.713 64.168 44.4517 64.0853 44.2384 63.92C44.0304 63.7493 43.9264 63.448 43.9264 63.016C43.9264 62.9093 43.9424 62.792 43.9744 62.664L44.5104 60.528C44.5424 60.4107 44.5984 60.3253 44.6784 60.272C44.7637 60.2133 44.8997 60.184 45.0864 60.184C45.3637 60.184 45.5024 60.2613 45.5024 60.416C45.5024 60.48 45.4837 60.5813 45.4464 60.72L44.9104 62.864C44.8944 62.928 44.8864 62.992 44.8864 63.056C44.8864 63.168 44.9157 63.2587 44.9744 63.328C45.033 63.3973 45.1264 63.432 45.2544 63.432C45.425 63.432 45.617 63.384 45.8304 63.288C46.0437 63.1867 46.2144 63.0693 46.3424 62.936L46.5504 62.128C46.769 61.264 46.897 60.7627 46.9344 60.624C46.9664 60.5067 46.9957 60.4213 47.0224 60.368C47.0544 60.3093 47.1077 60.2667 47.1824 60.24C47.257 60.208 47.369 60.192 47.5184 60.192C47.801 60.192 47.9424 60.2773 47.9424 60.448C47.9424 60.4747 47.9344 60.5093 47.9184 60.552C47.9077 60.5893 47.8997 60.6213 47.8944 60.648L47.5744 61.944C47.3184 62.9733 47.1557 63.6507 47.0864 63.976ZM49.1994 63.696C49.1941 63.7333 49.1834 63.7973 49.1674 63.888C49.1568 63.9787 49.1168 64.0427 49.0474 64.08C48.9834 64.1173 48.8741 64.136 48.7194 64.136C48.5434 64.136 48.4128 64.1173 48.3274 64.08C48.2421 64.0427 48.1968 63.9627 48.1914 63.84C48.2341 63.6267 48.3034 63.248 48.3994 62.704C48.4314 62.5227 48.4821 62.2507 48.5514 61.888C48.6208 61.52 48.6741 61.2533 48.7114 61.088C48.7648 60.7093 48.8394 60.4613 48.9354 60.344C49.0314 60.2213 49.1488 60.16 49.2874 60.16C49.4741 60.16 49.5968 60.1867 49.6554 60.24C49.7194 60.2933 49.7541 60.3627 49.7594 60.448L49.6954 60.92C49.8554 60.712 50.0448 60.5413 50.2634 60.408C50.4821 60.2693 50.6794 60.2 50.8554 60.2C51.0901 60.2 51.2741 60.2427 51.4074 60.328C51.5408 60.408 51.6074 60.512 51.6074 60.64C51.6074 60.736 51.5488 60.8107 51.4314 60.864C51.3194 60.9173 51.1701 60.952 50.9834 60.968C50.6901 60.9947 50.3994 61.12 50.1114 61.344C49.8234 61.568 49.6154 61.832 49.4874 62.136L49.1994 63.696ZM54.6647 63.864C54.6327 63.96 54.5474 64.024 54.4087 64.056C54.2754 64.0933 54.158 64.112 54.0567 64.112C53.966 64.112 53.9047 64.088 53.8727 64.04C53.8407 63.9973 53.814 63.9333 53.7927 63.848C53.7714 63.7573 53.7554 63.6933 53.7447 63.656C53.5207 63.8107 53.2887 63.928 53.0487 64.008C52.814 64.0933 52.6167 64.136 52.4567 64.136C52.2967 64.136 52.1314 64.0987 51.9607 64.024C51.7954 63.9547 51.6514 63.832 51.5287 63.656C51.406 63.4747 51.3447 63.2347 51.3447 62.936C51.3447 62.632 51.438 62.2667 51.6247 61.84C51.8167 61.408 52.0887 61.0347 52.4407 60.72C52.798 60.4 53.214 60.24 53.6887 60.24C53.9287 60.24 54.166 60.2987 54.4007 60.416C54.6354 60.528 54.8274 60.672 54.9767 60.848C55.126 61.0187 55.2034 61.192 55.2087 61.368L55.1047 61.648C54.9554 62.064 54.838 62.4187 54.7527 62.712C54.6674 63 54.6247 63.2587 54.6247 63.488C54.6247 63.6427 54.638 63.768 54.6647 63.864ZM53.7527 62.984C53.8007 62.8507 53.8594 62.6773 53.9287 62.464C54.046 62.0587 54.158 61.7173 54.2647 61.44C54.2434 61.3653 54.1954 61.288 54.1207 61.208C54.046 61.1227 53.9687 61.0533 53.8887 61C53.8087 60.9413 53.7527 60.912 53.7207 60.912C53.5234 60.912 53.3127 61.032 53.0887 61.272C52.8647 61.5067 52.6754 61.7867 52.5207 62.112C52.3714 62.4373 52.2967 62.72 52.2967 62.96C52.2967 63.0667 52.3287 63.168 52.3927 63.264C52.4567 63.3547 52.526 63.4 52.6007 63.4C52.7234 63.4 52.918 63.3547 53.1847 63.264C53.4567 63.168 53.646 63.0747 53.7527 62.984Z" fill="#CB5300"/>
</g>
<defs>
<filter id="filter0_dd_422_2617" x="0" y="0" width="84" height="84" filterUnits="userSpaceOnUse" color-interpolation-filters="sRGB">
<feFlood flood-opacity="0" result="BackgroundImageFix"/>
<feColorMatrix in="SourceAlpha" type="matrix" values="0 0 0 0 0 0 0 0 0 0 0 0 0 0 0 0 0 0 127 0" result="hardAlpha"/>
<feMorphology radius="2" operator="dilate" in="SourceAlpha" result="effect1_dropShadow_422_2617"/>
<feOffset dy="2"/>
<feGaussianBlur stdDeviation="3"/>
<feColorMatrix type="matrix" values="0 0 0 0 0 0 0 0 0 0 0 0 0 0 0 0 0 0 0.15 0"/>
<feBlend mode="normal" in2="BackgroundImageFix" result="effect1_dropShadow_422_2617"/>
<feColorMatrix in="SourceAlpha" type="matrix" values="0 0 0 0 0 0 0 0 0 0 0 0 0 0 0 0 0 0 127 0" result="hardAlpha"/>
<feOffset dy="1"/>
<feGaussianBlur stdDeviation="1"/>
<feColorMatrix type="matrix" values="0 0 0 0 0 0 0 0 0 0 0 0 0 0 0 0 0 0 0.3 0"/>
<feBlend mode="normal" in2="effect1_dropShadow_422_2617" result="effect2_dropShadow_422_2617"/>
<feBlend mode="normal" in="SourceGraphic" in2="effect2_dropShadow_422_2617" result="shape"/>
</filter>
</defs>
</svg>
