<svg width="84" height="84" viewBox="0 0 84 84" fill="none" xmlns="http://www.w3.org/2000/svg">
<g id="teatro" filter="url(#filter0_dd_425_1046)">
<rect x="8" y="6" width="68" height="68" rx="20" fill="#F9F8F6"/>
<g id="teatro_2">
<g id="symbolIcon">
<path id="Rectangle-112_2" fill-rule="evenodd" clip-rule="evenodd" d="M36.1946 26.5253C36.5771 25.5606 37.4163 24.9213 38.4534 24.967C39.696 25.0219 42.0507 25.3255 46.2832 26.4593C50.5153 27.5935 52.7065 28.5083 53.8099 29.0819C54.7311 29.5607 55.1384 30.534 54.987 31.5609C54.8118 32.7494 54.4722 34.6927 53.8731 36.9288C52.7115 41.2641 49.3307 44.7018 44.9444 45.6529C43.4446 45.9781 42.0238 46.1084 41.0857 45.857C40.1473 45.6055 38.9821 44.7822 37.8457 43.7509C34.5226 40.7341 33.3139 36.0664 34.4755 31.7311C35.0746 29.4953 35.7521 27.6423 36.1946 26.5253ZM43.5444 31.8625C43.5444 31.8625 42.8597 30.1551 40.7583 30.1551C38.6566 30.1551 37.9719 31.8625 37.9719 31.8625C37.8493 32.1566 37.9888 32.4951 38.2829 32.6177C38.5773 32.7405 38.9156 32.601 39.0384 32.3066C39.0384 32.3066 39.4797 31.3103 40.7583 31.3103C42.0366 31.3103 42.4782 32.3069 42.4782 32.3069C42.601 32.601 42.9392 32.7405 43.2337 32.6177C43.5278 32.4951 43.6672 32.1566 43.5444 31.8625ZM46.6544 33.4261C46.6544 33.4261 47.5351 32.7837 48.6424 33.423C49.7493 34.0623 49.6337 35.146 49.6337 35.146C49.5927 35.4623 49.8162 35.752 50.1322 35.793C50.4482 35.8341 50.7382 35.6106 50.7792 35.2943C50.7792 35.2943 51.0398 33.4735 49.2198 32.4228C47.3998 31.3718 45.9533 32.5082 45.9533 32.5082C45.6999 32.7017 45.6514 33.0643 45.8449 33.3177C46.0384 33.5711 46.401 33.6196 46.6544 33.4261ZM46.7714 38.585C46.1124 39.4172 45.0939 40.1527 44.1022 40.5328C43.5078 40.7607 42.9265 40.868 42.456 40.7418C41.9856 40.6157 41.5359 40.2323 41.1348 39.7377C40.4661 38.9127 39.9518 37.7666 39.7974 36.7162C39.7508 36.401 39.4573 36.1826 39.1421 36.2288C38.8266 36.2751 38.6081 36.569 38.6544 36.8842C38.8374 38.1287 39.4453 39.4877 40.2374 40.4652C40.8104 41.1718 41.4849 41.6775 42.1572 41.8577C42.8295 42.0379 43.6661 41.9372 44.5158 41.6115C45.6905 41.161 46.8964 40.2883 47.6771 39.3019C47.875 39.0521 47.8326 38.6884 47.5828 38.4907C47.3327 38.2928 46.9693 38.3349 46.7714 38.585Z" fill="#CB5300"/>
<path id="Rectangle-112_21" fill-rule="evenodd" clip-rule="evenodd" d="M33.0381 36.9923C33.0453 37.0381 33.0297 37.0843 32.9968 37.1168C32.9638 37.1492 32.9169 37.1636 32.8715 37.1556C32.7658 37.129 32.6646 37.078 32.5826 36.999C30.2455 34.7468 28.9157 31.5578 28.9118 28.205C28.909 25.8902 29.0817 23.9249 29.2187 22.7314C29.3371 21.7002 29.9816 20.8649 30.9949 20.6395C32.2089 20.3695 34.5617 20.0504 38.9433 20.0451C43.3249 20.0401 45.6785 20.3537 46.8931 20.6209C47.9069 20.8438 48.5531 21.6777 48.674 22.7087C48.763 23.4669 48.8669 24.5367 48.9315 25.8101C48.9315 25.8103 48.9315 25.8103 48.9315 25.8106C48.9337 25.8572 48.9132 25.9021 48.8766 25.9306C48.8398 25.9595 48.7915 25.9686 48.7469 25.9553C48.0901 25.759 47.3705 25.555 46.582 25.3438C42.2168 24.1739 39.7858 23.8697 38.5044 23.8132C36.9611 23.745 35.6897 24.6637 35.1209 26.1C34.6676 27.2439 33.9734 29.1421 33.3596 31.4322C32.8665 33.2736 32.7653 35.1687 33.0381 36.9923Z" fill="#CB5300"/>
</g>
</g>
<path id="textIcon" d="M32.883 58.52C32.8404 58.7067 32.7737 58.8507 32.683 58.952C32.5977 59.0533 32.4564 59.104 32.259 59.104C32.0937 59.104 31.971 59.0747 31.891 59.016C31.8164 58.9627 31.779 58.8693 31.779 58.736C31.779 58.6773 31.787 58.6213 31.803 58.568L32.779 54.696C32.7737 54.696 32.6004 54.7147 32.259 54.752C31.8484 54.784 31.5924 54.8107 31.491 54.832C31.3844 54.7947 31.3017 54.7387 31.243 54.664C31.1897 54.584 31.163 54.4907 31.163 54.384C31.163 54.2987 31.1924 54.2187 31.251 54.144C31.315 54.064 31.3897 54.0053 31.475 53.968C31.7417 53.9147 32.115 53.8693 32.595 53.832C33.075 53.7947 33.691 53.7547 34.443 53.712C34.827 53.696 35.0857 53.68 35.219 53.664C35.3044 53.7013 35.3764 53.76 35.435 53.84C35.499 53.9147 35.531 53.9947 35.531 54.08C35.531 54.176 35.483 54.2693 35.387 54.36C35.291 54.4507 35.1817 54.5147 35.059 54.552L33.659 54.624C33.7177 54.6453 33.747 54.7173 33.747 54.84C33.747 54.904 33.7417 54.952 33.731 54.984C33.6404 55.3893 33.515 55.9147 33.355 56.56C33.2004 57.2053 33.0964 57.6427 33.043 57.872C33.011 58.0053 32.9817 58.1253 32.955 58.232C32.9284 58.3387 32.9044 58.4347 32.883 58.52ZM36.0496 59.168C35.5269 59.168 35.1456 59.064 34.9056 58.856C34.6656 58.648 34.5456 58.3707 34.5456 58.024C34.5456 57.5173 34.6709 57.048 34.9216 56.616C35.1776 56.184 35.5163 55.8427 35.9376 55.592C36.3643 55.336 36.8229 55.208 37.3136 55.208C37.6123 55.208 37.8629 55.2933 38.0656 55.464C38.2683 55.6293 38.3696 55.8747 38.3696 56.2C38.3696 56.3867 38.3083 56.5413 38.1856 56.664C38.0683 56.7813 37.8976 56.888 37.6736 56.984C37.4496 57.0747 37.0869 57.2053 36.5856 57.376C36.1323 57.5253 35.7643 57.6507 35.4816 57.752C35.4603 57.832 35.4496 57.9147 35.4496 58C35.4496 58.1493 35.5109 58.264 35.6336 58.344C35.7616 58.424 35.9403 58.464 36.1696 58.464C36.3136 58.464 36.4789 58.4347 36.6656 58.376C36.8523 58.3173 36.9696 58.2427 37.0176 58.152C37.1989 57.8213 37.3643 57.656 37.5136 57.656C37.7323 57.656 37.8789 57.6987 37.9536 57.784C38.0336 57.864 38.0763 57.9547 38.0816 58.056C38.0176 58.2267 37.8923 58.4 37.7056 58.576C37.5189 58.7467 37.2816 58.888 36.9936 59C36.7056 59.112 36.3909 59.168 36.0496 59.168ZM35.7056 57.016C36.2336 56.8453 36.6683 56.688 37.0096 56.544C37.3509 56.3947 37.5216 56.248 37.5216 56.104C37.5216 56.04 37.4869 55.9893 37.4176 55.952C37.3483 55.9093 37.2736 55.888 37.1936 55.888C37.0336 55.888 36.8496 55.9493 36.6416 56.072C36.4389 56.1947 36.2496 56.344 36.0736 56.52C35.8976 56.696 35.7749 56.8613 35.7056 57.016ZM41.887 58.864C41.8496 58.96 41.7616 59.024 41.623 59.056C41.4896 59.0933 41.3723 59.112 41.271 59.112C41.175 59.112 41.111 59.088 41.079 59.04C41.0523 58.9973 41.0283 58.9307 41.007 58.84C40.9856 58.7493 40.9723 58.688 40.967 58.656C40.7376 58.8107 40.503 58.928 40.263 59.008C40.0283 59.0933 39.831 59.136 39.671 59.136C39.5323 59.136 39.375 59.0907 39.199 59C39.0283 58.9093 38.8816 58.7867 38.759 58.632C38.6363 58.4773 38.575 58.3067 38.575 58.12C38.575 57.8213 38.6736 57.44 38.871 56.976C39.0683 56.512 39.3456 56.1067 39.703 55.76C40.0656 55.4133 40.487 55.24 40.967 55.24C41.3883 55.24 41.7643 55.3067 42.095 55.44C42.4256 55.5733 42.591 55.7627 42.591 56.008C42.4416 56.2853 42.279 56.7013 42.103 57.256C41.9323 57.8107 41.847 58.2213 41.847 58.488C41.847 58.664 41.8603 58.7893 41.887 58.864ZM40.983 57.984C41.0256 57.7493 41.0976 57.472 41.199 57.152C41.3056 56.8267 41.447 56.5013 41.623 56.176C41.5963 56.0693 41.511 56 41.367 55.968C41.2283 55.9307 41.103 55.912 40.991 55.912C40.7936 55.912 40.5803 56.0453 40.351 56.312C40.1216 56.5787 39.9243 56.8907 39.759 57.248C39.599 57.6 39.519 57.8853 39.519 58.104C39.519 58.2107 39.5483 58.288 39.607 58.336C39.6656 58.3787 39.7403 58.4 39.831 58.4C39.9536 58.4 40.1483 58.3547 40.415 58.264C40.687 58.168 40.8763 58.0747 40.983 57.984ZM43.8946 58.12C43.8946 58.2427 43.9266 58.3413 43.9906 58.416C44.0546 58.4853 44.1453 58.52 44.2626 58.52C44.4226 58.52 44.5533 58.4747 44.6546 58.384C44.7613 58.288 44.8733 58.1547 44.9906 57.984C45.0759 57.8613 45.1453 57.7733 45.1986 57.72C45.2519 57.6667 45.3133 57.64 45.3826 57.64C45.5213 57.64 45.6199 57.6587 45.6786 57.696C45.7373 57.728 45.7666 57.7973 45.7666 57.904C45.7666 57.952 45.7613 58.0107 45.7506 58.08C45.7399 58.144 45.7266 58.192 45.7106 58.224C45.5826 58.496 45.3719 58.7307 45.0786 58.928C44.7906 59.1253 44.4626 59.224 44.0946 59.224C43.7266 59.224 43.4493 59.136 43.2626 58.96C43.0759 58.7787 42.9826 58.5227 42.9826 58.192C42.9826 58.144 43.0066 58.0187 43.0546 57.816C43.1026 57.6133 43.1639 57.3707 43.2386 57.088L43.4626 56.176L42.9746 56.216C42.9106 56.216 42.8626 56.192 42.8306 56.144C42.7986 56.096 42.7826 56.0373 42.7826 55.968C42.7826 55.8347 42.8306 55.7013 42.9266 55.568C42.9373 55.552 42.9906 55.536 43.0866 55.52C43.1826 55.504 43.2999 55.488 43.4386 55.472L43.6546 55.448L43.9266 54.28C43.9799 54.1413 44.0599 54.0347 44.1666 53.96C44.2786 53.88 44.3826 53.84 44.4786 53.84C44.5853 53.84 44.6759 53.872 44.7506 53.936C44.8253 54 44.8653 54.0747 44.8706 54.16L44.5826 55.36C44.7906 55.3333 44.9826 55.312 45.1586 55.296C45.3399 55.2747 45.4813 55.264 45.5826 55.264C45.7853 55.264 45.8866 55.3813 45.8866 55.616C45.8866 55.7067 45.8466 55.7893 45.7666 55.864C45.6919 55.9333 45.6093 55.976 45.5186 55.992L44.3986 56.104L43.8946 58.12ZM47.1388 58.696C47.1334 58.728 47.1201 58.792 47.0988 58.888C47.0828 58.9787 47.0374 59.0427 46.9628 59.08C46.8934 59.1173 46.7814 59.136 46.6268 59.136C46.4508 59.136 46.3228 59.1173 46.2428 59.08C46.1628 59.0427 46.1228 58.9627 46.1228 58.84C46.1388 58.776 46.2534 58.32 46.4668 57.472C46.6214 56.816 46.7361 56.3547 46.8108 56.088C46.8908 55.7093 46.9841 55.4613 47.0908 55.344C47.1974 55.2213 47.3201 55.16 47.4588 55.16C47.6454 55.16 47.7654 55.1867 47.8188 55.24C47.8774 55.2933 47.9068 55.3627 47.9068 55.448L47.8108 55.92C47.9814 55.712 48.1788 55.5413 48.4028 55.408C48.6321 55.2693 48.8348 55.2 49.0108 55.2C49.2401 55.2 49.4188 55.24 49.5468 55.32C49.6748 55.4 49.7388 55.504 49.7388 55.632C49.7388 55.728 49.6774 55.8053 49.5548 55.864C49.4374 55.9173 49.2828 55.952 49.0908 55.968C48.8028 55.9947 48.5068 56.12 48.2028 56.344C47.9041 56.568 47.6801 56.832 47.5308 57.136L47.1388 58.696ZM51.052 59.08C50.7374 59.08 50.4654 59.0053 50.236 58.856C50.0067 58.7067 49.8307 58.504 49.708 58.248C49.5907 57.992 49.532 57.7013 49.532 57.376C49.532 56.9493 49.6147 56.5653 49.78 56.224C49.9507 55.8773 50.1907 55.6053 50.5 55.408C50.8094 55.2107 51.1694 55.112 51.58 55.112C52.0334 55.112 52.34 55.152 52.5 55.232C52.5427 55.2533 52.5827 55.288 52.62 55.336C52.6627 55.3787 52.6867 55.4213 52.692 55.464C52.6814 55.608 52.6334 55.7093 52.548 55.768C52.6707 55.7787 52.772 55.84 52.852 55.952C52.9374 56.064 53.0014 56.1947 53.044 56.344C53.0867 56.488 53.108 56.6187 53.108 56.736C53.108 57.1147 53.0254 57.4853 52.86 57.848C52.6947 58.2053 52.4547 58.5013 52.14 58.736C51.8307 58.9653 51.468 59.08 51.052 59.08ZM51.164 58.416C51.3347 58.416 51.4974 58.3333 51.652 58.168C51.812 58.0027 51.94 57.784 52.036 57.512C52.1374 57.2347 52.188 56.9387 52.188 56.624C52.188 56.5653 52.1694 56.512 52.132 56.464C52.0947 56.416 52.0414 56.3653 51.972 56.312C51.9614 56.3067 51.9347 56.2853 51.892 56.248C51.8547 56.2107 51.836 56.176 51.836 56.144C51.836 56.1227 51.8414 56.0933 51.852 56.056C51.8627 56.0133 51.868 55.984 51.868 55.968C51.868 55.8933 51.7747 55.856 51.588 55.856C51.3694 55.856 51.1747 55.944 51.004 56.12C50.8387 56.2907 50.708 56.512 50.612 56.784C50.5214 57.0507 50.476 57.32 50.476 57.592C50.476 57.7467 50.5107 57.888 50.58 58.016C50.6547 58.1387 50.7454 58.2373 50.852 58.312C50.9587 58.3813 51.0627 58.416 51.164 58.416Z" fill="#CB5300"/>
</g>
<defs>
<filter id="filter0_dd_425_1046" x="0" y="0" width="84" height="84" filterUnits="userSpaceOnUse" color-interpolation-filters="sRGB">
<feFlood flood-opacity="0" result="BackgroundImageFix"/>
<feColorMatrix in="SourceAlpha" type="matrix" values="0 0 0 0 0 0 0 0 0 0 0 0 0 0 0 0 0 0 127 0" result="hardAlpha"/>
<feMorphology radius="2" operator="dilate" in="SourceAlpha" result="effect1_dropShadow_425_1046"/>
<feOffset dy="2"/>
<feGaussianBlur stdDeviation="3"/>
<feColorMatrix type="matrix" values="0 0 0 0 0 0 0 0 0 0 0 0 0 0 0 0 0 0 0.15 0"/>
<feBlend mode="normal" in2="BackgroundImageFix" result="effect1_dropShadow_425_1046"/>
<feColorMatrix in="SourceAlpha" type="matrix" values="0 0 0 0 0 0 0 0 0 0 0 0 0 0 0 0 0 0 127 0" result="hardAlpha"/>
<feOffset dy="1"/>
<feGaussianBlur stdDeviation="1"/>
<feColorMatrix type="matrix" values="0 0 0 0 0 0 0 0 0 0 0 0 0 0 0 0 0 0 0.3 0"/>
<feBlend mode="normal" in2="effect1_dropShadow_425_1046" result="effect2_dropShadow_425_1046"/>
<feBlend mode="normal" in="SourceGraphic" in2="effect2_dropShadow_425_1046" result="shape"/>
</filter>
</defs>
</svg>
